<svg width="34" height="34" viewBox="0 0 34 34" fill="none" xmlns="http://www.w3.org/2000/svg">
<path d="M28.6875 0H5.3125C2.3715 0 0 2.38 0 5.3125V28.6875C0 31.62 2.38 34 5.3125 34H28.6875C31.62 34 34 31.62 34 28.6875V5.3125C34 2.38 31.62 0 28.6875 0ZM18.1645 25.5V19.448H20.1875L20.6125 17H18.275V15.402C18.275 14.7645 18.598 14.127 19.652 14.127H20.7145V12.002C20.7145 12.002 19.7625 11.7895 18.802 11.7895C16.8895 11.7895 15.6145 12.9625 15.6145 15.0875V17H13.4895V19.448H15.6145V25.398C11.577 24.7605 8.4915 21.25 8.4915 17C8.4915 12.325 12.3165 8.5 16.9915 8.5C21.6665 8.5 25.4915 12.325 25.4915 17C25.4915 21.25 22.4145 24.8625 18.1645 25.5Z" fill="black"/>
</svg>
