<svg width="34" height="34" viewBox="0 0 34 34" fill="none" xmlns="http://www.w3.org/2000/svg">
<path d="M26.3264 0H7.65657C3.43313 0 0 3.434 0 7.667V26.333C0 30.566 3.43313 34 7.66508 34H26.3349C30.5669 34 34 30.566 34 26.333V7.667C33.9915 3.434 30.5584 0 26.3264 0ZM25.893 21.0545C23.5136 23.7915 18.2025 27.132 16.9873 27.6335C15.7806 28.1435 15.959 27.3105 16.0015 27.0215C16.027 26.8515 16.163 26.0525 16.163 26.0525C16.197 25.7635 16.2394 25.313 16.129 25.024C16.0015 24.7095 15.5001 24.548 15.1262 24.463C9.68757 23.7405 5.65108 19.9325 5.65108 15.385C5.65108 10.3105 10.7328 6.188 16.9873 6.188C23.2417 6.188 28.3234 10.3105 28.3234 15.385C28.3234 17.4165 27.5331 19.244 25.893 21.046V21.0545Z" fill="black"/>
<path d="M24.5593 12.9531H21.3726C21.3131 12.9531 21.2621 12.9786 21.2196 13.0126C21.1772 13.0551 21.1602 13.1061 21.1602 13.1656V18.1126C21.1602 18.1721 21.1857 18.2231 21.2196 18.2656C21.2621 18.3081 21.3131 18.3251 21.3726 18.3251H24.5593C24.5593 18.3251 24.6188 18.3251 24.6443 18.3081C24.6698 18.2996 24.6953 18.2826 24.7123 18.2571C24.7293 18.2401 24.7463 18.2146 24.7548 18.1891C24.7633 18.1636 24.7718 18.1381 24.7718 18.1041V17.2966C24.7718 17.2371 24.7463 17.1861 24.7123 17.1436C24.6698 17.1011 24.6188 17.0841 24.5593 17.0841H22.3924V16.2511H24.5593C24.6188 16.2511 24.6698 16.2256 24.7123 16.1916C24.7548 16.1576 24.7718 16.0981 24.7718 16.0386V15.2311C24.7718 15.1716 24.7463 15.1206 24.7123 15.0781C24.6698 15.0356 24.6188 15.0186 24.5593 15.0186H22.3924V14.1856H24.5593C24.6188 14.1856 24.6698 14.1601 24.7123 14.1261C24.7548 14.0836 24.7718 14.0326 24.7718 13.9731V13.1656C24.7718 13.1061 24.7463 13.0551 24.7123 13.0126C24.6783 12.9701 24.6188 12.9531 24.5593 12.9531Z" fill="black"/>
<path d="M12.782 17.1024H10.615V13.1754C10.615 13.1159 10.5895 13.0649 10.5555 13.0224C10.513 12.9799 10.4621 12.9629 10.4026 12.9629H9.59526C9.53577 12.9629 9.48479 12.9884 9.4423 13.0224C9.39981 13.0649 9.38281 13.1159 9.38281 13.1754V18.1224C9.38281 18.1819 9.40831 18.2329 9.4423 18.2754C9.48479 18.3179 9.53577 18.3349 9.59526 18.3349H12.782C12.8414 18.3349 12.8925 18.3179 12.9349 18.2754C12.9774 18.2329 12.9944 18.1819 12.9944 18.1224V17.3234C12.9944 17.2639 12.9689 17.2129 12.9349 17.1704C12.8925 17.1279 12.8414 17.1109 12.782 17.1109V17.1024Z" fill="black"/>
<path d="M14.6916 12.9453H13.8928C13.7708 12.9453 13.6719 13.0443 13.6719 13.1663V18.1048C13.6719 18.2269 13.7708 18.3258 13.8928 18.3258H14.6916C14.8136 18.3258 14.9126 18.2269 14.9126 18.1048V13.1663C14.9126 13.0443 14.8136 12.9453 14.6916 12.9453Z" fill="black"/>
<path d="M20.3175 13.0133C20.3175 13.0133 20.275 12.9793 20.2495 12.9623C20.224 12.9538 20.1985 12.9453 20.1645 12.9453H19.3572C19.2977 12.9453 19.2468 12.9708 19.2043 13.0048C19.1618 13.0473 19.1448 13.0983 19.1448 13.1578V16.0988L16.8843 13.0388C16.8843 13.0388 16.8759 13.0218 16.8674 13.0133H16.8589V12.9878H16.8249V12.9708H15.9156C15.8561 12.9708 15.8051 12.9963 15.7626 13.0303C15.7201 13.0728 15.7031 13.1238 15.7031 13.1833V18.1303C15.7031 18.1898 15.7286 18.2408 15.7626 18.2833C15.8051 18.3258 15.8561 18.3428 15.9156 18.3428H16.7229C16.7824 18.3428 16.8333 18.3173 16.8758 18.2833C16.9183 18.2493 16.9353 18.1898 16.9353 18.1303V15.1638L19.2043 18.2238C19.2043 18.2238 19.2382 18.2663 19.2637 18.2833H19.2808V18.3003H19.3232C19.3232 18.3003 19.3572 18.3003 19.3827 18.3003H20.1815C20.241 18.3003 20.292 18.2748 20.3345 18.2408C20.377 18.1983 20.394 18.1473 20.394 18.0878V13.1578C20.394 13.1578 20.394 13.0983 20.377 13.0728C20.3685 13.0473 20.3515 13.0218 20.3345 13.0048L20.3175 13.0133Z" fill="black"/>
</svg>
