<svg width="34" height="34" viewBox="0 0 34 34" fill="none" xmlns="http://www.w3.org/2000/svg">
<path d="M28.6875 0H5.3125C2.3715 0 0 2.38 0 5.3125V28.6875C0 31.62 2.38 34 5.3125 34H28.6875C31.62 34 34 31.62 34 28.6875V5.3125C34 2.38 31.62 0 28.6875 0ZM12.325 25.5H8.7125V14.127H12.325V25.5ZM10.523 12.5375C9.35 12.5375 8.5 11.6875 8.5 10.5145C8.5 9.3415 9.452 8.4915 10.523 8.4915C11.696 8.4915 12.546 9.3415 12.546 10.5145C12.546 11.6875 11.696 12.5375 10.523 12.5375ZM21.896 25.5V19.3375C21.896 17.5355 21.148 17 20.094 17C19.04 17 17.969 17.85 17.969 19.448V25.5H14.3565V14.127H17.7565V15.725C18.0795 14.977 19.3545 13.8125 21.1565 13.8125C23.1795 13.8125 25.3045 14.9855 25.3045 18.4875V25.5H21.9045H21.896Z" fill="black"/>
</svg>
