<svg width="34" height="34" viewBox="0 0 34 34" fill="none" xmlns="http://www.w3.org/2000/svg">
<path d="M29.002 0H4.998C2.2355 0 0 2.2355 0 4.998V29.002C0 31.7645 2.2355 34 4.998 34H29.002C31.7645 34 34 31.7645 34 29.002V4.998C34 2.2355 31.7645 0 29.002 0ZM16.983 24.3015C15.9715 24.3015 14.9685 24.123 14.025 23.7575L12.172 24.9135C12.121 24.9475 12.0615 24.9645 11.9935 24.9645C11.8065 24.9645 11.662 24.8115 11.662 24.633V22.3465C9.9875 20.927 9.01 18.8445 9.0015 16.6515C9.1035 12.3335 12.6735 8.9165 16.983 9.0015C21.301 8.9165 24.871 12.342 24.9645 16.6515C24.8625 20.9695 21.2925 24.3865 16.983 24.3015Z" fill="black"/>
<path d="M22.2441 14.45C22.1421 14.314 21.9636 14.28 21.8191 14.3565L18.3596 16.2435L16.2091 14.399C16.0731 14.2885 15.8776 14.297 15.7586 14.416L11.7636 18.411C11.6361 18.5385 11.6361 18.751 11.7636 18.8785C11.8656 18.9805 12.0271 19.006 12.1546 18.938L15.6141 17.051L17.7646 18.8955C17.9006 19.006 18.0961 18.9975 18.2151 18.8785L22.2101 14.8835C22.3291 14.7645 22.3376 14.5775 22.2356 14.45H22.2441Z" fill="black"/>
</svg>
