<svg width="34" height="34" viewBox="0 0 34 34" fill="none" xmlns="http://www.w3.org/2000/svg">
<path d="M28.6875 0H5.3125C2.38 0 0 2.38 0 5.3125V28.6875C0 31.62 2.38 34 5.3125 34H28.6875C31.62 34 34 31.62 34 28.6875V5.3125C34 2.38 31.62 0 28.6875 0ZM25.1855 21.1735C25.1855 22.899 23.783 24.3015 22.0575 24.3015H11.475C9.7495 24.3015 8.34701 22.899 8.34701 21.1735V11.7215C8.34701 9.996 9.7495 8.5935 11.475 8.5935H22.0575C23.783 8.5935 25.1855 9.996 25.1855 11.7215V21.1735Z" fill="black"/>
<path d="M8.5 12.5719C8.5 10.6941 10.0222 9.17188 11.8999 9.17188H22.0997C23.9774 9.17188 25.4996 10.6941 25.4996 12.5719V21.0719C25.4996 22.9496 23.9774 24.4719 22.0997 24.4719H11.8999C10.0222 24.4719 8.5 22.9496 8.5 21.0719V12.5719Z" fill="black"/>
<path d="M11.8999 13.4219L15.1139 15.5646C16.2559 16.3259 17.7437 16.3259 18.8857 15.5646L22.0997 13.4219M11.8999 24.4719H22.0997C23.9774 24.4719 25.4996 22.9496 25.4996 21.0719V12.5719C25.4996 10.6941 23.9774 9.17188 22.0997 9.17188H11.8999C10.0222 9.17188 8.5 10.6941 8.5 12.5719V21.0719C8.5 22.9496 10.0222 24.4719 11.8999 24.4719Z" stroke="white" stroke-width="1.49998" stroke-linecap="round" stroke-linejoin="round"/>
</svg>
