<svg width="34" height="34" viewBox="0 0 34 34" fill="none" xmlns="http://www.w3.org/2000/svg">
<path d="M28.6875 0H5.3125C2.38 0 0 2.38 0 5.3125V28.6875C0 31.62 2.38 34 5.3125 34H28.6875C31.62 34 34 31.62 34 28.6875V5.3125C34 2.38 31.62 0 28.6875 0ZM17 22.5335H16.864C16.201 24.3355 13.209 25.5 11.3305 25.5C12.8775 23.9105 12.988 22.1935 11.866 21.1225C9.81749 19.839 8.49149 17.8075 8.49149 15.521C8.49149 11.645 12.2995 8.5 16.9915 8.5C21.6835 8.5 25.4915 11.645 25.4915 15.521C25.4915 19.397 21.6835 22.542 16.9915 22.542L17 22.5335Z" fill="black"/>
<path d="M17.3399 16.2951L16.2179 13.8301H15.6484V16.9751H16.1754V14.8161L17.1529 16.9751H17.5184L18.4959 14.8161V16.9751H19.0229V13.8301H18.4619L17.3399 16.2951Z" fill="black"/>
<path d="M14.5518 15.3334C14.4158 15.2739 14.2458 15.2229 14.0333 15.1634C13.8718 15.1209 13.7443 15.0784 13.6593 15.0444C13.5658 15.0104 13.4893 14.9594 13.4298 14.8999C13.3703 14.8404 13.3448 14.7554 13.3448 14.6619C13.3448 14.5174 13.3958 14.4154 13.4893 14.3389C13.5828 14.2624 13.7103 14.2284 13.8548 14.2284C14.0248 14.2284 14.1523 14.2709 14.2543 14.3474C14.3563 14.4324 14.4073 14.5259 14.4243 14.6449H15.0023C14.9768 14.3814 14.8663 14.1689 14.6708 14.0244C14.4753 13.8714 14.2203 13.7949 13.9143 13.7949C13.6933 13.7949 13.5063 13.8289 13.3363 13.9054C13.1663 13.9819 13.0388 14.0839 12.9453 14.2199C12.8518 14.3559 12.8093 14.5174 12.8093 14.6959C12.8093 14.8914 12.8518 15.0529 12.9453 15.1634C13.0388 15.2824 13.1493 15.3674 13.2768 15.4269C13.4043 15.4779 13.5828 15.5374 13.7868 15.5884C13.9568 15.6309 14.0843 15.6734 14.1778 15.7074C14.2713 15.7414 14.3478 15.7924 14.4158 15.8604C14.4838 15.9284 14.5093 16.0134 14.5093 16.1154C14.5093 16.2514 14.4583 16.3619 14.3563 16.4469C14.2543 16.5319 14.1098 16.5744 13.9313 16.5744C13.7528 16.5744 13.6168 16.5319 13.5233 16.4469C13.4298 16.3619 13.3788 16.2514 13.3618 16.1154H12.8008C12.8008 16.2939 12.8518 16.4554 12.9453 16.5914C13.0473 16.7274 13.1748 16.8294 13.3533 16.9059C13.5233 16.9824 13.7188 17.0164 13.9313 17.0164C14.1608 17.0164 14.3563 16.9739 14.5178 16.8889C14.6878 16.8039 14.8153 16.6849 14.9003 16.5489C14.9853 16.4044 15.0363 16.2599 15.0363 16.0984C15.0363 15.9029 14.9853 15.7414 14.8918 15.6224C14.7983 15.5034 14.6878 15.4099 14.5518 15.3589V15.3334Z" fill="black"/>
<path d="M21.3852 15.3334C21.2577 15.2739 21.0792 15.2229 20.8667 15.1634C20.7052 15.1209 20.5777 15.0784 20.4842 15.0444C20.3907 15.0104 20.3142 14.9594 20.2547 14.8999C20.1952 14.8404 20.1697 14.7554 20.1697 14.6619C20.1697 14.5174 20.2207 14.4154 20.3142 14.3389C20.4077 14.2624 20.5352 14.2284 20.6797 14.2284C20.8497 14.2284 20.9772 14.2709 21.0792 14.3474C21.1812 14.4324 21.2322 14.5259 21.2492 14.6449H21.8272C21.8102 14.3814 21.6997 14.1689 21.4957 14.0244C21.3002 13.8714 21.0452 13.7949 20.7392 13.7949C20.5182 13.7949 20.3312 13.8289 20.1612 13.9054C19.9912 13.9819 19.8637 14.0839 19.7702 14.2199C19.6767 14.3559 19.6342 14.5174 19.6342 14.6959C19.6342 14.8914 19.6767 15.0529 19.7702 15.1634C19.8637 15.2824 19.9742 15.3674 20.1017 15.4269C20.2377 15.4779 20.4077 15.5374 20.6117 15.5884C20.7732 15.6309 20.9092 15.6734 20.9942 15.7074C21.0877 15.7414 21.1727 15.7924 21.2322 15.8604C21.3002 15.9284 21.3257 16.0134 21.3257 16.1154C21.3257 16.2514 21.2747 16.3619 21.1727 16.4469C21.0707 16.5319 20.9262 16.5744 20.7477 16.5744C20.5692 16.5744 20.4332 16.5319 20.3397 16.4469C20.2462 16.3619 20.1867 16.2514 20.1782 16.1154H19.6172C19.6172 16.2939 19.6682 16.4554 19.7617 16.5914C19.8637 16.7274 19.9997 16.8294 20.1697 16.9059C20.3397 16.9824 20.5352 17.0164 20.7477 17.0164C20.9772 17.0164 21.1727 16.9739 21.3342 16.8889C21.5042 16.8039 21.6317 16.6849 21.7167 16.5489C21.8102 16.4044 21.8527 16.2599 21.8527 16.0984C21.8527 15.9029 21.8017 15.7414 21.7082 15.6224C21.6147 15.5034 21.5042 15.4099 21.3682 15.3589L21.3852 15.3334Z" fill="black"/>
</svg>
