<svg width="34" height="34" viewBox="0 0 34 34" fill="none" xmlns="http://www.w3.org/2000/svg">
<path d="M29.1562 0H4.84379C2.16696 0 0 2.16696 0 4.84379V29.1562C0 31.833 2.16696 34 4.84379 34H29.1562C31.833 34 34 31.833 34 29.1562V4.84379C34 2.16696 31.833 0 29.1562 0ZM24.2189 16.0695C23.7346 19.1032 23.2077 22.4174 23.2077 22.4174C23.2077 22.4174 23.1227 23.3437 22.4429 23.5136C21.7546 23.6751 20.6243 22.9443 20.4204 22.7828C20.2589 22.6638 17.3867 20.8453 16.3329 19.953C16.0525 19.7066 15.7296 19.2222 16.3754 18.6613C17.8285 17.3272 19.5706 15.6701 20.6243 14.6163C21.1087 14.132 21.5931 13.0017 19.5706 14.3699C16.6983 16.3499 13.8685 18.2109 13.8685 18.2109C13.8685 18.2109 13.2227 18.6188 12.0075 18.2534C10.7923 17.888 9.38165 17.4037 9.38165 17.4037C9.38165 17.4037 8.4129 16.8003 10.07 16.146C10.07 16.146 17.0722 13.2737 19.4941 12.2624C20.4204 11.8545 23.5816 10.5629 23.5816 10.5629C23.5816 10.5629 25.0347 9.9935 24.9158 11.3702C24.8733 11.9395 24.5504 13.9195 24.2274 16.061L24.2189 16.0695Z" fill="black"/>
</svg>
