<svg width="34" height="34" viewBox="0 0 34 34" fill="none" xmlns="http://www.w3.org/2000/svg">
<path d="M28.6875 0H5.3125C2.3715 0 0 2.38 0 5.3125V28.6875C0 31.62 2.38 34 5.3125 34H28.6875C31.62 34 34 31.62 34 28.6875V5.3125C34 2.38 31.62 0 28.6875 0ZM23.6895 13.498C23.902 18.496 20.2895 23.9105 13.8125 23.9105C11.9 23.9105 10.0895 23.273 8.5 22.3125C10.302 22.525 12.223 21.9895 13.498 21.0375C11.9 21.0375 10.625 19.975 10.2 18.5895C10.727 18.6915 11.2625 18.5895 11.798 18.4875C10.2 18.0625 9.0355 16.575 9.0355 14.9855C9.5625 15.198 10.098 15.4105 10.6335 15.4105C9.146 14.348 8.6105 12.3335 9.571 10.7355C11.373 12.8605 13.923 14.2375 16.796 14.348C16.269 12.223 17.969 10.098 20.196 10.098C21.148 10.098 22.1085 10.523 22.746 11.1605C23.596 10.948 24.344 10.7355 24.973 10.3105C24.7605 11.1605 24.225 11.798 23.4855 12.223C24.2335 12.121 24.8625 12.0105 25.5085 11.696C25.0835 12.444 24.446 13.073 23.7065 13.498H23.6895Z" fill="black"/>
</svg>
