<svg width="34" height="34" viewBox="0 0 34 34" fill="none" xmlns="http://www.w3.org/2000/svg">
<path fill-rule="evenodd" clip-rule="evenodd" d="M26.9177 34H7.08227C3.1713 34 1.70557e-05 30.8295 1.70557e-05 26.9195V7.0805C-0.00848507 3.1705 3.16279 0 7.07376 0H26.9092C30.8287 0 34 3.1705 34 7.0805V26.9195C34 30.8295 30.8287 34 26.9177 34ZM25.974 24.106C27.4109 23.0605 28.3376 21.522 28.3376 19.805C28.3376 16.66 25.2768 14.1185 21.5104 14.1185C17.7439 14.1185 14.6832 16.6685 14.6832 19.805C14.6832 22.9415 17.7354 25.4915 21.5104 25.4915C22.2926 25.4915 23.0408 25.381 23.7379 25.177L23.942 25.1515C24.0695 25.1515 24.1971 25.194 24.3076 25.2535L25.8039 26.1205L25.94 26.163C26.0675 26.163 26.1696 26.061 26.1696 25.9335L26.1355 25.772L25.8294 24.6245L25.8039 24.48C25.8039 24.327 25.8805 24.191 25.9995 24.106H25.974ZM13.8585 7.837C9.33534 7.837 5.66243 10.897 5.66243 14.6625C5.66243 16.7195 6.7677 18.5725 8.49363 19.822C8.62966 19.924 8.72318 20.0855 8.72318 20.264L8.69767 20.434L8.33209 21.811L8.28959 22.015C8.28959 22.168 8.4086 22.287 8.56164 22.287L8.71469 22.236L10.5086 21.199C10.6447 21.1225 10.7892 21.0715 10.9422 21.0715L11.1803 21.1055C12.0135 21.3435 12.9232 21.4795 13.8585 21.4795H14.3091C14.1305 20.9355 14.037 20.3745 14.037 19.7965C14.037 16.354 17.3783 13.566 21.5104 13.566H21.9525C21.3318 10.319 17.948 7.82 13.8585 7.82V7.837ZM19.2318 18.8955C18.7302 18.8955 18.3221 18.4875 18.3221 17.986C18.3221 17.4845 18.7302 17.0765 19.2318 17.0765C19.7334 17.0765 20.1416 17.4845 20.1416 17.986C20.1416 18.4875 19.7334 18.8955 19.2318 18.8955ZM23.7805 18.8955C23.2788 18.8955 22.8707 18.4875 22.8707 17.986C22.8707 17.4845 23.2788 17.0765 23.7805 17.0765C24.2821 17.0765 24.6902 17.4845 24.6902 17.986C24.6902 18.4875 24.2821 18.8955 23.7805 18.8955ZM11.1208 13.5745C10.5171 13.5745 10.0325 13.09 10.0325 12.4865C10.0325 11.883 10.5256 11.3985 11.1208 11.3985C11.7159 11.3985 12.2176 11.883 12.2176 12.4865C12.2176 13.09 11.7244 13.5745 11.1208 13.5745ZM16.5876 13.5745C15.984 13.5745 15.4994 13.09 15.4994 12.4865C15.4994 11.883 15.9925 11.3985 16.5876 11.3985C17.1828 11.3985 17.6844 11.883 17.6844 12.4865C17.6844 13.09 17.1913 13.5745 16.5876 13.5745Z" fill="black"/>
</svg>
