<svg width="34" height="34" viewBox="0 0 34 34" fill="none" xmlns="http://www.w3.org/2000/svg">
<path d="M28.6875 0H5.3125C2.38 0 0 2.38 0 5.3125V28.6875C0 31.62 2.38 34 5.3125 34H28.6875C31.62 34 34 31.62 34 28.6875V5.3125C34 2.38 31.62 0 28.6875 0ZM17 24.973C15.708 24.973 14.3905 24.5735 13.1495 23.953L13.005 23.885L12.852 23.9275L9.10349 24.9135L10.0725 21.3775L10.1235 21.2075L10.03 21.0545C9.3245 19.839 8.91649 18.428 8.91649 17.017C8.91649 12.58 12.5545 8.942 16.9915 8.942C19.1165 8.942 21.131 9.7495 22.644 11.2625C24.1655 12.784 25.0665 14.807 25.0665 16.915C25.0665 21.352 21.4285 24.99 16.9915 24.99L17 24.973Z" fill="black"/>
<path d="M22.0183 20.0428C21.8266 20.5758 21.0788 21.0168 20.4805 21.1472C20.074 21.2316 19.5371 21.3006 17.7423 20.5567C15.4414 19.6056 13.9611 17.2701 13.846 17.1167C13.7348 16.9671 12.918 15.878 12.918 14.7582C12.918 13.6345 13.4855 13.0862 13.7156 12.8522C13.9074 12.6605 14.218 12.5723 14.5171 12.5723C14.613 12.5723 14.7012 12.5761 14.7779 12.5799C15.008 12.5914 15.1231 12.6029 15.2765 12.9673C15.4644 13.4236 15.9246 14.5434 15.9783 14.6585C16.0358 14.7774 16.0895 14.9308 16.0128 15.0842C15.9399 15.2414 15.8747 15.3104 15.7597 15.4408C15.6446 15.575 15.5334 15.6786 15.4184 15.8205C15.3148 15.9432 15.1921 16.0774 15.3263 16.3075C15.4605 16.5338 15.9207 17.2816 16.5957 17.8837C17.4701 18.6622 18.1757 18.9115 18.4288 19.015C18.6206 19.0955 18.843 19.0764 18.981 18.9306C19.1574 18.7389 19.3722 18.4283 19.5946 18.1176C19.748 17.899 19.9475 17.8722 20.1545 17.9489C20.3655 18.0217 21.4853 18.574 21.7115 18.689C21.9416 18.8041 22.095 18.8578 22.1487 18.9575C22.2062 19.0533 22.2062 19.5097 22.0183 20.0428Z" fill="black"/>
</svg>
