<svg width="10" height="8" viewBox="0 0 10 8" fill="none" xmlns="http://www.w3.org/2000/svg">
<path d="M4.58793 7.7845C4.6338 7.85112 4.69518 7.90559 4.76678 7.94322C4.83837 7.98086 4.91805 8.00052 4.99893 8.00052C5.07982 8.00052 5.15949 7.98086 5.23109 7.94322C5.30268 7.90559 5.36406 7.85112 5.40993 7.7845L9.90993 1.2845C9.96202 1.20953 9.99257 1.12172 9.99825 1.0306C10.0039 0.93949 9.98454 0.848562 9.94217 0.767697C9.89981 0.686832 9.83609 0.619124 9.75795 0.571929C9.67981 0.524734 9.59022 0.499857 9.49893 0.500001H0.498931C0.407853 0.500377 0.3186 0.525574 0.240771 0.572882C0.162942 0.62019 0.0994822 0.68782 0.0572151 0.768497C0.0149481 0.849175 -0.00452658 0.939848 0.000885399 1.03077C0.00629738 1.12168 0.0363913 1.20941 0.0879307 1.2845L4.58793 7.7845Z" fill="#4B3A5A"/>
</svg>
