<svg width="960" height="205" viewBox="0 0 960 205" fill="none" xmlns="http://www.w3.org/2000/svg">
<mask id="path-1-outside-1_141_1630" maskUnits="userSpaceOnUse" x="-4.27679" y="-4.8015" width="969.355" height="214.269" fill="black">
<rect fill="white" x="-4.27679" y="-4.8015" width="969.355" height="214.269"/>
<path d="M11.5134 203.019L0.840079 104.687L24.6067 102.108L33.185 181.138L74.0924 176.697L76.1875 195.999L11.5134 203.019ZM97.5281 94.1924L108.201 192.524L84.4348 195.104L73.7615 96.7722L97.5281 94.1924ZM130.718 90.5898L160.526 160.223L161.342 160.134L175.515 85.7274L202.114 82.8402L179.61 184.773L147.969 188.207L104.119 93.477L130.718 90.5898ZM219.318 180.463L208.645 82.1313L277.208 74.6892L279.303 93.9906L234.507 98.853L236.696 119.019L277.987 114.537L280.088 133.886L238.796 138.368L240.99 158.582L285.787 153.719L287.882 173.021L219.318 180.463ZM344.972 166.824L319.428 169.597L341.932 67.6638L373.573 64.2294L417.424 158.96L391.881 161.732L360.802 90.6824L360.034 90.7658L344.972 166.824ZM337.362 128.495L390.753 122.7L392.713 140.753L339.322 146.548L337.362 128.495ZM472.77 53.4621L496.489 50.8876L503.373 114.313C504.169 121.643 503.117 128.219 500.219 134.039C497.317 139.827 492.907 144.548 486.988 148.203C481.066 151.825 473.976 154.084 465.718 154.981C457.363 155.888 449.906 155.207 443.344 152.94C436.779 150.641 431.475 146.974 427.431 141.94C423.383 136.873 420.961 130.675 420.166 123.345L413.281 59.9193L437.048 57.3396L443.708 118.701C444.077 122.094 445.141 125.039 446.902 127.536C448.695 130.029 451.017 131.882 453.869 133.095C456.721 134.307 459.924 134.721 463.477 134.335C467.03 133.949 470.053 132.86 472.546 131.067C475.072 129.271 476.943 126.963 478.159 124.143C479.375 121.323 479.799 118.216 479.43 114.823L472.77 53.4621ZM600.453 75.6487L576.446 78.2545C575.858 75.8245 574.961 73.6711 573.753 71.7943C572.545 69.9174 571.049 68.3634 569.263 67.1322C567.478 65.901 565.425 65.0389 563.105 64.5459C560.813 64.0174 558.322 63.8991 555.633 64.1909C550.864 64.7086 546.878 66.3234 543.674 69.0353C540.503 71.7437 538.229 75.4073 536.852 80.026C535.507 84.6413 535.175 90.0858 535.856 96.3596C536.565 102.889 538.087 108.262 540.423 112.478C542.787 116.658 545.788 119.684 549.424 121.557C553.089 123.394 557.258 124.058 561.931 123.551C564.556 123.266 566.904 122.671 568.975 121.766C571.079 120.858 572.878 119.675 574.371 118.217C575.893 116.724 577.082 114.992 577.936 113.021C578.82 111.014 579.341 108.804 579.5 106.39L603.522 103.929C603.579 108.327 602.78 112.753 601.126 117.208C599.504 121.659 597.058 125.827 593.787 129.712C590.514 133.565 586.363 136.801 581.336 139.419C576.341 142.034 570.466 143.708 563.713 144.441C554.814 145.407 546.632 144.32 539.166 141.179C531.729 138.003 525.569 132.874 520.688 125.793C515.806 118.712 512.78 109.778 511.609 98.9914C510.435 88.1724 511.504 78.7777 514.816 70.8074C518.129 62.8371 523.095 56.5173 529.713 51.8478C536.331 47.1783 544.009 44.3694 552.747 43.4209C558.701 42.7746 564.297 43.0093 569.535 44.1248C574.77 45.2083 579.479 47.126 583.665 49.878C587.846 52.5979 591.386 56.1163 594.283 60.433C597.181 64.7497 599.237 69.8216 600.453 75.6487ZM629.896 36.4071L640.569 134.739L616.802 137.318L606.129 38.9868L629.896 36.4071ZM639.638 54.8784L637.543 35.577L720.654 26.5558L722.749 45.8572L692.933 49.0936L701.511 128.124L678.081 130.667L669.502 51.6368L639.638 54.8784ZM751.972 23.1564L762.645 121.488L738.879 124.068L728.205 25.7362L751.972 23.1564ZM860.983 61.069C862.157 71.888 861.072 81.2844 857.727 89.2582C854.382 97.232 849.369 103.557 842.687 108.233C836.037 112.906 828.31 115.721 819.508 116.676C810.674 117.635 802.506 116.53 795.004 113.361C787.503 110.191 781.265 105.087 776.291 98.049C771.345 90.9751 768.287 82.0446 767.116 71.2576C765.942 60.4386 767.011 51.0439 770.324 43.0736C773.668 35.0999 778.666 28.7765 785.316 24.1036C791.966 19.4306 799.708 16.6147 808.543 15.6558C817.345 14.7003 825.495 15.7912 832.993 18.9285C840.523 22.0623 846.777 27.1644 851.755 34.2348C856.732 41.3052 859.808 50.25 860.983 61.069ZM836.688 63.7061C835.993 57.3043 834.493 51.9938 832.189 47.7746C829.918 43.5519 826.962 40.4884 823.322 38.584C819.714 36.6762 815.542 35.9794 810.805 36.4936C806.099 37.0043 802.174 38.5802 799.027 41.2211C795.881 43.862 793.635 47.4901 792.29 52.1054C790.977 56.7172 790.668 62.224 791.363 68.6258C792.058 75.0276 793.541 80.3398 795.813 84.5625C798.117 88.7817 801.089 91.8434 804.729 93.7478C808.368 95.6521 812.541 96.349 817.246 95.8382C821.984 95.324 825.909 93.7482 829.024 91.1107C832.17 88.4698 834.399 84.8435 835.713 80.2317C837.058 75.6164 837.383 70.1078 836.688 63.7061ZM949.153 1.75359L959.826 100.085L939.661 102.274L894.37 49.7695L893.745 49.8373L899.906 106.589L876.139 109.169L865.466 10.8374L885.919 8.61723L930.768 61.0726L931.584 60.984L925.434 4.32811L949.153 1.75359Z"/>
</mask>
<path d="M11.5134 203.019L7.53674 203.451L7.96838 207.427L11.945 206.996L11.5134 203.019ZM0.840079 104.687L0.408438 100.711L-3.5682 101.142L-3.13656 105.119L0.840079 104.687ZM24.6067 102.108L28.5834 101.676L28.1517 97.6993L24.1751 98.131L24.6067 102.108ZM33.185 181.138L29.2083 181.569L29.64 185.546L33.6166 185.114L33.185 181.138ZM74.0924 176.697L78.0691 176.266L77.6374 172.289L73.6608 172.721L74.0924 176.697ZM76.1875 195.999L76.6191 199.976L80.5958 199.544L80.1641 195.567L76.1875 195.999ZM15.49 202.587L4.81672 104.256L-3.13656 105.119L7.53674 203.451L15.49 202.587ZM1.27172 108.664L25.0384 106.084L24.1751 98.131L0.408438 100.711L1.27172 108.664ZM20.6301 102.539L29.2083 181.569L37.1616 180.706L28.5834 101.676L20.6301 102.539ZM33.6166 185.114L74.5241 180.674L73.6608 172.721L32.7533 177.161L33.6166 185.114ZM70.1158 177.129L72.2108 196.431L80.1641 195.567L78.0691 176.266L70.1158 177.129ZM75.7558 192.022L11.0817 199.042L11.945 206.996L76.6191 199.976L75.7558 192.022ZM97.5281 94.1924L101.505 93.7608L101.073 89.7841L97.0965 90.2158L97.5281 94.1924ZM108.201 192.524L108.633 196.501L112.61 196.069L112.178 192.092L108.201 192.524ZM84.4348 195.104L80.4581 195.535L80.8898 199.512L84.8664 199.08L84.4348 195.104ZM73.7614 96.7722L73.3298 92.7955L69.3532 93.2272L69.7848 97.2038L73.7614 96.7722ZM93.5515 94.6241L104.225 192.956L112.178 192.092L101.505 93.7608L93.5515 94.6241ZM107.77 188.547L84.0031 191.127L84.8664 199.08L108.633 196.501L107.77 188.547ZM88.4114 194.672L77.7381 96.3405L69.7848 97.2038L80.4581 195.535L88.4114 194.672ZM74.1931 100.749L97.9597 98.1691L97.0965 90.2158L73.3298 92.7955L74.1931 100.749ZM130.718 90.5898L134.396 89.0157L133.23 86.2937L130.287 86.6132L130.718 90.5898ZM160.526 160.223L156.849 161.797L158.014 164.519L160.958 164.2L160.526 160.223ZM161.342 160.134L161.774 164.111L164.717 163.792L165.271 160.883L161.342 160.134ZM175.515 85.7274L175.083 81.7508L172.14 82.0703L171.586 84.979L175.515 85.7274ZM202.114 82.8402L206.02 83.7025L207.221 78.2624L201.683 78.8636L202.114 82.8402ZM179.61 184.773L180.042 188.75L182.897 188.44L183.516 185.635L179.61 184.773ZM147.97 188.207L144.34 189.888L145.546 192.494L148.401 192.184L147.97 188.207ZM104.119 93.477L103.687 89.5004L98.1486 90.1016L100.489 95.1573L104.119 93.477ZM127.041 92.1639L156.849 161.797L164.203 158.649L134.396 89.0157L127.041 92.1639ZM160.958 164.2L161.774 164.111L160.91 156.158L160.094 156.246L160.958 164.2ZM165.271 160.883L179.444 86.4759L171.586 84.979L157.413 159.386L165.271 160.883ZM175.947 89.7041L202.546 86.8169L201.683 78.8636L175.083 81.7508L175.947 89.7041ZM198.208 81.9779L175.704 183.911L183.516 185.635L206.02 83.7025L198.208 81.9779ZM179.179 180.796L147.538 184.231L148.401 192.184L180.042 188.75L179.179 180.796ZM151.599 186.527L107.749 91.7967L100.489 95.1573L144.34 189.888L151.599 186.527ZM104.551 97.4537L131.15 94.5665L130.287 86.6132L103.687 89.5004L104.551 97.4537ZM219.318 180.463L215.342 180.895L215.773 184.871L219.75 184.44L219.318 180.463ZM208.645 82.1313L208.213 78.1547L204.237 78.5863L204.668 82.563L208.645 82.1313ZM277.208 74.6892L281.185 74.2576L280.753 70.2809L276.777 70.7126L277.208 74.6892ZM279.303 93.9906L279.735 97.9673L283.712 97.5356L283.28 93.559L279.303 93.9906ZM234.507 98.853L234.075 94.8764L230.099 95.308L230.53 99.2846L234.507 98.853ZM236.696 119.019L232.719 119.45L233.151 123.427L237.127 122.995L236.696 119.019ZM277.987 114.537L281.964 114.105L281.532 110.128L277.556 110.56L277.987 114.537ZM280.088 133.886L280.519 137.863L284.496 137.431L284.064 133.454L280.088 133.886ZM238.796 138.368L238.364 134.391L234.388 134.823L234.819 138.8L238.796 138.368ZM240.99 158.582L237.013 159.013L237.445 162.99L241.422 162.558L240.99 158.582ZM285.787 153.719L289.763 153.288L289.332 149.311L285.355 149.743L285.787 153.719ZM287.882 173.021L288.313 176.997L292.29 176.566L291.858 172.589L287.882 173.021ZM223.295 180.031L212.622 81.6997L204.668 82.563L215.342 180.895L223.295 180.031ZM209.077 86.108L277.64 78.6658L276.777 70.7126L208.213 78.1547L209.077 86.108ZM273.232 75.1208L275.327 94.4222L283.28 93.559L281.185 74.2576L273.232 75.1208ZM278.872 90.014L234.075 94.8764L234.938 102.83L279.735 97.9673L278.872 90.014ZM230.53 99.2846L232.719 119.45L240.672 118.587L238.483 98.4214L230.53 99.2846ZM237.127 122.995L278.419 118.513L277.556 110.56L236.264 115.042L237.127 122.995ZM274.011 114.968L276.111 134.318L284.064 133.454L281.964 114.105L274.011 114.968ZM279.656 129.909L238.364 134.391L239.228 142.345L280.519 137.863L279.656 129.909ZM234.819 138.8L237.013 159.013L244.967 158.15L242.773 137.936L234.819 138.8ZM241.422 162.558L286.218 157.696L285.355 149.743L240.558 154.605L241.422 162.558ZM281.81 154.151L283.905 173.452L291.858 172.589L289.763 153.288L281.81 154.151ZM287.45 169.044L218.887 176.486L219.75 184.44L288.313 176.997L287.45 169.044ZM344.972 166.824L345.403 170.801L348.324 170.484L348.895 167.601L344.972 166.824ZM319.428 169.597L315.522 168.734L314.321 174.174L319.86 173.573L319.428 169.597ZM341.932 67.6638L341.501 63.6871L338.646 63.9971L338.026 66.8015L341.932 67.6638ZM373.573 64.2294L377.203 62.5491L375.997 59.9428L373.142 60.2527L373.573 64.2294ZM417.424 158.96L417.855 162.936L423.394 162.335L421.054 157.279L417.424 158.96ZM391.881 161.732L388.216 163.335L389.393 166.026L392.312 165.709L391.881 161.732ZM360.802 90.6824L364.467 89.0794L363.29 86.3889L360.37 86.7058L360.802 90.6824ZM360.034 90.7658L359.602 86.7892L356.681 87.1063L356.11 89.9888L360.034 90.7658ZM337.362 128.495L336.93 124.519L332.954 124.95L333.385 128.927L337.362 128.495ZM390.753 122.7L394.73 122.268L394.298 118.292L390.321 118.723L390.753 122.7ZM392.713 140.753L393.144 144.73L397.121 144.298L396.689 140.321L392.713 140.753ZM339.322 146.548L335.345 146.98L335.777 150.956L339.753 150.525L339.322 146.548ZM344.54 162.847L318.997 165.62L319.86 173.573L345.403 170.801L344.54 162.847ZM323.334 170.459L345.838 68.5261L338.026 66.8015L315.522 168.734L323.334 170.459ZM342.364 71.6404L374.005 68.206L373.142 60.2527L341.501 63.6871L342.364 71.6404ZM369.943 65.9097L413.794 160.64L421.054 157.279L377.203 62.5491L369.943 65.9097ZM416.992 154.983L391.449 157.756L392.312 165.709L417.855 162.936L416.992 154.983ZM395.545 160.129L364.467 89.0794L357.137 92.2855L388.216 163.335L395.545 160.129ZM360.37 86.7058L359.602 86.7892L360.465 94.7425L361.234 94.6591L360.37 86.7058ZM356.11 89.9888L341.048 166.047L348.895 167.601L363.958 91.5429L356.11 89.9888ZM337.794 132.472L391.185 126.677L390.321 118.723L336.93 124.519L337.794 132.472ZM386.776 123.132L388.736 141.185L396.689 140.321L394.73 122.268L386.776 123.132ZM392.281 136.776L338.89 142.572L339.753 150.525L393.144 144.73L392.281 136.776ZM343.298 146.117L341.339 128.064L333.385 128.927L335.345 146.98L343.298 146.117ZM472.77 53.4622L472.338 49.4855L468.362 49.9171L468.793 53.8938L472.77 53.4622ZM496.489 50.8876L500.465 50.456L500.034 46.4793L496.057 46.911L496.489 50.8876ZM500.219 134.039L503.795 135.831L503.8 135.822L500.219 134.039ZM486.988 148.203L489.076 151.615L489.083 151.611L489.09 151.606L486.988 148.203ZM443.344 152.94L442.022 156.715L442.03 156.718L442.038 156.721L443.344 152.94ZM427.431 141.94L424.306 144.436L424.312 144.445L427.431 141.94ZM413.281 59.9193L412.85 55.9426L408.873 56.3743L409.305 60.3509L413.281 59.9193ZM437.048 57.3396L441.025 56.9079L440.593 52.9313L436.616 53.3629L437.048 57.3396ZM446.902 127.536L443.633 129.841L443.644 129.856L443.654 129.871L446.902 127.536ZM453.869 133.095L455.434 129.413L453.869 133.095ZM472.546 131.067L470.228 127.808L470.22 127.814L470.211 127.82L472.546 131.067ZM473.202 57.4388L496.92 54.8643L496.057 46.911L472.338 49.4855L473.202 57.4388ZM492.512 51.3193L499.396 114.745L507.35 113.882L500.465 50.456L492.512 51.3193ZM499.396 114.745C500.121 121.419 499.151 127.209 496.638 132.256L503.8 135.822C507.083 129.228 508.217 121.868 507.35 113.882L499.396 114.745ZM496.643 132.246C494.099 137.322 490.223 141.504 484.887 144.799L489.09 151.606C495.591 147.592 500.536 142.332 503.795 135.831L496.643 132.246ZM484.901 144.79C479.572 148.05 473.072 150.159 465.286 151.004L466.149 158.957C474.881 158.01 482.561 155.6 489.076 151.615L484.901 144.79ZM465.286 151.004C457.397 151.86 450.549 151.198 444.651 149.159L442.038 156.721C449.262 159.217 457.33 159.915 466.149 158.957L465.286 151.004ZM444.666 149.165C438.751 147.093 434.089 143.841 430.549 139.434L424.312 144.445C428.861 150.107 434.808 154.188 442.022 156.715L444.666 149.165ZM430.556 139.443C427.045 135.048 424.868 129.594 424.142 122.913L416.189 123.777C417.055 131.756 419.721 138.698 424.306 144.436L430.556 139.443ZM424.142 122.913L417.258 59.4876L409.305 60.3509L416.189 123.777L424.142 122.913ZM413.713 63.8959L437.48 61.3162L436.616 53.3629L412.85 55.9426L413.713 63.8959ZM433.071 57.7712L439.732 119.132L447.685 118.269L441.025 56.9079L433.071 57.7712ZM439.732 119.132C440.164 123.119 441.437 126.727 443.633 129.841L450.171 125.23C448.845 123.35 447.989 121.068 447.685 118.269L439.732 119.132ZM443.654 129.871C445.878 132.964 448.785 135.28 452.304 136.776L455.434 129.413C453.249 128.484 451.511 127.094 450.15 125.2L443.654 129.871ZM452.304 136.776C455.876 138.294 459.781 138.76 463.908 138.312L463.045 130.358C460.067 130.682 457.566 130.32 455.434 129.413L452.304 136.776ZM463.908 138.312C468.035 137.864 471.741 136.573 474.882 134.315L470.211 127.82C468.365 129.147 466.025 130.035 463.045 130.358L463.908 138.312ZM474.865 134.327C477.981 132.111 480.323 129.225 481.832 125.727L474.486 122.559C473.562 124.701 472.163 126.431 470.228 127.808L474.865 134.327ZM481.832 125.727C483.351 122.204 483.841 118.393 483.407 114.392L475.454 115.255C475.756 118.039 475.399 120.442 474.486 122.559L481.832 125.727ZM483.407 114.392L476.747 53.0305L468.793 53.8938L475.454 115.255L483.407 114.392ZM600.453 75.6487L600.884 79.6253L605.269 79.1494L604.368 74.8319L600.453 75.6487ZM576.446 78.2545L572.558 79.1946L573.384 82.6103L576.877 82.2311L576.446 78.2545ZM573.753 71.7943L570.389 73.9587L570.389 73.9587L573.753 71.7943ZM569.263 67.1322L571.534 63.8393L571.534 63.8393L569.263 67.1322ZM563.105 64.5459L562.206 68.4436L562.239 68.4514L562.273 68.4586L563.105 64.5459ZM543.674 69.0353L541.09 65.9824L541.083 65.988L541.077 65.9936L543.674 69.0353ZM536.852 80.026L533.019 78.8832L533.015 78.895L533.012 78.9069L536.852 80.026ZM540.423 112.478L536.924 114.417L536.933 114.432L536.941 114.447L540.423 112.478ZM549.424 121.557L547.593 125.113L547.612 125.123L547.632 125.133L549.424 121.557ZM568.975 121.766L567.39 118.094L567.382 118.097L567.374 118.101L568.975 121.766ZM574.371 118.217L577.165 121.08L577.172 121.073L574.371 118.217ZM577.936 113.021L574.275 111.41L574.271 111.42L574.267 111.43L577.936 113.021ZM579.5 106.39L579.092 102.411L575.731 102.756L575.508 106.127L579.5 106.39ZM603.522 103.929L607.522 103.877L607.466 99.5035L603.114 99.9494L603.522 103.929ZM601.126 117.208L597.376 115.816L597.372 115.827L597.368 115.838L601.126 117.208ZM593.787 129.712L596.836 132.302L596.842 132.295L596.848 132.288L593.787 129.712ZM581.336 139.419L579.488 135.872L579.481 135.875L581.336 139.419ZM539.166 141.179L537.595 144.857L537.605 144.862L537.615 144.866L539.166 141.179ZM520.688 125.793L523.981 123.523L520.688 125.793ZM514.816 70.8074L511.123 69.2722L514.816 70.8074ZM569.535 44.1248L568.702 48.037L568.713 48.0394L568.724 48.0417L569.535 44.1248ZM583.665 49.878L581.467 53.2201L581.475 53.2256L581.483 53.231L583.665 49.878ZM600.021 71.672L576.014 74.2778L576.877 82.2311L600.884 79.6253L600.021 71.672ZM580.334 77.3143C579.654 74.5015 578.593 71.9248 577.117 69.6298L570.389 73.9587C571.328 75.4174 572.063 77.1475 572.558 79.1946L580.334 77.3143ZM577.117 69.6298C575.631 67.3215 573.768 65.3795 571.534 63.8393L566.992 70.4251C568.33 71.3473 569.459 72.5133 570.389 73.9587L577.117 69.6298ZM571.534 63.8393C569.275 62.2815 566.724 61.2255 563.936 60.6332L562.273 68.4586C564.127 68.8523 565.681 69.5204 566.992 70.4251L571.534 63.8393ZM564.003 60.6482C561.215 60.0054 558.27 59.8813 555.202 60.2143L556.065 68.1676C558.375 67.9169 560.41 68.0295 562.206 68.4436L564.003 60.6482ZM555.202 60.2143C549.756 60.8054 544.987 62.6834 541.09 65.9824L546.259 72.0882C548.769 69.9634 551.972 68.6118 556.065 68.1676L555.202 60.2143ZM541.077 65.9936C537.232 69.2769 534.581 73.6433 533.019 78.8832L540.685 81.1689C541.877 77.1712 543.774 74.2105 546.272 72.077L541.077 65.9936ZM533.012 78.9069C531.482 84.1557 531.158 90.1513 531.879 96.7912L539.832 95.9279C539.191 90.0203 539.532 85.127 540.692 81.1452L533.012 78.9069ZM531.879 96.7912C532.626 103.67 534.255 109.599 536.924 114.417L543.922 110.539C541.919 106.925 540.503 102.109 539.832 95.9279L531.879 96.7912ZM536.941 114.447C539.621 119.185 543.15 122.825 547.593 125.113L551.255 118.001C548.426 116.544 545.953 114.131 543.904 110.509L536.941 114.447ZM547.632 125.133C552.08 127.363 557.04 128.106 562.363 127.528L561.499 119.575C557.475 120.011 554.097 119.425 551.216 117.981L547.632 125.133ZM562.363 127.528C565.325 127.206 568.077 126.524 570.577 125.432L567.374 118.101C565.731 118.819 563.787 119.326 561.499 119.575L562.363 127.528ZM570.561 125.439C573.07 124.355 575.289 122.911 577.165 121.08L571.577 115.355C570.466 116.439 569.089 117.36 567.39 118.094L570.561 125.439ZM577.172 121.073C579.066 119.216 580.548 117.053 581.606 114.612L574.267 111.43C573.615 112.931 572.721 114.233 571.57 115.362L577.172 121.073ZM581.597 114.633C582.687 112.157 583.305 109.485 583.491 106.653L575.508 106.127C575.377 108.124 574.952 109.872 574.275 111.41L581.597 114.633ZM579.908 110.369L603.93 107.908L603.114 99.9494L579.092 102.411L579.908 110.369ZM599.523 103.98C599.572 107.848 598.872 111.786 597.376 115.816L604.876 118.6C606.687 113.721 607.585 108.806 607.522 103.877L599.523 103.98ZM597.368 115.838C595.917 119.819 593.718 123.583 590.727 127.136L596.848 132.288C600.398 128.071 603.091 123.499 604.884 118.577L597.368 115.838ZM590.739 127.122C587.838 130.536 584.112 133.463 579.488 135.872L583.184 142.967C588.614 140.139 593.189 136.594 596.836 132.302L590.739 127.122ZM579.481 135.875C575.01 138.216 569.637 139.775 563.281 140.464L564.144 148.418C571.296 147.641 577.672 145.852 583.191 142.963L579.481 135.875ZM563.281 140.464C554.985 141.365 547.493 140.342 540.717 137.492L537.615 144.866C545.77 148.297 554.643 149.449 564.144 148.418L563.281 140.464ZM540.737 137.5C534.04 134.64 528.462 130.022 523.981 123.523L517.394 128.064C522.677 135.726 529.417 141.365 537.595 144.857L540.737 137.5ZM523.981 123.523C519.562 117.113 516.703 108.856 515.586 98.5598L507.632 99.4231C508.856 110.701 512.05 120.311 517.394 128.064L523.981 123.523ZM515.586 98.5598C514.465 88.2385 515.515 79.5499 518.51 72.3426L511.123 69.2722C507.493 78.0056 506.404 88.1063 507.632 99.4231L515.586 98.5598ZM518.51 72.3426C521.553 65.0216 526.058 59.3215 532.019 55.1162L527.407 48.5794C520.131 53.713 514.705 60.6527 511.123 69.2722L518.51 72.3426ZM532.019 55.1162C538.036 50.8709 545.056 48.2792 553.179 47.3975L552.316 39.4442C542.962 40.4595 534.626 43.4858 527.407 48.5794L532.019 55.1162ZM553.179 47.3975C558.76 46.7917 563.925 47.0198 568.702 48.037L570.368 40.2125C564.669 38.9987 558.642 38.7575 552.316 39.4442L553.179 47.3975ZM568.724 48.0417C573.498 49.0298 577.731 50.7638 581.467 53.2201L585.862 46.5358C581.228 43.4882 576.041 41.3867 570.346 40.2078L568.724 48.0417ZM581.483 53.231C585.194 55.6446 588.352 58.7738 590.962 62.6622L597.604 58.2037C594.419 53.4587 590.498 49.5512 585.846 46.5249L581.483 53.231ZM590.962 62.6622C593.533 66.4933 595.412 71.0706 596.537 76.4654L604.368 74.8319C603.063 68.5726 600.828 63.006 597.604 58.2037L590.962 62.6622ZM629.896 36.4071L633.872 35.9754L633.441 31.9988L629.464 32.4304L629.896 36.4071ZM640.569 134.739L641.001 138.715L644.977 138.284L644.546 134.307L640.569 134.739ZM616.802 137.318L612.826 137.75L613.257 141.727L617.234 141.295L616.802 137.318ZM606.129 38.9868L605.698 35.0102L601.721 35.4418L602.153 39.4184L606.129 38.9868ZM625.919 36.8387L636.592 135.17L644.546 134.307L633.872 35.9754L625.919 36.8387ZM640.137 130.762L616.371 133.342L617.234 141.295L641.001 138.715L640.137 130.762ZM620.779 136.887L610.106 38.5552L602.153 39.4184L612.826 137.75L620.779 136.887ZM606.561 42.9634L630.327 40.3837L629.464 32.4304L605.698 35.0102L606.561 42.9634ZM639.638 54.8784L635.661 55.3101L636.093 59.2867L640.07 58.8551L639.638 54.8784ZM637.543 35.577L637.111 31.6004L633.135 32.032L633.566 36.0087L637.543 35.577ZM720.654 26.5558L724.631 26.1241L724.199 22.1475L720.223 22.5791L720.654 26.5558ZM722.749 45.8572L723.181 49.8338L727.158 49.4022L726.726 45.4255L722.749 45.8572ZM692.933 49.0936L692.501 45.1169L688.525 45.5486L688.956 49.5252L692.933 49.0936ZM701.511 128.124L701.943 132.1L705.92 131.669L705.488 127.692L701.511 128.124ZM678.081 130.667L674.104 131.099L674.536 135.075L678.512 134.644L678.081 130.667ZM669.502 51.6368L673.479 51.2052L673.047 47.2285L669.071 47.6602L669.502 51.6368ZM643.615 54.4468L641.52 35.1454L633.566 36.0087L635.661 55.3101L643.615 54.4468ZM637.975 39.5537L721.086 30.5324L720.223 22.5791L637.111 31.6004L637.975 39.5537ZM716.678 26.9874L718.773 46.2888L726.726 45.4255L724.631 26.1241L716.678 26.9874ZM722.318 41.8805L692.501 45.1169L693.365 53.0702L723.181 49.8338L722.318 41.8805ZM688.956 49.5252L697.535 128.555L705.488 127.692L696.91 48.6619L688.956 49.5252ZM701.08 124.147L677.649 126.69L678.512 134.644L701.943 132.1L701.08 124.147ZM682.057 130.235L673.479 51.2052L665.526 52.0685L674.104 131.099L682.057 130.235ZM669.071 47.6602L639.206 50.9018L640.07 58.8551L669.934 55.6135L669.071 47.6602ZM751.972 23.1564L755.949 22.7248L755.517 18.7481L751.54 19.1798L751.972 23.1564ZM762.645 121.488L763.077 125.465L767.054 125.033L766.622 121.056L762.645 121.488ZM738.879 124.068L734.902 124.499L735.334 128.476L739.31 128.044L738.879 124.068ZM728.205 25.7362L727.774 21.7595L723.797 22.1912L724.229 26.1678L728.205 25.7362ZM747.995 23.5881L758.669 121.92L766.622 121.056L755.949 22.7248L747.995 23.5881ZM762.214 117.511L738.447 120.091L739.31 128.044L763.077 125.465L762.214 117.511ZM742.855 123.636L732.182 25.3045L724.229 26.1678L734.902 124.499L742.855 123.636ZM728.637 29.7128L752.404 27.1331L751.54 19.1798L727.774 21.7595L728.637 29.7128ZM857.727 89.2582L854.038 87.711L854.038 87.711L857.727 89.2582ZM842.687 108.233L840.393 104.956L840.387 104.961L842.687 108.233ZM795.004 113.361L796.561 109.676L795.004 113.361ZM776.291 98.049L773.013 100.341L773.019 100.349L773.024 100.358L776.291 98.049ZM770.324 43.0736L766.635 41.5264L766.63 41.5384L770.324 43.0736ZM785.316 24.1036L787.616 27.3764L785.316 24.1036ZM832.993 18.9285L831.449 22.6185L831.456 22.6214L832.993 18.9285ZM851.755 34.2348L848.484 36.5374L851.755 34.2348ZM832.19 47.7746L828.667 49.6698L828.673 49.6807L828.679 49.6916L832.19 47.7746ZM823.322 38.584L821.452 42.12L821.46 42.1241L821.468 42.1282L823.322 38.584ZM799.027 41.2211L801.599 44.2848L799.027 41.2211ZM792.29 52.1054L788.45 50.9862L788.447 50.9981L788.443 51.0101L792.29 52.1054ZM795.813 84.5625L792.291 86.4577L792.297 86.4687L792.303 86.4795L795.813 84.5625ZM804.729 93.7478L806.583 90.2036L804.729 93.7478ZM829.024 91.1107L826.452 88.047L826.445 88.0526L826.438 88.0583L829.024 91.1107ZM835.713 80.2317L831.872 79.1125L831.869 79.1244L831.865 79.1363L835.713 80.2317ZM857.006 61.5006C858.126 71.8173 857.062 80.5033 854.038 87.711L861.416 90.8054C865.082 82.0656 866.188 71.9587 864.959 60.6374L857.006 61.5006ZM854.038 87.711C850.968 95.0318 846.418 100.74 840.393 104.956L844.98 111.511C852.319 106.374 857.797 99.4322 861.416 90.8054L854.038 87.711ZM840.387 104.961C834.339 109.211 827.268 111.81 819.076 112.699L819.94 120.653C829.353 119.631 837.735 116.602 844.987 111.506L840.387 104.961ZM819.076 112.699C810.855 113.592 803.379 112.556 796.561 109.676L793.448 117.045C801.632 120.503 810.492 121.678 819.94 120.653L819.076 112.699ZM796.561 109.676C789.788 106.814 784.128 102.207 779.558 95.7405L773.024 100.358C778.403 107.968 785.218 113.568 793.448 117.045L796.561 109.676ZM779.569 95.7571C775.096 89.3589 772.21 81.1129 771.093 70.826L763.14 71.6893C764.365 82.9764 767.595 92.5913 773.013 100.341L779.569 95.7571ZM771.093 70.826C769.973 60.5047 771.022 51.8161 774.017 44.6088L766.63 41.5384C763 50.2718 761.911 60.3725 763.14 71.6893L771.093 70.826ZM774.012 44.6209C777.085 37.2952 781.622 31.5883 787.616 27.3764L783.016 20.8308C775.71 25.9647 770.252 32.9045 766.635 41.5264L774.012 44.6209ZM787.616 27.3764C793.662 23.1277 800.748 20.5254 808.975 19.6324L808.111 11.6791C798.669 12.704 790.27 15.7335 783.016 20.8308L787.616 27.3764ZM808.975 19.6324C817.166 18.7432 824.63 19.7651 831.449 22.6185L834.537 15.2385C826.361 11.8173 817.524 10.6574 808.111 11.6791L808.975 19.6324ZM831.456 22.6214C838.246 25.4471 843.914 30.046 848.484 36.5374L855.025 31.9322C849.64 24.2827 842.8 18.6774 834.53 15.2355L831.456 22.6214ZM848.484 36.5374C852.983 42.9286 855.886 51.184 857.006 61.5006L864.959 60.6374C863.73 49.316 860.481 39.6819 855.025 31.9322L848.484 36.5374ZM840.664 63.2744C839.931 56.5186 838.325 50.6639 835.7 45.8575L828.679 49.6916C830.662 53.3236 832.055 58.0899 832.711 64.1377L840.664 63.2744ZM835.712 45.8793C833.126 41.0734 829.637 37.3737 825.177 35.0399L821.468 42.1282C824.287 43.6031 826.709 46.0304 828.667 49.6698L835.712 45.8793ZM825.192 35.048C820.766 32.7075 815.768 31.9314 810.373 32.517L811.236 40.4702C815.316 40.0274 818.663 40.6449 821.452 42.12L825.192 35.048ZM810.373 32.517C805.003 33.0999 800.298 34.9325 796.456 38.1573L801.599 44.2848C804.05 42.2278 807.196 40.9088 811.236 40.4702L810.373 32.517ZM796.456 38.1573C792.606 41.3887 789.978 45.7439 788.45 50.9862L796.131 53.2246C797.293 49.2364 799.156 46.3353 801.599 44.2848L796.456 38.1573ZM788.443 51.0101C786.95 56.2561 786.654 62.3086 787.386 69.0574L795.34 68.1941C794.683 62.1394 795.005 57.1783 796.137 53.2007L788.443 51.0101ZM787.386 69.0574C788.119 75.8062 789.706 81.6544 792.291 86.4577L799.336 82.6672C797.376 79.0252 795.997 74.2489 795.34 68.1941L787.386 69.0574ZM792.303 86.4795C794.92 91.272 798.421 94.9619 802.874 97.292L806.583 90.2036C803.757 88.725 801.315 86.2913 799.324 82.6454L792.303 86.4795ZM802.874 97.292C807.319 99.6174 812.308 100.398 817.678 99.8149L816.815 91.8616C812.774 92.3002 809.418 91.6869 806.583 90.2036L802.874 97.292ZM817.678 99.8149C823.073 99.2293 827.788 97.3988 831.609 94.1632L826.438 88.0583C824.031 90.0975 820.894 91.4187 816.815 91.8616L817.678 99.8149ZM831.595 94.1745C835.451 90.938 838.065 86.5757 839.56 81.327L831.865 79.1363C830.734 83.1112 828.889 86.0016 826.452 88.047L831.595 94.1745ZM839.553 81.3508C841.085 76.0932 841.398 70.0302 840.664 63.2744L832.711 64.1377C833.368 70.1854 833.03 75.1395 831.872 79.1125L839.553 81.3508ZM949.153 1.75359L953.13 1.32194L952.698 -2.6547L948.721 -2.22306L949.153 1.75359ZM959.826 100.085L960.258 104.062L964.235 103.63L963.803 99.6535L959.826 100.085ZM939.661 102.274L936.632 104.887L938.004 106.477L940.092 106.251L939.661 102.274ZM894.37 49.7695L897.399 47.1568L896.026 45.5662L893.938 45.7929L894.37 49.7695ZM893.745 49.8373L893.314 45.8606L889.337 46.2923L889.769 50.2689L893.745 49.8373ZM899.906 106.589L900.337 110.566L904.314 110.134L903.882 106.158L899.906 106.589ZM876.139 109.169L872.162 109.601L872.594 113.577L876.571 113.146L876.139 109.169ZM865.466 10.8374L865.034 6.86072L861.057 7.29236L861.489 11.269L865.466 10.8374ZM885.919 8.61723L888.96 6.01785L887.587 4.4127L885.488 4.64059L885.919 8.61723ZM930.768 61.0726L927.728 63.6719L929.1 65.2771L931.199 65.0492L930.768 61.0726ZM931.584 60.984L932.016 64.9606L935.992 64.529L935.561 60.5523L931.584 60.984ZM925.434 4.32811L925.003 0.351463L921.026 0.783104L921.458 4.75975L925.434 4.32811ZM945.176 2.18523L955.85 100.517L963.803 99.6535L953.13 1.32194L945.176 2.18523ZM959.395 96.1085L939.229 98.2973L940.092 106.251L960.258 104.062L959.395 96.1085ZM942.69 99.6613L897.399 47.1568L891.341 52.3822L936.632 104.887L942.69 99.6613ZM893.938 45.7929L893.314 45.8606L894.177 53.8139L894.801 53.7462L893.938 45.7929ZM889.769 50.2689L895.929 107.021L903.882 106.158L897.722 49.4056L889.769 50.2689ZM899.474 102.613L875.707 105.192L876.571 113.146L900.337 110.566L899.474 102.613ZM880.116 108.737L869.442 10.4057L861.489 11.269L872.162 109.601L880.116 108.737ZM865.897 14.814L886.351 12.5939L885.488 4.64059L865.034 6.86072L865.897 14.814ZM882.879 11.2166L927.728 63.6719L933.808 58.4732L888.96 6.01785L882.879 11.2166ZM931.199 65.0492L932.016 64.9606L931.152 57.0073L930.336 57.0959L931.199 65.0492ZM935.561 60.5523L929.411 3.89646L921.458 4.75975L927.607 61.4156L935.561 60.5523ZM925.866 8.30475L949.585 5.73023L948.721 -2.22306L925.003 0.351463L925.866 8.30475Z" fill="#FFC67D" mask="url(#path-1-outside-1_141_1630)"/>
</svg>
