<svg width="164" height="131" viewBox="0 0 164 131" fill="none" xmlns="http://www.w3.org/2000/svg">
<path d="M146.659 28.4863C148.373 23.003 147.881 16.8582 144.779 11.4867C138.898 1.3035 125.912 -2.12357 115.727 3.75501C107.679 8.40028 103.749 17.3745 105.475 26.1812L35.7563 66.4366C28.9903 60.5391 19.2513 59.4547 11.2034 64.1C1.02339 69.962 -2.49345 82.9562 3.38727 93.1392C6.48932 98.5107 11.554 101.989 17.1612 103.246C15.4465 108.729 15.9391 114.874 19.0456 120.229C24.9263 130.413 37.9126 133.84 48.097 127.961C56.1451 123.316 60.0586 114.337 58.3332 105.53L128.047 65.2914C134.814 71.1889 144.552 72.2733 152.6 67.6281C162.785 61.7495 166.302 48.7553 160.421 38.5724C157.314 33.2174 152.266 29.7434 146.659 28.4863Z" fill="#FFCBBF" fill-opacity="0.4"/>
</svg>
