<svg width="164" height="131" viewBox="0 0 164 131" fill="none" xmlns="http://www.w3.org/2000/svg">
<path d="M146.645 103.25C152.251 101.993 157.326 98.4944 160.427 93.1222C166.305 82.9378 162.78 69.9778 152.597 64.0972C144.55 59.4501 134.813 60.5336 128.049 66.4315L58.3276 26.1811C60.052 17.3728 56.1217 8.39639 48.0748 3.7493C37.9081 -2.1358 24.8964 1.3156 19.018 11.5C15.9171 16.8722 15.4373 22.9974 17.1521 28.482C11.5462 29.7386 6.47081 33.2378 3.38632 38.6056C-2.4921 48.79 1.03312 61.7499 11.2162 67.6307C19.2633 72.2779 28.9956 71.1779 35.7598 65.2801L105.465 105.535C103.741 114.343 107.671 123.32 115.718 127.967C125.901 133.848 138.913 130.396 144.791 120.212C147.875 114.844 148.36 108.735 146.645 103.25Z" fill="#FFCBBF" fill-opacity="0.4"/>
</svg>
