<svg width="168" height="105" viewBox="0 0 168 105" fill="none" xmlns="http://www.w3.org/2000/svg">
<path d="M156.125 33.5197C159.2 28.667 160.315 22.6041 158.709 16.6128C155.664 5.25451 144.007 -1.41689 132.649 1.62546C123.673 4.02949 117.554 11.6807 116.941 20.634L39.1794 41.4732C34.1703 34.0255 25.0438 30.4574 16.0678 32.8614C4.71751 35.889 -2.04264 47.5302 1.00213 58.8883C2.60824 64.8796 6.60011 69.5502 11.6909 72.2158C8.61549 77.0683 7.50087 83.1314 9.11543 89.1081C12.1602 100.466 23.817 107.138 35.1758 104.095C44.152 101.691 50.256 94.0317 50.8687 85.0783L128.622 64.2537C133.631 71.7015 142.758 75.2695 151.734 72.8656C163.093 69.8232 169.853 58.1821 166.808 46.824C165.193 40.8474 161.216 36.1852 156.125 33.5197Z" fill="#FFCBBF" fill-opacity="0.4"/>
</svg>
