<svg width="164" height="204" viewBox="0 0 164 204" fill="none" xmlns="http://www.w3.org/2000/svg">
<path d="M128.911 20.9672C127.337 13.9447 122.954 7.58685 116.224 3.70244C103.466 -3.66163 87.231 0.754383 79.8643 13.5108C74.0429 23.5911 75.4003 35.7886 82.7885 44.2618L32.367 131.602C21.3329 129.442 10.0882 134.365 4.26682 144.445C-3.10542 157.181 1.21814 173.481 13.9761 180.845C20.7058 184.729 28.3789 185.33 35.2494 183.182C36.8235 190.205 41.2069 196.562 47.9311 200.426C60.6891 207.79 76.924 203.374 84.2907 190.618C90.1123 180.537 88.7343 168.346 81.3462 159.872L131.773 72.5529C142.808 74.7129 154.052 69.7895 159.874 59.7091C167.24 46.9527 162.917 30.653 150.159 23.2894C143.434 19.4257 135.782 18.8189 128.911 20.9672Z" fill="white" fill-opacity="0.4"/>
</svg>
