<svg width="263" height="262" viewBox="0 0 263 262" fill="none" xmlns="http://www.w3.org/2000/svg">
<path d="M38.7252 38.643C28.699 38.2292 18.5544 41.838 10.8942 49.4999C-3.62793 64.025 -3.5392 87.4841 10.9829 102.009C22.4584 113.487 39.3759 116.061 53.4541 109.168L152.889 208.596C145.998 222.677 148.571 239.598 160.046 251.077C174.538 265.602 198.051 265.661 212.573 251.136C220.233 243.474 223.812 233.356 223.398 223.328C233.424 223.742 243.569 220.133 251.2 212.471C265.722 197.946 265.633 174.487 251.111 159.962C239.635 148.483 222.718 145.94 208.64 152.832L109.235 53.4045C116.126 39.3228 113.553 22.4018 102.077 10.9234C87.555 -3.60172 64.042 -3.66086 49.5205 10.8645C41.8902 18.5268 38.3112 28.6145 38.7252 38.643Z" fill="#F7E8D5" fill-opacity="0.4"/>
</svg>
