<svg width="139" height="139" viewBox="0 0 139 139" fill="none" xmlns="http://www.w3.org/2000/svg">
<path d="M20.8561 20.7914C15.5854 20.5739 10.2526 22.471 6.22572 26.4987C-1.40836 34.1344 -1.36171 46.4665 6.27237 54.1021C12.3049 60.136 21.1982 61.489 28.5989 57.8655L80.8703 110.133C77.2476 117.536 78.6003 126.431 84.6328 132.465C92.2512 140.1 104.612 140.131 112.246 132.496C116.272 128.468 118.154 123.15 117.936 117.878C123.207 118.095 128.54 116.198 132.551 112.17C140.185 104.535 140.138 92.2026 132.504 84.567C126.472 78.5329 117.579 77.1957 110.178 80.819L57.9218 28.5513C61.5445 21.1488 60.1918 12.2536 54.1593 6.21962C46.5252 -1.41603 34.1648 -1.44713 26.531 6.18867C22.5199 10.2166 20.6384 15.5196 20.8561 20.7914Z" fill="#FADCCC"/>
</svg>
