<svg width="194" height="193" viewBox="0 0 194 193" fill="none" xmlns="http://www.w3.org/2000/svg">
<path d="M28.539 28.466C21.1532 28.1612 13.6803 30.8196 8.03746 36.4637C-2.66014 47.1635 -2.59478 64.4444 8.10282 75.1442C16.5562 83.5994 29.0183 85.4953 39.3889 80.4178L112.637 153.66C107.56 164.033 109.456 176.498 117.909 184.953C128.585 195.653 145.905 195.697 156.603 184.997C162.245 179.353 164.882 171.9 164.577 164.513C171.962 164.818 179.435 162.159 185.056 156.515C195.754 145.815 195.688 128.534 184.991 117.834C176.538 109.379 164.076 107.505 153.705 112.582L80.479 39.34C85.5553 28.9668 83.6599 16.5021 75.2066 8.04664C64.509 -2.65316 47.1883 -2.69673 36.4912 8.00328C30.8704 13.6476 28.2339 21.0786 28.539 28.466Z" fill="#FADCCC"/>
</svg>
