<svg width="282" height="235" viewBox="0 0 282 235" fill="none" xmlns="http://www.w3.org/2000/svg">
<path d="M31.0666 187.404C28.5031 197.106 29.8423 207.789 35.6746 216.92C46.7312 234.229 69.6589 239.195 86.9708 228.142C100.651 219.408 106.808 203.442 103.109 188.21L221.619 112.523C233.885 122.285 250.964 123.416 264.644 114.682C281.949 103.658 287.071 80.71 276.015 63.4007C270.182 54.2701 261.073 48.5964 251.191 46.8406C253.755 37.1391 252.415 26.455 246.576 17.3533C235.52 0.0439348 212.592 -4.92185 195.28 6.13088C181.6 14.8652 175.472 30.8375 179.171 46.0701L60.6674 121.728C48.4004 111.966 31.3223 110.834 17.6417 119.568C0.329837 130.622 -4.79196 153.57 6.26502 170.879C12.1041 179.981 21.1842 185.648 31.0666 187.404Z" fill="white" fill-opacity="0.4"/>
</svg>
