<svg width="169" height="211" viewBox="0 0 169 211" fill="none" xmlns="http://www.w3.org/2000/svg">
<path d="M132.634 22.1731C131.017 14.96 126.515 8.42981 119.603 4.44006C106.499 -3.12371 89.8235 1.41206 82.257 14.5145C76.2778 24.8681 77.6719 37.3963 85.2605 46.0994L33.4717 135.808C22.1383 133.589 10.5887 138.646 4.60947 149C-2.9627 162.081 1.47811 178.823 14.582 186.386C21.4942 190.376 29.3754 190.993 36.4322 188.787C38.0491 196 42.5513 202.53 49.4579 206.499C62.5618 214.062 79.237 209.527 86.8035 196.424C92.7829 186.071 91.3675 173.548 83.7791 164.845L135.574 75.1576C146.907 77.3763 158.457 72.3193 164.436 61.9656C172.002 48.8632 167.562 32.1215 154.458 24.5582C147.551 20.5897 139.691 19.9664 132.634 22.1731Z" fill="#FADCCC"/>
</svg>
