<svg width="262" height="262" viewBox="0 0 262 262" fill="none" xmlns="http://www.w3.org/2000/svg">
<path d="M38.6784 38.643C28.6521 38.2292 18.5075 41.838 10.8473 49.4999C-3.6748 64.025 -3.58607 87.4841 10.9361 102.009C22.4116 113.487 39.329 116.061 53.4072 109.168L152.842 208.596C145.951 222.677 148.524 239.598 159.999 251.077C174.492 265.602 198.004 265.661 212.526 251.136C220.187 243.474 223.765 233.356 223.351 223.328C233.377 223.742 243.522 220.133 251.153 212.471C265.675 197.946 265.586 174.487 251.064 159.962C239.588 148.483 222.671 145.94 208.593 152.832L109.188 53.4045C116.079 39.3228 113.506 22.4018 102.03 10.9234C87.5081 -3.60172 63.9952 -3.66086 49.4736 10.8645C41.8433 18.5268 38.2643 28.6145 38.6784 38.643Z" fill="white" fill-opacity="0.4"/>
</svg>
