<svg width="228" height="285" viewBox="0 0 228 285" fill="none" xmlns="http://www.w3.org/2000/svg">
<path d="M179.757 29.362C177.562 19.5702 171.45 10.7053 162.067 5.28919C144.278 -4.97873 121.641 1.17863 111.37 18.9653C103.253 33.0205 105.145 50.0277 115.447 61.8422L45.1429 183.622C29.7578 180.611 14.079 187.476 5.96211 201.531C-4.3172 219.289 1.71125 242.016 19.5 252.283C28.8834 257.699 39.5822 258.538 49.1619 255.542C51.3568 265.334 57.4686 274.199 66.8444 279.587C84.6331 289.854 107.27 283.697 117.542 265.91C125.659 251.855 123.737 234.856 113.436 223.041L183.748 101.289C199.133 104.301 214.812 97.4361 222.929 83.3808C233.2 65.5941 227.172 42.867 209.383 32.5998C200.007 27.2126 189.337 26.3664 179.757 29.362Z" fill="white" fill-opacity="0.4"/>
</svg>
