<svg width="120" height="121" viewBox="0 0 120 121" fill="none" xmlns="http://www.w3.org/2000/svg">
<path d="M95.6945 46.1928C97.9954 52.5804 98.7923 59.6499 97.6996 66.8891C94.2812 89.5519 73.7041 105.243 51.737 101.928C37.3708 99.7618 25.9723 90.0012 20.7571 77.1687C25.6538 90.7701 37.3858 101.248 52.3327 103.502C74.3038 106.817 94.8782 91.1298 98.2979 68.4654C99.4825 60.625 98.4513 52.979 95.6945 46.1928Z" fill="url(#paint0_linear_724_223)"/>
<path d="M97.9219 67.3813C94.5036 90.0442 73.9251 105.731 51.958 102.416C29.9908 99.1021 14.9564 78.0444 18.3746 55.3816C21.7937 32.7194 42.3707 17.0344 64.3372 20.3479C86.3063 23.6614 101.343 44.721 97.9219 67.3813Z" fill="url(#paint1_linear_724_223)"/>
<path d="M91.9687 66.0285C89.0296 85.506 71.3465 98.9874 52.4594 96.1375C33.5847 93.2916 20.6606 75.1934 23.5988 55.7153C26.5371 36.2346 44.2232 22.753 63.1001 25.6009C81.9856 28.4497 94.9063 46.5473 91.9687 66.0285Z" fill="url(#paint2_linear_724_223)"/>
<path d="M90.1661 65.755C87.3818 84.2011 70.6271 96.9733 52.7453 94.2738C34.8621 91.5758 22.6253 74.4336 25.4082 55.9861C28.1917 37.5393 44.9404 24.7693 62.8235 27.4672C80.7035 30.1645 92.9463 47.3072 90.1661 65.755Z" fill="url(#paint3_linear_724_223)"/>
<path d="M61.2635 65.7682L56.7276 61.4372L67.9144 49.721L78.639 59.9609C78.6537 62.1515 78.0489 64.7336 76.8246 67.7071C75.5998 70.6567 73.9295 73.2395 71.8137 75.4554C69.1251 78.2712 66.1937 80.1648 63.0196 81.1361C59.8331 82.0957 56.6415 82.0558 53.4448 81.0162C50.2358 79.965 47.3397 78.2062 44.7565 75.7397C41.953 73.0628 40.0227 70.0964 38.9657 66.8404C37.9086 63.5843 37.8799 60.2686 38.8794 56.8932C39.6339 54.3137 41.2385 51.7384 43.6933 49.1675C46.8845 45.8252 50.0783 43.8897 53.2747 43.3608C56.4705 42.808 59.5621 43.4429 62.5495 45.2655L58.4045 51.6289C56.7199 50.746 54.9954 50.4686 53.2311 50.7967C51.4662 51.1009 49.8356 52.0365 48.3394 53.6036C46.0716 55.9787 45.0185 58.5891 45.1801 61.4348C45.3534 64.2683 46.9214 67.0994 49.8841 69.9283C53.0794 72.9792 56.157 74.5602 59.1167 74.6714C62.0643 74.7709 64.6368 73.6698 66.8344 71.3682C67.9216 70.2296 68.7883 68.8806 69.4347 67.3212C70.0805 65.7379 70.4767 64.2322 70.6233 62.8041L67.2076 59.5427L61.2635 65.7682Z" fill="url(#paint4_linear_724_223)"/>
<path opacity="0.8" d="M71.7528 20.7258L77.0358 26.8927L71.8087 32.5411L77.6147 27.5289L83.486 32.79L78.2361 26.8794L82.8199 21.8627L77.685 26.2435L71.7528 20.7258Z" fill="url(#paint5_radial_724_223)"/>
<defs>
<linearGradient id="paint0_linear_724_223" x1="38.112" y1="100.112" x2="93.8629" y2="44.3611" gradientUnits="userSpaceOnUse">
<stop stop-color="#8E6737"/>
<stop offset="0.0001" stop-color="#FFDF74"/>
<stop offset="0.0002" stop-color="#EAAF26"/>
<stop offset="0.0003" stop-color="#C09E36"/>
<stop offset="0.8121" stop-color="#EDE7BC"/>
<stop offset="1" stop-color="#A68032"/>
</linearGradient>
<linearGradient id="paint1_linear_724_223" x1="39.3716" y1="22.3577" x2="76.1845" y2="98.865" gradientUnits="userSpaceOnUse">
<stop offset="0.0165" stop-color="#E2C16E"/>
<stop offset="0.1538" stop-color="#F8F2A3"/>
<stop offset="0.2473" stop-color="#FAF4E5"/>
<stop offset="0.3736" stop-color="#F3EA89"/>
<stop offset="0.467" stop-color="#F6DB73"/>
<stop offset="0.6703" stop-color="#CE8F2C"/>
</linearGradient>
<linearGradient id="paint2_linear_724_223" x1="38.305" y1="31.0002" x2="81.8784" y2="97.8204" gradientUnits="userSpaceOnUse">
<stop stop-color="#A77032"/>
<stop offset="0.1152" stop-color="#EDB12A"/>
<stop offset="0.2667" stop-color="#FFE074"/>
<stop offset="0.4545" stop-color="#C2A036"/>
<stop offset="0.8121" stop-color="#EFE9C0"/>
<stop offset="0.9725" stop-color="#A88035"/>
</linearGradient>
<linearGradient id="paint3_linear_724_223" x1="39.337" y1="32.5806" x2="80.6057" y2="95.8666" gradientUnits="userSpaceOnUse">
<stop stop-color="#FFF2B0"/>
<stop offset="0.6909" stop-color="#FFC200"/>
<stop offset="1" stop-color="#FFE47D"/>
</linearGradient>
<linearGradient id="paint4_linear_724_223" x1="46.1568" y1="52.1732" x2="70.0244" y2="74.9622" gradientUnits="userSpaceOnUse">
<stop stop-color="#A98135"/>
<stop offset="1" stop-color="#E5BD48"/>
</linearGradient>
<radialGradient id="paint5_radial_724_223" cx="0" cy="0" r="1" gradientUnits="userSpaceOnUse" gradientTransform="translate(77.2449 27.1325) rotate(-45) scale(8.04966 8.04966)">
<stop stop-color="white"/>
<stop offset="1" stop-color="#FFF2B9"/>
</radialGradient>
</defs>
</svg>
