<svg width="181" height="177" viewBox="0 0 181 177" fill="none" xmlns="http://www.w3.org/2000/svg">
<path d="M150.739 86.6257C150.734 97.3522 148.129 108.286 142.625 118.459C125.396 150.308 86.4039 162.597 55.5333 145.896C35.3438 134.975 23.6357 114.359 22.7638 92.4916C22.7503 115.331 34.5697 137.191 55.575 148.554C86.451 165.259 125.438 152.973 142.669 121.122C148.632 110.105 151.198 98.189 150.739 86.6257Z" fill="url(#paint0_linear_738_9)"/>
<path d="M142.692 119.311C125.464 151.159 86.4716 163.441 55.601 146.74C24.7303 130.039 13.6743 90.6845 30.9026 58.8357C48.132 26.9883 87.1212 14.7078 117.991 31.4074C148.865 48.1083 159.923 87.467 142.692 119.311Z" fill="url(#paint1_linear_738_9)"/>
<path d="M134.569 114.107C119.76 141.478 86.2534 152.035 59.7114 137.675C33.1856 123.328 23.6795 89.5032 38.4874 62.1302C53.2969 34.7533 86.8083 24.1977 113.336 38.5492C139.877 52.9065 149.378 86.7288 134.569 114.107Z" fill="url(#paint2_linear_738_9)"/>
<path d="M132.038 112.735C118.012 138.657 86.2647 148.657 61.136 135.06C36.0045 121.464 27.0075 89.4279 41.032 63.5033C55.0571 37.5801 86.7941 27.5796 111.926 41.1753C137.053 54.7684 146.058 86.8084 132.038 112.735Z" fill="url(#paint3_linear_738_9)"/>
<path opacity="0.8" d="M129.224 34.5658L133.77 46.563L122.974 52.1556L134.289 47.8189L140.195 58.7851L135.561 47.1866L145.062 42.188L135.083 45.9462L129.224 34.5658Z" fill="url(#paint4_radial_738_9)"/>
<path d="M91.3081 94.8569L86.2303 84.1839L113.799 71.0682L125.804 96.3032C124.359 100.17 121.559 104.311 117.406 108.724C113.268 113.095 108.592 116.521 103.378 119.002C96.7522 122.154 90.3185 123.519 84.0769 123.097C77.8215 122.646 72.2284 120.432 67.2978 116.454C62.3535 112.447 58.4355 107.405 55.5437 101.327C52.4053 94.7299 50.999 88.2098 51.325 81.7664C51.651 75.3231 53.8277 69.4654 57.855 64.1933C60.9163 60.1579 65.4717 56.7012 71.5212 53.8232C79.3855 50.0817 86.3095 48.8189 92.2931 50.0349C98.2917 51.2083 103.309 54.403 107.345 59.619L95.7717 68.0396C93.3985 65.3532 90.5484 63.7064 87.2213 63.099C83.9092 62.4491 80.4096 63.0012 76.7223 64.7555C71.1337 67.4143 67.5259 71.3033 65.8988 76.4227C64.3005 81.5283 65.1596 87.5668 68.4763 94.5381C72.0533 102.057 76.4103 106.908 81.5473 109.092C86.6705 111.247 91.94 111.036 97.3558 108.46C100.035 107.185 102.467 105.392 104.653 103.081C106.854 100.726 108.563 98.3413 109.78 95.9251L105.956 87.8879L91.3081 94.8569Z" fill="url(#paint5_linear_738_9)"/>
<defs>
<linearGradient id="paint0_linear_738_9" x1="36.2577" y1="135.893" x2="148.999" y2="82.9216" gradientUnits="userSpaceOnUse">
<stop stop-color="#8E6737"/>
<stop offset="0.0001" stop-color="#FFDF74"/>
<stop offset="0.0002" stop-color="#EAAF26"/>
<stop offset="0.0003" stop-color="#C09E36"/>
<stop offset="0.8121" stop-color="#EDE7BC"/>
<stop offset="1" stop-color="#A68032"/>
</linearGradient>
<linearGradient id="paint1_linear_738_9" x1="79.8104" y1="21.0116" x2="93.5097" y2="154.449" gradientUnits="userSpaceOnUse">
<stop offset="0.0165" stop-color="#E2C16E"/>
<stop offset="0.1538" stop-color="#F8F2A3"/>
<stop offset="0.2473" stop-color="#FAF4E5"/>
<stop offset="0.3736" stop-color="#F3EA89"/>
<stop offset="0.467" stop-color="#F6DB73"/>
<stop offset="0.6703" stop-color="#CE8F2C"/>
</linearGradient>
<linearGradient id="paint2_linear_738_9" x1="73.592" y1="33.2822" x2="102.531" y2="155.947" gradientUnits="userSpaceOnUse">
<stop stop-color="#A77032"/>
<stop offset="0.1152" stop-color="#EDB12A"/>
<stop offset="0.2667" stop-color="#FFE074"/>
<stop offset="0.4545" stop-color="#C2A036"/>
<stop offset="0.8121" stop-color="#EFE9C0"/>
<stop offset="0.9725" stop-color="#A88035"/>
</linearGradient>
<linearGradient id="paint3_linear_738_9" x1="74.2793" y1="36.1849" x2="101.688" y2="152.361" gradientUnits="userSpaceOnUse">
<stop stop-color="#FFF2B0"/>
<stop offset="0.6909" stop-color="#FFC200"/>
<stop offset="1" stop-color="#FFE47D"/>
</linearGradient>
<radialGradient id="paint4_radial_738_9" cx="0" cy="0" r="1" gradientUnits="userSpaceOnUse" gradientTransform="translate(133.952 47.0314) rotate(-25.1663) scale(12.7177 12.7177)">
<stop stop-color="white"/>
<stop offset="1" stop-color="#FFF2B9"/>
</radialGradient>
<linearGradient id="paint5_linear_738_9" x1="79.766" y1="73.5401" x2="93.9432" y2="103.34" gradientUnits="userSpaceOnUse">
<stop stop-color="#A98135"/>
<stop offset="1" stop-color="#E5BD48"/>
</linearGradient>
</defs>
</svg>
