<svg width="143" height="138" viewBox="0 0 143 138" fill="none" xmlns="http://www.w3.org/2000/svg">
<path d="M111.465 100.465C105.593 107.415 97.9227 113.077 88.7892 116.659C60.1974 127.877 28.2002 114.51 17.3276 86.7951C10.216 68.6707 13.9061 48.9022 25.3045 34.2514C12.8004 49.0479 8.50165 69.6838 15.9004 88.5408C26.7743 116.261 58.7663 129.627 87.3607 118.41C97.2535 114.531 105.436 108.211 111.465 100.465Z" fill="url(#paint0_linear_724_233)"/>
<path d="M88.3676 117.248C59.7757 128.466 27.7825 115.094 16.9099 87.3799C6.03736 59.6651 20.4021 28.1074 48.9937 16.8893C77.5852 5.67275 109.576 19.0438 120.449 46.7571C131.324 74.4735 116.958 106.035 88.3676 117.248Z" fill="url(#paint1_linear_724_233)"/>
<path d="M85.9489 109.432C61.3751 119.072 33.8808 107.583 24.5331 83.7541C15.1891 59.9422 27.5332 32.8167 52.1071 23.1755C76.6842 13.5326 104.181 25.0249 113.524 48.8407C122.872 72.667 110.526 99.7882 85.9489 109.432Z" fill="url(#paint2_linear_724_233)"/>
<path d="M85.0568 107.157C61.7837 116.285 35.7347 105.398 26.8859 82.837C18.0345 60.2749 29.7298 34.5876 53.0035 25.4566C76.277 16.3269 102.32 27.2081 111.171 49.77C120.021 72.3278 108.329 98.0226 85.0568 107.157Z" fill="url(#paint3_linear_724_233)"/>
<path opacity="0.8" d="M126 54.9524L122.382 65.2157L112.325 62.9341L122.032 66.3139L119.86 76.653L123.202 66.5998L132.096 68.5581L123.571 65.5341L126 54.9524Z" fill="url(#paint4_radial_724_233)"/>
<path d="M66.9789 73.9603L71.1697 65.0025L94.3076 75.8275L84.3989 97.007C81.1323 98.1311 76.9691 98.5261 71.9092 98.1923C66.8848 97.8456 62.1845 96.6485 57.8084 94.6012C52.2475 91.9995 47.9429 88.5711 44.8944 84.3158C41.8573 80.0363 40.3114 75.2463 40.2569 69.9458C40.2137 64.621 41.3854 59.4079 43.7721 54.3065C46.3624 48.7698 49.8248 44.3926 54.1593 41.1749C58.4937 37.9572 63.4347 36.2462 68.9821 36.042C73.2169 35.8719 77.8729 36.9746 82.9502 39.3499C89.5506 42.4379 94.05 46.2375 96.4484 50.7485C98.8822 55.2467 99.4886 60.1866 98.2675 65.5682L86.6721 62.5745C87.1442 59.6127 86.6913 56.8959 85.3133 54.4241C83.9708 51.9394 81.7522 49.9732 78.6575 48.5253C73.9671 46.3309 69.536 46.0702 65.3643 47.7433C61.2167 49.4276 57.7743 53.1953 55.0369 59.0462C52.0847 65.3566 51.2699 70.7514 52.5927 75.2308C53.9269 79.686 56.8666 82.9769 61.412 85.1034C63.6605 86.1554 66.1126 86.7721 68.7683 86.9537C71.4595 87.1224 73.9092 86.957 76.1173 86.4577L79.2731 79.7121L66.9789 73.9603Z" fill="url(#paint5_linear_724_233)"/>
<defs>
<linearGradient id="paint0_linear_724_233" x1="10.3062" y1="69.7656" x2="112.363" y2="97.1117" gradientUnits="userSpaceOnUse">
<stop stop-color="#8E6737"/>
<stop offset="0.0001" stop-color="#FFDF74"/>
<stop offset="0.0002" stop-color="#EAAF26"/>
<stop offset="0.0003" stop-color="#C09E36"/>
<stop offset="0.8121" stop-color="#EDE7BC"/>
<stop offset="1" stop-color="#A68032"/>
</linearGradient>
<linearGradient id="paint1_linear_724_233" x1="101.388" y1="19.13" x2="37.2642" y2="113.116" gradientUnits="userSpaceOnUse">
<stop offset="0.0165" stop-color="#E2C16E"/>
<stop offset="0.1538" stop-color="#F8F2A3"/>
<stop offset="0.2473" stop-color="#FAF4E5"/>
<stop offset="0.3736" stop-color="#F3EA89"/>
<stop offset="0.467" stop-color="#F6DB73"/>
<stop offset="0.6703" stop-color="#CE8F2C"/>
</linearGradient>
<linearGradient id="paint2_linear_724_233" x1="90.644" y1="23.6825" x2="42.292" y2="119.024" gradientUnits="userSpaceOnUse">
<stop stop-color="#A77032"/>
<stop offset="0.1152" stop-color="#EDB12A"/>
<stop offset="0.2667" stop-color="#FFE074"/>
<stop offset="0.4545" stop-color="#C2A036"/>
<stop offset="0.8121" stop-color="#EFE9C0"/>
<stop offset="0.9725" stop-color="#A88035"/>
</linearGradient>
<linearGradient id="paint3_linear_724_233" x1="89.4997" y1="25.939" x2="43.7051" y2="116.238" gradientUnits="userSpaceOnUse">
<stop stop-color="#FFF2B0"/>
<stop offset="0.6909" stop-color="#FFC200"/>
<stop offset="1" stop-color="#FFE47D"/>
</linearGradient>
<radialGradient id="paint4_radial_724_233" cx="0" cy="0" r="1" gradientUnits="userSpaceOnUse" gradientTransform="translate(122.244 65.619) rotate(15) scale(10.7872 10.7872)">
<stop stop-color="white"/>
<stop offset="1" stop-color="#FFF2B9"/>
</radialGradient>
<linearGradient id="paint5_linear_724_233" x1="75.7504" y1="52.2088" x2="61.7662" y2="82.0994" gradientUnits="userSpaceOnUse">
<stop stop-color="#A98135"/>
<stop offset="1" stop-color="#E5BD48"/>
</linearGradient>
</defs>
</svg>
