<svg width="181" height="177" viewBox="0 0 181 177" fill="none" xmlns="http://www.w3.org/2000/svg">
<path d="M150.739 86.6257C150.734 97.3522 148.129 108.286 142.625 118.459C125.396 150.308 86.4039 162.597 55.5333 145.896C35.3438 134.975 23.6357 114.359 22.7638 92.4916C22.7503 115.331 34.5697 137.191 55.575 148.554C86.451 165.259 125.438 152.973 142.669 121.122C148.632 110.105 151.198 98.189 150.739 86.6257Z" fill="url(#paint0_linear_141_1512)"/>
<path d="M142.692 119.311C125.464 151.159 86.4716 163.441 55.601 146.74C24.7303 130.039 13.6743 90.6845 30.9026 58.8357C48.132 26.9883 87.1212 14.7078 117.991 31.4074C148.865 48.1083 159.923 87.467 142.692 119.311Z" fill="url(#paint1_linear_141_1512)"/>
<path d="M134.569 114.107C119.76 141.478 86.2534 152.035 59.7114 137.675C33.1856 123.328 23.6795 89.5032 38.4874 62.1302C53.2969 34.7533 86.8083 24.1977 113.336 38.5492C139.877 52.9065 149.378 86.7288 134.569 114.107Z" fill="url(#paint2_linear_141_1512)"/>
<path d="M132.038 112.735C118.012 138.657 86.2647 148.657 61.136 135.06C36.0045 121.464 27.0075 89.4279 41.032 63.5033C55.0571 37.5801 86.7941 27.5796 111.926 41.1753C137.053 54.7684 146.058 86.8084 132.038 112.735Z" fill="url(#paint3_linear_141_1512)"/>
<path d="M108.729 82.2259C105.799 80.7108 102.405 80.2334 98.5506 80.7931C100.512 78.6211 101.656 76.2378 101.982 73.6455C102.309 71.0527 101.888 68.5145 100.72 66.0292C99.2038 62.8015 96.821 60.4892 93.5728 59.091C90.3242 57.6933 87.0067 57.431 83.9521 58.1464C83.1769 58.3282 82.2949 58.5832 81.2167 58.9536L77.2964 50.61L75.0081 51.6851L72.1674 53.0198L75.8986 60.9611C74.332 61.6248 73.0155 62.3263 71.2512 63.1553L69.2349 64.1026L65.4997 56.1526L63.0708 57.2938L60.1142 58.683L63.8495 66.633L50.7704 72.7781L54.0237 79.7023L61.7173 76.0875L80.5142 116.094L72.8206 119.709L75.9534 126.376L89.0325 120.231L92.4063 127.412L95.3629 126.023L97.7917 124.882L94.4179 117.701L96.8704 116.549C98.4665 115.799 99.6761 114.899 100.935 114.247L104.46 121.749L107.3 120.414L109.589 119.339L105.887 111.461C106.632 111.049 106.829 110.89 107.184 110.652C109.653 108.992 111.812 107.007 113.498 104.776C115.184 102.547 116.239 100.017 116.58 97.2299C116.922 94.4425 116.494 91.7204 115.254 89.0812C113.822 86.0337 111.66 83.7418 108.729 82.2259ZM76.642 69.0752C77.6139 68.6185 78.4345 67.9976 79.3228 67.676C80.3131 67.3171 81.2253 66.9931 82.1112 66.8023C83.2064 66.5667 84.2106 66.4311 85.1456 66.4523C88.2368 66.5208 90.4518 67.9761 91.8006 70.8469C93.0281 73.4596 93.0888 75.8389 91.9912 77.9963C91.7768 78.417 91.4969 78.8327 91.1583 79.2495C90.5922 79.9469 89.8483 80.6376 88.934 81.3236C88.2224 81.8574 87.4539 82.4911 86.5313 83.0182C85.7165 83.4837 84.8508 84.0025 83.8717 84.4625L79.9095 86.3242L77.9228 87.2576L70.6932 71.8705L72.6799 70.9371L76.6421 69.0755L76.642 69.0752ZM106.477 99.4207C105.88 101.4 104.708 103.055 102.973 104.397C102.872 104.476 102.775 104.558 102.669 104.635C102.082 105.06 101.37 105.521 100.535 106.016C99.7896 106.459 98.9921 107.035 98.0489 107.533C96.6223 108.287 95.0483 109.265 93.1701 110.148L91.4764 110.943L89.49 111.877L81.0555 93.9251L83.0422 92.9916L86.5246 91.3555C87.6788 90.8131 88.707 90.2183 89.7184 89.8016C90.69 89.4015 91.5708 89.0067 92.4102 88.7222C93.4484 88.3706 94.3733 88.081 95.2093 87.9067C95.2144 87.9056 95.2134 87.892 95.2186 87.8911C97.4274 87.4337 99.4938 87.6099 101.422 88.4354C103.356 89.2629 104.814 90.7237 105.801 92.8241C106.884 95.1294 107.108 97.3266 106.477 99.4207Z" fill="url(#paint4_linear_141_1512)"/>
<path d="M108.999 81.472C106.068 79.9569 102.675 79.4795 98.8202 80.0392C100.782 77.8672 101.926 75.4839 102.252 72.8916C102.578 70.2988 102.158 67.7606 100.99 65.2753C99.4733 62.0476 97.0905 59.7353 93.8423 58.3371C90.5937 56.9394 87.2763 56.6771 84.2216 57.3925C83.4464 57.5743 82.5644 57.8293 81.4862 58.1997L77.566 49.8561L75.2776 50.9312L72.4369 52.2659L76.1681 60.2072C74.6016 60.8709 73.2851 61.5724 71.5207 62.4014L69.5045 63.3487L65.7692 55.3987L63.3403 56.5399L60.3837 57.9291L64.119 65.8791L51.04 72.0242L54.2933 78.9484L61.9868 75.3336L80.7837 115.34L73.0902 118.955L76.223 125.623L89.302 119.477L92.6758 126.658L95.6324 125.269L98.0613 124.128L94.6875 116.947L97.1399 115.795C98.7361 115.045 99.9456 114.145 101.205 113.493L104.729 120.995L107.57 119.66L109.858 118.585L106.156 110.707C106.902 110.295 107.099 110.136 107.453 109.898C109.922 108.238 112.082 106.253 113.768 104.022C115.453 101.793 116.508 99.2633 116.85 96.476C117.191 93.6886 116.763 90.9665 115.523 88.3273C114.091 85.2798 111.93 82.9879 108.999 81.472ZM76.9115 68.3213C77.8835 67.8646 78.704 67.2437 79.5923 66.9221C80.5827 66.5632 81.4949 66.2392 82.3807 66.0484C83.4759 65.8128 84.4801 65.6772 85.4151 65.6984C88.5063 65.7669 90.7213 67.2222 92.0701 70.0929C93.2977 72.7057 93.3583 75.085 92.2607 77.2424C92.0464 77.663 91.7665 78.0788 91.4279 78.4956C90.8617 79.193 90.1178 79.8837 89.2035 80.5697C88.4919 81.1035 87.7234 81.7372 86.8008 82.2643C85.9861 82.7298 85.1203 83.2486 84.1412 83.7086L80.179 85.5703L78.1923 86.5037L70.9627 71.1166L72.9495 70.1832L76.9116 68.3216L76.9115 68.3213ZM106.747 98.6668C106.15 100.646 104.978 102.301 103.243 103.643C103.141 103.722 103.045 103.804 102.939 103.881C102.351 104.306 101.639 104.767 100.805 105.262C100.059 105.705 99.2616 106.281 98.3185 106.779C96.8918 107.533 95.3178 108.511 93.4396 109.394L91.746 110.189L89.7595 111.123L81.325 93.1712L83.3117 92.2377L86.7941 90.6016C87.9484 90.0592 88.9766 89.4644 89.988 89.0477C90.9595 88.6476 91.8404 88.2528 92.6797 87.9683C93.7179 87.6167 94.6428 87.3271 95.4789 87.1528C95.484 87.1517 95.4829 87.1381 95.4881 87.1372C97.697 86.6798 99.7633 86.856 101.692 87.6815C103.625 88.509 105.084 89.9698 106.07 92.0702C107.153 94.3755 107.378 96.5727 106.747 98.6668Z" fill="url(#paint5_linear_141_1512)"/>
<path opacity="0.8" d="M129.222 34.5658L133.768 46.563L122.972 52.1556L134.287 47.8189L140.193 58.7851L135.559 47.1866L145.06 42.188L135.081 45.9462L129.222 34.5658Z" fill="url(#paint6_radial_141_1512)"/>
<defs>
<linearGradient id="paint0_linear_141_1512" x1="36.2577" y1="135.893" x2="148.999" y2="82.9216" gradientUnits="userSpaceOnUse">
<stop stop-color="#8E6737"/>
<stop offset="0.0001" stop-color="#FFDF74"/>
<stop offset="0.0002" stop-color="#EAAF26"/>
<stop offset="0.0003" stop-color="#C09E36"/>
<stop offset="0.8121" stop-color="#EDE7BC"/>
<stop offset="1" stop-color="#A68032"/>
</linearGradient>
<linearGradient id="paint1_linear_141_1512" x1="79.8104" y1="21.0116" x2="93.5097" y2="154.449" gradientUnits="userSpaceOnUse">
<stop offset="0.0165" stop-color="#E2C16E"/>
<stop offset="0.1538" stop-color="#F8F2A3"/>
<stop offset="0.2473" stop-color="#FAF4E5"/>
<stop offset="0.3736" stop-color="#F3EA89"/>
<stop offset="0.467" stop-color="#F6DB73"/>
<stop offset="0.6703" stop-color="#CE8F2C"/>
</linearGradient>
<linearGradient id="paint2_linear_141_1512" x1="73.592" y1="33.2822" x2="102.531" y2="155.947" gradientUnits="userSpaceOnUse">
<stop stop-color="#A77032"/>
<stop offset="0.1152" stop-color="#EDB12A"/>
<stop offset="0.2667" stop-color="#FFE074"/>
<stop offset="0.4545" stop-color="#C2A036"/>
<stop offset="0.8121" stop-color="#EFE9C0"/>
<stop offset="0.9725" stop-color="#A88035"/>
</linearGradient>
<linearGradient id="paint3_linear_141_1512" x1="74.2793" y1="36.1849" x2="101.688" y2="152.361" gradientUnits="userSpaceOnUse">
<stop stop-color="#FFF2B0"/>
<stop offset="0.6909" stop-color="#FFC200"/>
<stop offset="1" stop-color="#FFE47D"/>
</linearGradient>
<linearGradient id="paint4_linear_141_1512" x1="63.1812" y1="99.1926" x2="109.729" y2="77.3223" gradientUnits="userSpaceOnUse">
<stop offset="0.069" stop-color="#AA8032"/>
<stop offset="0.9725" stop-color="#A88035"/>
</linearGradient>
<linearGradient id="paint5_linear_141_1512" x1="63.4507" y1="98.4387" x2="109.998" y2="76.5684" gradientUnits="userSpaceOnUse">
<stop offset="0.1264" stop-color="#EDB12A"/>
<stop offset="0.5" stop-color="#F4CC4C"/>
<stop offset="0.9725" stop-color="#A88035"/>
</linearGradient>
<radialGradient id="paint6_radial_141_1512" cx="0" cy="0" r="1" gradientUnits="userSpaceOnUse" gradientTransform="translate(133.95 47.0314) rotate(-25.1663) scale(12.7177 12.7177)">
<stop stop-color="white"/>
<stop offset="1" stop-color="#FFF2B9"/>
</radialGradient>
</defs>
</svg>
