<svg width="241" height="485" viewBox="0 0 241 485" fill="none" xmlns="http://www.w3.org/2000/svg">
<path d="M154.52 224.427C156.917 252.921 152.453 282.549 140.117 310.807C101.507 399.275 0.69423 440.676 -85.0571 403.248C-141.139 378.775 -176.869 326.644 -184.097 268.755C-179.003 329.424 -142.697 384.836 -84.3493 410.299C1.41717 447.736 102.216 406.345 140.832 317.872C154.198 287.268 158.337 255.039 154.52 224.427Z" fill="url(#paint0_linear_141_1470)"/>
<path d="M140.494 313.056C101.884 401.525 1.0703 442.907 -84.681 405.479C-170.433 368.051 -208.64 265.999 -170.031 177.531C-131.42 89.0659 -30.6132 47.6878 55.1363 85.112C140.897 122.539 179.111 224.601 140.494 313.056Z" fill="url(#paint1_linear_141_1470)"/>
<path d="M117.743 301.061C84.5551 377.093 -2.07658 412.661 -75.8044 380.48C-149.486 348.328 -182.335 260.616 -149.15 184.58C-115.962 108.534 -29.318 72.9681 44.3707 105.13C118.093 137.305 150.928 225.012 117.743 301.061Z" fill="url(#paint2_linear_141_1470)"/>
<path d="M110.707 297.982C79.2739 369.987 -2.8078 403.682 -72.6101 373.209C-142.42 342.739 -173.514 259.665 -142.085 187.653C-110.654 115.644 -28.5984 81.951 41.2107 112.419C111.008 142.882 142.126 225.965 110.707 297.982Z" fill="url(#paint3_linear_141_1470)"/>
<path d="M41.9492 222.177C33.8238 218.811 24.7027 218.305 14.59 220.658C19.3122 214.448 21.8155 207.86 22.0993 200.901C22.3841 193.941 20.6968 187.293 17.0368 180.954C12.2835 172.721 5.43483 167.114 -3.5072 164.13C-12.4501 161.147 -21.3211 161.195 -29.2743 163.782C-31.2927 164.438 -33.5781 165.314 -36.359 166.54L-48.6463 145.258L-54.4831 148.628L-61.7289 152.811L-50.0342 173.067C-54.0462 175.182 -57.3856 177.341 -61.886 179.939L-67.0288 182.909L-78.7364 162.63L-84.9317 166.207L-92.4732 170.561L-80.7656 190.84L-114.126 210.1L-103.929 227.762L-84.3055 216.432L-25.3899 318.477L-45.0139 329.807L-35.1946 346.814L-1.83383 327.553L8.74076 345.869L16.2823 341.515L22.4776 337.938L11.903 319.622L18.1584 316.011C22.2298 313.66 25.2405 310.998 28.4382 308.984L39.4857 328.119L46.7315 323.935L52.5677 320.566L40.9655 300.47C42.8535 299.208 43.3409 298.743 44.2284 298.031C50.4135 293.066 55.7041 287.31 59.6816 281.005C63.6579 274.704 65.8928 267.749 66.1737 260.268C66.4546 252.787 64.7053 245.653 60.8188 238.921C56.3316 231.148 50.075 225.545 41.9492 222.177ZM-46.2369 194.453C-43.7577 193.022 -41.7176 191.188 -39.4303 190.134C-36.8803 188.959 -34.5301 187.893 -32.2199 187.187C-29.3637 186.315 -26.7268 185.73 -24.2383 185.576C-16.0121 185.064 -9.8016 188.432 -5.57403 195.754C-1.72639 202.418 -1.03078 208.725 -3.46178 214.702C-3.93665 215.868 -4.58672 217.035 -5.39251 218.218C-6.73964 220.197 -8.56054 222.199 -10.8351 224.227C-12.6053 225.805 -14.5043 227.661 -16.8366 229.268C-18.8962 230.687 -21.0792 232.26 -23.5767 233.702L-33.683 239.537L-38.7506 242.462L-61.4104 203.214L-56.3429 200.289L-46.2365 194.454L-46.2369 194.453ZM39.8291 268.357C38.6881 273.748 35.9469 278.408 31.6402 282.362C31.3875 282.595 31.1498 282.834 30.8853 283.062C29.4203 284.324 27.6326 285.707 25.5273 287.21C23.6462 288.553 21.6571 290.262 19.2637 291.797C15.6437 294.122 11.6825 297.073 6.89159 299.839L2.57169 302.333L-2.49522 305.259L-28.9317 259.469L-23.8641 256.544L-14.9817 251.415C-12.0374 249.715 -9.43994 247.904 -6.84698 246.57C-4.35609 245.289 -2.10506 244.043 0.0605505 243.099C2.73932 241.931 5.13105 240.954 7.31258 240.304C7.32586 240.3 7.31997 240.264 7.33363 240.26C13.0981 238.549 18.6265 238.553 23.9343 240.312C29.256 242.076 33.4579 245.629 36.551 250.986C39.9452 256.867 41.0346 262.653 39.8291 268.357Z" fill="url(#paint4_linear_141_1470)"/>
<path d="M42.5 220.115C34.3746 216.749 25.2535 216.243 15.1408 218.595C19.863 212.385 22.3663 205.798 22.6501 198.839C22.9349 191.878 21.2475 185.23 17.5876 178.891C12.8343 170.658 5.98561 165.052 -2.95641 162.067C-11.8994 159.084 -20.7703 159.132 -28.7235 161.719C-30.7419 162.376 -33.0274 163.252 -35.8082 164.478L-48.0955 143.195L-53.9323 146.565L-61.1782 150.749L-49.4834 171.005C-53.4954 173.119 -56.8348 175.279 -61.3352 177.877L-66.478 180.846L-78.1856 160.568L-84.3809 164.145L-91.9224 168.499L-80.2148 188.777L-113.576 208.038L-103.379 225.699L-83.7547 214.37L-24.8391 316.414L-44.4631 327.744L-34.6438 344.752L-1.28305 325.491L9.29154 343.807L16.833 339.453L23.0283 335.876L12.4537 317.56L18.7092 313.948C22.7805 311.598 25.7913 308.936 28.989 306.921L40.0365 326.056L47.2823 321.873L53.1185 318.503L41.5162 298.407C43.4043 297.146 43.8917 296.68 44.7792 295.968C50.9643 291.003 56.2549 285.248 60.2324 278.943C64.2087 272.642 66.4436 265.686 66.7245 258.205C67.0054 250.725 65.2561 243.59 61.3695 236.859C56.8824 229.085 50.6258 223.483 42.5 220.115ZM-45.6861 192.391C-43.2069 190.959 -41.1668 189.126 -38.8795 188.072C-36.3295 186.896 -33.9793 185.831 -31.6691 185.125C-28.8129 184.253 -26.176 183.667 -23.6875 183.513C-15.4613 183.001 -9.25082 186.369 -5.02325 193.692C-1.17561 200.356 -0.479997 206.662 -2.911 212.64C-3.38587 213.805 -4.03594 214.972 -4.84173 216.155C-6.18886 218.135 -8.00976 220.137 -10.2843 222.164C-12.0545 223.742 -13.9536 225.598 -16.2858 227.205C-18.3454 228.625 -20.5284 230.197 -23.0259 231.639L-33.1322 237.474L-38.1998 240.4L-60.8597 201.152L-55.7921 198.226L-45.6857 192.391L-45.6861 192.391ZM40.3799 266.294C39.2389 271.685 36.4977 276.346 32.191 280.299C31.9383 280.532 31.7006 280.772 31.4361 280.999C29.9711 282.261 28.1834 283.644 26.0781 285.147C24.197 286.491 22.2079 288.2 19.8145 289.734C16.1944 292.06 12.2332 295.011 7.44237 297.777L3.12247 300.271L-1.94444 303.196L-28.3809 257.407L-23.3133 254.481L-14.4309 249.353C-11.4866 247.653 -8.88916 245.842 -6.29619 244.508C-3.8053 243.227 -1.55428 241.98 0.611332 241.036C3.2901 239.869 5.68183 238.892 7.86336 238.241C7.87664 238.237 7.87075 238.201 7.88442 238.198C13.6489 236.487 19.1773 236.49 24.4851 238.25C29.8068 240.014 34.0087 243.566 37.1018 248.924C40.496 254.804 41.5854 260.59 40.3799 266.294Z" fill="url(#paint5_linear_141_1470)"/>
<path opacity="0.8" d="M85.6759 90.9802L100.445 121.827L73.0242 139.107L102.107 125.046L120.257 152.848L105.343 123.081L129.459 107.669L103.794 119.893L85.6759 90.9802Z" fill="url(#paint6_radial_141_1470)"/>
<defs>
<linearGradient id="paint0_linear_141_1470" x1="-138.505" y1="381.008" x2="149.065" y2="214.979" gradientUnits="userSpaceOnUse">
<stop stop-color="#8E6737"/>
<stop offset="0.0001" stop-color="#FFDF74"/>
<stop offset="0.0002" stop-color="#EAAF26"/>
<stop offset="0.0003" stop-color="#C09E36"/>
<stop offset="0.8121" stop-color="#EDE7BC"/>
<stop offset="1" stop-color="#A68032"/>
</linearGradient>
<linearGradient id="paint1_linear_141_1470" x1="-48.6164" y1="66.0743" x2="17.7453" y2="417.44" gradientUnits="userSpaceOnUse">
<stop offset="0.0165" stop-color="#E2C16E"/>
<stop offset="0.1538" stop-color="#F8F2A3"/>
<stop offset="0.2473" stop-color="#FAF4E5"/>
<stop offset="0.3736" stop-color="#F3EA89"/>
<stop offset="0.467" stop-color="#F6DB73"/>
<stop offset="0.6703" stop-color="#CE8F2C"/>
</linearGradient>
<linearGradient id="paint2_linear_141_1470" x1="-62.3832" y1="100.067" x2="42.0403" y2="419.394" gradientUnits="userSpaceOnUse">
<stop stop-color="#A77032"/>
<stop offset="0.1152" stop-color="#EDB12A"/>
<stop offset="0.2667" stop-color="#FFE074"/>
<stop offset="0.4545" stop-color="#C2A036"/>
<stop offset="0.8121" stop-color="#EFE9C0"/>
<stop offset="0.9725" stop-color="#A88035"/>
</linearGradient>
<linearGradient id="paint3_linear_141_1470" x1="-59.9081" y1="107.62" x2="38.9923" y2="410.057" gradientUnits="userSpaceOnUse">
<stop stop-color="#FFF2B0"/>
<stop offset="0.6909" stop-color="#FFC200"/>
<stop offset="1" stop-color="#FFE47D"/>
</linearGradient>
<linearGradient id="paint4_linear_141_1470" x1="-75.227" y1="277.476" x2="43.5026" y2="208.928" gradientUnits="userSpaceOnUse">
<stop offset="0.069" stop-color="#AA8032"/>
<stop offset="0.9725" stop-color="#A88035"/>
</linearGradient>
<linearGradient id="paint5_linear_141_1470" x1="-74.6762" y1="275.414" x2="44.0534" y2="206.865" gradientUnits="userSpaceOnUse">
<stop offset="0.1264" stop-color="#EDB12A"/>
<stop offset="0.5" stop-color="#F4CC4C"/>
<stop offset="0.9725" stop-color="#A88035"/>
</linearGradient>
<radialGradient id="paint6_radial_141_1470" cx="0" cy="0" r="1" gradientUnits="userSpaceOnUse" gradientTransform="translate(101.035 123.03) rotate(-30) scale(33.9018 33.9018)">
<stop stop-color="white"/>
<stop offset="1" stop-color="#FFF2B9"/>
</radialGradient>
</defs>
</svg>
