<svg width="121" height="121" viewBox="0 0 121 121" fill="none" xmlns="http://www.w3.org/2000/svg">
<path d="M95.7434 46.101C98.0442 52.4887 98.8411 59.5581 97.7485 66.7973C94.33 89.4601 73.7529 105.151 51.7858 101.837C37.4196 99.67 26.0211 89.9094 20.8059 77.0769C25.7027 90.6783 37.4347 101.156 52.3815 103.41C74.3526 106.726 94.927 91.038 98.3468 68.3736C99.5314 60.5332 98.5001 52.8872 95.7434 46.101Z" fill="url(#paint0_linear_141_1484)"/>
<path d="M97.9708 67.2895C94.5524 89.9524 73.974 105.639 52.0069 102.325C30.0396 99.0103 15.0052 77.9526 18.4234 55.2898C21.8425 32.6276 42.4196 16.9426 64.386 20.2562C86.3551 23.5696 101.392 44.6292 97.9708 67.2895Z" fill="url(#paint1_linear_141_1484)"/>
<path d="M92.0175 65.9367C89.0784 85.4142 71.3953 98.8956 52.5082 96.0457C33.6335 93.1998 20.7094 75.1016 23.6476 55.6235C26.586 36.1428 44.272 22.6612 63.149 25.5091C82.0344 28.3579 94.9551 46.4555 92.0175 65.9367Z" fill="url(#paint2_linear_141_1484)"/>
<path d="M90.2149 65.6633C87.4307 84.1093 70.676 96.8815 52.7941 94.182C34.9109 91.484 22.6741 74.3418 25.457 55.8943C28.2405 37.4475 44.9892 24.6775 62.8723 27.3754C80.7523 30.0727 92.9951 47.2154 90.2149 65.6633Z" fill="url(#paint3_linear_141_1484)"/>
<path d="M69.7857 52.5022C67.7153 52.2295 65.5923 52.674 63.4175 53.835C64.119 52.1206 64.2883 50.4559 63.9257 48.8424C63.5632 47.2285 62.7677 45.8076 61.5388 44.5786C59.9426 42.9825 58.0273 42.1175 55.7931 41.9825C53.5587 41.848 51.5271 42.4042 49.862 43.4862C49.4395 43.7609 48.9691 44.1021 48.4067 44.5542L44.2807 40.4283L43.1491 41.5598L41.7444 42.9646L45.6714 46.8916C44.8812 47.6232 44.248 48.3236 43.3755 49.1961L42.3785 50.1931L38.4472 46.2618L37.2461 47.4629L35.784 48.925L39.7153 52.8563L33.2477 59.3239L36.6717 62.7479L40.4762 58.9434L60.2596 78.7268L56.4551 82.5312L59.7523 85.8285L66.2199 79.3608L69.7708 82.9117L71.2328 81.4496L72.4339 80.2486L68.8831 76.6977L70.0958 75.485C70.8851 74.6957 71.412 73.9001 72.0216 73.2416L75.7313 76.9512L77.136 75.5465L78.2675 74.415L74.3715 70.5191C74.727 70.1137 74.8102 69.9769 74.97 69.7591C76.0834 68.2403 76.9431 66.5951 77.4679 64.9047C77.9926 63.2152 78.0777 61.4825 77.6825 59.7496C77.2872 58.0167 76.4475 56.4879 75.1425 55.1828C73.6356 53.6757 71.8564 52.7753 69.7857 52.5022ZM47.8566 51.5631C48.3372 51.0825 48.6924 50.5365 49.1522 50.1543C49.6648 49.728 50.1384 49.3391 50.6248 49.0353C51.2263 48.6598 51.7951 48.3634 52.3564 48.1752C54.2116 47.5522 55.8429 47.943 57.2625 49.3626C58.5545 50.6546 59.1016 52.0582 58.9114 53.5785C58.8741 53.875 58.7967 54.1826 58.6846 54.5035C58.4973 55.0403 58.2027 55.6113 57.8057 56.2161C57.4966 56.6867 57.1751 57.2291 56.739 57.7411C56.3539 58.1932 55.9498 58.688 55.4657 59.1722L53.5063 61.1315L52.5239 62.114L44.9149 54.505L45.8974 53.5225L47.8567 51.5632L47.8566 51.5631ZM72.1374 63.2237C72.207 64.5303 71.8648 65.7677 71.12 66.9391C71.0763 67.0081 71.0365 67.0775 70.9899 67.146C70.7314 67.5255 70.4064 67.9525 70.0159 68.4266C69.667 68.8503 69.3159 69.3645 68.8612 69.8636C68.1739 70.6194 67.4467 71.5396 66.5179 72.4684L65.6804 73.3059L64.6981 74.2882L55.821 65.4111L56.8034 64.4286L58.5255 62.7066C59.0963 62.1358 59.5807 61.5608 60.0934 61.0955C60.586 60.6486 61.0257 60.2244 61.4643 59.8748C62.007 59.4425 62.4955 59.0714 62.9558 58.7881C62.9586 58.7863 62.955 58.7784 62.958 58.7768C64.1749 58.0301 65.443 57.6912 66.7685 57.7686C68.0974 57.8461 69.2795 58.4027 70.3181 59.4413C71.4579 60.5814 72.0634 61.8414 72.1374 63.2237Z" fill="url(#paint4_linear_141_1484)"/>
<path d="M69.7838 51.9963C67.7134 51.7237 65.5904 52.1682 63.4156 53.3292C64.117 51.6147 64.2863 49.95 63.9237 48.3365C63.5613 46.7227 62.7658 45.3017 61.5368 44.0727C59.9407 42.4766 58.0254 41.6116 55.7911 41.4767C53.5568 41.3421 51.5252 41.8983 49.8601 42.9803C49.4375 43.255 48.9672 43.5963 48.4047 44.0484L44.2788 39.9224L43.1472 41.054L41.7424 42.4587L45.6694 46.3857C44.8792 47.1173 44.246 47.8177 43.3736 48.6902L42.3765 49.6873L38.4452 45.756L37.2441 46.957L35.7821 48.4191L39.7134 52.3504L33.2458 58.818L36.6698 62.2421L40.4743 58.4376L60.2576 78.2209L56.4531 82.0254L59.7503 85.3226L66.218 78.855L69.7688 82.4058L71.2309 80.9438L72.432 79.7427L68.8811 76.1918L70.0938 74.9791C70.8832 74.1898 71.4101 73.3943 72.0197 72.7357L75.7293 76.4453L77.1341 75.0406L78.2655 73.9091L74.3696 70.0132C74.7251 69.6078 74.8082 69.4711 74.968 69.2532C76.0815 67.7345 76.9412 66.0893 77.4659 64.3988C77.9907 62.7094 78.0758 60.9767 77.6805 59.2437C77.2852 57.5108 76.4456 55.982 75.1405 54.677C73.6337 53.1699 71.8544 52.2695 69.7838 51.9963ZM47.8546 51.0573C48.3352 50.5766 48.6904 50.0307 49.1503 49.6484C49.6629 49.2221 50.1364 48.8333 50.6229 48.5294C51.2244 48.1539 51.7931 47.8576 52.3544 47.6694C54.2096 47.0463 55.841 47.4372 57.2606 48.8567C58.5526 50.1487 59.0996 51.5523 58.9094 53.0726C58.8721 53.3691 58.7948 53.6768 58.6827 53.9976C58.4954 54.5344 58.2008 55.1055 57.8037 55.7103C57.4947 56.1809 57.1732 56.7233 56.7371 57.2352C56.3519 57.6873 55.9479 58.1822 55.4637 58.6664L53.5044 60.6257L52.5219 61.6081L44.913 53.9991L45.8954 53.0167L47.8547 51.0574L47.8546 51.0573ZM72.1355 62.7179C72.2051 64.0245 71.8628 65.2618 71.118 66.4332C71.0744 66.5022 71.0346 66.5717 70.9879 66.6402C70.7295 67.0196 70.4044 67.4466 70.014 67.9208C69.6651 68.3445 69.3139 68.8587 68.8593 69.3577C68.172 70.1135 67.4448 71.0337 66.516 71.9625L65.6785 72.8L64.6962 73.7823L55.819 64.9052L56.8015 63.9228L58.5235 62.2007C59.0943 61.6299 59.5788 61.0549 60.0915 60.5896C60.584 60.1427 61.0237 59.7185 61.4624 59.3689C62.005 58.9366 62.4935 58.5655 62.9538 58.2822C62.9566 58.2804 62.9531 58.2726 62.956 58.2709C64.1729 57.5242 65.4411 57.1854 66.7666 57.2627C68.0955 57.3402 69.2775 57.8968 70.3162 58.9355C71.456 60.0755 72.0614 61.3356 72.1355 62.7179Z" fill="url(#paint5_linear_141_1484)"/>
<path opacity="0.8" d="M71.7528 19.7258L77.0358 25.8927L71.8087 31.5411L77.6147 26.5289L83.486 31.79L78.2361 25.8794L82.8199 20.8627L77.685 25.2435L71.7528 19.7258Z" fill="url(#paint6_radial_141_1484)"/>
<defs>
<linearGradient id="paint0_linear_141_1484" x1="38.1608" y1="100.02" x2="93.9117" y2="44.2693" gradientUnits="userSpaceOnUse">
<stop stop-color="#8E6737"/>
<stop offset="0.0001" stop-color="#FFDF74"/>
<stop offset="0.0002" stop-color="#EAAF26"/>
<stop offset="0.0003" stop-color="#C09E36"/>
<stop offset="0.8121" stop-color="#EDE7BC"/>
<stop offset="1" stop-color="#A68032"/>
</linearGradient>
<linearGradient id="paint1_linear_141_1484" x1="39.4204" y1="22.2659" x2="76.2333" y2="98.7732" gradientUnits="userSpaceOnUse">
<stop offset="0.0165" stop-color="#E2C16E"/>
<stop offset="0.1538" stop-color="#F8F2A3"/>
<stop offset="0.2473" stop-color="#FAF4E5"/>
<stop offset="0.3736" stop-color="#F3EA89"/>
<stop offset="0.467" stop-color="#F6DB73"/>
<stop offset="0.6703" stop-color="#CE8F2C"/>
</linearGradient>
<linearGradient id="paint2_linear_141_1484" x1="38.3538" y1="30.9084" x2="81.9273" y2="97.7286" gradientUnits="userSpaceOnUse">
<stop stop-color="#A77032"/>
<stop offset="0.1152" stop-color="#EDB12A"/>
<stop offset="0.2667" stop-color="#FFE074"/>
<stop offset="0.4545" stop-color="#C2A036"/>
<stop offset="0.8121" stop-color="#EFE9C0"/>
<stop offset="0.9725" stop-color="#A88035"/>
</linearGradient>
<linearGradient id="paint3_linear_141_1484" x1="39.3858" y1="32.4888" x2="80.6546" y2="95.7748" gradientUnits="userSpaceOnUse">
<stop stop-color="#FFF2B0"/>
<stop offset="0.6909" stop-color="#FFC200"/>
<stop offset="1" stop-color="#FFE47D"/>
</linearGradient>
<linearGradient id="paint4_linear_141_1484" x1="46.3098" y1="72.3859" x2="69.3278" y2="49.3679" gradientUnits="userSpaceOnUse">
<stop offset="0.069" stop-color="#AA8032"/>
<stop offset="0.9725" stop-color="#A88035"/>
</linearGradient>
<linearGradient id="paint5_linear_141_1484" x1="46.3078" y1="71.8801" x2="69.3258" y2="48.8621" gradientUnits="userSpaceOnUse">
<stop offset="0.1264" stop-color="#EDB12A"/>
<stop offset="0.5" stop-color="#F4CC4C"/>
<stop offset="0.9725" stop-color="#A88035"/>
</linearGradient>
<radialGradient id="paint6_radial_141_1484" cx="0" cy="0" r="1" gradientUnits="userSpaceOnUse" gradientTransform="translate(77.2449 26.1325) rotate(-45) scale(8.04966 8.04966)">
<stop stop-color="white"/>
<stop offset="1" stop-color="#FFF2B9"/>
</radialGradient>
</defs>
</svg>
