<svg width="241" height="485" viewBox="0 0 241 485" fill="none" xmlns="http://www.w3.org/2000/svg">
<path d="M154.52 224.427C156.917 252.921 152.453 282.549 140.117 310.807C101.507 399.275 0.69423 440.676 -85.0571 403.248C-141.139 378.775 -176.869 326.644 -184.097 268.755C-179.003 329.424 -142.697 384.836 -84.3493 410.299C1.41717 447.736 102.216 406.345 140.832 317.872C154.198 287.268 158.337 255.039 154.52 224.427Z" fill="url(#paint0_linear_724_213)"/>
<path d="M140.494 313.056C101.884 401.525 1.0703 442.907 -84.681 405.479C-170.433 368.051 -208.64 265.999 -170.031 177.531C-131.42 89.0659 -30.6132 47.6878 55.1363 85.112C140.897 122.539 179.111 224.601 140.494 313.056Z" fill="url(#paint1_linear_724_213)"/>
<path d="M117.743 301.061C84.5551 377.093 -2.07658 412.661 -75.8044 380.48C-149.486 348.328 -182.335 260.616 -149.15 184.58C-115.962 108.534 -29.318 72.9681 44.3707 105.13C118.093 137.305 150.928 225.012 117.743 301.061Z" fill="url(#paint2_linear_724_213)"/>
<path d="M110.707 297.982C79.2739 369.987 -2.8078 403.682 -72.6101 373.209C-142.42 342.739 -173.514 259.665 -142.085 187.653C-110.654 115.644 -28.5984 81.951 41.2107 112.419C111.008 142.882 142.126 225.965 110.707 297.982Z" fill="url(#paint3_linear_724_213)"/>
<path opacity="0.8" d="M85.6759 90.9802L100.445 121.827L73.0242 139.107L102.107 125.046L120.257 152.848L105.343 123.081L129.459 107.669L103.794 119.893L85.6759 90.9802Z" fill="url(#paint4_radial_724_213)"/>
<path d="M13.7955 266.647L-1.69782 242.484L60.7168 202.464L97.3488 259.596C95.047 269.355 89.5669 280.185 80.9085 292.087C72.2735 303.882 62.0537 313.564 50.2491 321.133C35.2487 330.751 20.165 336.004 4.99812 336.894C-10.2106 337.719 -24.3621 334.092 -37.4562 326.014C-50.5922 317.871 -61.5719 306.919 -70.3953 293.158C-79.9715 278.222 -85.3508 262.943 -86.5333 247.32C-87.7157 231.696 -84.2605 216.918 -76.1676 202.986C-70.0244 192.329 -60.1048 182.61 -46.4088 173.828C-28.604 162.412 -12.3078 157.255 2.47968 158.357C17.2906 159.352 30.3544 165.517 41.6711 176.851L16.3595 200.673C9.82141 194.926 2.45163 191.829 -5.74989 191.381C-13.928 190.827 -22.1911 193.226 -30.5391 198.579C-43.1916 206.691 -50.6962 217.163 -53.0528 229.994C-55.3443 242.783 -51.4301 257.069 -41.3103 272.852C-30.396 289.874 -18.4171 300.232 -5.37361 303.925C7.62806 307.552 20.2595 305.435 32.5207 297.574C38.586 293.685 43.8987 288.622 48.4586 282.385C53.042 276.041 56.4312 269.772 58.6264 263.579L46.9594 245.383L13.7955 266.647Z" fill="url(#paint5_linear_724_213)"/>
<defs>
<linearGradient id="paint0_linear_724_213" x1="-138.505" y1="381.008" x2="149.065" y2="214.979" gradientUnits="userSpaceOnUse">
<stop stop-color="#8E6737"/>
<stop offset="0.0001" stop-color="#FFDF74"/>
<stop offset="0.0002" stop-color="#EAAF26"/>
<stop offset="0.0003" stop-color="#C09E36"/>
<stop offset="0.8121" stop-color="#EDE7BC"/>
<stop offset="1" stop-color="#A68032"/>
</linearGradient>
<linearGradient id="paint1_linear_724_213" x1="-48.6164" y1="66.0743" x2="17.7453" y2="417.44" gradientUnits="userSpaceOnUse">
<stop offset="0.0165" stop-color="#E2C16E"/>
<stop offset="0.1538" stop-color="#F8F2A3"/>
<stop offset="0.2473" stop-color="#FAF4E5"/>
<stop offset="0.3736" stop-color="#F3EA89"/>
<stop offset="0.467" stop-color="#F6DB73"/>
<stop offset="0.6703" stop-color="#CE8F2C"/>
</linearGradient>
<linearGradient id="paint2_linear_724_213" x1="-62.3832" y1="100.067" x2="42.0403" y2="419.394" gradientUnits="userSpaceOnUse">
<stop stop-color="#A77032"/>
<stop offset="0.1152" stop-color="#EDB12A"/>
<stop offset="0.2667" stop-color="#FFE074"/>
<stop offset="0.4545" stop-color="#C2A036"/>
<stop offset="0.8121" stop-color="#EFE9C0"/>
<stop offset="0.9725" stop-color="#A88035"/>
</linearGradient>
<linearGradient id="paint3_linear_724_213" x1="-59.9081" y1="107.62" x2="38.9923" y2="410.057" gradientUnits="userSpaceOnUse">
<stop stop-color="#FFF2B0"/>
<stop offset="0.6909" stop-color="#FFC200"/>
<stop offset="1" stop-color="#FFE47D"/>
</linearGradient>
<radialGradient id="paint4_radial_724_213" cx="0" cy="0" r="1" gradientUnits="userSpaceOnUse" gradientTransform="translate(101.035 123.03) rotate(-30) scale(33.9018 33.9018)">
<stop stop-color="white"/>
<stop offset="1" stop-color="#FFF2B9"/>
</radialGradient>
<linearGradient id="paint5_linear_724_213" x1="-8.83779" y1="237.964" x2="8.97429" y2="265.744" gradientUnits="userSpaceOnUse">
<stop stop-color="#A98135"/>
<stop offset="1" stop-color="#E5BD48"/>
</linearGradient>
</defs>
</svg>
