<svg width="142" height="138" viewBox="0 0 142 138" fill="none" xmlns="http://www.w3.org/2000/svg">
<path d="M111.088 100.465C105.216 107.415 97.5457 113.077 88.4122 116.659C59.8204 127.877 27.8233 114.51 16.9507 86.7951C9.83905 68.6707 13.5291 48.9022 24.9275 34.2514C12.4234 49.0479 8.1247 69.6838 15.5235 88.5408C26.3973 116.261 58.3893 129.627 86.9837 118.41C96.8766 114.531 105.059 108.211 111.088 100.465Z" fill="url(#paint0_linear_141_1498)"/>
<path d="M87.9926 117.248C59.4007 128.466 27.4075 115.094 16.5349 87.3799C5.66236 59.6651 20.0271 28.1074 48.6187 16.8893C77.2102 5.67275 109.201 19.0438 120.074 46.7571C130.949 74.4735 116.583 106.035 87.9926 117.248Z" fill="url(#paint1_linear_141_1498)"/>
<path d="M85.5719 109.432C60.9981 119.072 33.5038 107.583 24.1562 83.7541C14.8121 59.9422 27.1562 32.8167 51.7302 23.1755C76.3073 13.5326 103.804 25.0249 113.147 48.8407C122.495 72.667 110.149 99.7882 85.5719 109.432Z" fill="url(#paint2_linear_141_1498)"/>
<path d="M84.6837 107.157C61.4107 116.285 35.3616 105.398 26.5128 82.837C17.6615 60.2749 29.3567 34.5876 52.6305 25.4566C75.9039 16.3269 101.946 27.2081 110.798 49.77C119.648 72.3278 107.956 98.0226 84.6837 107.157Z" fill="url(#paint3_linear_141_1498)"/>
<path d="M86.2636 74.6275C85.1927 72.042 83.2544 69.876 80.4498 68.13C82.9094 67.7953 84.9549 66.8763 86.5844 65.3745C88.2146 63.8725 89.3306 61.9971 89.9335 59.7474C90.7164 56.8256 90.4369 54.0232 89.0965 51.3398C87.7555 48.6565 85.7487 46.6715 83.3773 45.464C82.7754 45.1577 82.0642 44.8405 81.1627 44.4907L83.1865 36.9377L81.115 36.3827L78.5435 35.6936L76.6173 42.8824C75.2388 42.4555 74.0017 42.19 72.4045 41.762L70.5793 41.2729L72.5077 34.0763L70.309 33.4872L67.6325 32.7701L65.7042 39.9667L53.8646 36.7943L52.1851 43.0623L59.1496 44.9284L49.4458 81.1435L42.4813 79.2774L40.864 85.3133L52.7036 88.4857L50.9619 94.9858L53.6383 95.703L55.837 96.2921L57.5787 89.792L59.7987 90.3868C61.2436 90.774 62.5199 90.8525 63.6927 91.1187L61.8731 97.9095L64.4446 98.5985L66.5158 99.1535L68.4268 92.0217C69.1355 92.1625 69.3499 92.1675 69.7098 92.2069C72.2184 92.4815 74.7038 92.3769 77.0172 91.8532C79.3295 91.3302 81.3974 90.268 83.1437 88.6481C84.89 87.0282 86.1016 85.0294 86.7418 82.6404C87.4812 79.8818 87.334 77.2137 86.2636 74.6275ZM72.6599 48.5485C73.5398 48.7842 74.4114 48.8306 75.1631 49.1082C76.0013 49.4174 76.7699 49.7064 77.4485 50.0674C78.2873 50.5139 79.0123 50.9754 79.6068 51.5007C81.5729 53.2363 82.2124 55.3914 81.5161 57.9901C80.8824 60.3552 79.62 61.9306 77.7282 62.7285C77.3591 62.8839 76.9502 63.0002 76.5028 63.0851C75.7543 63.2274 74.8941 63.2682 73.9262 63.2126C73.173 63.1693 72.3281 63.1596 71.4417 62.9965C70.659 62.8524 69.814 62.7151 68.9276 62.4776L65.3409 61.5166L63.5425 61.0347L67.2747 47.1058L69.0732 47.5876L72.6599 48.5487L72.6599 48.5485ZM75.3964 84.5407C73.9267 85.4969 72.2614 85.9288 70.4029 85.8493C70.2936 85.8449 70.1863 85.8452 70.0755 85.837C69.462 85.7913 68.7487 85.7001 67.9367 85.5647C67.2113 85.4437 66.3792 85.3807 65.4954 85.1875C64.1577 84.8962 62.6026 84.6689 60.9023 84.2133L59.3692 83.8025L57.571 83.3207L61.9252 67.0703L63.7237 67.5522L66.876 68.3968C67.9209 68.6768 68.9128 68.8538 69.7964 69.137C70.645 69.4092 71.4319 69.6353 72.1316 69.9101C72.9969 70.2502 73.7549 70.5685 74.3921 70.9129C74.3961 70.9149 74.4028 70.9055 74.4067 70.9078C76.0886 71.8198 77.3316 73.0645 78.13 74.6546C78.9305 76.2488 79.0765 77.9936 78.5671 79.8949C78.0077 81.9816 76.951 83.5285 75.3964 84.5407Z" fill="url(#paint4_linear_141_1498)"/>
<path d="M86.8495 74.2857C85.7787 71.7002 83.8403 69.5342 81.0357 67.7882C83.4954 67.4535 85.5408 66.5345 87.1704 65.0327C88.8005 63.5307 89.9166 61.6553 90.5194 59.4056C91.3023 56.4838 91.0228 53.6814 89.6824 50.998C88.3414 48.3147 86.3347 46.3297 83.9633 45.1222C83.3614 44.8159 82.6501 44.4987 81.7486 44.1489L83.7724 36.5959L81.701 36.0409L79.1294 35.3518L77.2032 42.5406C75.8247 42.1137 74.5876 41.8482 72.9904 41.4202L71.1653 40.9311L73.0936 33.7345L70.8949 33.1454L68.2185 32.4283L66.2902 39.6249L54.4506 36.4525L52.7711 42.7205L59.7355 44.5866L50.0317 80.8017L43.0673 78.9356L41.45 84.9715L53.2895 88.1439L51.5478 94.644L54.2242 95.3612L56.4229 95.9503L58.1646 89.4502L60.3847 90.045C61.8296 90.4322 63.1059 90.5107 64.2786 90.7769L62.459 97.5677L65.0305 98.2567L67.1018 98.8117L69.0127 91.6799C69.7214 91.8207 69.9358 91.8257 70.2957 91.8651C72.8044 92.1397 75.2897 92.0351 77.6032 91.5114C79.9155 90.9884 81.9834 89.9262 83.7297 88.3063C85.476 86.6864 86.6876 84.6876 87.3277 82.2986C88.0671 79.54 87.9199 76.8719 86.8495 74.2857ZM73.2459 48.2067C74.1257 48.4424 74.9973 48.4889 75.749 48.7664C76.5873 49.0756 77.3558 49.3647 78.0344 49.7256C78.8732 50.1721 79.5982 50.6336 80.1927 51.1589C82.1589 52.8945 82.7984 55.0496 82.1021 57.6483C81.4683 60.0134 80.2059 61.5888 78.3141 62.3867C77.9451 62.5421 77.5362 62.6585 77.0887 62.7433C76.3402 62.8856 75.4801 62.9264 74.5122 62.8708C73.7589 62.8275 72.914 62.8178 72.0277 62.6547C71.2449 62.5106 70.3999 62.3733 69.5136 62.1358L65.9269 61.1748L64.1284 60.6929L67.8607 46.764L69.6591 47.2459L73.2458 48.2069L73.2459 48.2067ZM75.9824 84.1989C74.5127 85.1551 72.8473 85.587 70.9888 85.5075C70.8795 85.5031 70.7722 85.5034 70.6614 85.4952C70.0479 85.4495 69.3346 85.3583 68.5227 85.2229C67.7972 85.1019 66.9651 85.0389 66.0813 84.8457C64.7436 84.5544 63.1885 84.3271 61.4882 83.8715L59.9551 83.4607L58.1569 82.9789L62.5112 66.7285L64.3096 67.2104L67.462 68.055C68.5069 68.335 69.4988 68.512 70.3823 68.7952C71.231 69.0674 72.0179 69.2935 72.7176 69.5683C73.5829 69.9084 74.3408 70.2267 74.9781 70.5711C74.982 70.5731 74.9888 70.5637 74.9926 70.566C76.6746 71.478 77.9176 72.7227 78.7159 74.3129C79.5164 75.907 79.6625 77.6518 79.153 79.5531C78.5937 81.6398 77.537 83.1867 75.9824 84.1989Z" fill="url(#paint5_linear_141_1498)"/>
<path opacity="0.8" d="M125.623 54.9524L122.006 65.2157L111.948 62.9341L121.655 66.3139L119.483 76.653L122.825 66.5998L131.719 68.5581L123.194 65.5341L125.623 54.9524Z" fill="url(#paint6_radial_141_1498)"/>
<defs>
<linearGradient id="paint0_linear_141_1498" x1="9.92924" y1="69.7656" x2="111.986" y2="97.1117" gradientUnits="userSpaceOnUse">
<stop stop-color="#8E6737"/>
<stop offset="0.0001" stop-color="#FFDF74"/>
<stop offset="0.0002" stop-color="#EAAF26"/>
<stop offset="0.0003" stop-color="#C09E36"/>
<stop offset="0.8121" stop-color="#EDE7BC"/>
<stop offset="1" stop-color="#A68032"/>
</linearGradient>
<linearGradient id="paint1_linear_141_1498" x1="101.013" y1="19.13" x2="36.8892" y2="113.116" gradientUnits="userSpaceOnUse">
<stop offset="0.0165" stop-color="#E2C16E"/>
<stop offset="0.1538" stop-color="#F8F2A3"/>
<stop offset="0.2473" stop-color="#FAF4E5"/>
<stop offset="0.3736" stop-color="#F3EA89"/>
<stop offset="0.467" stop-color="#F6DB73"/>
<stop offset="0.6703" stop-color="#CE8F2C"/>
</linearGradient>
<linearGradient id="paint2_linear_141_1498" x1="90.267" y1="23.6825" x2="41.9151" y2="119.024" gradientUnits="userSpaceOnUse">
<stop stop-color="#A77032"/>
<stop offset="0.1152" stop-color="#EDB12A"/>
<stop offset="0.2667" stop-color="#FFE074"/>
<stop offset="0.4545" stop-color="#C2A036"/>
<stop offset="0.8121" stop-color="#EFE9C0"/>
<stop offset="0.9725" stop-color="#A88035"/>
</linearGradient>
<linearGradient id="paint3_linear_141_1498" x1="89.1266" y1="25.939" x2="43.3321" y2="116.238" gradientUnits="userSpaceOnUse">
<stop stop-color="#FFF2B0"/>
<stop offset="0.6909" stop-color="#FFC200"/>
<stop offset="1" stop-color="#FFE47D"/>
</linearGradient>
<linearGradient id="paint4_linear_141_1498" x1="47.4576" y1="60.7055" x2="89.5942" y2="71.996" gradientUnits="userSpaceOnUse">
<stop offset="0.069" stop-color="#AA8032"/>
<stop offset="0.9725" stop-color="#A88035"/>
</linearGradient>
<linearGradient id="paint5_linear_141_1498" x1="48.0436" y1="60.3637" x2="90.1801" y2="71.6542" gradientUnits="userSpaceOnUse">
<stop offset="0.1264" stop-color="#EDB12A"/>
<stop offset="0.5" stop-color="#F4CC4C"/>
<stop offset="0.9725" stop-color="#A88035"/>
</linearGradient>
<radialGradient id="paint6_radial_141_1498" cx="0" cy="0" r="1" gradientUnits="userSpaceOnUse" gradientTransform="translate(121.867 65.619) rotate(15) scale(10.7872 10.7872)">
<stop stop-color="white"/>
<stop offset="1" stop-color="#FFF2B9"/>
</radialGradient>
</defs>
</svg>
