<svg width="19" height="19" viewBox="0 0 19 19" fill="none" xmlns="http://www.w3.org/2000/svg">
<path d="M16.2216 2.78661C12.5139 -0.925639 6.49892 -0.92933 2.78662 2.77832C-0.925629 6.48605 -0.929365 12.5011 2.77837 16.2134C6.48602 19.9256 12.5011 19.9293 16.2134 16.2216C19.9256 12.514 19.9294 6.49886 16.2216 2.78661ZM10.8264 15.5282C10.8264 15.6748 10.7077 15.7935 10.5612 15.7935H8.43888C8.29239 15.7935 8.1736 15.6748 8.1736 15.5282V7.6498C8.1736 7.50322 8.29239 7.38452 8.43888 7.38452H10.5612C10.7077 7.38452 10.8264 7.50317 10.8264 7.6498V15.5282ZM9.50002 6.28356C8.65168 6.28356 7.96144 5.59342 7.96144 4.74503C7.96144 3.89673 8.65163 3.20645 9.50002 3.20645C10.3484 3.20645 11.0386 3.89668 11.0386 4.74503C11.0386 5.59342 10.3483 6.28356 9.50002 6.28356Z" fill="black"/>
</svg>
