<svg width="276" height="69" viewBox="0 0 276 69" fill="none" xmlns="http://www.w3.org/2000/svg">
<g clip-path="url(#clip0_141_1280)">
<g clip-path="url(#clip1_141_1280)">
<g clip-path="url(#clip2_141_1280)">
<path fill-rule="evenodd" clip-rule="evenodd" d="M32.2207 26.7596L31.3375 26.4377L8.14332 18.0349L19.0346 13.9615L19.5217 14.1349L20.4338 14.4692L32.2413 18.7407L41.8327 22.1992L42.7284 22.5211L43.2895 22.7233L33.0956 26.4377L32.2207 26.7596ZM26.22 17.9483L23.884 16.9784L21.0859 17.9689L23.4218 18.9428L26.22 17.9483ZM24.1564 20.7259L22.2332 19.9251L19.9385 20.7423L21.8534 21.5512L24.1564 20.7259ZM29.1089 19.9004L27.1857 19.0998L24.8828 19.9251L26.806 20.7259L29.1089 19.9004ZM21.5439 15.9467L19.5836 15.1419L17.3137 15.959L19.2699 16.7721L21.5439 15.9467ZM17.3096 17.1311L13.3105 18.5384L16.6451 19.9251L20.6443 18.5137L17.3096 17.1311ZM12.9101 12.5913L15.1222 11.8485L16.9835 12.6079L14.7673 13.3549L12.9101 12.5913ZM8.5973 13.6561L5.60928 12.4304L9.17512 11.2377L12.1631 12.4593L8.5973 13.6561ZM5.44008 13.6479L8.0484 14.7168L4.93657 15.7609L2.32826 14.692L5.44008 13.6479ZM3.59527 10.3421L5.76199 11.2294L3.17844 12.0961L1.01172 11.2088L3.59527 10.3421ZM9.1503 8.72839L10.5783 9.31444L8.87794 9.88397L7.4541 9.30206L9.1503 8.72839ZM3.77686 7.45312L5.20071 8.03504L3.50447 8.60871L2.0765 8.02266L3.77686 7.45312ZM162.091 53.2309C155.674 53.2309 152.323 48.9016 152.323 43.0534V39.7517C152.323 33.9038 155.674 29.5703 162.091 29.5703C168.51 29.5703 171.872 33.8954 171.872 39.7436V43.0453C171.872 48.9016 168.51 53.2309 162.091 53.2309ZM166.467 39.7436C166.467 36.3883 164.956 34.2216 162.091 34.2216C159.228 34.2216 157.717 36.3883 157.717 39.7436V43.0453C157.717 46.3964 159.231 48.5631 162.091 48.5631C164.952 48.5631 166.467 46.3964 166.467 43.0453V39.7436ZM185.802 53.2309C184.489 53.2205 183.178 53.1255 181.876 52.9461V60.185C181.876 60.4039 181.789 60.6139 181.635 60.7686C181.48 60.9235 181.27 61.0104 181.051 61.0104H177.291C177.073 61.0104 176.863 60.9235 176.709 60.7686C176.553 60.6139 176.467 60.4039 176.467 60.185V31.7288C176.467 31.1179 176.631 30.8704 177.572 30.6268C180.259 29.9453 183.018 29.5878 185.789 29.562C192.369 29.562 195.558 33.4456 195.558 39.8219V42.9709C195.57 49.3472 192.38 53.2309 185.802 53.2309ZM190.172 39.8219C190.172 36.4709 189.313 33.978 185.802 33.978C184.488 33.9657 183.175 34.0609 181.876 34.2628V48.5301C183.178 48.7026 184.489 48.7991 185.802 48.819C189.313 48.819 190.172 46.3428 190.172 42.9709V39.8219ZM218.097 43.2599H204.766V43.3795C204.766 45.7526 205.748 48.5714 209.672 48.5714C212.657 48.5714 215.476 48.3279 217.192 48.1587H217.316C217.729 48.1587 218.051 48.365 218.051 48.7737V51.4727C218.051 52.1248 217.931 52.4096 217.192 52.5334C214.583 53.0543 211.925 53.2867 209.265 53.2267C205.175 53.2267 199.359 51.0229 199.359 42.9668V39.9457C199.359 33.5694 202.917 29.562 209.173 29.562C215.43 29.562 218.922 33.8665 218.922 39.9457V42.2363C218.922 42.8883 218.666 43.2599 218.097 43.2599ZM213.474 39.2524C213.474 36.0623 211.715 34.2216 209.182 34.2216C206.647 34.2216 204.806 36.0209 204.806 39.2524V39.4134H213.474V39.2524ZM240.697 52.1702C238.009 52.8484 235.251 53.2046 232.479 53.2309C225.875 53.2309 222.71 49.3472 222.71 42.9709V39.8219C222.71 33.4456 225.896 29.562 232.479 29.562C233.793 29.5742 235.103 29.6707 236.404 29.8509V22.612C236.404 22.3931 236.491 22.1832 236.646 22.0284C236.801 21.8736 237.01 21.7866 237.229 21.7866H240.99C241.208 21.7866 241.419 21.8736 241.572 22.0284C241.727 22.1832 241.815 22.3931 241.815 22.612V51.0889C241.802 51.6791 241.62 51.9267 240.697 52.1702ZM236.404 34.2792C235.102 34.1101 233.792 34.0151 232.479 33.9945C228.963 33.9945 228.104 36.4709 228.104 39.8385V42.9874C228.104 46.3387 228.963 48.8356 232.479 48.8356C233.793 48.8488 235.106 48.7522 236.404 48.5466V34.2792ZM251.938 26.7845H247.973C247.75 26.7847 247.536 26.6988 247.377 26.5448C247.216 26.391 247.122 26.1811 247.114 25.9591V22.3686C247.121 22.1462 247.216 21.9357 247.375 21.7816C247.535 21.6275 247.75 21.542 247.973 21.5431H251.938C252.157 21.5431 252.367 21.6301 252.523 21.7849C252.677 21.9396 252.764 22.1496 252.764 22.3686V25.9673C252.761 26.1848 252.673 26.3927 252.518 26.5457C252.364 26.6987 252.155 26.7845 251.938 26.7845ZM251.814 52.9048H248.05C247.828 52.8973 247.618 52.8034 247.463 52.6432C247.309 52.4829 247.224 52.2688 247.225 52.0464V30.668C247.225 30.4492 247.311 30.2392 247.467 30.0845C247.621 29.9296 247.832 29.8427 248.05 29.8427H251.814C252.033 29.8427 252.243 29.9296 252.397 30.0845C252.553 30.2392 252.639 30.4492 252.639 30.668V52.0464C252.64 52.2688 252.555 52.4829 252.402 52.6432C252.247 52.8034 252.037 52.8973 251.814 52.9048ZM274.336 52.9048H270.861C270.643 52.9048 270.432 52.818 270.278 52.663C270.123 52.5083 270.036 52.2983 270.036 52.0794V51.4274C268.313 52.5503 266.313 53.172 264.257 53.2226C260.866 53.2226 257.188 51.9185 257.188 46.3964V46.2479C257.188 41.5843 260.047 39.174 267.163 39.174H269.738V37.3705C269.738 34.7127 268.553 34.0688 266.139 34.0688C263.915 34.0617 261.692 34.1705 259.478 34.3949H259.272C258.859 34.3949 258.538 34.2711 258.538 33.7014V31.0767C258.538 30.6268 258.781 30.3379 259.314 30.2183C261.563 29.7766 263.849 29.5568 266.139 29.562C271.946 29.562 275.132 32.1373 275.132 37.3705V52.0877C275.131 52.3002 275.046 52.5039 274.898 52.656C274.75 52.8083 274.548 52.8974 274.336 52.9048ZM269.758 42.7687H267.184C263.469 42.7687 262.643 43.9532 262.643 46.2438V46.4046C262.643 48.4104 263.544 48.9387 265.587 48.9387C267.05 48.9055 268.483 48.5129 269.758 47.7955V42.7687ZM33.9953 27.3953L33.0954 27.7213V61.4437L43.9992 55.3687V35.4968L56.0379 31.1262L57.0532 30.7548L57.1275 19.0214L33.9953 27.3953ZM43.6113 21.572L44.4862 21.8898L45.0641 22.1002L56.2897 18.035L45.3983 13.9575L43.9992 14.4693L34.0159 18.097L42.7282 21.2542L43.6113 21.572ZM81.7702 52.946C80.854 53.1185 79.9248 53.2138 78.9927 53.2308C74.3745 53.2308 72.4925 52.2115 72.4925 46.7348V33.8954L68.6501 33.3259C68.4358 33.3122 68.2336 33.2209 68.0817 33.0689C67.9297 32.917 67.8384 32.7148 67.8248 32.5005V30.668C67.8248 30.4491 67.9118 30.2392 68.0665 30.0844C68.2214 29.9296 68.4313 29.8426 68.6501 29.8426H72.4925V26.4956C72.5052 26.2808 72.5963 26.0782 72.7485 25.926C72.9007 25.774 73.1031 25.6829 73.3179 25.6702L77.119 25.0181H77.284C77.3685 25.0083 77.4541 25.0172 77.5348 25.0439C77.6155 25.0706 77.6895 25.1145 77.7515 25.1726C77.8135 25.2307 77.8621 25.3016 77.8941 25.3804C77.9258 25.4592 77.9403 25.5439 77.9361 25.6288V29.8509H81.6175C81.8364 29.8509 82.0464 29.9379 82.2012 30.0927C82.356 30.2475 82.4429 30.4574 82.4429 30.6762V33.0864C82.4429 33.3054 82.356 33.5153 82.2012 33.6702C82.0464 33.8249 81.8364 33.912 81.6175 33.912H77.9361V46.7348C77.9361 48.7777 78.0599 49.0212 79.5332 49.0212H81.7001C82.2325 49.0212 82.5585 49.2276 82.5585 49.6361V52.2115C82.5502 52.62 82.315 52.8511 81.7702 52.946ZM104.255 43.2597H90.9285V43.3794C90.9285 45.7526 91.9059 48.5713 95.8354 48.5713C98.8191 48.5713 101.638 48.3278 103.355 48.1586H103.479C103.892 48.1586 104.213 48.365 104.213 48.7736V51.4727C104.213 52.1247 104.089 52.4096 103.355 52.5333C100.744 53.0543 98.084 53.2867 95.4222 53.2266C91.3365 53.2266 85.5176 51.0228 85.5176 42.9667V39.9457C85.5176 33.5693 89.0748 29.562 95.3318 29.562C101.589 29.562 105.072 33.8665 105.072 39.9457V42.2363C105.072 42.8883 104.828 43.2597 104.255 43.2597ZM99.6491 39.2524C99.6491 36.0622 97.8909 34.2215 95.3564 34.2215C92.8226 34.2215 90.9821 36.0209 90.9821 39.2524V39.4134H99.6491V39.2524ZM123.467 52.7025C121.735 53.085 119.964 53.2623 118.192 53.2308C112.877 53.2308 108.869 49.9622 108.869 43.2969V39.4959C108.869 32.8348 112.877 29.562 118.192 29.562C119.965 29.5312 121.735 29.7099 123.467 30.0944C124.159 30.2595 124.325 30.5071 124.325 31.155V33.8129C124.325 34.2256 123.998 34.4278 123.59 34.4278H123.467C121.718 34.1999 119.955 34.1046 118.192 34.143C116.268 34.143 114.267 35.2449 114.267 39.5083V43.3093C114.267 47.5643 116.268 48.6745 118.192 48.6745C119.955 48.7107 121.717 48.6156 123.467 48.3898H123.59C124.002 48.3898 124.325 48.592 124.325 49.0006V51.6584C124.325 52.2939 124.159 52.5374 123.467 52.7025ZM146.888 52.9048H143.128C142.905 52.8973 142.695 52.8034 142.541 52.6431C142.387 52.4828 142.301 52.2687 142.303 52.0464V38.5961C142.303 35.0428 141.687 34.143 138.947 34.143C137.561 34.143 135.922 34.6342 134.205 35.5297V52.0381C134.206 52.2604 134.121 52.4746 133.966 52.6348C133.813 52.7951 133.603 52.889 133.38 52.8965H129.62C129.397 52.889 129.187 52.7951 129.033 52.6348C128.879 52.4746 128.793 52.2604 128.795 52.0381V22.6119C128.795 22.3931 128.881 22.1832 129.036 22.0283C129.191 21.8736 129.4 21.7866 129.62 21.7866H133.38C133.598 21.7866 133.809 21.8736 133.963 22.0283C134.118 22.1832 134.205 22.3931 134.205 22.6119V31.0766C135.761 30.1357 137.477 29.562 140.395 29.562C146.037 29.562 147.713 33.5693 147.713 38.5961V52.0464C147.714 52.2687 147.629 52.4828 147.475 52.6431C147.32 52.8034 147.109 52.8973 146.888 52.9048ZM30.4401 27.3953L31.3398 27.7213V61.4396L20.4361 55.3687V23.7758L30.4401 27.3953ZM18.6738 23.1402L7.3037 19.0212L7.37799 30.7545L8.39325 31.126L18.6738 34.861V23.1402Z" fill="#171717"/>
</g>
</g>
</g>
<defs>
<clipPath id="clip0_141_1280">
<rect width="275" height="68" fill="white" transform="translate(0.546875 0.410156)"/>
</clipPath>
<clipPath id="clip1_141_1280">
<rect width="275" height="68" fill="white" transform="translate(0.546875 0.410156)"/>
</clipPath>
<clipPath id="clip2_141_1280">
<rect width="275" height="55.2124" fill="white" transform="translate(0.546875 6.80371)"/>
</clipPath>
</defs>
</svg>
