<svg width="216" height="64" viewBox="0 0 216 64" fill="none" xmlns="http://www.w3.org/2000/svg">
<g clip-path="url(#clip0_141_1268)">
<g clip-path="url(#clip1_141_1268)">
<g clip-path="url(#clip2_141_1268)">
<path fill-rule="evenodd" clip-rule="evenodd" d="M0.709669 42.4517C0.757863 43.1164 0.806057 43.781 0.806057 44.3981V44.4931H1.57716C1.81813 44.1608 2.0109 43.8522 2.20368 43.5437C2.39645 43.2351 2.58923 42.9265 2.8302 42.5942C6.22361 37.8095 9.70887 32.9797 13.1592 28.1984L13.1598 28.1974C14.7075 26.0526 16.2481 23.9176 17.7703 21.8009C18.0594 21.516 18.7342 21.0413 18.7342 21.0413H27.6019C20.9511 30.2511 14.3968 39.366 7.93875 48.3859C7.93875 48.4809 8.13153 48.6707 8.13153 48.6707C9.90203 49.6283 11.6851 50.6103 13.4806 51.5995L13.4819 51.6002C16.6711 53.3569 19.8999 55.1354 23.168 56.8362C23.65 57.121 24.6138 57.121 25.0958 56.8362C29.2188 54.4573 33.3778 52.114 37.5508 49.7628L37.5521 49.7621L37.5531 49.7615C40.2082 48.2654 42.8693 46.7662 45.5301 45.2526C46.3012 44.7779 46.783 44.0184 46.783 43.0689C46.813 42.3018 46.8523 41.5165 46.8921 40.7185C46.9806 38.9483 47.0722 37.1158 47.0722 35.2832C47.0399 33.7575 47.0184 32.2211 46.9969 30.6811C46.9543 27.6217 46.9113 24.5474 46.783 21.516C46.783 20.5665 46.6866 19.807 46.4939 18.6676C46.1083 19.1423 46.0119 19.2373 45.8192 19.4272C42.0601 24.7679 38.1384 30.2688 34.2166 35.7696C32.9094 37.6034 31.6021 39.4372 30.3007 41.2649C29.8188 41.9295 29.3369 42.2143 28.5657 42.2143H21.4331C21.2884 42.2143 21.1198 42.1669 20.9511 42.1195C20.7825 42.0719 20.6137 42.0245 20.4692 42.0245C25.9766 34.1703 31.5541 26.3851 37.0821 18.6691L37.0829 18.6679L37.0895 18.6588L37.1097 18.6306L37.1483 18.5767L37.1555 18.5666C38.0851 17.269 39.0133 15.9735 39.9395 14.6799C39.8219 14.564 39.7521 14.4638 39.6977 14.3857C39.6184 14.2719 39.5719 14.2051 39.4576 14.2051C37.819 13.319 36.1804 12.4117 34.5418 11.5044C31.2647 9.6899 27.9875 7.87538 24.7103 6.22964C24.0356 6.13469 23.168 6.13469 22.4933 6.41953C19.643 7.96581 16.7927 9.5644 13.9424 11.163C10.142 13.2944 6.34144 15.4259 2.54103 17.4334C1.09522 18.2879 0.613281 19.3323 0.613281 20.7565V40.5053C0.613281 41.1225 0.661475 41.7871 0.709669 42.4517ZM176.521 36.8973C176.617 34.0489 175.557 32.055 172.858 30.9157C172.91 30.8902 172.955 30.8716 172.996 30.8543C173.109 30.8071 173.199 30.7698 173.34 30.6308C175.461 29.4915 176.231 27.4976 175.75 25.3138C175.268 23.225 173.629 21.9907 171.605 21.7058C170.132 21.4034 168.54 21.3707 166.93 21.3377C166.014 21.3189 165.093 21.3 164.183 21.2311H159.267C159.075 21.611 159.075 21.8957 159.075 21.8957V40.7901C159.075 41.7396 159.557 41.7396 160.232 41.7396H168.617C169.87 41.7396 170.93 41.7396 172.087 41.4547C174.496 40.7901 176.328 38.8912 176.521 36.8973ZM166.008 37.6998C165.344 37.6785 164.672 37.6569 163.991 37.6569C163.991 36.2643 163.995 34.8696 164.183 33.3843C166.111 33.3843 168.135 33.4793 170.063 33.6691C171.123 33.7641 171.798 34.5236 171.798 35.663C171.605 36.7074 170.834 37.467 169.87 37.6569C168.592 37.7828 167.314 37.7417 166.008 37.6998ZM165.726 29.4387C165.148 29.4176 164.569 29.3965 163.991 29.3965H163.894V25.3138C164.476 25.3138 165.069 25.2924 165.658 25.2712C166.826 25.2292 167.977 25.1876 169.003 25.3138C169.966 25.5037 170.93 25.9785 170.93 27.2127C170.93 28.4471 170.448 29.2066 169.196 29.3965C168.039 29.5232 166.882 29.4809 165.726 29.4387ZM119.556 21.4213C120.423 24.175 121.267 26.9048 122.111 29.6347V29.6363L122.112 29.6375C122.955 32.3661 123.797 35.0947 124.665 37.847H124.953C125.821 35.0936 126.665 32.3639 127.509 29.6342C128.351 26.9045 129.195 24.1747 130.063 21.4213H133.05C132.382 23.3083 131.756 25.1952 131.131 27.0727C130.405 29.2576 129.683 31.4298 128.906 33.5745C128.622 34.4453 128.315 35.3033 128.003 36.1673C127.466 37.6584 126.923 39.1673 126.496 40.7904C126.248 42.0124 125.362 41.9762 124.506 41.9413C124.364 41.9355 124.223 41.9297 124.087 41.9297C123.316 41.9297 122.834 41.645 122.64 40.7904C121.195 35.7583 119.653 30.9159 117.918 25.504C117.243 27.2131 116.761 28.8272 116.375 30.1564C115.797 31.9603 115.243 33.7169 114.689 35.4734C114.134 37.2299 113.58 38.9864 113.002 40.7904C112.809 41.55 112.327 41.9297 111.556 41.9297C111.317 41.8708 111.04 41.8942 110.763 41.9175C110.151 41.9695 109.538 42.0213 109.339 41.1702C108.231 37.8946 107.17 34.6427 106.11 31.3907C105.05 28.1387 103.99 24.8868 102.881 21.6112C102.994 21.6112 103.041 21.546 103.08 21.4921C103.107 21.4539 103.13 21.4213 103.17 21.4213C105.869 21.2314 106.062 21.2314 106.833 23.795C107.005 24.3385 107.178 24.8808 107.35 25.4221C108.621 29.4183 109.874 33.3585 110.977 37.3723C110.977 37.4629 111.022 37.5319 111.078 37.6205C111.139 37.7176 111.216 37.8384 111.267 38.037C112.066 35.3589 112.895 32.7388 113.722 30.1286C114.389 28.0197 115.055 25.9164 115.701 23.795C115.875 23.3244 116.002 22.9415 116.106 22.6307C116.338 21.9371 116.451 21.6026 116.682 21.4517C116.898 21.3111 117.218 21.33 117.835 21.3667C118.234 21.3903 118.758 21.4213 119.46 21.4213H119.556ZM213.919 36.7077C213.486 36.2332 213.052 35.7581 212.57 35.2835C207.943 38.4167 205.052 38.4167 202.546 35.4734C200.618 33.1947 200.811 29.3969 202.835 27.2131C203.799 26.0737 205.052 25.5041 206.498 25.3141C208.907 24.9344 210.836 26.0737 212.57 27.7827C212.789 27.5233 213.009 27.269 213.226 27.0172L213.23 27.0134L213.231 27.0114L213.232 27.0105C213.967 26.1587 214.675 25.3373 215.269 24.4596C211.22 19.9022 203.606 19.8072 199.365 23.9849C195.221 28.2575 195.221 35.4734 200.329 39.6511C204.763 43.2591 211.51 42.6894 215.269 38.1319C214.787 37.6573 214.353 37.1828 213.92 36.7082L213.919 36.7077ZM65.9645 26.5485V41.7399H63.0729V21.5163C65.0005 21.0416 66.2536 21.5163 67.3139 23.0355C69.3293 25.9814 71.5201 28.9272 73.7976 31.9896C74.8966 33.4674 76.0161 34.9728 77.1454 36.5179V21.3265H80.037V41.4551C78.0129 42.1198 77.531 41.7399 76.3744 40.2208C75.8593 39.5251 75.3466 38.8337 74.8361 38.1455L74.8156 38.118L74.7916 38.0856L74.7838 38.0751C71.9685 34.2796 69.2214 30.5763 66.5428 26.7384C66.4509 26.7384 66.3809 26.6952 66.2909 26.6397C66.1922 26.5789 66.0697 26.5032 65.8681 26.4535L65.9645 26.5485ZM88.6154 32.8146H98.447L98.3506 32.7196C98.3506 31.7702 98.3506 30.9156 98.5433 29.7763H88.7118V23.6997H99.7964V21.2311H85.7238V41.5497H99.9893V38.8912H88.6154V32.8146ZM195.413 21.2313L195.605 21.5162C195.799 24.1114 194.578 25.409 191.943 25.409H189.533V41.5499H184.81V25.409H179.894C178.738 25.409 178.448 25.1242 178.448 23.9848C178.448 22.0859 179.412 21.1364 181.341 21.1364H195.413V21.2313ZM134.994 37.6723C134.833 37.966 134.664 38.2747 134.496 38.6066H134.303C137.194 41.2652 140.568 42.3096 144.327 42.0247C146.64 41.7399 148.761 40.6005 149.533 38.4168C150.689 35.2835 150.014 32.6251 146.062 31.106C145.099 30.7261 144.159 30.3701 143.219 30.0141C142.28 29.658 141.34 29.3019 140.375 28.9221C139.219 28.4474 138.641 27.5929 138.93 26.4535C139.219 25.694 139.99 25.0293 140.665 24.5546C141.146 24.2697 141.918 24.0799 142.592 24.2697C143.821 24.4512 145.049 24.787 146.302 25.1295C147.016 25.3245 147.738 25.5217 148.472 25.694C148.692 25.3148 148.881 24.9047 149.092 24.4461C149.251 24.1008 149.421 23.7281 149.629 23.3203C146.64 21.6113 143.46 20.8516 139.99 21.8011C137.484 22.3708 135.942 24.0799 135.749 25.9788C135.459 29.3019 136.713 30.8211 139.411 31.9604C140.064 32.1871 140.732 32.3988 141.408 32.6134C142.431 32.938 143.476 33.2694 144.521 33.6694C145.58 34.1442 146.544 34.7139 146.738 36.138C146.93 37.6572 145.58 38.8916 143.557 39.0814C140.472 39.2713 137.966 38.1319 135.749 36.138C135.561 36.6321 135.292 37.1261 134.994 37.6723Z" fill="#171717"/>
</g>
</g>
</g>
<defs>
<clipPath id="clip0_141_1268">
<rect width="215" height="64" fill="white" transform="translate(0.546875)"/>
</clipPath>
<clipPath id="clip1_141_1268">
<rect width="215" height="64" fill="white" transform="translate(0.546875)"/>
</clipPath>
<clipPath id="clip2_141_1268">
<rect width="215" height="51.8593" fill="white" transform="translate(0.546875 6.07031)"/>
</clipPath>
</defs>
</svg>
