<svg width="213" height="55" viewBox="0 0 213 55" fill="none" xmlns="http://www.w3.org/2000/svg">
<g clip-path="url(#clip0_141_1284)">
<g clip-path="url(#clip1_141_1284)">
<g clip-path="url(#clip2_141_1284)">
<path fill-rule="evenodd" clip-rule="evenodd" d="M35.3585 7.55811C38.0107 7.74943 40.1372 9.90179 40.3283 12.5564C40.5434 15.7371 38.0584 18.3678 34.9523 18.3438C33.447 18.3438 32.085 17.746 31.1054 16.7416C30.2691 15.8806 29.1461 15.3784 27.9514 15.3784H27.5691C26.3744 15.3784 25.2515 15.8806 24.4151 16.7416C23.4355 17.7221 22.0736 18.3438 20.5683 18.3438C19.063 18.3438 17.701 17.746 16.7214 16.7416C15.8851 15.8806 14.7621 15.3784 13.5675 15.3784H13.1374C11.9426 15.3784 10.8197 15.8806 9.98339 16.7176L9.9356 16.7655L9.88783 16.8133C9.05154 17.6503 8.54978 18.7743 8.54978 19.9701V20.4005C8.54978 21.5963 9.05154 22.7203 9.91172 23.5574C10.8914 24.5379 11.5126 25.9011 11.5126 27.4077C11.5126 28.9144 10.9152 30.2776 9.91172 31.2581C9.05154 32.0952 8.54978 33.2191 8.54978 34.4148V34.8931C8.54978 36.089 9.05154 37.2129 9.91172 38.05L9.95949 38.0978C10.7958 38.9588 11.9426 39.4132 13.1135 39.4132H13.6153C14.786 39.4132 15.909 38.911 16.7453 38.0739C17.7249 37.0934 19.0868 36.4955 20.5683 36.4955C23.6984 36.4955 26.1833 39.1262 25.9683 42.3068C25.777 44.9853 23.6266 47.1377 20.9745 47.3291C19.278 47.4486 17.7249 46.8029 16.6497 45.6789C15.8374 44.818 14.7382 44.3158 13.5675 44.3158H13.1135C11.9426 44.3158 10.8436 44.8419 10.0312 45.6789C9.00375 46.7551 7.54625 47.4008 5.92148 47.353C3.12591 47.2573 0.832126 44.9854 0.712657 42.1633C0.640976 40.5611 1.28611 39.1023 2.33742 38.0739C3.1737 37.2608 3.67547 36.1607 3.67547 34.9888V34.4387C3.67547 33.243 3.1737 32.1191 2.31353 31.282C1.3339 30.3015 0.712657 28.9383 0.712657 27.4316C0.712657 25.925 1.30999 24.5618 2.31353 23.5813C3.1737 22.7442 3.67547 21.6202 3.67547 20.4244V20.018C3.67547 18.8461 3.22149 17.6981 2.36132 16.885L2.28964 16.8133C0.0914219 14.6131 0.186997 10.978 2.55246 8.89736C4.51174 7.15155 7.49848 7.10372 9.52941 8.75387C9.69665 8.89736 9.86393 9.06477 10.0312 9.23218C10.8436 10.0692 11.9666 10.5236 13.1374 10.5236H13.5436C14.7382 10.5236 15.8613 10.0214 16.6975 9.16042C17.6771 8.17991 19.0391 7.55811 20.5444 7.55811C22.0497 7.55811 23.4116 8.15598 24.3912 9.16042C25.2276 10.0214 26.3506 10.5236 27.5452 10.5236H27.9753C29.1461 10.5236 30.2451 10.0214 31.0576 9.18435C32.1328 8.08424 33.662 7.43853 35.3585 7.55811ZM101.921 14.5782C103.2 15.8577 103.2 17.9321 101.921 19.2116C100.643 20.4911 98.5704 20.4911 97.2921 19.2116C96.0138 17.9321 96.0138 15.8577 97.2921 14.5782C98.5704 13.2987 100.643 13.2987 101.921 14.5782ZM59.7783 35.801C55.8837 35.801 53.4704 32.3094 53.4704 27.4785C53.4704 22.6955 55.5014 19.1321 59.7544 19.1321C62.5497 19.1321 64.3896 20.9258 64.7245 23.2934H71.2234C70.8886 20.3519 69.5746 17.769 67.281 16.0471C65.4171 14.6122 62.8367 13.7274 59.7783 13.7274C51.9412 13.7274 46.8518 19.6583 46.8518 27.4785C46.8518 35.3466 52.1084 41.1102 59.8263 41.1102C63.5294 41.1102 66.2293 40.0819 68.2366 38.1208C70.0285 36.399 71.2236 34.0074 71.3904 31.4006H64.8914C64.605 33.9596 62.6932 35.801 59.7783 35.801ZM83.3849 21.2132C77.3637 21.2132 73.3256 25.518 73.3256 31.1858C73.3256 36.8537 77.3637 41.1585 83.3849 41.1585C89.4535 41.1585 93.4201 36.8537 93.4201 31.1858C93.4201 25.518 89.4535 21.2132 83.3849 21.2132ZM83.3609 36.8776C80.7563 36.8776 79.3943 34.6057 79.3943 31.1858C79.3943 27.7659 80.7563 25.4462 83.3609 25.4462C85.9653 25.4462 87.3748 27.7659 87.3748 31.1858C87.3513 34.6057 85.9653 36.8776 83.3609 36.8776ZM94.3994 25.949H96.9079V40.5611H102.882V21.7159H94.3994V25.949ZM111.771 24.2985C113.156 22.2658 114.972 21.1657 117.576 21.1657C121.686 21.1657 124.123 24.1073 124.123 28.2925V40.537H118.126V29.5121C118.126 27.5271 117.147 26.164 115.188 26.164C113.204 26.164 111.89 27.8142 111.89 30.1338V40.537H105.893V21.7158H111.651V24.2985H111.771ZM138.173 14.2544H126.968V40.5373H137.768C141.065 40.5373 143.717 39.7002 145.772 38.1457C148.711 35.8977 150.335 32.1909 150.335 27.5513C150.335 19.5158 145.437 14.2544 138.173 14.2544ZM137.29 35.0846H133.466V19.7071H137.361C141.448 19.7071 143.764 22.7921 143.764 27.5752C143.741 32.3821 141.543 35.0846 137.29 35.0846ZM161.66 21.3093C164.336 21.3093 166.462 22.1942 168.087 23.653C170.334 25.7097 171.433 28.9622 171.409 32.8125H157.884C158.267 35.3475 159.653 36.9259 162.114 36.9259C163.691 36.9259 164.719 36.2324 165.243 35.0606H171.075C170.668 36.7585 169.569 38.3609 167.921 39.5088C166.342 40.6089 164.431 41.2307 162.043 41.2307C155.83 41.2307 152.006 36.9259 152.006 31.2342C152.006 25.614 155.925 21.3093 161.66 21.3093ZM161.755 25.5423C159.486 25.5423 158.315 26.9772 157.909 29.2253H165.316C165.101 26.9772 163.691 25.5423 161.755 25.5423ZM182.397 28.629C180.359 28.281 178.696 27.9968 178.696 26.8333C178.696 25.6615 179.842 25.1115 181.299 25.1115C182.949 25.1115 184.095 25.6376 184.311 27.3116H189.83C189.543 23.6048 186.676 21.2851 181.348 21.2851C176.904 21.2851 173.224 23.3417 173.224 27.3116C173.224 31.7359 176.712 32.5969 179.985 33.1469C180.227 33.1884 180.466 33.2275 180.701 33.2661C182.91 33.6282 184.764 33.9321 184.764 35.4667C184.764 36.6864 183.617 37.3321 181.825 37.3321C179.842 37.3321 178.599 36.4233 178.36 34.534H172.698C172.89 38.6953 176.33 41.2303 181.85 41.2303C186.771 41.2303 190.403 39.1019 190.403 34.9884C190.427 30.1815 186.532 29.3205 183.212 28.7705C182.936 28.7208 182.663 28.6744 182.397 28.629ZM211.12 21.716L204.501 28.7949L211.885 40.5611H204.956L200.44 32.8604L198.624 34.7736V40.5611H192.722V14.2544H198.624V28.0774L204.215 21.716H211.12ZM20.5211 29.2256C21.5239 29.2256 22.3369 28.4118 22.3369 27.408C22.3369 26.4041 21.5239 25.5904 20.5211 25.5904C19.5182 25.5904 18.7051 26.4041 18.7051 27.408C18.7051 28.4118 19.5182 29.2256 20.5211 29.2256ZM36.8164 27.408C36.8164 28.4118 36.0034 29.2256 35.0005 29.2256C33.9975 29.2256 33.1846 28.4118 33.1846 27.408C33.1846 26.4041 33.9975 25.5904 35.0005 25.5904C36.0034 25.5904 36.8164 26.4041 36.8164 27.408ZM35.0005 43.7421C36.0034 43.7421 36.8164 42.9282 36.8164 41.9245C36.8164 40.9207 36.0034 40.1069 35.0005 40.1069C33.9975 40.1069 33.1846 40.9207 33.1846 41.9245C33.1846 42.9282 33.9975 43.7421 35.0005 43.7421Z" fill="#171717"/>
</g>
</g>
</g>
<defs>
<clipPath id="clip0_141_1284">
<rect width="212" height="54" fill="white" transform="translate(0.046875 0.410156)"/>
</clipPath>
<clipPath id="clip1_141_1284">
<rect width="212" height="54" fill="white" transform="translate(0.046875 0.410156)"/>
</clipPath>
<clipPath id="clip2_141_1284">
<rect width="212" height="41.102" fill="white" transform="translate(0.046875 6.85938)"/>
</clipPath>
</defs>
</svg>
