<svg width="233" height="45" viewBox="0 0 233 45" fill="none" xmlns="http://www.w3.org/2000/svg">
<g clip-path="url(#clip0_141_1260)">
<g clip-path="url(#clip1_141_1260)">
<g clip-path="url(#clip2_141_1260)">
<path fill-rule="evenodd" clip-rule="evenodd" d="M97.0341 29.0504C90.39 29.0504 85.558 24.4843 85.558 18.2059C85.558 11.9275 90.39 7.36133 97.1205 7.36133C100.745 7.36133 103.851 8.66593 105.836 11.1121L106.008 11.3567L102.47 14.6182L102.211 14.3736C100.917 12.8244 99.1914 12.0905 97.2931 12.0905C93.5827 12.0905 90.9941 14.6182 90.9941 18.2874C90.9941 21.9566 93.5827 24.4843 97.2931 24.4843C99.2777 24.4843 100.917 23.7505 102.211 22.2012L102.47 21.9566L106.008 25.2181L105.836 25.4627C103.851 27.9088 100.745 29.2135 97.0341 29.2135V29.0504ZM46.1241 28.7243H35.1657V7.68754H45.6064C50.6974 7.68754 53.7174 9.80752 53.7174 13.3136C53.7174 15.189 52.8546 16.7382 51.3876 17.7167C53.5449 18.6136 54.7529 20.489 54.7529 22.8536C54.7529 26.6043 51.7328 28.7243 46.2105 28.7243H46.1241ZM40.5154 24.5659H45.779C48.8853 24.5659 49.2304 23.3428 49.2304 22.3644C49.2304 20.8966 48.1088 20.1628 45.779 20.1628H40.5154V24.5659ZM40.5154 16.0859H44.9161C47.0733 16.0859 48.195 15.3521 48.195 13.9659C48.195 13.4767 48.195 11.9275 44.9161 11.9275H40.5154V16.0859ZM63.2092 28.7243H57.7731V7.68754H63.2092V28.7243ZM72.7009 28.7243H78.0508V12.1721H84.6949V7.68754H66.0568V12.1721H72.7009V28.7243ZM106.785 18.2059C106.785 24.4843 111.703 29.0504 118.433 29.0504C125.164 29.0504 130.082 24.4843 130.082 18.2059C130.082 11.9275 125.164 7.36133 118.433 7.36133C111.703 7.36133 106.785 11.9275 106.785 18.2059ZM112.307 18.2059C112.307 14.6182 114.895 12.009 118.433 12.009C121.971 12.009 124.56 14.6182 124.56 18.2059C124.56 21.7935 121.971 24.4027 118.433 24.4027C114.895 24.4027 112.307 21.7935 112.307 18.2059ZM138.106 28.7243H132.67V7.68754H138.106V28.7243ZM156.659 28.7243H161.059V7.68754H155.709V19.429L145.959 7.68754H141.558V28.7243H146.908V16.9829L156.659 28.7243ZM169.515 28.7243H164.079V7.68754H169.515V28.7243ZM172.363 26.6043C174.348 28.072 177.713 29.0504 180.992 29.0504V29.1319C187.636 29.1319 190.052 25.5443 190.052 22.5274C190.052 18.0013 185.812 17.0002 182.376 16.1889L182.286 16.1674C180.042 15.6782 178.057 15.189 178.057 13.8843C178.057 12.5797 179.352 11.8459 181.681 11.8459C183.494 11.8459 185.392 12.4167 187.204 13.3951L187.549 13.5582L189.275 9.39977L189.016 9.2367C187.118 8.01363 184.443 7.36133 181.681 7.36133C176.16 7.36133 172.622 9.97054 172.708 13.9659C172.708 18.5735 176.949 19.5749 180.385 20.3863L180.474 20.4074C182.718 20.8966 184.702 21.3859 184.702 22.6904C184.702 24.3212 182.459 24.5658 181.078 24.5658C178.748 24.5658 176.16 23.832 174.434 22.5274L174.089 22.2827L172.19 26.4412L172.363 26.6043ZM203.34 28.7243H197.99V12.1721H191.346V7.68754H209.984V12.1721H203.34V28.7243ZM212.4 11.6827C212.4 12.0904 213.176 12.4165 213.176 12.4165C213.608 12.4165 213.953 12.0904 213.953 11.6827C213.953 11.275 213.608 10.9488 213.176 10.9488C212.745 10.9488 212.4 11.275 212.4 11.6827ZM217.491 12.4167C215.938 12.4167 214.902 11.4383 214.902 10.0521C214.902 8.66599 216.024 7.68754 217.491 7.68754C218.355 7.68754 219.044 8.01369 219.476 8.50292L218.613 9.31829C218.613 9.31829 217.923 8.74753 217.578 8.74753C216.8 8.74753 216.197 9.31829 216.197 10.0521C216.197 10.786 216.8 11.3567 217.578 11.3567C218.009 11.3567 218.355 11.1937 218.613 10.8675L219.476 11.5198C219.044 12.0906 218.355 12.4167 217.491 12.4167ZM219.907 10.0521C219.907 11.4383 221.029 12.4167 222.582 12.4167C224.135 12.4167 225.257 11.4383 225.257 10.0521C225.257 8.66599 224.135 7.68754 222.582 7.68754C221.029 7.68754 219.907 8.66599 219.907 10.0521ZM221.288 10.0521C221.288 9.31829 221.806 8.74753 222.582 8.74753C223.445 8.74753 223.962 9.31829 223.962 10.0521C223.962 10.786 223.359 11.3567 222.582 11.3567C221.806 11.3567 221.288 10.786 221.288 10.0521ZM226.12 12.1721V7.85064V7.76909H227.156L228.795 10.3783L230.435 7.76909H231.47V12.3352H230.348V9.97061L229.14 11.846H228.536L227.328 10.0522V12.3352H226.12V12.1721ZM34.562 35.0841C34.562 35.0563 34.5624 35.0287 34.5631 35.0012C34.6069 36.5095 35.8848 37.6118 37.4958 37.6118C38.3587 37.6118 39.049 37.3671 39.5667 36.8779L39.2215 36.5518C38.7901 37.041 38.1861 37.2041 37.582 37.2041C36.2877 37.2041 35.2523 36.3071 35.2523 35.0026C35.2523 33.698 36.2015 32.801 37.582 32.801C38.1861 32.801 38.7901 33.0456 39.2215 33.4533L39.5667 33.1272C39.049 32.638 38.2723 32.3933 37.4958 32.3933C35.801 32.3933 34.6054 33.4943 34.5631 35.0012C34.5624 34.9745 34.562 34.9479 34.562 34.921V35.0841ZM43.277 35.981L44.5713 37.6933V37.6118H45.1753L43.7947 35.8179C44.6576 35.5733 45.089 35.0026 45.089 34.1871C45.089 33.0456 44.2261 32.3933 42.8455 32.3933H40.7746V37.6118H41.3786V35.981H42.8455H43.277ZM42.8455 32.9641C43.9673 32.9641 44.5713 33.4533 44.5713 34.2687C44.5713 35.0841 43.9673 35.5733 42.8455 35.5733H41.3786V32.9641H42.8455ZM48.3679 35.8995V37.6933H47.7639V35.8995L45.5204 32.4749H46.1244L48.0228 35.4103L49.9211 32.4749H50.525L48.2816 35.8995H48.3679ZM53.5448 36.0626C54.9254 36.0626 55.7883 35.4103 55.7883 34.2687C55.7883 33.1272 54.9254 32.4749 53.5448 32.4749H51.474V37.6933H52.0779V36.0626H53.5448ZM53.4585 32.9641C54.5803 32.9641 55.1842 33.4533 55.1842 34.2687C55.1842 35.0841 54.5803 35.5733 53.4585 35.5733H51.9917V32.9641H53.4585ZM57.8594 32.9641H55.9611V32.4749H60.4481V32.9641H58.4635V37.6933H57.8594V32.9641ZM63.8131 32.3933C62.0874 32.3933 60.8794 33.5348 60.8794 35.0841C60.8794 36.6333 62.0874 37.7748 63.8131 37.7748C65.539 37.7748 66.747 36.6333 66.747 35.0841C66.747 33.5348 65.539 32.3933 63.8131 32.3933ZM63.8131 32.8826C65.1938 32.8826 66.1429 33.861 66.1429 35.0841C66.1429 36.3887 65.1075 37.2856 63.8131 37.2856C62.5189 37.2856 61.4835 36.3887 61.4835 35.0841C61.4835 33.7795 62.4326 32.8826 63.8131 32.8826ZM67.6097 35.0841C67.6097 35.0563 67.6101 35.0287 67.6109 35.0012C67.6547 36.5095 68.9324 37.6118 70.5435 37.6118C71.4063 37.6118 72.0966 37.3671 72.6143 36.8779L72.2692 36.5518C71.8378 37.041 71.2338 37.2041 70.6298 37.2041C69.3355 37.2041 68.3 36.3071 68.3 35.0026C68.3 33.698 69.2491 32.801 70.6298 32.801C71.2338 32.801 71.8378 33.0456 72.2692 33.4533L72.6143 33.1272C72.0966 32.638 71.3201 32.3933 70.5435 32.3933C68.8486 32.3933 67.6532 33.4943 67.6109 35.0012C67.6101 34.9745 67.6097 34.9479 67.6097 34.921V35.0841ZM73.7363 32.4749V35.4918H73.9089C73.9089 36.9595 74.7718 37.7748 76.1523 37.7748C77.5329 37.7748 78.3959 36.9595 78.3959 35.4918V32.4749H77.7918V35.4918C77.7918 36.7148 77.1878 37.2856 76.0661 37.2856C74.9443 37.2856 74.3404 36.7148 74.3404 35.4918V32.4749H73.7363ZM83.9182 37.6933L82.6238 35.981H82.1924H80.7255V37.6118H80.1215V32.3933H82.1924C83.573 32.3933 84.4359 33.0456 84.4359 34.1871C84.4359 35.0026 84.0044 35.5733 83.1415 35.8179L84.5221 37.6118H83.9182V37.6933ZM83.9182 34.2687C83.9182 33.4533 83.3141 32.9641 82.1924 32.9641H80.7255V35.5733H82.1924C83.3141 35.5733 83.9182 35.0841 83.9182 34.2687ZM88.4054 35.981L89.6997 37.6933V37.6118H90.3037L88.9231 35.8179C89.786 35.5733 90.2174 35.0026 90.2174 34.1871C90.2174 33.0456 89.3545 32.3933 87.9739 32.3933H85.9031V37.6118H86.507V35.981H87.9739H88.4054ZM87.9739 32.9641C89.0957 32.9641 89.6997 33.4533 89.6997 34.2687C89.6997 35.0841 89.0957 35.5733 87.9739 35.5733H86.507V32.9641H87.9739ZM95.567 37.2041V37.2856H92.288V35.3288H95.1356V34.8395H92.288V32.9641H95.4807V32.4749H91.6841V37.6933H95.567V37.2856H95.6533L95.567 37.2041ZM101.607 37.6933V32.4749H101.003V36.7148L97.4652 32.4749H96.9475V37.6933H97.5514V33.4533L101.089 37.6933H101.607ZM102.988 35.0841C102.988 35.0563 102.988 35.0287 102.989 35.0012C103.033 36.5095 104.311 37.6118 105.922 37.6118C106.785 37.6118 107.475 37.3671 107.992 36.8779L107.648 36.5518C107.216 37.041 106.612 37.2041 106.008 37.2041C104.714 37.2041 103.678 36.3071 103.678 35.0026C103.678 33.698 104.628 32.801 106.008 32.801C106.612 32.801 107.216 33.0456 107.648 33.4533L107.992 33.1272C107.475 32.638 106.698 32.3933 105.922 32.3933C104.227 32.3933 103.032 33.4943 102.989 35.0012L102.989 34.9798L102.988 34.9551L102.988 34.921V35.0841ZM111.013 37.6933V35.8995H110.926L113.169 32.4749H112.566L110.667 35.4103L108.769 32.4749H108.165L110.408 35.8995V37.6933H111.013ZM121.453 32.4749V37.6933H120.935L117.398 33.4533V37.6933H116.793V32.4749H117.311L120.849 36.7148V32.4749H121.453ZM127.234 37.2856V37.2041L127.321 37.2856H127.234ZM123.956 37.2856H127.234V37.6933H123.352V32.4749H127.148V32.9641H123.956V34.8395H126.804V35.3288H123.956V37.2856ZM136.208 32.4749L134.31 37.6933H133.707L132.067 33.2087L130.428 37.6933H129.823L127.925 32.4749H128.529L130.169 36.9595L131.808 32.4749H132.326L133.966 37.041L135.605 32.4749H136.208ZM136.985 36.6333L136.726 37.041V37.1226C137.158 37.5302 137.934 37.7748 138.797 37.7748C140.178 37.7748 140.869 37.041 140.869 36.3071C140.869 35.3121 139.897 35.0975 138.985 34.8961C138.177 34.7178 137.417 34.5499 137.417 33.861C137.417 33.2903 137.848 32.8826 138.884 32.8826C139.402 32.8826 139.919 32.9641 140.437 33.2903L140.61 32.8826C140.178 32.5565 139.487 32.3933 138.884 32.3933C137.417 32.3933 136.813 33.1272 136.813 33.861C136.813 34.9098 137.804 35.1389 138.724 35.3515C139.521 35.5357 140.264 35.7076 140.264 36.3886C140.264 36.8779 139.833 37.2856 138.797 37.2856C138.107 37.2856 136.985 36.6333 136.985 36.6333ZM148.892 37.7748L148.115 37.041C147.685 37.5303 146.994 37.7748 146.304 37.7748C145.182 37.7748 144.406 37.2041 144.406 36.4703C144.406 35.8179 144.75 35.4103 145.786 34.8395C145.268 34.3503 145.096 34.0241 145.096 33.6165C145.096 32.9641 145.614 32.4749 146.476 32.4749C147.253 32.4749 147.771 32.8825 147.771 33.5348C147.771 34.0241 147.426 34.4318 146.562 34.921L148.115 36.3886C148.115 36.3886 148.374 35.7364 148.461 35.4103L148.892 35.5733C148.806 36.0626 148.633 36.4703 148.374 36.7964L149.151 37.5303L148.892 37.7748ZM147.771 36.7148L146.132 35.0841C145.268 35.5733 145.009 35.8995 145.009 36.3886C145.009 36.9595 145.527 37.3671 146.391 37.3671C146.994 37.3671 147.512 37.2041 147.857 36.7964L147.771 36.7148ZM145.614 33.5348C145.614 33.5348 145.7 34.0241 146.218 34.5133C146.994 34.1056 147.253 33.7795 147.253 33.4533C147.253 33.1272 146.994 32.801 146.476 32.801C145.959 32.801 145.614 33.1272 145.614 33.5348ZM151.999 32.9641H153.897V37.6933H154.501V32.9641H156.486V32.4749H151.999V32.9641ZM161.404 37.2041V37.2856H158.126V35.3288H160.973V34.8395H158.126V32.9641H161.318V32.4749H157.521V37.6933H161.404V37.2856H161.491L161.404 37.2041ZM162.269 35.0012C162.268 35.0287 162.268 35.0563 162.268 35.0841V34.921C162.268 34.9479 162.268 34.9745 162.269 35.0012ZM162.269 35.0012C162.31 33.4943 163.506 32.3933 165.201 32.3933C165.977 32.3933 166.754 32.638 167.272 33.1272L166.927 33.4533C166.495 33.0456 165.891 32.801 165.287 32.801C163.907 32.801 162.957 33.698 162.957 35.0026C162.957 36.3071 163.992 37.2041 165.287 37.2041C165.891 37.2041 166.495 37.041 166.927 36.5518L167.272 36.8779C166.754 37.3671 166.064 37.6118 165.201 37.6118C163.59 37.6118 162.313 36.5094 162.269 35.0012ZM173.139 32.4749V37.6933H172.536V35.2471H169.084V37.6933H168.48V32.4749H169.084V34.8395H172.536V32.4749H173.139ZM179.611 37.6933V32.4749H179.007V36.7148L175.469 32.4749H174.951V37.6933H175.556V33.4533L179.093 37.6933H179.611ZM180.992 35.0841C180.992 33.5348 182.2 32.3933 183.925 32.3933C185.651 32.3933 186.859 33.5348 186.859 35.0841C186.859 36.6333 185.651 37.7748 183.925 37.7748C182.2 37.7748 180.992 36.6333 180.992 35.0841ZM186.255 35.0841C186.255 33.861 185.306 32.8826 183.925 32.8826C182.545 32.8826 181.595 33.7795 181.595 35.0841C181.595 36.3887 182.631 37.2856 183.925 37.2856C185.219 37.2856 186.255 36.3887 186.255 35.0841ZM188.757 32.4749H188.154V37.6933H191.864V37.2041H188.757V32.4749ZM192.295 35.0841C192.295 33.5348 193.504 32.3933 195.23 32.3933C196.955 32.3933 198.163 33.5348 198.163 35.0841C198.163 36.6333 196.955 37.7748 195.23 37.7748C193.504 37.7748 192.295 36.6333 192.295 35.0841ZM197.559 35.0841C197.559 33.861 196.61 32.8826 195.23 32.8826C193.848 32.8826 192.9 33.7795 192.9 35.0841C192.9 36.3887 193.936 37.2856 195.23 37.2856C196.524 37.2856 197.559 36.3887 197.559 35.0841ZM203.944 35.0841H203.34V36.7964C202.908 37.1226 202.391 37.2041 201.873 37.2041C200.579 37.2041 199.543 36.3071 199.543 35.0026C199.543 33.698 200.579 32.801 201.96 32.801C202.564 32.801 203.167 33.0456 203.599 33.4533L203.944 33.1272C203.426 32.638 202.736 32.3933 201.873 32.3933C200.147 32.3933 198.94 33.5348 198.94 35.0841C198.94 36.6333 200.147 37.7748 201.873 37.7748C202.649 37.7748 203.426 37.5302 203.944 37.1226V35.0841ZM207.482 37.6933H206.878V35.8995L204.634 32.4749H205.238L207.137 35.4103L209.035 32.4749H209.64L207.396 35.8995H207.482V37.6933ZM0.046875 31.1705L7.4676 37.9381H32.0595V7.68754H0.046875V31.1705ZM24.0348 20.7336C24.3799 18.5321 22.5678 17.3905 20.1518 16.5752H20.2382L21.0147 13.5583L19.1164 13.069L18.3399 16.0044C18.1241 15.9636 17.93 15.9229 17.7358 15.8821C17.5416 15.8413 17.3475 15.8006 17.1317 15.7598H16.7866L17.5632 12.8244L15.6649 12.3352L14.8883 15.3521H14.6295C14.2843 15.2705 13.6803 15.1075 13.6803 15.1075L11.0053 14.4552L10.4877 16.4121L11.8682 16.7382C12.6448 16.9013 12.7312 17.7983 12.7312 17.7983L11.8682 21.2228L10.5739 25.952C10.4877 26.1151 10.2288 26.5227 9.71107 26.3597L8.33047 26.0335L7.38131 28.072L9.88364 28.6427C10.0686 28.6427 10.2288 28.6896 10.3775 28.7331C10.5062 28.7707 10.6264 28.8058 10.7465 28.8058C10.9191 28.8873 11.2643 28.9689 11.2643 28.9689L10.4877 31.9858L12.3859 32.475L13.1626 29.4581C13.6803 29.6212 14.198 29.7843 14.7157 29.8658L13.9392 32.8011L15.8375 33.2904L16.614 30.2735C19.893 30.8443 22.309 30.5997 23.3445 27.8274C24.2073 25.5444 23.3445 24.2397 21.6187 23.4244C22.8268 23.0982 23.776 22.3644 24.0348 20.7336ZM19.6341 26.5227C19.1164 28.5612 15.6649 27.7458 14.1118 27.3382H14.0254C13.9392 27.2567 13.6803 27.2567 13.6803 27.2567L14.7157 23.2612C14.8883 23.3428 15.0609 23.3428 15.2334 23.3428C15.3326 23.3674 15.4376 23.393 15.5475 23.4196C17.2555 23.8347 20.1206 24.531 19.6341 26.5227ZM15.6097 21.5568L15.5786 21.5489V21.4674H15.2334L16.1826 17.8798C16.3552 17.9613 16.4414 17.9613 16.614 17.9613C17.9947 18.2059 20.7559 18.7766 20.2382 20.7336C19.7246 22.5941 16.9179 21.8866 15.6097 21.5568Z" fill="#171717"/>
</g>
</g>
</g>
<defs>
<clipPath id="clip0_141_1260">
<rect width="232" height="45" fill="white" transform="translate(0.046875)"/>
</clipPath>
<clipPath id="clip1_141_1260">
<rect width="232" height="45" fill="white" transform="translate(0.046875)"/>
</clipPath>
<clipPath id="clip2_141_1260">
<rect width="232" height="31.1481" fill="white" transform="translate(0.046875 6.92578)"/>
</clipPath>
</defs>
</svg>
