<svg width="223" height="66" viewBox="0 0 223 66" fill="none" xmlns="http://www.w3.org/2000/svg">
<g clip-path="url(#clip0_141_1264)">
<g clip-path="url(#clip1_141_1264)">
<g clip-path="url(#clip2_141_1264)">
<path fill-rule="evenodd" clip-rule="evenodd" d="M13.8026 6.05859H39.6681L52.6465 19.2885H26.781L26.6896 19.3823V19.2885L13.8037 6.05969L26.6896 19.3823H0.824219L13.8026 6.05859ZM26.6895 45.936H52.555L39.668 59.1658L13.7112 59.166L0.824219 45.9358V19.3823L26.5982 19.3824L13.7568 32.5654L13.8026 32.6122V32.7061L26.6895 45.936ZM39.6681 32.6124L39.5766 32.6122L26.6896 19.3823L52.555 19.3824L39.6681 32.6124ZM39.6681 32.6124H39.7595L52.6465 45.8422H26.781L39.6681 32.6124ZM69.0984 36.9284C68.7327 37.3037 68.1844 37.4914 67.5446 37.4914L67.4532 37.5852C66.5392 37.5852 65.808 37.2099 65.4424 36.4592C65.0768 35.6148 64.8941 34.4888 64.8941 33.0814V32.7061C64.8027 31.5802 64.9855 30.4542 65.4424 29.422C65.808 28.5776 66.4479 28.2023 67.4532 28.2023C68.1844 28.2023 68.6413 28.4838 69.0069 28.9529C69.3725 29.5159 69.5553 30.2665 69.5553 30.9233L74.3079 30.8295C74.3994 29.0468 73.7596 27.1701 72.48 25.9504C71.2005 24.7306 69.5553 24.1677 67.4532 24.1677C64.9855 24.1677 63.0661 24.9182 61.6951 26.5134C60.3242 28.1085 59.6844 30.1727 59.6844 32.7061V33.0814C59.5016 35.3333 60.3242 37.4914 61.6951 39.2741C63.0661 40.7754 64.9855 41.6199 67.5446 41.6199C69.3725 41.6199 71.1091 41.0569 72.48 39.8371C73.7596 38.7111 74.4908 37.0222 74.3994 35.2395H69.6467C69.6467 35.9901 69.4639 36.5531 69.0984 36.9284ZM83.9047 28.9529H85.824L86.3725 24.1677C85.824 23.98 85.3671 23.98 84.9101 23.98C84.1789 23.98 83.4478 24.2615 82.8993 24.7306C82.2595 25.2936 81.8026 25.9504 81.5283 26.7949L81.3456 24.2615H76.5015V41.2445H81.6198V30.0789C81.8026 29.7035 82.0768 29.422 82.4423 29.2344C82.808 29.0468 83.3564 28.9529 83.9047 28.9529ZM95.695 33.8321L95.6036 33.7382L95.4208 33.6444L92.8616 24.1677H87.3778L93.1358 41.3384L92.7703 42.4643C92.5875 42.9334 92.3132 43.3088 91.9477 43.5903C91.5821 43.8718 91.0337 43.9655 90.2111 43.9655L89.937 43.8718H89.6628L89.023 47.6249C89.6628 47.8126 90.1197 47.9063 90.3939 47.9063C90.6682 48.0002 91.0337 48.0002 91.4908 48.0002C93.2273 48.0002 94.5068 47.6249 95.3294 46.7804C96.152 45.9359 96.7917 44.9039 97.3401 43.684L103.921 24.2615H98.4369L95.695 33.8321ZM114.797 29.3283C115.254 30.1728 115.436 31.3925 115.436 32.7999L115.346 32.8938V33.1752C115.436 34.3012 115.254 35.3333 114.797 36.3655C114.432 37.1161 113.792 37.4914 112.878 37.4914C112.421 37.4914 111.873 37.3976 111.416 37.2099C111.05 37.0222 110.502 36.3655 110.502 36.3655V29.2344C110.684 28.8591 111.05 28.4838 111.416 28.2961C111.781 28.1085 112.329 28.0146 112.878 28.0146C113.7 28.0146 114.432 28.4838 114.797 29.3283ZM118.91 39.1803C120.007 37.679 120.555 35.6148 120.555 33.0814V32.8938C120.647 30.6419 120.098 28.39 118.91 26.5134C117.814 24.9182 116.168 24.0738 114.157 24.0738C112.603 23.98 111.141 24.8245 110.318 26.2319L110.135 24.3553H105.292V47.7187H110.41V39.7433C111.324 40.8693 112.695 41.526 114.157 41.526C116.076 41.526 117.814 40.6815 118.91 39.1803ZM128.963 24.2615V20.0392L128.873 20.133H123.662V24.3553H121.378V28.0146H123.662V35.8025C123.662 37.8667 124.119 39.2741 125.034 40.2124C125.856 41.1508 127.136 41.6199 128.873 41.6199C129.969 41.6199 131.066 41.526 132.071 41.2445L131.706 37.3037C131.249 37.3976 130.792 37.3976 130.244 37.3976C129.969 37.3976 129.603 37.3037 129.33 37.0222C129.055 36.7407 128.963 36.2716 128.963 35.7086V27.9209H131.796V24.2615H128.963ZM138.835 36.2716C138.378 35.4271 138.195 34.3012 138.195 32.8938V32.5184C138.195 31.2048 138.378 30.0789 138.835 29.2344C139.292 28.39 140.022 28.0146 141.028 28.0146C142.033 28.0146 142.765 28.39 143.222 29.2344C143.679 30.2665 143.861 31.3925 143.861 32.5184V32.8938C143.861 34.3012 143.679 35.4271 143.222 36.2716C142.765 37.1161 142.033 37.4914 141.028 37.4914C140.022 37.4914 139.292 37.1161 138.835 36.2716ZM135.178 26.4195C133.716 28.1085 132.985 30.3604 133.077 32.6123H132.985V32.9876C132.894 35.2395 133.625 37.4914 135.088 39.1803C136.55 40.6815 138.56 41.526 141.028 41.526C143.496 41.526 145.507 40.7754 146.877 39.1803C148.248 37.5852 148.98 35.521 148.98 32.9876V32.6123C149.072 30.3604 148.34 28.1085 146.877 26.4195C145.507 24.8245 143.496 23.98 141.028 23.98C138.56 23.98 136.55 24.8245 135.178 26.4195ZM156.116 24.3553L156.109 24.2615L156.292 24.3553H156.116ZM156.116 24.3553H151.448V41.3384H156.566V29.1406C157.114 28.4838 157.936 28.1085 158.759 28.1085C159.582 28.1085 160.131 28.2961 160.496 28.6714C160.861 29.0468 161.044 29.7974 161.044 30.7357V41.2445H166.162V30.7357C166.162 28.39 165.705 26.701 164.791 25.5751C163.878 24.543 162.598 23.98 160.953 23.98C160.039 23.8862 159.125 24.1677 158.302 24.6368C157.479 25.106 156.839 25.7627 156.292 26.6072L156.116 24.3553ZM174.48 28.8591C174.845 28.2961 175.394 28.0146 176.124 28.0146C176.948 28.0146 177.405 28.2023 177.77 28.6714C178.135 29.1406 178.318 29.7974 178.318 30.6419V31.0172H173.84C173.931 30.0789 174.114 29.422 174.48 28.8591ZM170.641 39.1803C172.103 40.7754 174.023 41.526 176.491 41.526V41.6199C177.77 41.6199 178.959 41.4322 180.146 41.0569C181.152 40.6815 182.157 40.2124 182.979 39.6495L181.792 36.4592C180.329 37.2099 178.775 37.4914 177.221 37.4914C176.307 37.4914 175.485 37.2099 174.937 36.647C174.297 36.084 174.023 35.3333 173.84 34.3951H183.345V31.5802C183.436 29.6098 182.797 27.5455 181.425 26.0442C180.146 24.6368 178.41 23.98 176.124 23.98C173.657 23.98 171.829 24.8245 170.458 26.4195C169.087 28.0146 168.447 30.0789 168.447 32.7061V33.2691C168.356 35.4271 169.179 37.5852 170.641 39.1803ZM199.796 34.1136H199.705H199.614L196.781 24.2615H193.49L190.748 34.1136H190.657L188.829 24.2615H184.076L188.007 41.2445H192.394L195.135 32.2369H195.227L197.969 41.2445H202.356L206.286 24.2615H201.534L199.796 34.1136ZM216.156 35.3333C216.523 35.7086 216.797 36.4592 216.797 36.4592V36.5531C216.797 37.1161 216.613 37.4914 216.248 37.679C215.883 37.9605 215.334 38.0544 214.694 38.0544C213.872 38.0544 213.232 37.8667 212.775 37.4914C212.318 37.2099 212.044 36.647 212.044 35.8025L207.383 35.8963C207.383 37.3037 208.022 38.7111 209.302 39.8371C210.582 41.0569 212.318 41.6199 214.604 41.6199C216.431 41.7137 218.259 41.1508 219.813 40.1186C221.184 39.1803 221.824 37.8667 221.824 36.3655C221.914 34.958 221.366 33.7382 220.362 32.8938C218.99 31.9554 217.527 31.3925 215.883 31.111C214.969 31.0172 214.146 30.7357 213.323 30.2665C212.958 29.985 212.684 29.6098 212.684 29.1406C212.684 28.6714 212.866 28.2961 213.232 28.0146C213.598 27.6394 214.055 27.5455 214.604 27.5455C215.334 27.5455 215.791 27.7331 216.156 28.1085C216.523 28.4838 216.705 28.9529 216.705 29.6098L221.732 29.5159C221.732 27.9209 221.001 26.4195 219.813 25.5751C218.442 24.543 216.705 24.0738 214.512 24.0738C212.501 24.0738 210.765 24.543 209.576 25.5751C208.388 26.4195 207.748 27.827 207.748 29.3283C207.748 30.6419 208.205 31.8617 209.211 32.7061C210.49 33.6444 212.044 34.2073 213.598 34.4888C214.512 34.5827 215.334 34.8642 216.156 35.3333Z" fill="#171717"/>
</g>
</g>
</g>
<defs>
<clipPath id="clip0_141_1264">
<rect width="222" height="66" fill="white" transform="translate(0.046875)"/>
</clipPath>
<clipPath id="clip1_141_1264">
<rect width="222" height="66" fill="white" transform="translate(0.046875)"/>
</clipPath>
<clipPath id="clip2_141_1264">
<rect width="222" height="53.8835" fill="white" transform="translate(0.046875 6.05859)"/>
</clipPath>
</defs>
</svg>
