<svg width="194" height="65" viewBox="0 0 194 65" fill="none" xmlns="http://www.w3.org/2000/svg">
<g clip-path="url(#clip0_141_1272)">
<g clip-path="url(#clip1_141_1272)">
<g clip-path="url(#clip2_141_1272)">
<path fill-rule="evenodd" clip-rule="evenodd" d="M38.1276 7.53862C38.304 7.17727 38.9215 6.72559 38.9215 6.72559H49.3313C59.2995 6.72559 59.7918 6.72559 59.9976 6.96843C60.0083 6.98104 60.0182 6.99431 60.0287 7.00828C60.0467 7.03238 60.0662 7.05855 60.0939 7.08693C60.1292 7.1592 60.1928 7.23148 60.2563 7.30374C60.3516 7.41214 60.4469 7.52055 60.4469 7.62896L60.6233 7.89996V11.4231V15.2172C60.5351 15.4883 60.2705 15.9399 60.0057 16.1206L59.9902 16.1326C59.6542 16.3916 59.6542 16.3916 53.9187 16.3916H48.5374V49.0032H54.0069L59.4764 49.0936H59.7411C60.0939 49.2743 60.4469 49.6356 60.5351 49.9969V53.8814C60.5351 56.5933 60.477 57.2834 60.4551 57.5436C60.4499 57.6041 60.4469 57.6415 60.4469 57.6756C60.3587 57.9465 59.7411 58.579 59.7411 58.579H49.1549L38.8333 58.4886H38.6568C38.3922 58.3079 37.9511 57.8562 37.9511 57.5853V32.5619V7.80963L38.1276 7.53862ZM80.8258 7.53862C81.0023 7.17727 81.6199 6.72559 81.6199 6.72559H92.0295C101.979 6.72559 102.477 6.72559 102.757 6.97276C102.771 6.98579 102.785 6.99949 102.8 7.01393C102.823 7.03646 102.848 7.06075 102.88 7.08693C102.969 7.26761 103.233 7.62896 103.233 7.62896L103.41 7.89996V32.6523C103.41 56.8626 103.41 57.4046 103.322 57.6756C103.233 57.9465 102.88 58.3079 102.616 58.4886L102.439 58.579H92.1177L81.7963 58.4886H81.5316C81.2669 58.3079 80.8258 57.8562 80.7376 57.5853V53.7008C80.7376 53.0182 80.7351 52.4578 80.733 51.9957C80.7254 50.2539 80.7239 49.9093 80.8851 49.6786C80.9249 49.6218 80.9746 49.5719 81.0364 49.5096L81.0638 49.4821L81.0905 49.455C81.2669 49.3646 81.5316 49.0032 81.5316 49.0032H81.7081H87.2658H92.8236V16.3013H87.4422C81.8767 16.3013 81.713 16.2162 81.3855 16.046L81.3551 16.0303C81.0905 15.8496 80.8258 15.5786 80.7376 15.3076L80.7291 15.2812L80.7258 15.2711L80.719 15.2488C80.6494 15.0157 80.6494 14.7618 80.6494 11.4231V7.80963L80.8258 7.53862ZM1.69371 17.2951L0.546875 17.6564V28.7679V39.8793L1.34084 40.2406C2.57589 40.873 3.89918 41.2344 5.22245 41.415C5.78317 41.4788 6.73987 41.4524 7.50219 41.4315C7.8193 41.4228 8.10276 41.415 8.3101 41.415C10.9567 40.873 12.9857 39.4276 14.0443 37.2596C15.2793 34.7301 15.1029 31.1166 13.6914 28.6775C12.9857 27.4128 12.0152 26.5094 10.692 25.877C9.45693 25.2447 8.39831 25.064 6.8986 25.1544C5.39888 25.1544 4.42849 25.5158 3.28164 26.2384L2.84055 26.5094V21.7215V16.9337C2.84055 16.9337 2.31124 17.1144 1.69371 17.2951ZM8.66297 27.4128C9.80981 27.7742 10.8684 28.4968 11.4859 29.4906C12.1918 30.5746 12.4564 31.749 12.4564 33.375C12.4564 35.2721 12.0152 36.6271 11.0449 37.6209C10.4273 38.2532 9.80981 38.6146 8.83941 38.9759C7.33969 39.518 4.86957 39.3373 3.28164 38.7049L2.92877 38.5242V33.6461V28.7679L3.28164 28.4968C3.89918 27.9548 4.78136 27.5935 5.66354 27.4128C6.36929 27.2322 6.54573 27.2322 7.42791 27.3224C8.04544 27.3224 8.3101 27.3224 8.66297 27.4128ZM165.603 27.0516C165.603 26.8709 165.957 26.4193 167.985 24.0705L168.161 24.2511C170.014 22.0831 170.631 21.4507 170.631 21.4507H170.719V25.3352H175.66V27.3226H170.719V32.1105V37.2597C170.896 38.163 171.249 38.3437 172.396 38.3437C173.19 38.3437 174.072 38.1631 174.955 37.8017C175.307 37.621 175.66 37.5306 175.66 37.5306V38.5244V39.6988H175.395C174.072 40.2408 172.925 40.5118 171.69 40.5118C170.544 40.5118 169.749 40.2408 169.22 39.6988C168.779 39.247 168.603 38.8857 168.426 38.2533C168.161 37.5306 168.161 37.079 168.161 32.0201V27.2323H165.603V27.0516ZM53.1251 24.0702C53.1251 24.0702 52.9487 24.1606 52.8605 24.2509L52.6839 24.4316V26.5093C52.6839 28.4968 52.6839 28.5871 52.7722 28.6775L52.7984 28.7045C52.8341 28.7415 52.8645 28.7729 52.8984 28.7995C53.0887 28.9484 53.3955 28.9484 55.4187 28.9484H57.6242V35.9044H55.3305H53.0369L52.8605 36.0851L52.6839 36.2658V38.3435C52.6839 40.3309 52.6839 40.4213 52.7722 40.5115C52.7881 40.5278 52.8011 40.5431 52.8133 40.5574C52.8233 40.5691 52.8328 40.5802 52.8428 40.5908C53.0261 40.7826 53.4101 40.7826 60.8001 40.7826C68.0738 40.7826 68.6281 40.7826 68.7736 40.5387C68.7856 40.5186 68.7947 40.4968 68.8048 40.4733C68.8091 40.4629 68.8136 40.4523 68.8185 40.4413C68.8214 40.4348 68.8246 40.428 68.828 40.4213C68.9162 40.2406 68.9162 40.0599 68.828 38.2531C68.828 36.4464 68.828 36.2658 68.7398 36.1754C68.5633 35.9044 68.475 35.9044 66.0932 35.9044H63.8877V28.9484H66.0932C68.0879 28.9484 68.4717 28.9484 68.6386 28.7582C68.6784 28.7128 68.7057 28.6567 68.7397 28.5872C68.8279 28.4065 68.828 28.2257 68.7398 26.4191C68.7398 24.6123 68.7398 24.4316 68.6516 24.3413C68.6477 24.3355 68.6443 24.3299 68.641 24.3243L68.6364 24.3164L68.6283 24.3023C68.4974 24.0702 68.4974 24.0702 60.6236 24.0702H53.1251ZM72.3567 24.1605C72.3567 24.1605 72.3213 24.1151 72.2728 24.3324L72.3567 24.1605ZM72.2711 24.3399L72.2685 24.3412L72.2728 24.3324L72.2711 24.3399ZM72.2711 24.3399C72.4458 24.2508 72.5433 24.2508 74.5622 24.2508C76.8558 24.2508 76.944 24.2508 77.2088 24.5219C77.297 24.6122 78.532 26.3286 79.9435 28.316L82.5901 31.9295V28.2256C82.5901 24.6122 82.5901 24.5219 82.6783 24.4315C82.9429 24.1605 82.9429 24.1605 85.413 24.1605C87.6184 24.1605 87.7068 24.1605 87.8832 24.2508C87.9069 24.263 87.9291 24.2715 87.9497 24.2794C87.9702 24.2872 87.9892 24.2945 88.0068 24.3042C88.236 24.4306 88.236 24.9726 88.236 32.5618V32.564C88.236 40.3309 88.236 40.5115 88.1478 40.6921L88.1207 40.7295C88.0768 40.7901 88.0411 40.8395 87.997 40.8796C87.8058 41.0535 87.4563 41.0535 85.5894 41.0535L83.4722 40.8728H83.2076C83.0311 40.7825 82.4135 40.0598 80.2963 37.2593L77.6498 33.8265V37.169C77.5658 40.698 77.5618 40.7005 77.3326 40.8492C77.3213 40.8565 77.3094 40.8643 77.297 40.8728C77.2088 40.9632 77.0322 40.9632 74.8268 40.9632C72.2685 40.9632 72.2685 40.9632 72.0921 40.6018C72.0039 40.4212 72.0039 40.2405 72.0039 32.4737V32.4715C72.0039 26.5185 72.1667 24.8181 72.2711 24.3399ZM115.495 24.6124C114.437 24.7027 113.289 24.9736 112.319 25.5157C110.82 26.2384 109.496 27.5934 108.879 29.0388C108.261 30.3939 107.997 32.02 108.173 33.7364C108.526 37.5305 111.173 40.2406 115.054 40.7826C115.76 40.873 117.26 40.873 118.053 40.7826C118.57 40.7826 118.945 40.6858 119.421 40.563C119.594 40.5181 119.782 40.4697 119.994 40.4213L120.523 40.2406V39.0662V37.8919C120.523 37.8919 120.259 37.8919 119.994 38.0725C119.377 38.3435 118.407 38.5242 117.613 38.6146C116.731 38.7049 115.495 38.6146 114.79 38.5242C114.172 38.3435 113.643 38.1628 113.113 37.8015C112.496 37.4401 112.231 37.1692 111.79 36.6271C110.908 35.543 110.466 34.2784 110.466 32.7427C110.466 29.9422 112.055 27.7741 114.701 27.0514C114.949 26.9791 115.097 26.9357 115.248 26.9096C115.475 26.8708 115.708 26.8708 116.289 26.8708C117.083 26.8708 117.436 26.8708 117.877 26.9611C118.036 26.9972 118.198 27.0334 118.361 27.0695C119.01 27.2141 119.659 27.3585 120.083 27.5031L120.436 27.6838V26.5094V25.335L119.994 25.1543C119.465 24.9736 118.495 24.7931 117.877 24.7027C117.656 24.7027 117.384 24.6938 117.094 24.6845C116.459 24.6638 115.743 24.6406 115.319 24.7027L115.495 24.6124ZM152.548 26.6C153.606 25.5159 155.106 24.7932 156.605 24.6125C157.047 24.4318 158.106 24.5222 158.635 24.6125C161.369 25.2448 163.399 27.5032 163.927 30.5748C163.927 30.8576 163.936 31.2024 163.946 31.5677V31.5695C163.966 32.3704 163.988 33.2688 163.927 33.8269C163.752 35.2722 163.222 36.6273 162.428 37.7113C161.986 38.3437 161.281 39.0664 160.752 39.4277C159.958 40.0601 158.988 40.5118 158.017 40.6924C156.959 40.9635 155.283 40.8731 153.959 40.5118C153.606 40.4215 152.636 39.9697 152.371 39.789C152.283 39.6988 152.195 39.6988 152.195 39.6988V43.1315V46.5643H149.813V25.1545H152.195V26.9612L152.548 26.6ZM159.958 27.955C159.517 27.5032 158.635 27.0516 158.017 26.9612L157.929 26.8709C157.769 26.8709 157.559 26.8626 157.332 26.8536C156.807 26.8328 156.181 26.8079 155.812 26.8709C155.357 26.9487 155.032 27.0931 154.557 27.3046C154.479 27.3389 154.398 27.375 154.312 27.413C153.606 27.6839 153.077 28.1357 152.548 28.6777L152.195 29.0389V37.4403H152.371C152.812 37.8017 153.518 38.1631 154.224 38.3437C155.106 38.7051 155.459 38.7051 156.429 38.7051C157.224 38.7051 157.399 38.7051 157.752 38.6147C158.635 38.3437 159.34 37.9824 159.958 37.3499C160.752 36.5369 161.281 35.5433 161.546 34.0978C161.634 33.4655 161.634 31.7491 161.546 31.1167C161.281 29.7617 160.752 28.6777 159.958 27.955ZM184.659 24.6124C184.659 24.6124 183.865 24.7027 183.6 24.7931C179.718 25.6963 177.337 28.9486 177.602 33.1943C177.69 35.3624 178.396 36.9885 179.63 38.3435C180.689 39.4276 181.836 40.0599 183.335 40.5117C184.219 40.7826 184.836 40.7826 185.894 40.7826C187.217 40.7826 188.188 40.5117 189.335 39.9696C190.922 39.1566 191.981 38.1628 192.775 36.5368C193.128 35.8141 193.305 35.0914 193.481 34.2784C193.569 33.5557 193.569 31.9296 193.481 31.1166C193.216 29.4002 192.511 27.9548 191.364 26.8708C190.04 25.5157 188.364 24.7931 186.335 24.6124H184.659ZM186.777 26.7804C188.276 27.0514 189.423 27.9548 190.217 29.1291C190.922 30.2132 191.187 31.2069 191.187 32.7427C191.187 33.7364 191.187 34.0977 190.922 34.9107C190.128 37.4401 187.924 38.9759 185.276 38.7953C182.542 38.6146 180.513 36.8078 180.072 34.0073C179.983 33.2846 179.983 32.02 180.072 31.3876C180.16 30.8456 180.425 30.1229 180.601 29.6712C181.396 28.1354 182.806 27.0514 184.482 26.7804C185.101 26.6901 186.247 26.6901 186.777 26.7804ZM126.434 28.4064C127.493 26.0577 128.817 25.1543 131.551 24.7027L131.64 24.7929H131.904H132.08V27.5031H131.64C129.964 27.5934 128.905 28.0451 127.935 29.0388C127.228 29.7614 126.876 30.3939 126.522 31.5682C126.17 32.5619 126.17 32.7426 126.17 36.7174V40.3309H125.023H123.876V25.2447H125.023H126.17V27.1418V29.0388L126.434 28.4064ZM24.1893 25.0641H23.66C22.3367 25.2448 21.1016 25.7868 20.1313 26.5096C19.6019 26.8709 18.8079 27.7742 18.4551 28.3162C17.9257 29.2196 17.5729 30.0326 17.3082 31.2071C17.22 31.8394 17.22 31.9297 17.22 33.1042C17.22 34.4592 17.22 34.8206 17.4846 35.7239C18.2787 38.8857 20.6605 40.9634 24.1011 41.4152H26.9241C28.0709 41.3248 29.6588 40.8731 30.8057 40.4214H31.0703V39.0663V37.892L30.4528 38.2533C28.8649 39.0663 27.0123 39.4277 25.1597 39.3374C24.3657 39.3374 23.9246 39.247 23.2188 38.9761C21.5427 38.3436 20.3077 37.079 19.8666 35.1819C19.8313 34.965 19.796 34.7194 19.7607 34.4737C19.7077 34.1051 19.6549 33.7365 19.6019 33.4655V33.2848H32.3054V32.9235C32.3054 32.3814 32.2172 31.3878 32.0407 30.7553C31.2467 27.5936 29.1295 25.4255 26.2183 24.9738H24.2775L24.1893 25.0641ZM25.9536 27.1419C26.9241 27.3226 27.8062 27.6839 28.4237 28.3162C29.1295 29.0389 29.6588 30.123 29.747 31.2071V31.5684H24.7185H19.6019C19.6019 31.3878 19.7783 30.6651 19.9548 30.3037C20.3077 29.4907 20.9252 28.6776 21.631 28.226C22.7778 27.413 24.4539 27.0516 25.8654 27.2323L25.9536 27.1419ZM132.773 25.4252C132.725 25.307 132.698 25.2445 132.698 25.2445V25.4252H132.773ZM135.786 32.7424C134.336 29.2258 133.084 26.1825 132.773 25.4252H133.934H135.168L137.551 31.297C138.873 34.5492 140.02 37.2592 140.02 37.2592C140.032 37.2714 140.04 37.287 140.05 37.2891C140.113 37.3022 140.291 36.7651 142.579 31.297C142.876 30.5654 143.174 29.8236 143.449 29.1408C143.986 27.8003 144.432 26.6876 144.608 26.3284L145.049 25.3348H146.195H147.342C147.287 25.3348 146.477 27.2823 145.257 30.2165C144.564 31.8829 143.739 33.8677 142.843 35.9946L138.433 46.5639H137.286H136.139C136.171 46.4978 136.476 45.7783 136.86 44.8658C137.529 43.2852 138.442 41.126 138.609 40.7824L138.873 40.1501L135.786 32.7424Z" fill="#171717"/>
</g>
</g>
</g>
<defs>
<clipPath id="clip0_141_1272">
<rect width="193" height="65" fill="white" transform="translate(0.546875)"/>
</clipPath>
<clipPath id="clip1_141_1272">
<rect width="193" height="65" fill="white" transform="translate(0.546875)"/>
</clipPath>
<clipPath id="clip2_141_1272">
<rect width="193" height="53.4294" fill="white" transform="translate(0.546875 5.78516)"/>
</clipPath>
</defs>
</svg>
