<svg width="239" height="69" viewBox="0 0 239 69" fill="none" xmlns="http://www.w3.org/2000/svg">
<g clip-path="url(#clip0_141_1276)">
<g clip-path="url(#clip1_141_1276)">
<g clip-path="url(#clip2_141_1276)">
<path fill-rule="evenodd" clip-rule="evenodd" d="M33.9141 47.7988C30.5198 51.2338 24.854 53.4732 18.6635 53.4732C8.5739 53.4732 0.553929 48.0623 0.208984 41.4489V19.6333V19.2038C0.208984 12.4187 8.40143 6.83594 18.7497 6.83594C25.5623 6.83594 31.685 9.58429 34.7033 13.6209H58.7634L55.7452 26.1606H43.5859L40.9988 33.1176L54.4517 27.5348L30.5642 62.0618L33.9141 47.7988ZM24.1632 51.0324L25.4991 45.4665C23.4547 45.9722 21.0306 46.2511 18.7497 46.1727C11.2473 46.2586 4.95198 43.2525 1.93371 38.8723V41.0194C2.10619 46.774 9.43626 51.7555 18.7497 51.7555C20.519 51.6788 22.4254 51.3973 24.1632 51.0324ZM25.9862 43.4371L27.4156 37.4821C24.7682 38.4793 21.7943 39.0277 18.7497 38.8723C11.2473 39.044 4.95198 36.1238 1.93371 32.0011V33.7189C2.10619 39.6452 9.43626 44.455 18.7497 44.455C21.1733 44.455 23.6634 44.0575 25.9862 43.4371ZM27.9258 35.3564L29.3185 29.5539C26.2015 30.969 22.5867 31.9249 18.836 32.0011C11.3335 31.8294 5.03822 28.9092 2.01995 24.7006V26.4184C2.19241 32.4306 9.52249 37.2403 18.836 37.1545C22.1405 37.2328 25.3014 36.5247 27.9258 35.3564ZM32.5474 13.6209H21.4232L18.4048 26.1606H30.133L29.9076 27.0997C26.9587 28.9456 23.0008 30.1298 18.836 30.2835C9.52249 30.1116 2.19241 25.216 2.01995 19.1179C2.01995 13.3634 9.52249 8.46781 18.836 8.46781C24.3551 8.46781 29.5291 10.4432 32.5474 13.6209ZM34.9622 53.0437L36.687 44.3689L36.6007 44.4548L26.5973 48.7492L32.2889 24.5287H20.5608L22.7167 15.4246H56.6076L54.4517 24.5287H42.7235L37.5494 36.6389L49.2775 31.4857L34.9622 53.0437ZM83.5994 22.124C83.5994 23.4982 83.1682 24.6148 82.3058 25.3877C81.4434 26.1608 80.2362 26.5902 78.6839 26.5902C77.1317 26.5902 75.8381 26.0748 74.9757 25.1301C74.0272 24.1853 73.596 22.8111 73.596 21.2651V18.6885C73.596 17.1425 74.1133 15.8542 74.9757 14.8235C75.9243 13.8787 77.1317 13.3634 78.6839 13.3634C80.2362 13.3634 81.5296 13.7929 82.392 14.48C83.3406 15.253 83.7718 16.3695 83.6856 17.7438H81.1847C81.1847 16.8848 81.0122 16.2836 80.5811 15.8542C80.1499 15.4247 79.5462 15.253 78.6839 15.253C77.8215 15.253 77.3041 15.5965 76.8729 16.1977C76.4417 16.7989 76.183 17.5719 76.183 18.6026V21.1792C76.183 22.124 76.4417 22.9829 76.8729 23.5841C77.3041 24.1853 77.9939 24.5289 78.7701 24.5289C79.5462 24.5289 80.1499 24.3571 80.4949 23.9277C80.8398 23.4982 81.0984 22.897 81.0984 22.0382H83.5994V22.124ZM97.9145 21.0933C97.9145 22.6394 97.3971 24.0136 96.4486 25.0442C95.4999 26.0748 94.1201 26.5902 92.5679 26.5902C91.0156 26.5902 89.7221 26.0748 88.6873 25.0442C87.7386 24.0136 87.2213 22.7252 87.2213 21.0933V18.7743C87.2213 17.2284 87.7386 15.9401 88.6873 14.8235C89.6359 13.7929 91.0156 13.2775 92.5679 13.2775C94.1201 13.2775 95.4999 13.7929 96.4486 14.8235C97.4833 15.8542 97.9145 17.1425 97.9145 18.7743V21.0933ZM95.3274 18.7743C95.3274 17.7438 95.0687 16.9707 94.5513 16.2836C94.034 15.6824 93.344 15.3388 92.4817 15.3388C91.6193 15.3388 90.9294 15.6824 90.412 16.2836C89.9808 16.8848 89.6359 17.7438 89.6359 18.7743V21.0933C89.6359 22.124 89.8946 22.9829 90.412 23.5841C90.8431 24.1853 91.6193 24.5289 92.4817 24.5289C93.344 24.5289 94.034 24.1853 94.5513 23.5841C95.0687 22.9829 95.3274 22.124 95.3274 21.0933V18.7743ZM104.641 26.4184H102.054V13.5352H104.641V26.4184ZM119.646 26.4184H117.059L111.885 17.7438V26.4184H109.297V13.5352H111.885L117.059 22.2099V13.5352H119.646V26.4184ZM132.754 15.5106H129.046V26.4184H126.459V15.5106H122.836V13.5352H132.754V15.5106ZM143.534 20.7498H138.704V24.443H144.396V26.4184H136.117V13.5352H144.396V15.5106H138.704V18.7743H143.534V20.7498ZM150.778 24.443H156.555V26.4184H148.104V13.5352H150.691V24.443H150.778ZM167.68 20.7498H162.85V24.443H168.542V26.4184H160.264V13.5352H168.542V15.5106H162.85V18.7743H167.68V20.7498ZM182.254 24.7006C181.823 25.216 181.305 25.6455 180.442 26.0748C179.667 26.5043 178.631 26.676 177.338 26.676C175.786 26.676 174.492 26.1608 173.543 25.216C172.596 24.2712 172.078 22.9829 172.078 21.4369V18.6885C172.078 17.1425 172.596 15.8542 173.543 14.9094C174.492 13.9646 175.786 13.4493 177.252 13.4493C178.804 13.4493 180.098 13.8787 180.874 14.5659C181.65 15.253 182.167 16.2836 182.081 17.5719H179.667C179.667 16.8848 179.494 16.3695 179.062 15.9401C178.631 15.5106 178.115 15.3388 177.338 15.3388C176.562 15.3388 175.959 15.6824 175.441 16.2836C175.01 16.8848 174.752 17.6579 174.752 18.6026V21.3511C174.752 22.2958 175.01 23.1547 175.527 23.7559C176.044 24.3571 176.735 24.7006 177.511 24.7006C178.115 24.7006 178.631 24.7006 178.977 24.5289C179.322 24.443 179.58 24.2712 179.839 24.0994V21.6087H177.338V19.805H182.426V24.8724L182.254 24.7006ZM188.98 21.2651V26.4184H186.393V13.4493H190.878C192.343 13.4493 193.55 13.7929 194.327 14.48C195.19 15.1671 195.62 16.1118 195.62 17.3143C195.62 18.0014 195.448 18.5167 195.103 19.0321C194.757 19.4615 194.241 19.8909 193.55 20.2345C194.327 20.4921 194.844 20.8357 195.19 21.3511C195.534 21.8663 195.706 22.5535 195.706 23.3265V24.2712C195.706 24.2712 195.706 25.0442 195.879 25.3877C195.879 25.8172 196.137 26.0748 196.397 26.2467V26.4184H193.723C193.465 26.2467 193.292 25.9031 193.205 25.4736C193.205 25.259 193.184 25.0442 193.162 24.8295C193.141 24.6148 193.119 24.4 193.119 24.1853V23.2406C193.119 22.6394 192.947 22.124 192.602 21.7804C192.257 21.4369 191.74 21.2651 191.136 21.2651H188.98ZM190.878 19.2897H189.066V15.5965H190.963C191.654 15.5965 192.171 15.7683 192.516 16.1118C192.861 16.4554 193.034 16.8848 193.034 17.486C193.034 18.0872 192.861 18.5167 192.516 18.8603C192.171 19.1179 191.567 19.2897 190.878 19.2897ZM202.432 23.67H206.599L207.435 26.4184H210.194L205.882 13.5352H203.209L198.811 26.4184H201.57L202.432 23.67ZM203.209 21.6087H206.055L204.675 17.0566L203.209 21.6087ZM216.058 21.6946V26.3326H213.472V13.5352H218.473C219.938 13.5352 221.147 13.9646 222.008 14.6517C222.87 15.4247 223.302 16.4554 223.302 17.6579C223.302 18.8603 222.87 19.8909 222.008 20.664C221.147 21.4369 220.025 21.7804 218.473 21.7804H216.144L216.058 21.6946ZM216.058 19.7192H218.387C219.076 19.7192 219.68 19.5474 220.025 19.1179C220.37 18.6885 220.543 18.1731 220.543 17.6579C220.543 17.0566 220.37 16.5413 220.025 16.1118C219.68 15.6824 219.076 15.5106 218.387 15.5106H216.058V19.7192ZM237.445 26.3326H234.857V21.0075H229.598V26.3326H227.01V13.4493H229.598V19.0321H234.857V13.4493H237.445V26.3326ZM76.6141 47.4612H78.2525V38.9582H81.1846V37.5839H73.6821V38.9582H76.6141V47.4612ZM87.4798 47.4612H89.1183L89.2046 47.3753V42.4796C89.2046 40.6759 88.2559 39.7312 86.445 39.7312C85.9276 39.7312 85.4964 39.9029 85.0652 40.0747C84.634 40.3324 84.1166 40.9336 84.1166 40.9336H84.0303V39.5595V36.8969H82.4781V47.3753H84.0303V43.682C84.1166 42.7373 84.2028 42.1361 84.5478 41.7066C84.8927 41.2771 85.3239 41.1054 86.0138 41.1054C86.5313 41.1054 86.8762 41.2771 87.1348 41.5349C87.3936 41.7925 87.4798 42.2219 87.4798 42.8232V47.4612ZM91.8779 46.5163C92.5678 47.2034 93.4302 47.547 94.6374 47.547L94.5512 47.6329C94.8361 47.6329 95.1209 47.6069 95.3769 47.5835C95.586 47.5644 95.776 47.547 95.931 47.547C96.3622 47.4612 97.1382 47.1176 97.1382 47.1176V45.8293C97.0093 45.8806 96.888 45.9397 96.7699 45.9972C96.4931 46.1321 96.2332 46.2587 95.931 46.2587C95.586 46.3446 95.1548 46.3446 94.7237 46.3446C94.12 46.3446 93.5163 46.1729 93.1715 45.7434C92.8265 45.3998 92.5678 44.7986 92.5678 44.1115H97.5694V43.2526C97.5694 42.1361 97.3107 41.3631 96.7071 40.7619C96.1897 40.1607 95.3273 39.8171 94.3787 39.8171C93.3439 39.8171 92.4815 40.1607 91.8779 40.8478C91.2742 41.5349 90.9293 42.4796 90.9293 43.682C90.9293 44.8844 91.188 45.8293 91.8779 46.5163ZM93.1715 41.449C93.4302 41.1913 93.8614 41.0195 94.3787 41.0195C94.8961 41.0195 95.3273 41.1054 95.586 41.449C95.8448 41.7066 96.0172 42.2219 96.0172 42.8232H92.654C92.7403 42.2219 92.9127 41.7066 93.1715 41.449ZM104.9 41.1054H106.624V39.9029H104.813V39.4735C104.813 39.0441 104.9 38.7864 105.072 38.5288C105.244 38.2711 105.503 38.1852 105.848 38.1852C106.193 38.1852 106.969 38.357 106.969 38.357L107.401 37.1546C106.883 36.8969 106.279 36.8969 105.762 36.8969C104.9 36.8969 104.296 37.0687 103.865 37.4981C103.434 37.9275 103.261 38.6146 103.261 39.4735V39.9029L102.054 40.3324V41.1054H103.261V47.3753H104.9V41.1054ZM113.006 46.4305L113.265 47.3753L113.351 47.4612H114.645V39.9888H113.006V43.768C112.92 44.7127 112.833 45.3139 112.489 45.7434C112.144 46.1729 111.713 46.3446 111.022 46.3446C110.504 46.3446 110.16 46.1729 109.901 45.9151C109.642 45.5716 109.557 45.228 109.557 44.6268V39.9888H107.917V44.8844C107.917 45.8293 108.177 46.5163 108.608 46.9458C109.125 47.3753 109.729 47.6329 110.677 47.6329C111.195 47.6329 111.626 47.4612 112.057 47.2893C112.489 47.0317 113.006 46.4305 113.006 46.4305ZM120.767 46.001C120.335 46.1729 119.56 46.1729 119.56 46.1729H119.473C119.215 46.1729 118.87 46.0869 118.784 45.9151C118.525 45.7434 118.525 45.4857 118.525 45.0563V41.0195H120.681V39.8171H118.525V38.1852H117.576L117.059 39.7312L115.938 40.3324V41.0195H116.972V45.0563C116.972 46.6022 117.748 47.3753 119.215 47.3753H120.077C120.335 47.3753 120.767 47.2034 120.767 47.2034V46.001ZM127.235 46.4305L127.494 47.3753L127.579 47.4612H128.873V39.9888H127.235V43.768C127.148 44.7127 127.063 45.3139 126.717 45.7434C126.372 46.1729 125.941 46.3446 125.252 46.3446C124.734 46.3446 124.389 46.1729 124.13 45.9151C123.871 45.5716 123.785 45.228 123.785 44.6268V39.9888H122.147V44.8844C122.147 45.8293 122.405 46.5163 122.836 46.9458C123.354 47.3753 123.958 47.6329 124.907 47.6329C125.423 47.6329 125.855 47.4612 126.286 47.2893C126.717 47.0317 127.235 46.4305 127.235 46.4305ZM135.599 39.7312H134.823L134.738 39.6453C134.22 39.6453 133.789 39.8171 133.444 40.0747C133.098 40.3324 132.754 40.6759 132.495 41.1054L132.322 39.8171H131.029V47.2893H132.582V43.4244C132.582 42.7373 132.754 42.2219 133.185 41.7925C133.616 41.3631 134.134 41.1913 134.738 41.1913H135.427L135.599 39.7312ZM137.239 46.4305C137.928 47.1176 138.79 47.4612 139.998 47.4612L139.911 47.547C140.182 47.547 140.429 47.5236 140.665 47.5012C140.879 47.4807 141.085 47.4612 141.291 47.4612C141.722 47.3753 142.498 47.0317 142.498 47.0317V45.7434C142.37 45.7947 142.248 45.8538 142.131 45.9114C141.853 46.0462 141.593 46.1729 141.291 46.1729C140.946 46.2587 140.515 46.2587 140.084 46.2587C139.48 46.2587 138.877 46.0869 138.532 45.6575C138.186 45.3139 137.928 44.7127 137.928 44.0256H142.929V43.1668C142.929 42.0502 142.671 41.2771 142.067 40.6759C141.549 40.0747 140.688 39.7312 139.739 39.7312C138.704 39.7312 137.842 40.0747 137.239 40.7619C136.634 41.449 136.29 42.3937 136.29 43.5961C136.29 44.7986 136.548 45.7434 137.239 46.4305ZM138.532 41.3631C138.79 41.1054 139.222 40.9336 139.739 40.9336C140.257 40.9336 140.602 41.0195 140.946 41.3631C141.205 41.6207 141.378 42.1361 141.378 42.7373H138.014C138.101 42.1361 138.186 41.7066 138.532 41.3631ZM154.054 46.4305C154.658 45.7434 155.003 44.7986 155.003 43.5961L155.089 43.5103C155.089 42.3078 154.745 41.3631 154.141 40.6759C153.451 39.9888 152.589 39.6453 151.553 39.6453C150.346 39.6453 149.484 39.9888 148.88 40.6759C148.277 41.3631 147.932 42.3078 147.932 43.5103C147.932 44.2832 148.104 44.9704 148.362 45.5716C148.621 46.1729 148.966 46.6022 149.57 46.9458C150.173 47.2893 150.777 47.4612 151.467 47.4612C152.589 47.4612 153.451 47.1176 154.054 46.4305ZM151.467 46.1729C150.173 46.1729 149.57 45.3139 149.57 43.5961C149.57 42.7373 149.656 42.1361 150.001 41.7066C150.346 41.2771 150.777 41.0195 151.467 41.0195C152.761 41.0195 153.365 41.8783 153.365 43.5961C153.365 45.3139 152.761 46.1729 151.467 46.1729ZM158.797 41.1054H160.522V39.9029H158.711V39.4735C158.711 39.0441 158.797 38.7005 158.97 38.5288C159.142 38.2711 159.401 38.1852 159.746 38.1852C160.091 38.1852 160.867 38.357 160.867 38.357L161.298 37.1546C160.78 36.8969 160.177 36.8969 159.66 36.8969C158.797 36.8969 158.193 37.0687 157.762 37.4981C157.331 37.9275 157.159 38.6146 157.159 39.4735V39.9029L155.952 40.3324V41.1054H157.159V47.3753H158.797V41.1054ZM170.18 47.3753H171.818L171.733 47.2893H171.818V43.3385C171.818 42.4796 171.991 41.9643 172.25 41.5349C172.595 41.1054 173.027 40.9336 173.63 40.9336C174.147 40.9336 174.406 41.1054 174.665 41.3631C174.923 41.7066 175.01 42.0502 175.01 42.6514V47.2893H176.562V42.3937C176.562 41.449 176.39 40.7619 175.959 40.3324C175.527 39.9029 174.923 39.6453 173.974 39.6453C173.458 39.6453 173.027 39.8171 172.595 39.9888C172.164 40.1607 171.647 40.8478 171.647 40.8478H171.56C171.129 40.0747 170.353 39.6453 169.231 39.6453C168.8 39.6453 168.37 39.7312 167.939 39.9029C167.508 40.1607 166.99 40.7619 166.99 40.7619L166.731 39.8171H165.437V47.2893H166.99V43.5961C166.99 42.6514 167.162 42.0502 167.421 41.6207C167.766 41.1913 168.197 41.0195 168.8 41.0195C169.318 41.0195 169.663 41.1913 169.835 41.449C170.094 41.7925 170.18 42.1361 170.18 42.7373V47.3753ZM184.496 46.4305C185.099 45.7434 185.444 44.7986 185.444 43.5961L185.53 43.5103C185.53 42.3078 185.185 41.3631 184.581 40.6759C183.892 39.9888 183.03 39.6453 181.994 39.6453C180.787 39.6453 179.925 39.9888 179.322 40.6759C178.718 41.3631 178.373 42.3078 178.373 43.5103C178.373 44.2832 178.546 44.9704 178.804 45.5716C179.062 46.1729 179.494 46.6022 180.011 46.9458C180.615 47.2893 181.218 47.4612 181.909 47.4612C183.03 47.4612 183.892 47.1176 184.496 46.4305ZM181.909 46.1729C180.615 46.1729 180.011 45.3139 180.011 43.5961C180.011 42.7373 180.098 42.1361 180.442 41.7066C180.787 41.2771 181.218 41.0195 181.909 41.0195C183.202 41.0195 183.805 41.8783 183.805 43.5961C183.805 45.3139 183.202 46.1729 181.909 46.1729ZM192.256 47.3753H193.896V47.2034V42.3937C193.896 40.59 193.033 39.6453 191.222 39.6453C190.705 39.6453 190.273 39.7312 189.842 39.9029C189.411 40.1607 188.893 40.7619 188.893 40.7619L188.635 39.8171H187.341V47.2893H188.893V43.5961C188.893 42.6514 189.066 42.0502 189.325 41.6207C189.584 41.1913 190.101 41.0195 190.791 41.0195C191.309 41.0195 191.653 41.1913 191.912 41.449C192.171 41.7066 192.256 42.1361 192.256 42.7373V47.3753ZM196.655 46.4305C197.344 47.1176 198.207 47.4612 199.415 47.4612L199.328 47.547C199.599 47.547 199.846 47.5236 200.081 47.5012C200.297 47.4807 200.503 47.4612 200.707 47.4612C201.14 47.3753 201.916 47.0317 201.916 47.0317V45.7434C201.793 45.7918 201.672 45.8472 201.552 45.9016C201.248 46.04 200.955 46.1729 200.707 46.1729C200.363 46.2587 199.932 46.2587 199.5 46.2587C198.897 46.2587 198.293 46.0869 197.948 45.6575C197.604 45.3139 197.344 44.7127 197.344 44.0256H202.347V43.1668C202.347 42.0502 202.088 41.2771 201.484 40.6759C200.967 40.0747 200.104 39.7312 199.156 39.7312C198.121 39.7312 197.259 40.0747 196.655 40.7619C196.051 41.449 195.706 42.3937 195.706 43.5961C195.706 44.7986 195.965 45.7434 196.655 46.4305ZM197.862 41.3631C198.121 41.1054 198.553 40.9336 199.069 40.9336C199.587 40.9336 200.018 41.0195 200.277 41.3631C200.536 41.6207 200.707 42.1361 200.707 42.7373H197.344C197.431 42.1361 197.517 41.7066 197.862 41.3631ZM202.712 39.9029H202.692L202.605 39.6453L202.712 39.9029ZM202.712 39.9029L205.71 47.1176L205.451 47.8047C205.106 48.7495 204.588 49.1789 203.812 49.1789H202.95V50.4673C203.295 50.5531 203.64 50.5531 203.985 50.5531C205.365 50.5531 206.313 49.7802 206.917 48.2341L210.107 39.8171H208.384C208.132 40.5468 207.906 41.2007 207.707 41.7774C207.085 43.5762 206.724 44.6244 206.659 44.8844C206.486 45.3139 206.399 45.8293 206.399 45.8293C206.399 45.3139 206.228 44.7127 205.968 44.1115L204.416 39.9029H202.712Z" fill="#171717"/>
</g>
</g>
</g>
<defs>
<clipPath id="clip0_141_1276">
<rect width="238" height="68" fill="white" transform="translate(0.046875 0.410156)"/>
</clipPath>
<clipPath id="clip1_141_1276">
<rect width="238" height="68" fill="white" transform="translate(0.046875 0.410156)"/>
</clipPath>
<clipPath id="clip2_141_1276">
<rect width="238" height="55.7477" fill="white" transform="translate(0.046875 6.53613)"/>
</clipPath>
</defs>
</svg>
