<svg width="31" height="29" viewBox="0 0 31 29" fill="none" xmlns="http://www.w3.org/2000/svg">
<path d="M15.0547 29C23.3692 29 30.1093 22.5083 30.1093 14.5C30.1093 6.49162 23.3692 0 15.0547 0C6.74024 0 0 6.49162 0 14.5C0 22.5083 6.74024 29 15.0547 29Z" fill="#4793FF"/>
<path d="M15.0547 0C23.3558 0 30.1093 6.50468 30.1093 14.5C30.1093 22.4953 23.3558 29 15.0547 29V0Z" fill="#5E69E2"/>
<path d="M15.0526 25.3602C21.2798 25.3602 26.3279 20.4983 26.3279 14.5004C26.3279 8.50247 21.2798 3.64062 15.0526 3.64062C8.82544 3.64062 3.77734 8.50247 3.77734 14.5004C3.77734 20.4983 8.82544 25.3602 15.0526 25.3602Z" fill="#2EBEEF"/>
<path d="M14.3177 7.20464L9.59349 14.0298C9.39592 14.3147 9.39592 14.6866 9.59349 14.9723L14.3177 21.7974C14.6668 22.302 15.4364 22.302 15.7856 21.7974L20.5097 14.9723C20.7073 14.6866 20.7073 14.3147 20.5097 14.0298L15.7856 7.20464C15.4364 6.70001 14.6669 6.70001 14.3177 7.20464Z" fill="#76E5F6"/>
<path d="M15.051 6.82617C14.7714 6.82617 14.4917 6.95237 14.3171 7.20466L9.59289 14.0298C9.48725 14.1828 9.43867 14.3597 9.44604 14.5358L14.878 15.582C14.9352 15.5929 14.9931 15.5987 15.051 15.5987V6.82617Z" fill="#C2F4FB"/>
</svg>
