<svg width="95" height="106" viewBox="0 0 95 106" fill="none" xmlns="http://www.w3.org/2000/svg">
<path fill-rule="evenodd" clip-rule="evenodd" d="M59.0948 1.97698C65.4868 5.66736 66.1088 16.5718 60.4801 26.321C54.8514 36.0703 45.0968 40.9838 38.7049 37.2934C32.313 33.603 31.687 22.7053 37.3196 12.9493C42.9551 3.20402 52.7029 -1.7134 59.0948 1.97698ZM49.1378 53.2216C62.6812 61.077 59.2076 70.988 61.8065 92.8845C61.0793 107.304 49.6303 110.048 38.6828 99.7225C34.6136 93.4852 31.1614 90.1209 27.0237 87.9125C19.852 84.0966 15.4133 87.6861 7.42046 82.6384C1.20779 78.826 -0.115096 74.5532 1.65044 70.2232C3.5197 65.6193 6.72671 63.8806 10.7746 61.5178C26.5161 52.312 40.8549 46.1482 49.1378 53.2216ZM21.6093 15.2542C15.7431 14.3751 9.9271 20.9311 8.61697 29.8901C7.30685 38.8491 10.9976 46.8254 16.8638 47.7045C22.7301 48.5836 28.5461 42.0276 29.8562 33.0686C31.1663 24.1096 27.4756 16.1333 21.6093 15.2542ZM93.2668 56.6257C96.9613 61.2664 94.1916 69.5812 87.088 75.1953C79.9843 80.8094 71.2244 81.5974 67.5368 76.9605C63.8424 72.3198 66.612 64.005 73.7157 58.3909C80.8193 52.7768 89.5724 51.9849 93.2668 56.6257ZM85.9562 17.1516C92.3481 20.842 92.9702 31.7465 87.3415 41.4957C81.7128 51.2449 71.9582 56.1584 65.5663 52.468C59.1744 48.7777 58.5484 37.88 64.181 28.124C69.8165 18.3787 79.5643 13.4613 85.9562 17.1516Z" fill="#FFCBBF"/>
</svg>
