<svg width="56" height="61" viewBox="0 0 56 61" fill="none" xmlns="http://www.w3.org/2000/svg">
<path fill-rule="evenodd" clip-rule="evenodd" d="M5.74131 10.0648C9.40423 7.95001 14.9941 10.7657 18.2197 16.3526C21.4453 21.9394 21.0888 28.1883 17.4259 30.303C13.7629 32.4178 8.17527 29.606 4.94746 24.0153C1.7258 18.4262 2.07839 12.1796 5.74131 10.0648ZM28.3201 29.6893C36.0991 25.2187 40.0224 29.7824 51.6339 34.7666C58.5816 39.259 56.6632 45.7273 48.4019 48.2017C44.1405 48.434 41.4817 49.1833 39.2002 50.604C35.2515 53.0698 35.7611 56.3011 30.9659 58.8215C27.2937 60.8124 24.7942 60.2446 23.1512 58.1278C21.4019 55.8809 21.4579 53.7912 21.4452 51.1053C21.3869 40.6554 22.4364 31.7732 28.3201 29.6893ZM1.5899 32.4724C-0.527215 35.1318 1.05994 39.8967 5.13073 43.1139C9.20151 46.331 14.2175 46.7848 16.3346 44.1254C18.4518 41.466 16.8646 36.7012 12.7938 33.484C8.72302 30.2668 3.70702 29.813 1.5899 32.4724ZM42.6536 8.76427C46.0153 8.2605 49.3482 12.0174 50.099 17.1514C50.8497 22.2854 48.7308 26.8586 45.373 27.3601C42.0114 27.8638 38.6785 24.1069 37.9277 18.9729C37.1769 13.8389 39.2919 9.26804 42.6536 8.76427ZM20.9687 1.08198C24.6317 -1.03281 30.2216 1.78289 33.4471 7.36974C36.6727 12.9566 36.3162 19.2054 32.6533 21.3202C28.9904 23.435 23.4027 20.6232 20.1749 15.0325C16.9532 9.44338 17.3058 3.19677 20.9687 1.08198Z" fill="#F7E8D5"/>
</svg>
