<svg width="79" height="85" viewBox="0 0 79 85" fill="none" xmlns="http://www.w3.org/2000/svg">
<path fill-rule="evenodd" clip-rule="evenodd" d="M8.0707 14.3538C13.2115 11.3857 21.0567 15.3375 25.5837 23.1784C30.1107 31.0193 29.6103 39.7894 24.4696 42.7574C19.3288 45.7254 11.4867 41.7791 6.95657 33.9328C2.43507 26.0887 2.92993 17.3218 8.0707 14.3538ZM39.7592 41.896C50.6768 35.6218 56.183 42.0267 72.4793 49.0218C82.2301 55.3268 79.5377 64.4047 67.9433 67.8775C61.9626 68.2035 58.2311 69.2551 55.029 71.249C49.4872 74.7097 50.2024 79.2448 43.4725 82.782C38.3188 85.5761 34.8107 84.7793 32.5048 81.8084C30.0498 78.655 30.1284 75.7221 30.1105 71.9526C30.0287 57.2865 31.5016 44.8207 39.7592 41.896ZM2.24435 45.802C-0.726944 49.5344 1.50057 56.2217 7.21377 60.7369C12.927 65.2521 19.9667 65.889 22.938 62.1566C25.9093 58.4242 23.6818 51.7369 17.9686 47.2217C12.2554 42.7065 5.21565 42.0696 2.24435 45.802ZM59.8758 12.5285C64.5938 11.8215 69.2714 17.0942 70.325 24.2996C71.3787 31.505 68.4049 37.9232 63.6924 38.627C58.9744 39.3341 54.2968 34.0613 53.2431 26.856C52.1894 19.6506 55.1578 13.2355 59.8758 12.5285ZM29.4418 1.74669C34.5826 -1.22134 42.4279 2.7304 46.9548 10.5713C51.4818 18.4123 50.9815 27.1823 45.8407 30.1503C40.6999 33.1184 32.8578 29.1721 28.3277 21.3257C23.8062 13.4816 24.3011 4.71472 29.4418 1.74669Z" fill="#FFCBBF"/>
</svg>
