<svg width="95" height="106" viewBox="0 0 95 106" fill="none" xmlns="http://www.w3.org/2000/svg">
<path fill-rule="evenodd" clip-rule="evenodd" d="M36.3114 1.97698C29.9195 5.66736 29.2974 16.5718 34.9261 26.321C40.5548 36.0703 50.3094 40.9838 56.7013 37.2934C63.0933 33.603 63.7193 22.7053 58.0866 12.9493C52.4511 3.20402 42.7033 -1.7134 36.3114 1.97698ZM46.2684 53.2216C32.725 61.077 36.1986 70.988 33.5997 92.8845C34.327 107.304 45.7759 110.048 56.7234 99.7225C60.7926 93.4852 64.2448 90.1209 68.3825 87.9125C75.5542 84.0966 79.993 87.6861 87.9858 82.6384C94.1985 78.826 95.5213 74.5532 93.7558 70.2232C91.8866 65.6193 88.6795 63.8806 84.6317 61.5178C68.8902 52.312 54.5514 46.1482 46.2684 53.2216ZM73.7969 15.2542C79.6632 14.3751 85.4792 20.9311 86.7893 29.8901C88.0994 38.8491 84.4086 46.8254 78.5424 47.7045C72.6762 48.5836 66.8602 42.0276 65.55 33.0686C64.2399 24.1096 67.9307 16.1333 73.7969 15.2542ZM2.13941 56.6257C-1.55502 61.2664 1.21462 69.5812 8.31827 75.1953C15.4219 80.8094 24.1818 81.5974 27.8694 76.9605C31.5639 72.3198 28.7942 64.005 21.6906 58.3909C14.5869 52.7768 5.83385 51.9849 2.13941 56.6257ZM9.45003 17.1516C3.05811 20.842 2.43602 31.7465 8.06474 41.4957C13.6935 51.2449 23.448 56.1584 29.84 52.468C36.2319 48.7777 36.8579 37.88 31.2252 28.124C25.5897 18.3787 15.8419 13.4613 9.45003 17.1516Z" fill="#FFCBBF"/>
</svg>
