<svg width="500" height="35" viewBox="0 0 500 35" fill="none" xmlns="http://www.w3.org/2000/svg">
<path d="M418.75 12.8037H444.142" stroke="#6A6A6A" stroke-width="1.3746" stroke-miterlimit="10" stroke-linecap="round" stroke-linejoin="round"/>
<path d="M423.828 24.0596H426.367" stroke="#6A6A6A" stroke-width="1.3746" stroke-miterlimit="10" stroke-linecap="round" stroke-linejoin="round"/>
<path d="M429.539 24.0596H434.617" stroke="#6A6A6A" stroke-width="1.3746" stroke-miterlimit="10" stroke-linecap="round" stroke-linejoin="round"/>
<path d="M424.387 5.76855H438.492C443.012 5.76855 444.142 7.0067 444.142 11.9452V23.4966C444.142 28.4351 443.012 29.6732 438.505 29.6732H424.387C419.88 29.6873 418.75 28.4492 418.75 23.5106V11.9452C418.75 7.0067 419.88 5.76855 424.387 5.76855Z" stroke="#6A6A6A" stroke-width="1.3746" stroke-linecap="round" stroke-linejoin="round"/>
<path d="M464.869 21.207V11.337H471.323V12.765H466.661V15.551H471.029V16.979H466.661V21.207H464.869ZM472.73 21.207V11.337H474.522V21.207H472.73ZM475.604 21.207L480.07 11.337H481.54L486.006 21.207H484.186L483.206 18.925H478.39L477.424 21.207H475.604ZM480.784 13.283L479.006 17.497H482.59L480.812 13.283H480.784ZM488.372 21.207V12.835H484.984V11.337H493.552V12.835H490.164V21.207H488.372Z" fill="black"/>
<path d="M213.247 0.833008C221.664 0.833008 228.487 8.39475 228.487 17.7217C228.487 27.0487 221.663 34.6104 213.247 34.6104C204.831 34.6104 198.008 27.0507 198.008 17.7217C198.008 8.39272 204.83 0.833008 213.247 0.833008Z" fill="#53AE94"/>
<path d="M215.13 15.4712V12.9589H220.314V9.13086H206.197V12.9589H211.382V15.4692C207.168 15.6837 204 16.6085 204 17.7164C204 18.8243 207.17 19.7491 211.382 19.965V28.0124H215.131V19.9643C219.337 19.7491 222.499 18.825 222.499 17.7181C222.499 16.6112 219.337 15.687 215.131 15.4719M215.131 19.2827V19.2806C215.025 19.2881 214.482 19.3242 213.272 19.3242C212.304 19.3242 211.624 19.2938 211.384 19.28V19.2833C207.661 19.1006 204.882 18.3821 204.882 17.5225C204.882 16.6629 207.661 15.9454 211.384 15.7624V18.5676C211.628 18.5862 212.325 18.6318 213.288 18.6318C214.444 18.6318 215.025 18.5784 215.132 18.5676V15.7624C218.847 15.9458 221.619 16.6649 221.619 17.5215C221.619 18.3781 218.846 19.0976 215.132 19.281" fill="white"/>
<path d="M252.287 21.347C250.934 21.347 249.898 20.997 249.179 20.297C248.47 19.5877 248.115 18.5424 248.115 17.161V11.337H249.907V17.147C249.907 18.0337 250.108 18.701 250.509 19.149C250.92 19.5877 251.513 19.807 252.287 19.807C253.865 19.807 254.653 18.9204 254.653 17.147V11.337H256.431V17.161C256.431 18.5424 256.081 19.5877 255.381 20.297C254.681 20.997 253.65 21.347 252.287 21.347ZM261.923 21.347C261.149 21.347 260.43 21.249 259.767 21.053C259.105 20.8477 258.545 20.5724 258.087 20.227L258.633 18.813C259.091 19.1397 259.59 19.3917 260.131 19.569C260.682 19.7464 261.279 19.835 261.923 19.835C262.661 19.835 263.197 19.7137 263.533 19.471C263.869 19.219 264.037 18.897 264.037 18.505C264.037 18.1784 263.916 17.9217 263.673 17.735C263.44 17.5484 263.034 17.3944 262.455 17.273L260.915 16.951C259.161 16.5777 258.283 15.677 258.283 14.249C258.283 13.633 258.447 13.0964 258.773 12.639C259.1 12.1817 259.553 11.827 260.131 11.575C260.71 11.323 261.377 11.197 262.133 11.197C262.805 11.197 263.435 11.2997 264.023 11.505C264.611 11.701 265.101 11.981 265.493 12.345L264.947 13.689C264.173 13.0357 263.23 12.709 262.119 12.709C261.475 12.709 260.971 12.8444 260.607 13.115C260.243 13.3857 260.061 13.7404 260.061 14.179C260.061 14.515 260.173 14.7857 260.397 14.991C260.621 15.187 261.004 15.341 261.545 15.453L263.071 15.775C263.995 15.971 264.681 16.279 265.129 16.699C265.587 17.119 265.815 17.679 265.815 18.379C265.815 18.967 265.657 19.485 265.339 19.933C265.022 20.381 264.569 20.731 263.981 20.983C263.403 21.2257 262.717 21.347 261.923 21.347ZM267.353 21.207V11.337H271.021C272.673 11.337 273.947 11.7617 274.843 12.611C275.749 13.4604 276.201 14.6784 276.201 16.265C276.201 17.8424 275.749 19.0604 274.843 19.919C273.947 20.7777 272.673 21.207 271.021 21.207H267.353ZM269.145 19.723H270.909C273.187 19.723 274.325 18.5704 274.325 16.265C274.325 13.969 273.187 12.821 270.909 12.821H269.145V19.723ZM279.796 21.207V12.835H276.408V11.337H284.976V12.835H281.588V21.207H279.796Z" fill="black"/>
<path d="M15.3203 34.3018C23.6348 34.3018 30.375 26.8098 30.375 17.5674C30.375 8.32497 23.6348 0.833008 15.3203 0.833008C7.00586 0.833008 0.265625 8.32497 0.265625 17.5674C0.265625 26.8098 7.00586 34.3018 15.3203 34.3018Z" fill="#4793FF"/>
<path d="M15.3203 0.833008C23.6214 0.833008 30.3749 8.34003 30.3749 17.5674C30.3749 26.7947 23.6214 34.3018 15.3203 34.3018V0.833008Z" fill="#5E69E2"/>
<path d="M15.3183 30.1007C21.5454 30.1007 26.5935 24.4896 26.5935 17.5674C26.5935 10.6452 21.5454 5.03418 15.3183 5.03418C9.09106 5.03418 4.04297 10.6452 4.04297 17.5674C4.04297 24.4896 9.09106 30.1007 15.3183 30.1007Z" fill="#2EBEEF"/>
<path d="M15.3203 5.03418C21.5375 5.03418 26.5956 10.6561 26.5956 17.5674C26.5956 24.4787 21.5375 30.1007 15.3203 30.1007V5.03418Z" fill="#4793FF"/>
<path d="M14.5833 9.14773L9.85911 17.0246C9.66155 17.3534 9.66155 17.7826 9.85911 18.1123L14.5833 25.9892C14.9324 26.5715 15.702 26.5715 16.0512 25.9892L20.7753 18.1123C20.973 17.7826 20.973 17.3534 20.7753 17.0246L16.0512 9.14773C15.702 8.56534 14.9325 8.56534 14.5833 9.14773Z" fill="#76E5F6"/>
<path d="M15.3203 18.835V26.4257C15.6 26.4257 15.8797 26.2801 16.0543 25.989L20.7785 18.1121C20.8703 17.9589 20.9189 17.7841 20.9253 17.6084L15.4933 18.8157C15.4362 18.8283 15.3782 18.835 15.3203 18.835Z" fill="#2EBEEF"/>
<path d="M15.3167 8.71094C15.037 8.71094 14.7573 8.85659 14.5827 9.14775L9.85851 17.0246C9.75287 17.2012 9.70429 17.4053 9.71167 17.6086L15.1437 18.816C15.2008 18.8285 15.2588 18.8352 15.3167 18.8352V8.71094Z" fill="#C2F4FB"/>
<path d="M48.2472 21.207V11.337H54.8132V12.765H49.9692V15.481H54.5052V16.909H49.9692V19.779H54.8132V21.207H48.2472ZM58.9124 21.207V12.835H55.5244V11.337H64.0924V12.835H60.7044V21.207H58.9124ZM65.2277 21.207V11.337H67.0197V15.453H72.1017V11.337H73.8937V21.207H72.1017V16.951H67.0197V21.207H65.2277Z" fill="#171717"/>
</svg>
