<svg width="97" height="105" viewBox="0 0 97 105" fill="none" xmlns="http://www.w3.org/2000/svg">
<path fill-rule="evenodd" clip-rule="evenodd" d="M9.43076 17.5237C15.8227 13.8333 25.5773 18.7468 31.206 28.496C36.8347 38.2452 36.2126 49.1497 29.8207 52.8401C23.4288 56.5304 13.6781 51.6237 8.04548 41.8677C2.42356 32.1146 3.03884 21.2141 9.43076 17.5237ZM48.8314 51.769C62.4061 43.9678 69.2524 51.9315 89.5148 60.629C101.639 68.4685 98.2911 79.7558 83.8749 84.0738C76.4386 84.4791 71.799 85.7867 67.8175 88.2658C60.927 92.5688 61.8162 98.2076 53.4484 102.606C47.0405 106.08 42.6786 105.089 39.8115 101.395C36.7591 97.4743 36.8568 93.8276 36.8345 89.1407C36.7328 70.9052 38.5642 55.4056 48.8314 51.769ZM2.18642 56.6257C-1.50801 61.2664 1.26163 69.5812 8.36528 75.1953C15.4689 80.8094 24.222 81.6013 27.9165 76.9605C31.6109 72.3198 28.8413 64.005 21.7376 58.3909C14.6339 52.7768 5.88086 51.9849 2.18642 56.6257ZM73.8439 15.2542C79.7102 14.3751 85.5262 20.9311 86.8363 29.8901C88.1464 38.8491 84.4489 46.8293 78.5894 47.7045C72.7232 48.5836 66.9072 42.0276 65.5971 33.0686C64.2869 24.1096 67.9777 16.1333 73.8439 15.2542ZM36.0031 1.84836C42.395 -1.84202 52.1496 3.07148 57.7783 12.8207C63.407 22.5699 62.785 33.4744 56.393 37.1648C50.0011 40.8551 40.2504 35.9484 34.6178 26.1924C28.9959 16.4393 29.6112 5.53874 36.0031 1.84836Z" fill="#F7E8D5"/>
</svg>
