<svg width="95" height="106" viewBox="0 0 95 106" fill="none" xmlns="http://www.w3.org/2000/svg">
<path fill-rule="evenodd" clip-rule="evenodd" d="M59.1417 1.97698C65.5336 5.66736 66.1557 16.5718 60.527 26.321C54.8983 36.0703 45.1437 40.9838 38.7518 37.2934C32.3599 33.603 31.7339 22.7053 37.3665 12.9493C43.002 3.20402 52.7498 -1.7134 59.1417 1.97698ZM49.1847 53.2216C62.7281 61.077 59.2545 70.988 61.8534 92.8845C61.1262 107.304 49.6772 110.048 38.7297 99.7225C34.6605 93.4852 31.2083 90.1209 27.0706 87.9125C19.8989 84.0966 15.4601 87.6861 7.46733 82.6384C1.25466 78.826 -0.0682205 74.5532 1.69731 70.2232C3.56657 65.6193 6.77359 63.8806 10.8214 61.5178C26.563 52.312 40.9017 46.1482 49.1847 53.2216ZM21.6562 15.2542C15.79 14.3751 9.97397 20.9311 8.66385 29.8901C7.35372 38.8491 11.0445 46.8254 16.9107 47.7045C22.777 48.5836 28.593 42.0276 29.9031 33.0686C31.2132 24.1096 27.5225 16.1333 21.6562 15.2542ZM93.3137 56.6257C97.0081 61.2664 94.2385 69.5812 87.1349 75.1953C80.0312 80.8094 71.2713 81.5974 67.5837 76.9605C63.8892 72.3198 66.6589 64.005 73.7625 58.3909C80.8662 52.7768 89.6193 51.9849 93.3137 56.6257ZM86.0031 17.1516C92.395 20.842 93.0171 31.7465 87.3884 41.4957C81.7597 51.2449 72.0051 56.1584 65.6132 52.468C59.2212 48.7777 58.5953 37.88 64.2279 28.124C69.8634 18.3787 79.6112 13.4613 86.0031 17.1516Z" fill="#FFCBBF"/>
</svg>
