<svg width="252" height="27" viewBox="0 0 252 27" fill="none" xmlns="http://www.w3.org/2000/svg">
<path d="M16.0811 17.4746V9.01461H19.4291C20.3411 9.01461 21.0371 9.23461 21.5171 9.67461C22.0051 10.1146 22.2491 10.7426 22.2491 11.5586C22.2491 12.3666 22.0051 12.9946 21.5171 13.4426C21.0371 13.8826 20.3411 14.1026 19.4291 14.1026H17.0651V17.4746H16.0811ZM17.0651 13.2746H19.3091C20.6211 13.2746 21.2771 12.7026 21.2771 11.5586C21.2771 10.4066 20.6211 9.83061 19.3091 9.83061H17.0651V13.2746ZM25.6973 17.5826C25.1293 17.5826 24.6373 17.4586 24.2213 17.2106C23.8053 16.9626 23.4813 16.6146 23.2493 16.1666C23.0253 15.7106 22.9133 15.1746 22.9133 14.5586C22.9133 13.9426 23.0253 13.4106 23.2493 12.9626C23.4813 12.5066 23.8053 12.1546 24.2213 11.9066C24.6373 11.6586 25.1293 11.5346 25.6973 11.5346C26.2573 11.5346 26.7453 11.6586 27.1613 11.9066C27.5853 12.1546 27.9093 12.5066 28.1333 12.9626C28.3653 13.4106 28.4813 13.9426 28.4813 14.5586C28.4813 15.1746 28.3653 15.7106 28.1333 16.1666C27.9093 16.6146 27.5853 16.9626 27.1613 17.2106C26.7453 17.4586 26.2573 17.5826 25.6973 17.5826ZM25.6973 16.8026C26.2413 16.8026 26.6773 16.6106 27.0053 16.2266C27.3333 15.8346 27.4973 15.2786 27.4973 14.5586C27.4973 13.8306 27.3333 13.2746 27.0053 12.8906C26.6773 12.5066 26.2413 12.3146 25.6973 12.3146C25.1453 12.3146 24.7053 12.5066 24.3773 12.8906C24.0573 13.2746 23.8973 13.8306 23.8973 14.5586C23.8973 15.2786 24.0573 15.8346 24.3773 16.2266C24.7053 16.6106 25.1453 16.8026 25.6973 16.8026ZM31.4073 17.4746L29.2353 11.6426H30.2553L31.8993 16.3346L33.6033 11.6426H34.4313L36.1113 16.3466L37.7793 11.6426H38.7513L36.5673 17.4746H35.6433L33.9993 12.9506L32.3433 17.4746H31.4073ZM42.4951 17.5826C41.5751 17.5826 40.8471 17.3146 40.3111 16.7786C39.7751 16.2346 39.5071 15.4986 39.5071 14.5706C39.5071 13.9706 39.6271 13.4426 39.8671 12.9866C40.1071 12.5226 40.4351 12.1666 40.8511 11.9186C41.2751 11.6626 41.7631 11.5346 42.3151 11.5346C43.1071 11.5346 43.7271 11.7906 44.1751 12.3026C44.6231 12.8066 44.8471 13.5026 44.8471 14.3906V14.7626H40.4551C40.4871 15.4266 40.6791 15.9346 41.0311 16.2866C41.3831 16.6306 41.8711 16.8026 42.4951 16.8026C42.8471 16.8026 43.1831 16.7506 43.5031 16.6466C43.8231 16.5346 44.1271 16.3546 44.4151 16.1066L44.7511 16.7906C44.4871 17.0386 44.1511 17.2346 43.7431 17.3786C43.3351 17.5146 42.9191 17.5826 42.4951 17.5826ZM42.3391 12.2546C41.7871 12.2546 41.3511 12.4266 41.0311 12.7706C40.7111 13.1146 40.5231 13.5666 40.4671 14.1266H44.0071C43.9831 13.5346 43.8271 13.0746 43.5391 12.7466C43.2591 12.4186 42.8591 12.2546 42.3391 12.2546ZM46.2538 17.4746V11.6426H47.2018V12.6866C47.5138 11.9826 48.1538 11.5946 49.1218 11.5226L49.4698 11.4866L49.5418 12.3266L48.9298 12.3986C48.3778 12.4466 47.9578 12.6226 47.6698 12.9266C47.3818 13.2226 47.2378 13.6306 47.2378 14.1506V17.4746H46.2538ZM53.1123 17.5826C52.1923 17.5826 51.4643 17.3146 50.9283 16.7786C50.3923 16.2346 50.1243 15.4986 50.1243 14.5706C50.1243 13.9706 50.2443 13.4426 50.4843 12.9866C50.7243 12.5226 51.0523 12.1666 51.4683 11.9186C51.8923 11.6626 52.3803 11.5346 52.9323 11.5346C53.7243 11.5346 54.3443 11.7906 54.7923 12.3026C55.2403 12.8066 55.4643 13.5026 55.4643 14.3906V14.7626H51.0723C51.1043 15.4266 51.2963 15.9346 51.6483 16.2866C52.0003 16.6306 52.4883 16.8026 53.1123 16.8026C53.4643 16.8026 53.8003 16.7506 54.1203 16.6466C54.4403 16.5346 54.7443 16.3546 55.0323 16.1066L55.3683 16.7906C55.1043 17.0386 54.7683 17.2346 54.3603 17.3786C53.9523 17.5146 53.5363 17.5826 53.1123 17.5826ZM52.9563 12.2546C52.4043 12.2546 51.9683 12.4266 51.6483 12.7706C51.3283 13.1146 51.1403 13.5666 51.0843 14.1266H54.6243C54.6003 13.5346 54.4443 13.0746 54.1563 12.7466C53.8763 12.4186 53.4763 12.2546 52.9563 12.2546ZM59.091 17.5826C58.571 17.5826 58.115 17.4586 57.723 17.2106C57.339 16.9626 57.039 16.6146 56.823 16.1666C56.615 15.7106 56.511 15.1746 56.511 14.5586C56.511 13.9346 56.615 13.3986 56.823 12.9506C57.039 12.4946 57.339 12.1466 57.723 11.9066C58.115 11.6586 58.571 11.5346 59.091 11.5346C59.547 11.5346 59.947 11.6346 60.291 11.8346C60.643 12.0346 60.903 12.3106 61.071 12.6626V9.01461H62.043V17.4746H61.095V16.4066C60.927 16.7746 60.667 17.0626 60.315 17.2706C59.963 17.4786 59.555 17.5826 59.091 17.5826ZM59.295 16.8026C59.839 16.8026 60.275 16.6106 60.603 16.2266C60.931 15.8346 61.095 15.2786 61.095 14.5586C61.095 13.8306 60.931 13.2746 60.603 12.8906C60.275 12.5066 59.839 12.3146 59.295 12.3146C58.743 12.3146 58.303 12.5066 57.975 12.8906C57.655 13.2746 57.495 13.8306 57.495 14.5586C57.495 15.2786 57.655 15.8346 57.975 16.2266C58.303 16.6106 58.743 16.8026 59.295 16.8026ZM69.9011 17.5826C69.4371 17.5826 69.0291 17.4786 68.6771 17.2706C68.3331 17.0626 68.0731 16.7786 67.8971 16.4186V17.4746H66.9491V9.01461H67.9211V12.6506C68.0891 12.3066 68.3491 12.0346 68.7011 11.8346C69.0531 11.6346 69.4531 11.5346 69.9011 11.5346C70.4211 11.5346 70.8731 11.6586 71.2571 11.9066C71.6491 12.1466 71.9491 12.4946 72.1571 12.9506C72.3731 13.3986 72.4811 13.9346 72.4811 14.5586C72.4811 15.1746 72.3731 15.7106 72.1571 16.1666C71.9491 16.6146 71.6491 16.9626 71.2571 17.2106C70.8731 17.4586 70.4211 17.5826 69.9011 17.5826ZM69.6971 16.8026C70.2411 16.8026 70.6771 16.6106 71.0051 16.2266C71.3331 15.8346 71.4971 15.2786 71.4971 14.5586C71.4971 13.8306 71.3331 13.2746 71.0051 12.8906C70.6771 12.5066 70.2411 12.3146 69.6971 12.3146C69.1531 12.3146 68.7171 12.5066 68.3891 12.8906C68.0611 13.2746 67.8971 13.8306 67.8971 14.5586C67.8971 15.2786 68.0611 15.8346 68.3891 16.2266C68.7171 16.6106 69.1531 16.8026 69.6971 16.8026ZM74.5352 19.6346L75.5312 17.3786L73.0712 11.6426H74.1272L76.0592 16.3706L78.0032 11.6426H79.0232L75.5552 19.6346H74.5352Z" fill="black"/>
<path d="M117.29 19.7605L113.758 4.94763H116.374L118.78 16.7345L121.606 4.94763H124.298L127.048 16.7345L129.454 4.94763H132.089L128.461 19.7605H125.558L122.904 8.77785L120.174 19.7605H117.29ZM136.825 20.0145C135.87 20.0145 135.024 19.7887 134.285 19.3372C133.547 18.8858 132.968 18.251 132.548 17.4327C132.128 16.6145 131.918 15.6693 131.918 14.5971C131.918 13.5109 132.121 12.5445 132.529 11.6981C132.949 10.8516 133.522 10.1957 134.247 9.73007C134.986 9.25042 135.851 9.0106 136.844 9.0106C137.773 9.0106 138.595 9.23629 139.307 9.68773C140.02 10.1392 140.574 10.7599 140.969 11.5499C141.376 12.3258 141.58 13.1935 141.58 14.1528C141.58 14.308 141.573 14.4702 141.561 14.6395C141.561 14.8088 141.554 14.9851 141.542 15.1685H134.343C134.394 15.9867 134.648 16.6287 135.107 17.0942C135.578 17.5597 136.144 17.7925 136.806 17.7925C137.302 17.7925 137.716 17.6726 138.047 17.4327C138.391 17.1788 138.645 16.8543 138.811 16.4593H141.293C141.115 17.1224 140.816 17.729 140.396 18.2792C139.988 18.8153 139.479 19.2385 138.868 19.5489C138.27 19.8592 137.589 20.0145 136.825 20.0145ZM136.844 11.2113C136.246 11.2113 135.718 11.4018 135.259 11.7827C134.801 12.1495 134.508 12.7138 134.381 13.4756H139.097C139.059 12.7844 138.83 12.2342 138.41 11.825C137.99 11.4159 137.468 11.2113 136.844 11.2113ZM148.676 20.0145C147.964 20.0145 147.34 19.8663 146.805 19.5701C146.271 19.2738 145.838 18.8576 145.507 18.3216L145.239 19.7605H143.063V4.52441H145.507V10.767C145.812 10.3015 146.213 9.89228 146.71 9.53965C147.219 9.18695 147.874 9.0106 148.676 9.0106C149.568 9.0106 150.363 9.25042 151.063 9.73007C151.764 10.2097 152.317 10.8657 152.725 11.6981C153.132 12.5304 153.336 13.4756 153.336 14.5337C153.336 15.5918 153.132 16.5369 152.725 17.3693C152.317 18.1875 151.764 18.8365 151.063 19.3161C150.363 19.7816 149.568 20.0145 148.676 20.0145ZM148.161 17.6444C148.937 17.6444 149.58 17.3552 150.089 16.7767C150.599 16.1984 150.853 15.4507 150.853 14.5337C150.853 13.6167 150.599 12.8619 150.089 12.2694C149.58 11.6769 148.937 11.3806 148.161 11.3806C147.372 11.3806 146.722 11.6769 146.213 12.2694C145.717 12.8478 145.469 13.5955 145.469 14.5125C145.469 15.4295 145.717 16.1842 146.213 16.7767C146.722 17.3552 147.372 17.6444 148.161 17.6444ZM159.376 20.0145C158.498 20.0145 157.702 19.8452 156.989 19.5065C156.276 19.1539 155.704 18.6178 155.271 17.8983C154.838 17.1788 154.609 16.276 154.583 15.1897H156.989C157.002 15.9091 157.212 16.5158 157.619 17.0096C158.04 17.4892 158.625 17.729 159.376 17.729C160.089 17.729 160.636 17.5103 161.018 17.073C161.4 16.6357 161.591 16.0855 161.591 15.4224C161.591 14.6465 161.337 14.0611 160.827 13.666C160.331 13.2569 159.688 13.0524 158.899 13.0524H157.906V10.8304H158.918C159.567 10.8304 160.108 10.6612 160.541 10.3226C160.974 9.98403 161.19 9.48318 161.19 8.82011C161.19 8.26995 161.025 7.83262 160.694 7.50814C160.376 7.16957 159.93 7.00028 159.357 7.00028C158.733 7.00028 158.243 7.20484 157.887 7.61396C157.543 8.02307 157.352 8.52388 157.314 9.11641H154.927C154.978 7.74797 155.404 6.66875 156.206 5.87873C157.021 5.08871 158.071 4.6937 159.357 4.6937C160.274 4.6937 161.044 4.8771 161.667 5.2439C162.304 5.59658 162.781 6.06918 163.1 6.6617C163.431 7.25421 163.596 7.91021 163.596 8.62969C163.596 9.46205 163.386 10.1674 162.966 10.7458C162.558 11.3101 162.049 11.691 161.439 11.8885C162.189 12.0578 162.8 12.4669 163.272 13.1159C163.743 13.7507 163.978 14.5549 163.978 15.5282C163.978 16.3465 163.8 17.0942 163.443 17.7714C163.087 18.4485 162.565 18.9916 161.878 19.4007C161.203 19.8099 160.369 20.0145 159.376 20.0145ZM165.805 19.7605V4.94763H170.751C171.82 4.94763 172.705 5.14514 173.406 5.54015C174.105 5.93516 174.627 6.4783 174.971 7.16957C175.314 7.86083 175.487 8.63675 175.487 9.49732C175.487 10.3155 175.321 11.0703 174.99 11.7615C174.659 12.4387 174.143 12.9889 173.444 13.4122C172.743 13.8213 171.846 14.0258 170.751 14.0258H168.25V19.7605H165.805ZM168.25 11.825H170.598C171.451 11.825 172.062 11.6204 172.432 11.2113C172.813 10.7881 173.004 10.2168 173.004 9.49732C173.004 8.76371 172.813 8.19236 172.432 7.78324C172.062 7.36002 171.451 7.1484 170.598 7.1484H168.25V11.825ZM179.443 20.0145C178.628 20.0145 177.959 19.8734 177.438 19.5912C176.916 19.2949 176.528 18.907 176.273 18.4274C176.018 17.9476 175.891 17.4187 175.891 16.8402C175.891 15.8669 176.234 15.0768 176.922 14.4702C177.609 13.8636 178.64 13.5602 180.015 13.5602H182.421V13.3063C182.421 12.5868 182.237 12.0578 181.868 11.7193C181.498 11.3806 181.04 11.2113 180.493 11.2113C179.996 11.2113 179.564 11.3454 179.194 11.6135C178.825 11.8673 178.596 12.2482 178.507 12.7562H176.12C176.184 11.9944 176.413 11.3313 176.807 10.767C177.215 10.2026 177.737 9.77241 178.373 9.47611C179.01 9.16575 179.723 9.0106 180.512 9.0106C181.861 9.0106 182.924 9.38444 183.7 10.1321C184.477 10.8798 184.866 11.9379 184.866 13.3063V19.7605H182.784L182.555 18.0676C182.275 18.6319 181.88 19.0974 181.371 19.4643C180.875 19.831 180.232 20.0145 179.443 20.0145ZM179.996 17.8983C180.697 17.8983 181.237 17.6444 181.619 17.1365C182.014 16.6287 182.262 16.0009 182.364 15.2531H180.283C179.633 15.2531 179.169 15.3871 178.889 15.6552C178.609 15.9091 178.469 16.2266 178.469 16.6075C178.469 17.0166 178.609 17.334 178.889 17.5598C179.169 17.7854 179.538 17.8983 179.996 17.8983ZM187.492 24.4159L189.688 19.0622H189.115L185.43 9.26456H188.084L190.738 16.6498L193.507 9.26456H196.104L190.089 24.4159H187.492ZM197.129 19.7605V9.26456H199.287L199.496 10.6824C199.802 10.1744 200.203 9.77241 200.7 9.47611C201.209 9.16575 201.794 9.0106 202.456 9.0106C203.92 9.0106 204.958 9.6384 205.568 10.8939C205.912 10.3155 206.371 9.85701 206.943 9.51845C207.529 9.17988 208.166 9.0106 208.853 9.0106C210.088 9.0106 211.036 9.41971 211.698 10.2379C212.36 11.0562 212.691 12.2553 212.691 13.8353V19.7605H210.247V14.0893C210.247 13.1864 210.088 12.4951 209.77 12.0155C209.464 11.5358 208.986 11.296 208.337 11.296C207.675 11.296 207.141 11.564 206.734 12.1002C206.339 12.6362 206.142 13.3839 206.142 14.3432V19.7605H203.698V14.0893C203.698 13.1864 203.539 12.4951 203.22 12.0155C202.902 11.5358 202.411 11.296 201.75 11.296C201.1 11.296 200.572 11.564 200.165 12.1002C199.77 12.6362 199.573 13.3839 199.573 14.3432V19.7605H197.129ZM219.041 20.0145C218.086 20.0145 217.24 19.7887 216.501 19.3372C215.763 18.8858 215.183 18.251 214.763 17.4327C214.343 16.6145 214.133 15.6693 214.133 14.5971C214.133 13.5109 214.337 12.5445 214.744 11.6981C215.164 10.8516 215.737 10.1957 216.463 9.73007C217.201 9.25042 218.067 9.0106 219.06 9.0106C219.989 9.0106 220.81 9.23629 221.523 9.68773C222.236 10.1392 222.789 10.7599 223.184 11.5499C223.592 12.3258 223.795 13.1935 223.795 14.1528C223.795 14.308 223.789 14.4702 223.776 14.6395C223.776 14.8088 223.77 14.9851 223.757 15.1685H216.558C216.609 15.9867 216.864 16.6287 217.322 17.0942C217.793 17.5597 218.359 17.7925 219.022 17.7925C219.518 17.7925 219.932 17.6726 220.263 17.4327C220.606 17.1788 220.861 16.8543 221.026 16.4593H223.509C223.331 17.1224 223.031 17.729 222.611 18.2792C222.204 18.8153 221.695 19.2385 221.084 19.5489C220.485 19.8592 219.805 20.0145 219.041 20.0145ZM219.06 11.2113C218.461 11.2113 217.933 11.4018 217.475 11.7827C217.017 12.1495 216.724 12.7138 216.596 13.4756H221.313C221.275 12.7844 221.046 12.2342 220.625 11.825C220.205 11.4159 219.684 11.2113 219.06 11.2113ZM225.278 19.7605V9.26456H227.436L227.627 11.0421C227.92 10.4213 228.34 9.92755 228.887 9.56079C229.447 9.19402 230.103 9.0106 230.854 9.0106C232.025 9.0106 232.935 9.41971 233.585 10.2379C234.234 11.0562 234.559 12.2553 234.559 13.8353V19.7605H232.114V14.0893C232.114 13.1864 231.949 12.4951 231.618 12.0155C231.286 11.5358 230.771 11.296 230.071 11.296C229.383 11.296 228.817 11.564 228.371 12.1002C227.939 12.6362 227.722 13.3839 227.722 14.3432V19.7605H225.278ZM240.542 19.7605C239.549 19.7605 238.754 19.4925 238.155 18.9563C237.558 18.4203 237.258 17.468 237.258 16.0996V11.5288H235.635V9.26456H237.258L237.545 6.45008H239.703V9.26456H242.261V11.5288H239.703V16.1207C239.703 16.6287 239.798 16.9813 239.989 17.1788C240.193 17.3622 240.536 17.4539 241.02 17.4539H242.204V19.7605H240.542ZM247.701 20.0145C246.861 20.0145 246.122 19.8663 245.486 19.5701C244.849 19.2596 244.34 18.8365 243.958 18.3004C243.577 17.7643 243.348 17.1436 243.271 16.4382H245.734C245.811 16.8473 246.015 17.2 246.345 17.4962C246.689 17.7784 247.129 17.9194 247.663 17.9194C248.198 17.9194 248.586 17.7996 248.828 17.5598C249.082 17.3199 249.21 17.0448 249.21 16.7345C249.21 16.283 249.032 15.9797 248.675 15.8245C248.319 15.6552 247.822 15.4929 247.186 15.3378C246.778 15.2391 246.364 15.1191 245.944 14.978C245.524 14.837 245.136 14.6606 244.78 14.4491C244.436 14.2233 244.156 13.9411 243.939 13.6026C243.723 13.2499 243.615 12.8196 243.615 12.3117C243.615 11.3806 243.946 10.5977 244.608 9.96282C245.283 9.32803 246.224 9.0106 247.434 9.0106C248.554 9.0106 249.445 9.29976 250.107 9.87822C250.782 10.4566 251.183 11.2537 251.31 12.2694H249C248.86 11.4935 248.331 11.1055 247.415 11.1055C246.956 11.1055 246.6 11.2043 246.345 11.4018C246.103 11.5993 245.982 11.8462 245.982 12.1424C245.982 12.4528 246.167 12.6997 246.537 12.8831C246.906 13.0665 247.396 13.2358 248.007 13.391C248.669 13.5602 249.273 13.7507 249.821 13.9623C250.381 14.1598 250.827 14.4631 251.157 14.8722C251.488 15.2673 251.654 15.8386 251.654 16.5863C251.666 17.2353 251.514 17.8207 251.196 18.3427C250.877 18.8647 250.419 19.2738 249.821 19.5701C249.222 19.8663 248.516 20.0145 247.701 20.0145Z" fill="black"/>
<path d="M102.038 21.3996C104.053 21.3996 105.686 19.5897 105.686 17.357C105.686 15.1244 104.053 13.3145 102.038 13.3145C100.024 13.3145 98.3906 15.1244 98.3906 17.357C98.3906 19.5897 100.024 21.3996 102.038 21.3996Z" fill="black"/>
<path d="M106.06 13.9027C107.655 13.9027 108.948 12.4699 108.948 10.7023C108.948 8.93482 107.655 7.50195 106.06 7.50195C104.465 7.50195 103.172 8.93482 103.172 10.7023C103.172 12.4699 104.465 13.9027 106.06 13.9027Z" fill="black"/>
<path d="M100.365 9.27192C101.792 9.27192 102.949 7.98989 102.949 6.40842C102.949 4.82695 101.792 3.54492 100.365 3.54492C98.9381 3.54492 97.7812 4.82695 97.7812 6.40842C97.7812 7.98989 98.9381 9.27192 100.365 9.27192Z" fill="black"/>
<path d="M98.8442 13.3141C99.6836 13.3141 100.364 12.56 100.364 11.6297C100.364 10.6994 99.6836 9.94531 98.8442 9.94531C98.0047 9.94531 97.3242 10.6994 97.3242 11.6297C97.3242 12.56 98.0047 13.3141 98.8442 13.3141Z" fill="black"/>
</svg>
