<svg width="93" height="104" viewBox="0 0 93 104" fill="none" xmlns="http://www.w3.org/2000/svg">
<path fill-rule="evenodd" clip-rule="evenodd" d="M42.1544 0.419918C49.2837 2.3302 52.7068 12.7021 49.7932 23.5759C46.8796 34.4498 38.7291 41.7205 31.5998 39.8102C24.4705 37.9 21.0453 27.5356 23.961 16.6542C26.8822 5.78241 35.0251 -1.49036 42.1544 0.419918ZM45.7997 52.4955C60.9148 56.5779 60.1247 67.0503 68.3023 87.528C71.3318 101.644 60.9833 107.258 47.7363 100.118C42.1915 95.1463 37.9861 92.7901 33.4178 91.7278C25.5029 89.8982 22.1444 94.5142 13.1175 91.7072C6.12981 89.6327 3.7461 85.8478 4.33079 81.2084C4.94479 76.2776 7.59251 73.7681 10.8909 70.4381C23.7134 57.4718 35.9683 47.8069 45.7997 52.4955ZM9.38259 22.9467C3.48871 23.6158 -0.432303 31.4537 0.620971 40.4465C1.67425 49.4393 7.30367 56.1886 13.1975 55.5195C19.0914 54.8503 23.0124 47.0125 21.9592 38.0196C20.9059 29.0268 15.2765 22.2775 9.38259 22.9467ZM89.3061 44.3621C94.0758 47.8886 93.5526 56.6369 88.144 63.8983C82.7354 71.1596 74.478 74.1879 69.7159 70.6635C64.9462 67.1371 65.4695 58.3888 70.878 51.1274C76.2866 43.8661 84.5365 40.8357 89.3061 44.3621ZM72.028 8.12528C79.1573 10.0356 82.5804 20.4075 79.6668 31.2813C76.7532 42.1551 68.6027 49.4259 61.4734 47.5156C54.3441 45.6053 50.9189 35.241 53.8346 24.3596C56.7558 13.4878 64.8987 6.215 72.028 8.12528Z" fill="#FFC67D"/>
</svg>
