<svg width="103" height="101" viewBox="0 0 103 101" fill="none" xmlns="http://www.w3.org/2000/svg">
<path fill-rule="evenodd" clip-rule="evenodd" d="M3.44523 25.4323C8.66421 20.2133 19.3581 22.4347 27.3183 30.3949C35.2785 38.3551 37.4999 49.049 32.281 54.268C27.062 59.487 16.3736 57.2711 8.40786 49.3054C0.453204 41.3396 -1.77375 30.6513 3.44523 25.4323ZM50.3667 48.3131C61.4597 37.2643 70.1339 43.1847 91.957 46.3416C105.697 50.776 105.385 62.5452 92.5772 70.4472C85.4992 72.7634 81.3561 75.2272 78.1519 78.6523C72.6099 84.5921 74.9282 89.8086 67.9839 96.2226C62.6935 101.237 58.2238 101.409 54.4983 98.5827C50.5351 95.5856 49.6857 92.0378 48.451 87.5164C43.6331 69.9286 41.3905 54.4831 50.3667 48.3131ZM6.56809 65.0769C4.20066 70.5157 9.02795 77.8304 17.3426 81.4146C25.6572 84.9988 34.317 83.4983 36.6844 78.0594C39.0519 72.6206 34.2246 65.306 25.9099 61.7217C17.5953 58.1375 8.93552 59.6381 6.56809 65.0769ZM65.0762 6.56879C70.515 4.20135 77.8296 9.02865 81.4139 17.3433C84.9981 25.6579 83.492 34.3232 78.0587 36.6851C72.6199 39.0526 65.3053 34.2253 61.721 25.9106C58.1368 17.596 59.6374 8.93622 65.0762 6.56879ZM25.0551 3.41367C30.274 -1.80531 40.968 0.416087 48.9282 8.37629C56.8884 16.3365 59.1098 27.0304 53.8908 32.2494C48.6718 37.4684 37.9834 35.2525 30.0177 27.2868C22.063 19.321 19.8361 8.63265 25.0551 3.41367Z" fill="white" fill-opacity="0.6"/>
</svg>
