<svg width="97" height="105" viewBox="0 0 97 105" fill="none" xmlns="http://www.w3.org/2000/svg">
<path fill-rule="evenodd" clip-rule="evenodd" d="M9.43272 17.5237C15.8246 13.8333 25.5792 18.7468 31.2079 28.496C36.8366 38.2452 36.2146 49.1497 29.8226 52.8401C23.4307 56.5304 13.68 51.6237 8.04743 41.8677C2.42551 32.1146 3.0408 21.2141 9.43272 17.5237ZM48.8334 51.769C62.408 43.9678 69.2544 51.9315 89.5168 60.629C101.641 68.4685 98.293 79.7558 83.8769 84.0738C76.4406 84.4791 71.8009 85.7867 67.8195 88.2658C60.929 92.5688 61.8182 98.2076 53.4504 102.606C47.0424 106.08 42.6806 105.089 39.8135 101.395C36.761 97.4743 36.8588 93.8276 36.8364 89.1407C36.7347 70.9052 38.5661 55.4056 48.8334 51.769ZM2.18838 56.6257C-1.50606 61.2664 1.26358 69.5812 8.36723 75.1953C15.4709 80.8094 24.224 81.6013 27.9184 76.9605C31.6128 72.3198 28.8432 64.005 21.7396 58.3909C14.6359 52.7768 5.88282 51.9849 2.18838 56.6257ZM73.8459 15.2542C79.7121 14.3751 85.5281 20.9311 86.8382 29.8901C88.1484 38.8491 84.4508 46.8293 78.5914 47.7045C72.7251 48.5836 66.9091 42.0276 65.599 33.0686C64.2889 24.1096 67.9796 16.1333 73.8459 15.2542ZM36.0051 1.84836C42.397 -1.84202 52.1516 3.07148 57.7803 12.8207C63.409 22.5699 62.7869 33.4744 56.395 37.1648C50.0031 40.8551 40.2524 35.9484 34.6198 26.1924C28.9978 16.4393 29.6131 5.53874 36.0051 1.84836Z" fill="#F7E8D5"/>
</svg>
