<svg width="55" height="61" viewBox="0 0 55 61" fill="none" xmlns="http://www.w3.org/2000/svg">
<path opacity="0.5" fill-rule="evenodd" clip-rule="evenodd" d="M34.1729 1.175C37.8435 3.29424 38.2007 9.55628 34.9684 15.1549C31.736 20.7535 26.1343 23.5752 22.4637 21.4559C18.793 19.3367 18.4335 13.0785 21.6681 7.47601C24.9044 1.87964 30.5022 -0.944252 34.1729 1.175ZM28.4549 30.6029C36.2324 35.114 34.2376 40.8055 35.7301 53.3799C35.3125 61.6604 28.7377 63.2364 22.451 57.3067C20.1142 53.7248 18.1317 51.7928 15.7556 50.5246C11.6371 48.3333 9.08812 50.3946 4.49815 47.4959C0.93044 45.3066 0.170756 42.8528 1.18464 40.3663C2.25809 37.7224 4.09976 36.724 6.4243 35.3671C15.4641 30.0806 23.6983 26.5409 28.4549 30.6029ZM12.6463 8.79962C9.27754 8.29479 5.93762 12.0596 5.18526 17.2045C4.43291 22.3493 6.55237 26.9298 9.92114 27.4346C13.2899 27.9395 16.6298 24.1746 17.3822 19.0298C18.1345 13.885 16.0151 9.30445 12.6463 8.79962ZM53.7966 32.5577C55.9182 35.2228 54.3277 39.9976 50.2483 43.2216C46.1689 46.4456 41.1384 46.8981 39.0208 44.2353C36.8992 41.5703 38.4897 36.7954 42.5691 33.5714C46.6484 30.3475 51.675 29.8927 53.7966 32.5577ZM49.5984 9.88925C53.269 12.0085 53.6263 18.2705 50.3939 23.8692C47.1615 29.4678 41.5598 32.2894 37.8892 30.1702C34.2185 28.0509 33.859 21.7928 37.0937 16.1903C40.3299 10.5939 45.9277 7.77 49.5984 9.88925Z" fill="white"/>
</svg>
