<svg width="94" height="96" viewBox="0 0 94 96" fill="none" xmlns="http://www.w3.org/2000/svg">
<path fill-rule="evenodd" clip-rule="evenodd" d="M31.4533 0.289053C38.8341 0.289053 44.825 9.42155 44.825 20.679C44.825 31.9364 38.8341 41.0689 31.4533 41.0689C24.0726 41.0689 18.0816 31.9442 18.0816 20.679C18.0894 9.42155 24.0726 0.289053 31.4533 0.289053ZM48.4526 49.6467C64.1092 49.678 66.0565 59.998 79.2555 77.6614C85.8353 90.5126 77.2925 98.6138 62.6488 95.1452C56.0061 91.7781 51.3342 90.5907 46.6467 90.7469C38.5278 91.0282 36.4785 96.3561 27.0327 95.9811C19.7462 95.7858 16.4641 92.7468 15.8281 88.1142C15.145 83.1925 17.053 80.0832 19.3771 76.013C28.4068 60.1698 37.7426 47.6624 48.4526 49.6467ZM5.62852 30.5302C0.108662 32.702 -1.65016 41.2877 1.69474 49.7014C5.03963 58.1152 12.2241 63.1775 17.7439 61.0057C23.2638 58.8339 25.0226 50.2483 21.6777 41.8345C18.3328 33.4207 11.1484 28.3584 5.62852 30.5302ZM88.3715 30.5302C93.8913 32.702 95.6501 41.2877 92.3053 49.7014C88.9604 58.1152 81.7681 63.1775 76.2561 61.0057C70.7362 58.8339 68.9774 50.2483 72.3223 41.8345C75.6672 33.4207 82.8516 28.3584 88.3715 30.5302ZM62.3033 0C69.684 0 75.675 9.1325 75.675 20.3899C75.675 31.6474 69.684 40.7799 62.3033 40.7799C54.9225 40.7799 48.9316 31.6552 48.9316 20.3899C48.9394 9.1325 54.9225 0 62.3033 0Z" fill="#FFC67D"/>
</svg>
