<svg width="97" height="105" viewBox="0 0 97 105" fill="none" xmlns="http://www.w3.org/2000/svg">
<path fill-rule="evenodd" clip-rule="evenodd" d="M9.38389 17.5237C15.7758 13.8333 25.5304 18.7468 31.1591 28.496C36.7878 38.2452 36.1657 49.1497 29.7738 52.8401C23.3819 56.5304 13.6312 51.6237 7.9986 41.8677C2.37669 32.1146 2.99197 21.2141 9.38389 17.5237ZM48.7845 51.769C62.3592 43.9678 69.2056 51.9315 89.468 60.629C101.592 68.4685 98.2442 79.7558 83.828 84.0738C76.3918 84.4791 71.7521 85.7867 67.7707 88.2658C60.8802 92.5688 61.7694 98.2076 53.4016 102.606C46.9936 106.08 42.6317 105.089 39.7646 101.395C36.7122 97.4743 36.8099 93.8276 36.7876 89.1407C36.6859 70.9052 38.5173 55.4056 48.7845 51.769ZM2.13955 56.6257C-1.55489 61.2664 1.21475 69.5812 8.3184 75.1953C15.4221 80.8094 24.1751 81.6013 27.8696 76.9605C31.564 72.3198 28.7944 64.005 21.6907 58.3909C14.5871 52.7768 5.83399 51.9849 2.13955 56.6257ZM73.797 15.2542C79.6633 14.3751 85.4793 20.9311 86.7894 29.8901C88.0995 38.8491 84.402 46.8293 78.5425 47.7045C72.6763 48.5836 66.8603 42.0276 65.5502 33.0686C64.2401 24.1096 67.9308 16.1333 73.797 15.2542ZM35.9562 1.84836C42.3481 -1.84202 52.1027 3.07148 57.7314 12.8207C63.3602 22.5699 62.7381 33.4744 56.3462 37.1648C49.9542 40.8551 40.2036 35.9484 34.5709 26.1924C28.949 16.4393 29.5643 5.53874 35.9562 1.84836Z" fill="#FFC67D"/>
</svg>
