<svg width="33" height="32" viewBox="0 0 33 32" fill="none" xmlns="http://www.w3.org/2000/svg">
<path d="M32.0469 16C32.0469 7.43959 25.1073 0.5 16.5469 0.5C7.98646 0.5 1.04688 7.43959 1.04688 16C1.04688 24.5604 7.98646 31.5 16.5469 31.5C25.1073 31.5 32.0469 24.5604 32.0469 16Z" stroke="#171717"/>
<path d="M16.5469 9C20.3856 9 23.5469 12.1613 23.5469 16C23.5469 19.8669 20.3856 23 16.5469 23C12.68 23 9.54688 19.8669 9.54688 16C9.54688 12.1613 12.68 9 16.5469 9ZM19.7646 13.7702C19.7929 13.6855 19.7929 13.6008 19.7646 13.4879C19.7646 13.4315 19.7082 13.3468 19.68 13.3185C19.5953 13.2339 19.4542 13.2339 19.3977 13.2339C19.1437 13.2339 18.7203 13.375 16.7727 14.1935C16.0953 14.4758 14.7404 15.0403 12.7082 15.9435C12.3695 16.0847 12.2001 16.1976 12.1719 16.3387C12.1437 16.5645 12.5106 16.6492 12.934 16.7903C13.3009 16.9032 13.7808 17.0444 14.0348 17.0444C14.2606 17.0444 14.5146 16.9597 14.7969 16.7621C16.688 15.4637 17.6759 14.8145 17.7324 14.8145C17.7888 14.8145 17.8453 14.7863 17.8735 14.8145C17.93 14.871 17.93 14.9274 17.9017 14.9556C17.8735 15.0968 16.0953 16.7339 15.9824 16.8468C15.5872 17.2419 15.1356 17.496 15.8413 17.9476C16.434 18.3427 16.7727 18.5968 17.3937 18.9919C17.7888 19.246 18.0993 19.5565 18.4945 19.5282C18.6921 19.5 18.8896 19.3306 18.9743 18.7944C19.2284 17.5806 19.68 14.871 19.7646 13.7702Z" fill="#171717"/>
</svg>
