<svg width="573" height="336" viewBox="0 0 573 336" fill="none" xmlns="http://www.w3.org/2000/svg">
<path d="M200.364 334.816C284.844 334.816 353.329 266.331 353.329 181.851C353.329 97.3711 284.844 28.8867 200.364 28.8867C115.883 28.8867 47.3984 97.3711 47.3984 181.851C47.3984 266.331 115.883 334.816 200.364 334.816Z" stroke="#878787" stroke-width="2" stroke-linecap="round" stroke-linejoin="round" stroke-dasharray="8 8"/>
<path d="M199.502 272.384C249.976 272.384 290.894 231.466 290.894 180.992C290.894 130.517 249.976 89.5996 199.502 89.5996C149.027 89.5996 108.109 130.517 108.109 180.992C108.109 231.466 149.027 272.384 199.502 272.384Z" stroke="#878787" stroke-width="2" stroke-linecap="round" stroke-linejoin="round"/>
<path d="M316.434 82.3092L348.911 49.832H401.049" stroke="#878787" stroke-width="2" stroke-linecap="round" stroke-linejoin="round" stroke-dasharray="8 8"/>
<path d="M305.547 294.158L322.909 321.833H375.047" stroke="#878787" stroke-width="2" stroke-linecap="round" stroke-linejoin="round" stroke-dasharray="8 8"/>
<path d="M85.6256 282.979L66.8229 309.962H13.6699" stroke="#878787" stroke-width="2" stroke-linecap="round" stroke-linejoin="round" stroke-dasharray="8 8"/>
<path d="M62.9678 114.479L44.7531 96.2637H1.04883" stroke="#878787" stroke-width="2" stroke-linecap="round" stroke-linejoin="round" stroke-dasharray="8 8"/>
<path d="M140.798 40.2986L122.583 22.084H78.8789" stroke="#878787" stroke-width="2" stroke-linecap="round" stroke-linejoin="round" stroke-dasharray="8 8"/>
<path d="M7.20217 87.3377V85.7717H10.0822V76.8077L7.83217 78.2117L7.07617 76.8257L10.6222 74.6477H11.9362V85.7717H14.6362V87.3377H7.20217ZM21.4871 87.4997C20.6711 87.4997 19.8791 87.3737 19.1111 87.1217C18.3551 86.8577 17.7251 86.4917 17.2211 86.0237L17.8511 84.5837C18.9551 85.4717 20.1551 85.9157 21.4511 85.9157C22.2791 85.9157 22.9271 85.6937 23.3951 85.2497C23.8631 84.7937 24.0971 84.1997 24.0971 83.4677C24.0971 82.7117 23.8751 82.0937 23.4311 81.6137C22.9871 81.1337 22.3691 80.8937 21.5771 80.8937C20.4611 80.8937 19.5671 81.3557 18.8951 82.2797H17.5991V74.6477H25.1591V76.2137H19.4171V80.2277C20.0891 79.6397 20.9411 79.3457 21.9731 79.3457C22.7771 79.3457 23.4731 79.5137 24.0611 79.8497C24.6491 80.1857 25.1051 80.6597 25.4291 81.2717C25.7531 81.8717 25.9151 82.5737 25.9151 83.3777C25.9151 84.1937 25.7351 84.9137 25.3751 85.5377C25.0151 86.1497 24.5051 86.6297 23.8451 86.9777C23.1851 87.3257 22.3991 87.4997 21.4871 87.4997ZM32.0101 87.8057L30.7861 87.0857L38.2201 74.1797L39.4441 74.8997L32.0101 87.8057ZM30.7141 82.2437C29.7301 82.2437 28.9621 81.9017 28.4101 81.2177C27.8581 80.5217 27.5821 79.5677 27.5821 78.3557C27.5821 77.1437 27.8581 76.1957 28.4101 75.5117C28.9741 74.8277 29.7421 74.4857 30.7141 74.4857C31.6861 74.4857 32.4481 74.8277 33.0001 75.5117C33.5641 76.1957 33.8461 77.1437 33.8461 78.3557C33.8461 79.5677 33.5701 80.5217 33.0181 81.2177C32.4661 81.9017 31.6981 82.2437 30.7141 82.2437ZM30.7141 80.9657C31.2181 80.9657 31.6081 80.7497 31.8841 80.3177C32.1721 79.8857 32.3161 79.2317 32.3161 78.3557C32.3161 77.4797 32.1721 76.8257 31.8841 76.3937C31.6081 75.9617 31.2181 75.7457 30.7141 75.7457C30.2101 75.7457 29.8141 75.9617 29.5261 76.3937C29.2501 76.8257 29.1121 77.4797 29.1121 78.3557C29.1121 79.2437 29.2501 79.9037 29.5261 80.3357C29.8141 80.7557 30.2101 80.9657 30.7141 80.9657ZM39.5161 87.4997C38.5441 87.4997 37.7821 87.1577 37.2301 86.4737C36.6781 85.7897 36.4021 84.8357 36.4021 83.6117C36.4021 82.4117 36.6781 81.4697 37.2301 80.7857C37.7821 80.0897 38.5441 79.7417 39.5161 79.7417C40.5001 79.7417 41.2681 80.0897 41.8201 80.7857C42.3721 81.4697 42.6481 82.4117 42.6481 83.6117C42.6481 84.8357 42.3721 85.7897 41.8201 86.4737C41.2681 87.1577 40.5001 87.4997 39.5161 87.4997ZM39.5161 86.2397C40.0201 86.2397 40.4101 86.0237 40.6861 85.5917C40.9741 85.1597 41.1181 84.4997 41.1181 83.6117C41.1181 82.7477 40.9741 82.0997 40.6861 81.6677C40.4101 81.2357 40.0201 81.0197 39.5161 81.0197C39.0121 81.0197 38.6161 81.2357 38.3281 81.6677C38.0521 82.0877 37.9141 82.7357 37.9141 83.6117C37.9141 84.4997 38.0521 85.1597 38.3281 85.5917C38.6161 86.0237 39.0121 86.2397 39.5161 86.2397Z" fill="#171717"/>
<path d="M85.9033 13.158V11.592H88.7833V2.628L86.5333 4.032L85.7773 2.646L89.3233 0.468H90.6373V11.592H93.3373V13.158H85.9033ZM99.9903 13.32C98.5143 13.32 97.3863 12.762 96.6063 11.646C95.8383 10.518 95.4543 8.90399 95.4543 6.80399C95.4543 4.66799 95.8383 3.054 96.6063 1.962C97.3863 0.858 98.5143 0.306 99.9903 0.306C101.478 0.306 102.606 0.858 103.374 1.962C104.142 3.054 104.526 4.66199 104.526 6.78599C104.526 8.89799 104.136 10.518 103.356 11.646C102.588 12.762 101.466 13.32 99.9903 13.32ZM99.9903 11.772C100.902 11.772 101.58 11.37 102.024 10.566C102.468 9.76199 102.69 8.50199 102.69 6.78599C102.69 5.06999 102.468 3.822 102.024 3.042C101.592 2.25 100.914 1.854 99.9903 1.854C99.0783 1.854 98.4003 2.25 97.9563 3.042C97.5123 3.834 97.2903 5.08199 97.2903 6.78599C97.2903 8.50199 97.5123 9.76199 97.9563 10.566C98.4003 11.37 99.0783 11.772 99.9903 11.772ZM110.711 13.626L109.487 12.906L116.921 0L118.145 0.72L110.711 13.626ZM109.415 8.06399C108.431 8.06399 107.663 7.72199 107.111 7.03799C106.559 6.34199 106.283 5.38799 106.283 4.176C106.283 2.964 106.559 2.016 107.111 1.332C107.675 0.648 108.443 0.306 109.415 0.306C110.387 0.306 111.149 0.648 111.701 1.332C112.265 2.016 112.547 2.964 112.547 4.176C112.547 5.38799 112.271 6.34199 111.719 7.03799C111.167 7.72199 110.399 8.06399 109.415 8.06399ZM109.415 6.78599C109.919 6.78599 110.309 6.56999 110.585 6.13799C110.873 5.70599 111.017 5.05199 111.017 4.176C111.017 3.3 110.873 2.646 110.585 2.214C110.309 1.782 109.919 1.566 109.415 1.566C108.911 1.566 108.515 1.782 108.227 2.214C107.951 2.646 107.813 3.3 107.813 4.176C107.813 5.06399 107.951 5.72399 108.227 6.15599C108.515 6.57599 108.911 6.78599 109.415 6.78599ZM118.217 13.32C117.245 13.32 116.483 12.978 115.931 12.294C115.379 11.61 115.103 10.656 115.103 9.43199C115.103 8.23199 115.379 7.28999 115.931 6.60599C116.483 5.90999 117.245 5.56199 118.217 5.56199C119.201 5.56199 119.969 5.90999 120.521 6.60599C121.073 7.28999 121.349 8.23199 121.349 9.43199C121.349 10.656 121.073 11.61 120.521 12.294C119.969 12.978 119.201 13.32 118.217 13.32ZM118.217 12.06C118.721 12.06 119.111 11.844 119.387 11.412C119.675 10.98 119.819 10.32 119.819 9.43199C119.819 8.56799 119.675 7.91999 119.387 7.48799C119.111 7.05599 118.721 6.83999 118.217 6.83999C117.713 6.83999 117.317 7.05599 117.029 7.48799C116.753 7.90799 116.615 8.55599 116.615 9.43199C116.615 10.32 116.753 10.98 117.029 11.412C117.317 11.844 117.713 12.06 118.217 12.06Z" fill="#171717"/>
<path d="M358.424 40.1404V38.7544L362.654 34.2184C363.242 33.5824 363.662 33.0064 363.914 32.4904C364.178 31.9744 364.31 31.4524 364.31 30.9244C364.31 29.5564 363.506 28.8724 361.898 28.8724C360.674 28.8724 359.576 29.3344 358.604 30.2584L357.938 28.8364C358.417 28.3684 359.029 27.9964 359.773 27.7204C360.517 27.4324 361.292 27.2884 362.096 27.2884C363.404 27.2884 364.406 27.5884 365.102 28.1884C365.81 28.7884 366.164 29.6464 366.164 30.7624C366.164 31.5184 365.977 32.2564 365.605 32.9764C365.245 33.6964 364.676 34.4644 363.896 35.2804L360.764 38.5744H366.668V40.1404H358.424ZM373.285 40.3024C372.469 40.3024 371.677 40.1764 370.909 39.9244C370.153 39.6604 369.522 39.2944 369.018 38.8264L369.648 37.3864C370.752 38.2744 371.953 38.7184 373.249 38.7184C374.077 38.7184 374.725 38.4964 375.193 38.0524C375.661 37.5964 375.895 37.0024 375.895 36.2704C375.895 35.5144 375.673 34.8964 375.229 34.4164C374.785 33.9364 374.167 33.6964 373.375 33.6964C372.259 33.6964 371.365 34.1584 370.693 35.0824H369.397V27.4504H376.957V29.0164H371.215V33.0304C371.887 32.4424 372.739 32.1484 373.771 32.1484C374.575 32.1484 375.271 32.3164 375.859 32.6524C376.447 32.9884 376.903 33.4624 377.227 34.0744C377.551 34.6744 377.712 35.3764 377.712 36.1804C377.712 36.9964 377.533 37.7164 377.173 38.3404C376.813 38.9524 376.303 39.4324 375.643 39.7804C374.983 40.1284 374.197 40.3024 373.285 40.3024ZM383.807 40.6084L382.583 39.8884L390.018 26.9824L391.242 27.7024L383.807 40.6084ZM382.512 35.0464C381.528 35.0464 380.76 34.7044 380.208 34.0204C379.656 33.3244 379.38 32.3704 379.38 31.1584C379.38 29.9464 379.656 28.9984 380.208 28.3144C380.772 27.6304 381.54 27.2884 382.512 27.2884C383.484 27.2884 384.246 27.6304 384.798 28.3144C385.362 28.9984 385.643 29.9464 385.643 31.1584C385.643 32.3704 385.368 33.3244 384.816 34.0204C384.264 34.7044 383.496 35.0464 382.512 35.0464ZM382.512 33.7684C383.016 33.7684 383.406 33.5524 383.682 33.1204C383.97 32.6884 384.113 32.0344 384.113 31.1584C384.113 30.2824 383.97 29.6284 383.682 29.1964C383.406 28.7644 383.016 28.5484 382.512 28.5484C382.008 28.5484 381.612 28.7644 381.324 29.1964C381.048 29.6284 380.91 30.2824 380.91 31.1584C380.91 32.0464 381.048 32.7064 381.324 33.1384C381.612 33.5584 382.008 33.7684 382.512 33.7684ZM391.314 40.3024C390.342 40.3024 389.579 39.9604 389.027 39.2764C388.475 38.5924 388.2 37.6384 388.2 36.4144C388.2 35.2144 388.475 34.2724 389.027 33.5884C389.579 32.8924 390.342 32.5444 391.314 32.5444C392.298 32.5444 393.066 32.8924 393.618 33.5884C394.17 34.2724 394.445 35.2144 394.445 36.4144C394.445 37.6384 394.17 38.5924 393.618 39.2764C393.066 39.9604 392.298 40.3024 391.314 40.3024ZM391.314 39.0424C391.818 39.0424 392.208 38.8264 392.484 38.3944C392.772 37.9624 392.915 37.3024 392.915 36.4144C392.915 35.5504 392.772 34.9024 392.484 34.4704C392.208 34.0384 391.818 33.8224 391.314 33.8224C390.81 33.8224 390.414 34.0384 390.126 34.4704C389.85 34.8904 389.712 35.5384 389.712 36.4144C389.712 37.3024 389.85 37.9624 390.126 38.3944C390.414 38.8264 390.81 39.0424 391.314 39.0424Z" fill="#171717"/>
<path d="M22.3219 299.275V297.889L26.5519 293.353C27.1399 292.717 27.5599 292.141 27.8119 291.625C28.0759 291.109 28.2079 290.587 28.2079 290.059C28.2079 288.691 27.4039 288.007 25.7959 288.007C24.5719 288.007 23.4739 288.469 22.5019 289.393L21.8359 287.971C22.3159 287.503 22.9279 287.131 23.6719 286.855C24.4159 286.567 25.1899 286.423 25.9939 286.423C27.3019 286.423 28.3039 286.723 28.9999 287.323C29.7079 287.923 30.0619 288.781 30.0619 289.897C30.0619 290.653 29.8759 291.391 29.5039 292.111C29.1439 292.831 28.5739 293.599 27.7939 294.415L24.6619 297.709H30.5659V299.275H22.3219ZM37.1829 299.437C36.3669 299.437 35.5749 299.311 34.8069 299.059C34.0509 298.795 33.4209 298.429 32.9169 297.961L33.5469 296.521C34.6509 297.409 35.8509 297.853 37.1469 297.853C37.9749 297.853 38.6229 297.631 39.0909 297.187C39.5589 296.731 39.7929 296.137 39.7929 295.405C39.7929 294.649 39.5709 294.031 39.1269 293.551C38.6829 293.071 38.0649 292.831 37.2729 292.831C36.1569 292.831 35.2629 293.293 34.5909 294.217H33.2949V286.585H40.8549V288.151H35.1129V292.165C35.7849 291.577 36.6369 291.283 37.6689 291.283C38.4729 291.283 39.1689 291.451 39.7569 291.787C40.3449 292.123 40.8009 292.597 41.1249 293.209C41.4489 293.809 41.6109 294.511 41.6109 295.315C41.6109 296.131 41.4309 296.851 41.0709 297.475C40.7109 298.087 40.2009 298.567 39.5409 298.915C38.8809 299.263 38.0949 299.437 37.1829 299.437ZM47.7058 299.743L46.4818 299.023L53.9158 286.117L55.1398 286.837L47.7058 299.743ZM46.4098 294.181C45.4258 294.181 44.6578 293.839 44.1058 293.155C43.5538 292.459 43.2778 291.505 43.2778 290.293C43.2778 289.081 43.5538 288.133 44.1058 287.449C44.6698 286.765 45.4378 286.423 46.4098 286.423C47.3818 286.423 48.1438 286.765 48.6958 287.449C49.2598 288.133 49.5418 289.081 49.5418 290.293C49.5418 291.505 49.2658 292.459 48.7138 293.155C48.1618 293.839 47.3938 294.181 46.4098 294.181ZM46.4098 292.903C46.9138 292.903 47.3038 292.687 47.5798 292.255C47.8678 291.823 48.0118 291.169 48.0118 290.293C48.0118 289.417 47.8678 288.763 47.5798 288.331C47.3038 287.899 46.9138 287.683 46.4098 287.683C45.9058 287.683 45.5098 287.899 45.2218 288.331C44.9458 288.763 44.8078 289.417 44.8078 290.293C44.8078 291.181 44.9458 291.841 45.2218 292.273C45.5098 292.693 45.9058 292.903 46.4098 292.903ZM55.2118 299.437C54.2398 299.437 53.4778 299.095 52.9258 298.411C52.3738 297.727 52.0978 296.773 52.0978 295.549C52.0978 294.349 52.3738 293.407 52.9258 292.723C53.4778 292.027 54.2398 291.679 55.2118 291.679C56.1958 291.679 56.9638 292.027 57.5158 292.723C58.0678 293.407 58.3438 294.349 58.3438 295.549C58.3438 296.773 58.0678 297.727 57.5158 298.411C56.9638 299.095 56.1958 299.437 55.2118 299.437ZM55.2118 298.177C55.7158 298.177 56.1058 297.961 56.3818 297.529C56.6698 297.097 56.8138 296.437 56.8138 295.549C56.8138 294.685 56.6698 294.037 56.3818 293.605C56.1058 293.173 55.7158 292.957 55.2118 292.957C54.7078 292.957 54.3118 293.173 54.0238 293.605C53.7478 294.025 53.6098 294.673 53.6098 295.549C53.6098 296.437 53.7478 297.097 54.0238 297.529C54.3118 297.961 54.7078 298.177 55.2118 298.177Z" fill="#171717"/>
<path d="M340.322 311.275V309.889L344.552 305.353C345.14 304.717 345.56 304.141 345.812 303.625C346.076 303.109 346.208 302.587 346.208 302.059C346.208 300.691 345.404 300.007 343.796 300.007C342.572 300.007 341.474 300.469 340.502 301.393L339.836 299.971C340.316 299.503 340.928 299.131 341.672 298.855C342.416 298.567 343.19 298.423 343.994 298.423C345.302 298.423 346.304 298.723 347 299.323C347.708 299.923 348.062 300.781 348.062 301.897C348.062 302.653 347.876 303.391 347.504 304.111C347.144 304.831 346.574 305.599 345.794 306.415L342.662 309.709H348.566V311.275H340.322ZM355.183 311.437C354.367 311.437 353.575 311.311 352.807 311.059C352.051 310.795 351.421 310.429 350.917 309.961L351.547 308.521C352.651 309.409 353.851 309.853 355.147 309.853C355.975 309.853 356.623 309.631 357.091 309.187C357.559 308.731 357.793 308.137 357.793 307.405C357.793 306.649 357.571 306.031 357.127 305.551C356.683 305.071 356.065 304.831 355.273 304.831C354.157 304.831 353.263 305.293 352.591 306.217H351.295V298.585H358.855V300.151H353.113V304.165C353.785 303.577 354.637 303.283 355.669 303.283C356.473 303.283 357.169 303.451 357.757 303.787C358.345 304.123 358.801 304.597 359.125 305.209C359.449 305.809 359.611 306.511 359.611 307.315C359.611 308.131 359.431 308.851 359.071 309.475C358.711 310.087 358.201 310.567 357.541 310.915C356.881 311.263 356.095 311.437 355.183 311.437ZM365.706 311.743L364.482 311.023L371.916 298.117L373.14 298.837L365.706 311.743ZM364.41 306.181C363.426 306.181 362.658 305.839 362.106 305.155C361.554 304.459 361.278 303.505 361.278 302.293C361.278 301.081 361.554 300.133 362.106 299.449C362.67 298.765 363.438 298.423 364.41 298.423C365.382 298.423 366.144 298.765 366.696 299.449C367.26 300.133 367.542 301.081 367.542 302.293C367.542 303.505 367.266 304.459 366.714 305.155C366.162 305.839 365.394 306.181 364.41 306.181ZM364.41 304.903C364.914 304.903 365.304 304.687 365.58 304.255C365.868 303.823 366.012 303.169 366.012 302.293C366.012 301.417 365.868 300.763 365.58 300.331C365.304 299.899 364.914 299.683 364.41 299.683C363.906 299.683 363.51 299.899 363.222 300.331C362.946 300.763 362.808 301.417 362.808 302.293C362.808 303.181 362.946 303.841 363.222 304.273C363.51 304.693 363.906 304.903 364.41 304.903ZM373.212 311.437C372.24 311.437 371.478 311.095 370.926 310.411C370.374 309.727 370.098 308.773 370.098 307.549C370.098 306.349 370.374 305.407 370.926 304.723C371.478 304.027 372.24 303.679 373.212 303.679C374.196 303.679 374.964 304.027 375.516 304.723C376.068 305.407 376.344 306.349 376.344 307.549C376.344 308.773 376.068 309.727 375.516 310.411C374.964 311.095 374.196 311.437 373.212 311.437ZM373.212 310.177C373.716 310.177 374.106 309.961 374.382 309.529C374.67 309.097 374.814 308.437 374.814 307.549C374.814 306.685 374.67 306.037 374.382 305.605C374.106 305.173 373.716 304.957 373.212 304.957C372.708 304.957 372.312 305.173 372.024 305.605C371.748 306.025 371.61 306.673 371.61 307.549C371.61 308.437 371.748 309.097 372.024 309.529C372.312 309.961 372.708 310.177 373.212 310.177Z" fill="#171717"/>
<path d="M341.966 181.793C341.966 260.031 278.542 323.456 200.303 323.456C122.065 323.456 58.6406 260.031 58.6406 181.793C58.6406 103.555 122.065 40.1309 200.303 40.1309C278.542 40.1309 341.966 103.555 341.966 181.793ZM96.8895 181.793C96.8895 238.907 143.19 285.207 200.303 285.207C257.417 285.207 303.717 238.907 303.717 181.793C303.717 124.68 257.417 78.3798 200.303 78.3798C143.19 78.3798 96.8895 124.68 96.8895 181.793Z" fill="#F7C9FF"/>
<path d="M58.6406 181.792C58.6406 159.441 63.9296 137.406 74.0752 117.49C84.2209 97.5737 98.9354 80.3404 117.016 67.1992L139.504 98.1397C126.305 107.733 115.563 120.313 108.157 134.852C100.751 149.391 96.8895 165.476 96.8895 181.792H58.6406Z" fill="#90F928"/>
<path d="M200.303 323.456C162.732 323.456 126.7 308.531 100.133 281.964C73.5658 255.397 58.6406 219.365 58.6406 181.794L96.8895 181.793C96.8895 209.22 107.785 235.524 127.179 254.918C146.573 274.312 172.876 285.207 200.303 285.207V323.456Z" fill="#9BB1FF"/>
<path d="M200.305 40.1309C237.877 40.1309 273.909 55.056 300.476 81.6229C327.043 108.19 341.968 144.222 341.968 181.793C341.968 219.365 327.043 255.397 300.476 281.964C273.909 308.531 237.877 323.456 200.306 323.456V285.207C227.733 285.207 254.036 274.312 273.43 254.918C292.824 235.524 303.719 209.22 303.719 181.793C303.719 154.366 292.824 128.063 273.43 108.669C254.036 89.2751 227.733 78.3798 200.305 78.3798V40.1309Z" fill="#9D28F9"/>
<path d="M200.305 40.1309C218.909 40.1309 237.33 43.7951 254.517 50.9143C271.705 58.0335 287.322 68.4683 300.476 81.6229C313.631 94.7771 324.066 110.394 331.185 127.581C338.304 144.769 341.968 163.19 341.968 181.793H303.719C303.719 168.213 301.044 154.765 295.847 142.219C290.65 129.672 283.033 118.272 273.43 108.669C263.827 99.0661 252.427 91.4487 239.88 86.2517C227.334 81.0546 213.886 78.3798 200.305 78.3798V40.1309Z" fill="#ABCB9C"/>
<path d="M152.745 194.159V189.587H158.433V175.007L154.077 177.563L151.953 173.495L160.053 168.779H164.013V189.587H169.341V194.159H152.745ZM182.719 194.159V189.623H172.027V185.627L183.655 168.779H188.191V185.231H191.647V189.623H188.191V194.159H182.719ZM182.719 185.231V176.951L177.103 185.231H182.719ZM203.117 194.555C200.045 194.555 197.693 193.415 196.061 191.135C194.453 188.855 193.649 185.603 193.649 181.379C193.649 177.155 194.453 173.939 196.061 171.731C197.693 169.499 200.045 168.383 203.117 168.383C206.189 168.383 208.529 169.499 210.137 171.731C211.769 173.939 212.585 177.155 212.585 181.379C212.585 185.603 211.769 188.855 210.137 191.135C208.529 193.415 206.189 194.555 203.117 194.555ZM203.117 190.019C204.509 190.019 205.541 189.335 206.213 187.967C206.885 186.575 207.221 184.379 207.221 181.379C207.221 178.379 206.885 176.219 206.213 174.899C205.541 173.579 204.509 172.919 203.117 172.919C201.725 172.919 200.693 173.579 200.021 174.899C199.349 176.219 199.013 178.379 199.013 181.379C199.013 184.379 199.349 186.575 200.021 187.967C200.693 189.335 201.725 190.019 203.117 190.019ZM226.478 194.159V168.779H238.106C240.818 168.779 242.906 169.367 244.37 170.543C245.858 171.719 246.602 173.327 246.602 175.367C246.602 176.711 246.266 177.875 245.594 178.859C244.922 179.819 243.986 180.539 242.786 181.019C244.226 181.427 245.33 182.147 246.098 183.179C246.89 184.211 247.286 185.483 247.286 186.995C247.286 189.251 246.494 191.015 244.91 192.287C243.35 193.535 241.214 194.159 238.502 194.159H226.478ZM231.806 179.219H237.134C239.87 179.219 241.238 178.163 241.238 176.051C241.238 173.963 239.87 172.919 237.134 172.919H231.806V179.219ZM231.806 190.019H237.746C239.186 190.019 240.242 189.743 240.914 189.191C241.586 188.639 241.922 187.799 241.922 186.671C241.922 185.567 241.586 184.739 240.914 184.187C240.242 183.635 239.186 183.359 237.746 183.359H231.806V190.019Z" fill="black"/>
<rect x="485.047" y="29.4883" width="8" height="8" rx="4" fill="#ABCB9C"/>
<rect x="485.047" y="93.2695" width="8" height="8" rx="4" fill="#667CC1"/>
<rect x="485.047" y="157.049" width="8" height="8" rx="4" fill="#9BB1FF"/>
<rect x="485.047" y="220.84" width="8" height="8" rx="4" fill="#90F928"/>
<path d="M510.737 19.065C510.382 19.065 510.109 18.961 509.918 18.753C509.727 18.545 509.632 18.246 509.632 17.856V12.045C509.632 11.577 509.745 11.2173 509.97 10.966C510.204 10.7147 510.538 10.589 510.971 10.589H513.181C514.386 10.589 515.304 10.849 515.937 11.369C516.57 11.8803 516.886 12.6387 516.886 13.644C516.886 14.6407 516.578 15.3903 515.963 15.893C515.348 16.3957 514.446 16.647 513.259 16.647H512.258V17.856C512.258 18.246 512.158 18.545 511.959 18.753C511.768 18.961 511.487 19.065 511.114 19.065H510.737ZM513.155 14.736C513.545 14.736 513.84 14.645 514.039 14.463C514.247 14.2723 514.351 14.0037 514.351 13.657C514.351 13.3017 514.243 13.0287 514.026 12.838C513.818 12.6473 513.51 12.552 513.103 12.552H512.219V14.736H513.155ZM521.632 12.422C522.048 12.422 522.377 12.5433 522.62 12.786C522.871 13.0287 522.997 13.3537 522.997 13.761C522.997 14.0643 522.936 14.3157 522.815 14.515C522.694 14.7143 522.559 14.8617 522.412 14.957C522.265 15.0523 522.182 15.0913 522.165 15.074C521.905 14.8487 521.61 14.736 521.281 14.736C520.553 14.736 520.189 15.2647 520.189 16.322V17.856C520.189 18.662 519.821 19.065 519.084 19.065H518.824C518.46 19.065 518.178 18.974 517.979 18.792C517.788 18.61 517.693 18.298 517.693 17.856V12.773C517.693 12.721 517.793 12.6603 517.992 12.591C518.191 12.5217 518.408 12.487 518.642 12.487C519.257 12.487 519.686 12.7427 519.929 13.254C519.972 13.332 520.02 13.4663 520.072 13.657C520.176 13.2843 520.362 12.9853 520.631 12.76C520.908 12.5347 521.242 12.422 521.632 12.422ZM523.031 15.854C523.031 15.204 523.179 14.619 523.473 14.099C523.768 13.5703 524.175 13.1587 524.695 12.864C525.215 12.5693 525.8 12.422 526.45 12.422C527.092 12.422 527.664 12.5607 528.166 12.838C528.678 13.1153 529.072 13.4967 529.349 13.982C529.635 14.4673 529.778 15.0177 529.778 15.633V15.75C529.77 15.9493 529.726 16.101 529.648 16.205C529.579 16.3003 529.453 16.348 529.271 16.348H525.163C525.181 16.4347 525.198 16.4953 525.215 16.53C525.302 16.8333 525.475 17.0717 525.735 17.245C526.004 17.4097 526.325 17.492 526.697 17.492C527.07 17.492 527.386 17.4227 527.646 17.284C527.915 17.1367 528.11 16.946 528.231 16.712C528.24 16.686 528.353 16.699 528.569 16.751C528.786 16.7943 528.981 16.8897 529.154 17.037C529.328 17.1757 529.414 17.388 529.414 17.674C529.414 17.8907 529.349 18.09 529.219 18.272C529.098 18.454 528.92 18.6143 528.686 18.753C528.184 19.039 527.49 19.182 526.606 19.182C525.506 19.182 524.635 18.8873 523.993 18.298C523.352 17.7087 523.031 16.894 523.031 15.854ZM527.555 15.191C527.538 14.8183 527.43 14.5323 527.23 14.333C527.031 14.125 526.758 14.021 526.411 14.021C526.082 14.021 525.805 14.1337 525.579 14.359C525.354 14.5757 525.224 14.853 525.189 15.191H527.555ZM530.877 18.714C530.453 18.48 530.24 18.1333 530.24 17.674C530.24 17.5093 530.284 17.3533 530.37 17.206C530.457 17.0587 530.552 16.946 530.656 16.868C530.76 16.7813 530.821 16.7467 530.838 16.764C531.072 16.9807 531.376 17.1627 531.748 17.31C532.121 17.4487 532.511 17.518 532.918 17.518C533.17 17.518 533.36 17.4833 533.49 17.414C533.629 17.3447 533.698 17.245 533.698 17.115C533.698 16.9763 533.625 16.8767 533.477 16.816C533.33 16.7467 533.061 16.6687 532.671 16.582C532.247 16.4953 531.883 16.3957 531.579 16.283C531.276 16.1703 531.003 15.9753 530.76 15.698C530.518 15.4207 530.396 15.0437 530.396 14.567C530.396 13.9083 530.648 13.3883 531.15 13.007C531.653 12.6257 532.351 12.435 533.243 12.435C533.928 12.435 534.483 12.5087 534.907 12.656C535.341 12.8033 535.64 13.02 535.804 13.306C535.917 13.4793 535.973 13.6787 535.973 13.904C535.973 14.0773 535.926 14.242 535.83 14.398C535.735 14.5453 535.627 14.6667 535.505 14.762C535.393 14.8573 535.328 14.8963 535.31 14.879C535.068 14.645 534.773 14.45 534.426 14.294C534.08 14.138 533.746 14.06 533.425 14.06C533.183 14.06 532.996 14.099 532.866 14.177C532.736 14.2463 532.671 14.3503 532.671 14.489C532.671 14.6103 532.736 14.7013 532.866 14.762C532.996 14.814 533.213 14.8703 533.516 14.931L533.776 14.996C534.218 15.0913 534.591 15.1953 534.894 15.308C535.206 15.4207 535.488 15.6157 535.739 15.893C535.999 16.1617 536.129 16.53 536.129 16.998C536.129 17.6827 535.869 18.2113 535.349 18.584C534.838 18.9567 534.093 19.143 533.113 19.143C532.117 19.143 531.371 19 530.877 18.714ZM536.678 17.284C536.678 16.5993 537.012 16.0793 537.679 15.724C538.355 15.3687 539.326 15.1867 540.591 15.178H540.864C540.864 15.1173 540.856 15.0437 540.838 14.957C540.778 14.4457 540.453 14.19 539.863 14.19C539.213 14.19 538.784 14.4457 538.576 14.957C538.559 14.9657 538.516 14.9743 538.446 14.983C538.386 14.9917 538.308 14.996 538.212 14.996C537.883 14.996 537.584 14.931 537.315 14.801C537.055 14.6623 536.925 14.4197 536.925 14.073C536.925 13.7177 537.038 13.423 537.263 13.189C537.705 12.6777 538.62 12.422 540.006 12.422C541.15 12.422 541.991 12.656 542.528 13.124C543.066 13.5833 543.334 14.281 543.334 15.217V18.831C543.334 18.9003 543.23 18.9653 543.022 19.026C542.823 19.0867 542.602 19.117 542.359 19.117C541.787 19.117 541.38 18.9003 541.137 18.467C541.051 18.2937 540.999 18.1507 540.981 18.038C540.773 18.3847 540.479 18.6533 540.097 18.844C539.716 19.0347 539.287 19.13 538.81 19.13C538.16 19.13 537.64 18.9653 537.25 18.636C536.869 18.298 536.678 17.8473 536.678 17.284ZM540.864 16.231L540.513 16.244C539.482 16.2613 538.966 16.5213 538.966 17.024C538.966 17.2147 539.031 17.3663 539.161 17.479C539.3 17.5917 539.482 17.648 539.707 17.648C540.045 17.648 540.318 17.5613 540.526 17.388C540.734 17.206 540.847 16.9633 540.864 16.66V16.231ZM545.536 19.065C545.18 19.065 544.903 18.974 544.704 18.792C544.504 18.6013 544.405 18.2893 544.405 17.856V10.134C544.405 10.082 544.504 10.0213 544.704 9.952C544.903 9.88267 545.12 9.848 545.354 9.848C545.787 9.848 546.151 9.991 546.446 10.277C546.749 10.563 546.901 11.0527 546.901 11.746V17.856C546.901 18.662 546.532 19.065 545.796 19.065H545.536ZM547.787 15.854C547.787 15.204 547.935 14.619 548.229 14.099C548.524 13.5703 548.931 13.1587 549.451 12.864C549.971 12.5693 550.556 12.422 551.206 12.422C551.848 12.422 552.42 12.5607 552.922 12.838C553.434 13.1153 553.828 13.4967 554.105 13.982C554.391 14.4673 554.534 15.0177 554.534 15.633V15.75C554.526 15.9493 554.482 16.101 554.404 16.205C554.335 16.3003 554.209 16.348 554.027 16.348H549.919C549.937 16.4347 549.954 16.4953 549.971 16.53C550.058 16.8333 550.231 17.0717 550.491 17.245C550.76 17.4097 551.081 17.492 551.453 17.492C551.826 17.492 552.142 17.4227 552.402 17.284C552.671 17.1367 552.866 16.946 552.987 16.712C552.996 16.686 553.109 16.699 553.325 16.751C553.542 16.7943 553.737 16.8897 553.91 17.037C554.084 17.1757 554.17 17.388 554.17 17.674C554.17 17.8907 554.105 18.09 553.975 18.272C553.854 18.454 553.676 18.6143 553.442 18.753C552.94 19.039 552.246 19.182 551.362 19.182C550.262 19.182 549.391 18.8873 548.749 18.298C548.108 17.7087 547.787 16.894 547.787 15.854ZM552.311 15.191C552.294 14.8183 552.186 14.5323 551.986 14.333C551.787 14.125 551.514 14.021 551.167 14.021C550.838 14.021 550.561 14.1337 550.335 14.359C550.11 14.5757 549.98 14.853 549.945 15.191H552.311Z" fill="#667CC1"/>
<path d="M511.094 47.8008C510.695 47.8008 510.404 47.7241 510.22 47.5708C510.051 47.4174 509.967 47.1644 509.967 46.8118V46.2368C509.967 45.2554 510.174 44.4198 510.588 43.7298C511.002 43.0244 511.523 42.4494 512.152 42.0048C512.781 41.5448 513.57 41.0694 514.521 40.5788C515.502 40.0728 516.208 39.6818 516.637 39.4058C517.082 39.1298 517.465 38.7924 517.787 38.3938C518.109 37.9798 518.27 37.4891 518.27 36.9218C518.27 36.0938 517.979 35.4268 517.396 34.9208C516.813 34.4148 516.008 34.1618 514.981 34.1618C513.908 34.1618 513.057 34.4531 512.428 35.0358C511.815 35.6031 511.393 36.3314 511.163 37.2208C511.163 37.2668 511.056 37.2744 510.841 37.2438C510.642 37.2131 510.45 37.1288 510.266 36.9908C510.097 36.8374 510.013 36.6228 510.013 36.3468C510.013 36.0401 510.113 35.6798 510.312 35.2658C510.527 34.8364 510.818 34.4454 511.186 34.0928C511.646 33.6634 512.206 33.3184 512.865 33.0578C513.524 32.7818 514.268 32.6438 515.096 32.6438C516.614 32.6438 517.802 33.0348 518.661 33.8168C519.535 34.5834 519.972 35.6184 519.972 36.9218C519.972 37.7191 519.788 38.4014 519.42 38.9688C519.052 39.5361 518.577 40.0114 517.994 40.3948C517.427 40.7628 516.66 41.1844 515.694 41.6598C514.851 42.0738 514.153 42.4571 513.601 42.8098C513.064 43.1624 512.62 43.5841 512.267 44.0748C511.914 44.5654 511.715 45.1404 511.669 45.7998L511.623 46.2598H519.42C519.972 46.2598 520.248 46.4898 520.248 46.9498V47.0878C520.248 47.5631 519.972 47.8008 519.42 47.8008H511.094ZM526.611 48.0538C525.768 48.0538 524.994 47.9311 524.288 47.6858C523.583 47.4404 522.993 47.1108 522.517 46.6968C522.226 46.4514 521.988 46.1908 521.804 45.9148C521.636 45.6388 521.551 45.3858 521.551 45.1558C521.551 44.9564 521.613 44.7878 521.735 44.6498C521.873 44.4964 522.019 44.3891 522.172 44.3278C522.326 44.2664 522.418 44.2511 522.448 44.2818C522.816 44.9871 523.361 45.5468 524.081 45.9608C524.802 46.3748 525.645 46.5818 526.611 46.5818C527.777 46.5818 528.704 46.2828 529.394 45.6848C530.084 45.0868 530.429 44.2741 530.429 43.2468C530.429 42.2348 530.1 41.4451 529.44 40.8778C528.796 40.2951 527.922 40.0038 526.818 40.0038C525.377 40.0038 524.181 40.3641 523.23 41.0848C522.51 41.0234 522.149 40.6478 522.149 39.9578V33.9318C522.149 33.6251 522.234 33.3798 522.402 33.1958C522.571 33.0118 522.801 32.9198 523.092 32.9198H530.567C531.104 32.9198 531.372 33.1574 531.372 33.6328V33.7478C531.372 34.2078 531.104 34.4378 530.567 34.4378H523.736V39.3828C524.718 38.8461 525.814 38.5778 527.025 38.5778C528.543 38.5778 529.77 38.9994 530.705 39.8428C531.641 40.6708 532.108 41.7901 532.108 43.2008C532.108 44.7034 531.61 45.8918 530.613 46.7658C529.632 47.6244 528.298 48.0538 526.611 48.0538ZM535.431 47.9618C535.401 47.9924 535.316 47.9848 535.178 47.9388C535.056 47.8928 534.941 47.8161 534.833 47.7088C534.726 47.6014 534.672 47.4711 534.672 47.3178C534.672 47.1491 534.711 46.9958 534.787 46.8578C534.864 46.7044 535.002 46.5128 535.201 46.2828L546.517 32.6668C546.548 32.6361 546.632 32.6438 546.77 32.6898C546.908 32.7358 547.031 32.8124 547.138 32.9198C547.246 33.0271 547.299 33.1574 547.299 33.3108C547.299 33.5868 547.115 33.9394 546.747 34.3688L535.431 47.9618ZM537.041 39.7048C536.413 39.7048 535.838 39.5591 535.316 39.2678C534.795 38.9611 534.389 38.5471 534.097 38.0258C533.806 37.5044 533.66 36.9294 533.66 36.3008V36.1398C533.66 35.5111 533.806 34.9361 534.097 34.4148C534.404 33.8781 534.818 33.4641 535.339 33.1728C535.861 32.8661 536.436 32.7128 537.064 32.7128C537.693 32.7128 538.26 32.8661 538.766 33.1728C539.288 33.4641 539.694 33.8704 539.985 34.3918C540.277 34.8978 540.422 35.4651 540.422 36.0938V36.2778C540.422 36.9064 540.269 37.4814 539.962 38.0028C539.671 38.5241 539.265 38.9381 538.743 39.2448C538.237 39.5514 537.67 39.7048 537.041 39.7048ZM537.064 38.5548C537.647 38.5548 538.13 38.3478 538.513 37.9338C538.897 37.5044 539.088 36.9754 539.088 36.3468V36.0708C539.088 35.4268 538.889 34.8978 538.49 34.4838C538.107 34.0544 537.624 33.8398 537.041 33.8398C536.459 33.8398 535.968 34.0544 535.569 34.4838C535.186 34.8978 534.994 35.4268 534.994 36.0708V36.3468C534.994 36.9754 535.186 37.5044 535.569 37.9338C535.968 38.3478 536.466 38.5548 537.064 38.5548ZM544.999 47.9388C544.371 47.9388 543.796 47.7931 543.274 47.5018C542.753 47.1951 542.347 46.7811 542.055 46.2598C541.764 45.7384 541.618 45.1634 541.618 44.5348V44.3508C541.618 43.7221 541.764 43.1471 542.055 42.6258C542.362 42.1044 542.776 41.6904 543.297 41.3838C543.819 41.0771 544.394 40.9238 545.022 40.9238C545.651 40.9238 546.218 41.0771 546.724 41.3838C547.246 41.6751 547.652 42.0814 547.943 42.6028C548.235 43.1088 548.38 43.6761 548.38 44.3048V44.5118C548.38 45.1404 548.227 45.7154 547.92 46.2368C547.629 46.7581 547.223 47.1721 546.701 47.4788C546.195 47.7854 545.628 47.9388 544.999 47.9388ZM545.022 46.7658C545.605 46.7658 546.088 46.5588 546.471 46.1448C546.855 45.7308 547.046 45.2018 547.046 44.5578V44.2818C547.046 43.6531 546.847 43.1318 546.448 42.7178C546.065 42.2884 545.582 42.0738 544.999 42.0738C544.401 42.0738 543.911 42.2808 543.527 42.6948C543.159 43.1088 542.975 43.6378 542.975 44.2818V44.5578C542.975 45.1864 543.167 45.7154 543.55 46.1448C543.934 46.5588 544.424 46.7658 545.022 46.7658Z" fill="#171717"/>
<path d="M509.632 75.5513C509.632 75.144 509.732 74.8363 509.931 74.6283C510.13 74.4116 510.421 74.3033 510.802 74.3033H511.53C511.868 74.3033 512.115 74.3553 512.271 74.4593C512.427 74.5546 512.566 74.7366 512.687 75.0053L514.052 78.3593L515.404 75.0053C515.534 74.728 515.677 74.5416 515.833 74.4463C515.989 74.351 516.219 74.3033 516.522 74.3033H517.263C517.653 74.3033 517.948 74.4116 518.147 74.6283C518.355 74.8363 518.459 75.144 518.459 75.5513V81.6353C518.459 82.0426 518.377 82.346 518.212 82.5453C518.056 82.7446 517.796 82.8443 517.432 82.8443H517.029C516.674 82.8443 516.414 82.7446 516.249 82.5453C516.084 82.346 516.002 82.0426 516.002 81.6353V80.5043L516.015 78.0213L515.144 80.5043C515.135 80.539 515.105 80.6213 515.053 80.7513C515.001 80.8813 514.893 80.981 514.728 81.0503C514.563 81.111 514.334 81.1413 514.039 81.1413C513.658 81.1413 513.402 81.1023 513.272 81.0243C513.151 80.9376 513.068 80.8423 513.025 80.7383C512.99 80.6256 512.964 80.5476 512.947 80.5043L512.089 78.1383V81.6353C512.089 82.0426 512.011 82.346 511.855 82.5453C511.699 82.7446 511.439 82.8443 511.075 82.8443H510.646C510.291 82.8443 510.031 82.7446 509.866 82.5453C509.71 82.346 509.632 82.0426 509.632 81.6353V75.5513ZM519.311 81.0633C519.311 80.3786 519.645 79.8586 520.312 79.5033C520.988 79.148 521.959 78.966 523.224 78.9573H523.497C523.497 78.8966 523.488 78.823 523.471 78.7363C523.41 78.225 523.085 77.9693 522.496 77.9693C521.846 77.9693 521.417 78.225 521.209 78.7363C521.192 78.745 521.148 78.7536 521.079 78.7623C521.018 78.771 520.94 78.7753 520.845 78.7753C520.516 78.7753 520.217 78.7103 519.948 78.5803C519.688 78.4416 519.558 78.199 519.558 77.8523C519.558 77.497 519.671 77.2023 519.896 76.9683C520.338 76.457 521.252 76.2013 522.639 76.2013C523.783 76.2013 524.624 76.4353 525.161 76.9033C525.698 77.3626 525.967 78.0603 525.967 78.9963V82.6103C525.967 82.6796 525.863 82.7446 525.655 82.8053C525.456 82.866 525.235 82.8963 524.992 82.8963C524.42 82.8963 524.013 82.6796 523.77 82.2463C523.683 82.073 523.631 81.93 523.614 81.8173C523.406 82.164 523.111 82.4326 522.73 82.6233C522.349 82.814 521.92 82.9093 521.443 82.9093C520.793 82.9093 520.273 82.7446 519.883 82.4153C519.502 82.0773 519.311 81.6266 519.311 81.0633ZM523.497 80.0103L523.146 80.0233C522.115 80.0406 521.599 80.3006 521.599 80.8033C521.599 80.994 521.664 81.1456 521.794 81.2583C521.933 81.371 522.115 81.4273 522.34 81.4273C522.678 81.4273 522.951 81.3406 523.159 81.1673C523.367 80.9853 523.48 80.7426 523.497 80.4393V80.0103ZM530.95 76.2013C531.366 76.2013 531.696 76.3226 531.938 76.5653C532.19 76.808 532.315 77.133 532.315 77.5403C532.315 77.8436 532.255 78.095 532.133 78.2943C532.012 78.4936 531.878 78.641 531.73 78.7363C531.583 78.8316 531.501 78.8706 531.483 78.8533C531.223 78.628 530.929 78.5153 530.599 78.5153C529.871 78.5153 529.507 79.044 529.507 80.1013V81.6353C529.507 82.4413 529.139 82.8443 528.402 82.8443H528.142C527.778 82.8443 527.497 82.7533 527.297 82.5713C527.107 82.3893 527.011 82.0773 527.011 81.6353V76.5523C527.011 76.5003 527.111 76.4396 527.31 76.3703C527.51 76.301 527.726 76.2663 527.96 76.2663C528.576 76.2663 529.005 76.522 529.247 77.0333C529.291 77.1113 529.338 77.2456 529.39 77.4363C529.494 77.0636 529.681 76.7646 529.949 76.5393C530.227 76.314 530.56 76.2013 530.95 76.2013ZM533.016 73.9133C533.016 73.8613 533.116 73.8006 533.315 73.7313C533.523 73.662 533.744 73.6273 533.978 73.6273C534.412 73.6273 534.776 73.7703 535.07 74.0563C535.365 74.3423 535.512 74.832 535.512 75.5253V78.8663L536.799 76.9943C536.955 76.7343 537.15 76.5436 537.384 76.4223C537.618 76.301 537.857 76.2403 538.099 76.2403C538.333 76.2403 538.554 76.2923 538.762 76.3963C538.979 76.4916 539.152 76.6043 539.282 76.7343C539.421 76.8643 539.477 76.9553 539.451 77.0073L537.696 79.4643L539.62 82.1293C539.646 82.1726 539.59 82.2593 539.451 82.3893C539.313 82.5193 539.131 82.6363 538.905 82.7403C538.689 82.8356 538.468 82.8833 538.242 82.8833C537.982 82.8833 537.731 82.8226 537.488 82.7013C537.254 82.58 537.055 82.385 536.89 82.1163L535.512 80.1923V81.6353C535.512 82.4413 535.148 82.8443 534.42 82.8443H534.16C533.796 82.8443 533.515 82.7533 533.315 82.5713C533.116 82.3806 533.016 82.0686 533.016 81.6353V73.9133ZM540.018 79.6333C540.018 78.9833 540.165 78.3983 540.46 77.8783C540.754 77.3496 541.162 76.938 541.682 76.6433C542.202 76.3486 542.787 76.2013 543.437 76.2013C544.078 76.2013 544.65 76.34 545.153 76.6173C545.664 76.8946 546.058 77.276 546.336 77.7613C546.622 78.2466 546.765 78.797 546.765 79.4123V79.5293C546.756 79.7286 546.713 79.8803 546.635 79.9843C546.565 80.0796 546.44 80.1273 546.258 80.1273H542.15C542.167 80.214 542.184 80.2746 542.202 80.3093C542.288 80.6126 542.462 80.851 542.722 81.0243C542.99 81.189 543.311 81.2713 543.684 81.2713C544.056 81.2713 544.373 81.202 544.633 81.0633C544.901 80.916 545.096 80.7253 545.218 80.4913C545.226 80.4653 545.339 80.4783 545.556 80.5303C545.772 80.5736 545.967 80.669 546.141 80.8163C546.314 80.955 546.401 81.1673 546.401 81.4533C546.401 81.67 546.336 81.8693 546.206 82.0513C546.084 82.2333 545.907 82.3936 545.673 82.5323C545.17 82.8183 544.477 82.9613 543.593 82.9613C542.492 82.9613 541.621 82.6666 540.98 82.0773C540.338 81.488 540.018 80.6733 540.018 79.6333ZM544.542 78.9703C544.524 78.5976 544.416 78.3116 544.217 78.1123C544.017 77.9043 543.744 77.8003 543.398 77.8003C543.068 77.8003 542.791 77.913 542.566 78.1383C542.34 78.355 542.21 78.6323 542.176 78.9703H544.542ZM550.503 82.9613C548.995 82.9613 548.241 82.1943 548.241 80.6603V78.2163H548.072C547.751 78.2163 547.508 78.147 547.344 78.0083C547.179 77.861 547.097 77.6486 547.097 77.3713V77.2283C547.097 76.9423 547.179 76.7213 547.344 76.5653C547.508 76.4093 547.751 76.3313 548.072 76.3313H548.241V75.7073C548.241 75.3173 548.336 75.0226 548.527 74.8233C548.717 74.6153 548.995 74.5113 549.359 74.5113H549.58C549.944 74.5113 550.217 74.6023 550.399 74.7843C550.589 74.9576 550.685 75.2653 550.685 75.7073V76.3313H551.426C552.076 76.3313 552.401 76.613 552.401 77.1763V77.3193C552.401 77.9173 552.067 78.2163 551.4 78.2163H550.646V80.3743C550.646 80.8076 550.828 81.0243 551.192 81.0243C551.469 81.0243 551.703 80.89 551.894 80.6213C551.937 80.6213 552.002 80.6603 552.089 80.7383C552.175 80.8163 552.253 80.9246 552.323 81.0633C552.401 81.202 552.44 81.3623 552.44 81.5443C552.44 81.8736 552.323 82.164 552.089 82.4153C551.924 82.5886 551.703 82.723 551.426 82.8183C551.157 82.9136 550.849 82.9613 550.503 82.9613ZM553.137 74.4463C553.137 74.0823 553.254 73.792 553.488 73.5753C553.73 73.3586 554.055 73.2503 554.463 73.2503C554.87 73.2503 555.195 73.3586 555.438 73.5753C555.68 73.7833 555.802 74.0736 555.802 74.4463C555.802 74.8103 555.685 75.1006 555.451 75.3173C555.217 75.5253 554.892 75.6293 554.476 75.6293C554.068 75.6293 553.743 75.5253 553.501 75.3173C553.258 75.1006 553.137 74.8103 553.137 74.4463ZM553.215 77.4623C553.215 77.0463 553.314 76.743 553.514 76.5523C553.713 76.3616 553.986 76.2663 554.333 76.2663H554.593C554.957 76.2663 555.234 76.3573 555.425 76.5393C555.615 76.7213 555.711 77.029 555.711 77.4623V81.6353C555.711 82.4413 555.347 82.8443 554.619 82.8443H554.359C553.995 82.8443 553.713 82.7533 553.514 82.5713C553.314 82.3806 553.215 82.0686 553.215 81.6353V77.4623ZM561.369 76.2013C562.149 76.2013 562.721 76.4396 563.085 76.9163C563.457 77.393 563.644 77.9996 563.644 78.7363V81.6353C563.644 82.4413 563.275 82.8443 562.539 82.8443H562.279C561.923 82.8443 561.646 82.7533 561.447 82.5713C561.247 82.3806 561.148 82.0686 561.148 81.6353V79.1653C561.148 78.8793 561.074 78.654 560.927 78.4893C560.788 78.316 560.589 78.2293 560.329 78.2293C560.121 78.2293 559.93 78.277 559.757 78.3723C559.592 78.459 559.462 78.5803 559.367 78.7363V81.6353C559.367 82.4413 558.998 82.8443 558.262 82.8443H558.002C557.638 82.8443 557.356 82.7533 557.157 82.5713C556.966 82.3893 556.871 82.0773 556.871 81.6353V76.5523C556.871 76.5003 556.97 76.4396 557.17 76.3703C557.369 76.301 557.59 76.2663 557.833 76.2663C558.179 76.2663 558.478 76.3616 558.73 76.5523C558.981 76.7343 559.154 77.016 559.25 77.3973C559.778 76.6 560.485 76.2013 561.369 76.2013ZM567.603 85.5223C566.389 85.5223 565.501 85.3793 564.938 85.0933C564.374 84.8073 564.093 84.3696 564.093 83.7803C564.093 83.3383 564.27 82.97 564.626 82.6753C564.99 82.3806 565.466 82.1986 566.056 82.1293C565.917 81.9906 565.848 81.7956 565.848 81.5443C565.848 81.3796 565.895 81.228 565.991 81.0893C566.086 80.9506 566.216 80.8423 566.381 80.7643C565.791 80.617 565.332 80.3613 565.003 79.9973C564.682 79.6246 564.522 79.174 564.522 78.6453C564.522 78.1773 564.656 77.757 564.925 77.3843C565.193 77.0116 565.562 76.7213 566.03 76.5133C566.506 76.3053 567.048 76.2013 567.655 76.2013C568.053 76.2013 568.448 76.2706 568.838 76.4093L569.059 75.9413C569.197 75.6553 569.358 75.4516 569.54 75.3303C569.722 75.2003 569.934 75.1353 570.177 75.1353C570.437 75.1353 570.658 75.2133 570.84 75.3693C571.022 75.5166 571.16 75.6856 571.256 75.8763C571.351 76.0583 571.381 76.158 571.347 76.1753L570.229 77.2153C570.627 77.64 570.827 78.1123 570.827 78.6323C570.827 79.291 570.575 79.824 570.073 80.2313C569.579 80.63 568.898 80.851 568.032 80.8943L567.759 80.9073C567.785 80.9766 567.88 81.046 568.045 81.1153C568.105 81.176 568.192 81.228 568.305 81.2713C568.426 81.306 568.595 81.345 568.812 81.3883L569.358 81.5313C569.886 81.6786 570.324 81.904 570.671 82.2073C571.017 82.502 571.191 82.905 571.191 83.4163C571.191 84.0576 570.874 84.569 570.242 84.9503C569.609 85.3316 568.729 85.5223 567.603 85.5223ZM567.668 79.5943C567.945 79.5943 568.17 79.5076 568.344 79.3343C568.526 79.1523 568.617 78.914 568.617 78.6193C568.617 78.3333 568.526 78.1036 568.344 77.9303C568.17 77.7483 567.941 77.6573 567.655 77.6573C567.377 77.6573 567.148 77.7483 566.966 77.9303C566.792 78.1036 566.706 78.3333 566.706 78.6193C566.706 78.914 566.792 79.1523 566.966 79.3343C567.148 79.5076 567.382 79.5943 567.668 79.5943ZM567.655 84.4043C568.079 84.4043 568.396 84.3436 568.604 84.2223C568.82 84.1096 568.929 83.9536 568.929 83.7543C568.929 83.607 568.859 83.49 568.721 83.4033C568.591 83.3166 568.391 83.2386 568.123 83.1693C568.027 83.1433 567.936 83.1173 567.85 83.0913C567.772 83.074 567.694 83.0566 567.616 83.0393C567.217 83.074 566.905 83.1563 566.68 83.2863C566.454 83.4163 566.342 83.5853 566.342 83.7933C566.342 83.984 566.45 84.1313 566.667 84.2353C566.892 84.348 567.221 84.4043 567.655 84.4043Z" fill="#667CC1"/>
<path d="M511.094 111.578C510.695 111.578 510.404 111.501 510.22 111.348C510.051 111.195 509.967 110.942 509.967 110.589V110.014C509.967 109.033 510.174 108.197 510.588 107.507C511.002 106.802 511.523 106.227 512.152 105.782C512.781 105.322 513.57 104.847 514.521 104.356C515.502 103.85 516.208 103.459 516.637 103.183C517.082 102.907 517.465 102.57 517.787 102.171C518.109 101.757 518.27 101.266 518.27 100.699C518.27 99.8711 517.979 99.2041 517.396 98.6981C516.813 98.1921 516.008 97.9391 514.981 97.9391C513.908 97.9391 513.057 98.2305 512.428 98.8131C511.815 99.3805 511.393 100.109 511.163 100.998C511.163 101.044 511.056 101.052 510.841 101.021C510.642 100.99 510.45 100.906 510.266 100.768C510.097 100.615 510.013 100.4 510.013 100.124C510.013 99.8175 510.113 99.4571 510.312 99.0431C510.527 98.6138 510.818 98.2228 511.186 97.8701C511.646 97.4408 512.206 97.0958 512.865 96.8351C513.524 96.5591 514.268 96.4211 515.096 96.4211C516.614 96.4211 517.802 96.8121 518.661 97.5941C519.535 98.3608 519.972 99.3958 519.972 100.699C519.972 101.496 519.788 102.179 519.42 102.746C519.052 103.313 518.577 103.789 517.994 104.172C517.427 104.54 516.66 104.962 515.694 105.437C514.851 105.851 514.153 106.234 513.601 106.587C513.064 106.94 512.62 107.361 512.267 107.852C511.914 108.343 511.715 108.918 511.669 109.577L511.623 110.037H519.42C519.972 110.037 520.248 110.267 520.248 110.727V110.865C520.248 111.34 519.972 111.578 519.42 111.578H511.094ZM526.611 111.831C525.768 111.831 524.994 111.708 524.288 111.463C523.583 111.218 522.993 110.888 522.517 110.474C522.226 110.229 521.988 109.968 521.804 109.692C521.636 109.416 521.551 109.163 521.551 108.933C521.551 108.734 521.613 108.565 521.735 108.427C521.873 108.274 522.019 108.166 522.172 108.105C522.326 108.044 522.418 108.028 522.448 108.059C522.816 108.764 523.361 109.324 524.081 109.738C524.802 110.152 525.645 110.359 526.611 110.359C527.777 110.359 528.704 110.06 529.394 109.462C530.084 108.864 530.429 108.051 530.429 107.024C530.429 106.012 530.1 105.222 529.44 104.655C528.796 104.072 527.922 103.781 526.818 103.781C525.377 103.781 524.181 104.141 523.23 104.862C522.51 104.801 522.149 104.425 522.149 103.735V97.7091C522.149 97.4025 522.234 97.1571 522.402 96.9731C522.571 96.7891 522.801 96.6971 523.092 96.6971H530.567C531.104 96.6971 531.372 96.9348 531.372 97.4101V97.5251C531.372 97.9851 531.104 98.2151 530.567 98.2151H523.736V103.16C524.718 102.623 525.814 102.355 527.025 102.355C528.543 102.355 529.77 102.777 530.705 103.62C531.641 104.448 532.108 105.567 532.108 106.978C532.108 108.481 531.61 109.669 530.613 110.543C529.632 111.402 528.298 111.831 526.611 111.831ZM535.431 111.739C535.401 111.77 535.316 111.762 535.178 111.716C535.056 111.67 534.941 111.593 534.833 111.486C534.726 111.379 534.672 111.248 534.672 111.095C534.672 110.926 534.711 110.773 534.787 110.635C534.864 110.482 535.002 110.29 535.201 110.06L546.517 96.4441C546.548 96.4135 546.632 96.4211 546.77 96.4671C546.908 96.5131 547.031 96.5898 547.138 96.6971C547.246 96.8045 547.299 96.9348 547.299 97.0881C547.299 97.3641 547.115 97.7168 546.747 98.1461L535.431 111.739ZM537.041 103.482C536.413 103.482 535.838 103.336 535.316 103.045C534.795 102.738 534.389 102.324 534.097 101.803C533.806 101.282 533.66 100.707 533.66 100.078V99.9171C533.66 99.2885 533.806 98.7135 534.097 98.1921C534.404 97.6555 534.818 97.2415 535.339 96.9501C535.861 96.6435 536.436 96.4901 537.064 96.4901C537.693 96.4901 538.26 96.6435 538.766 96.9501C539.288 97.2415 539.694 97.6478 539.985 98.1691C540.277 98.6751 540.422 99.2425 540.422 99.8711V100.055C540.422 100.684 540.269 101.259 539.962 101.78C539.671 102.301 539.265 102.715 538.743 103.022C538.237 103.329 537.67 103.482 537.041 103.482ZM537.064 102.332C537.647 102.332 538.13 102.125 538.513 101.711C538.897 101.282 539.088 100.753 539.088 100.124V99.8481C539.088 99.2041 538.889 98.6751 538.49 98.2611C538.107 97.8318 537.624 97.6171 537.041 97.6171C536.459 97.6171 535.968 97.8318 535.569 98.2611C535.186 98.6751 534.994 99.2041 534.994 99.8481V100.124C534.994 100.753 535.186 101.282 535.569 101.711C535.968 102.125 536.466 102.332 537.064 102.332ZM544.999 111.716C544.371 111.716 543.796 111.57 543.274 111.279C542.753 110.972 542.347 110.558 542.055 110.037C541.764 109.516 541.618 108.941 541.618 108.312V108.128C541.618 107.499 541.764 106.924 542.055 106.403C542.362 105.882 542.776 105.468 543.297 105.161C543.819 104.854 544.394 104.701 545.022 104.701C545.651 104.701 546.218 104.854 546.724 105.161C547.246 105.452 547.652 105.859 547.943 106.38C548.235 106.886 548.38 107.453 548.38 108.082V108.289C548.38 108.918 548.227 109.493 547.92 110.014C547.629 110.535 547.223 110.949 546.701 111.256C546.195 111.563 545.628 111.716 544.999 111.716ZM545.022 110.543C545.605 110.543 546.088 110.336 546.471 109.922C546.855 109.508 547.046 108.979 547.046 108.335V108.059C547.046 107.43 546.847 106.909 546.448 106.495C546.065 106.066 545.582 105.851 544.999 105.851C544.401 105.851 543.911 106.058 543.527 106.472C543.159 106.886 542.975 107.415 542.975 108.059V108.335C542.975 108.964 543.167 109.493 543.55 109.922C543.934 110.336 544.424 110.543 545.022 110.543Z" fill="#171717"/>
<path d="M511.764 140.41H510.373C509.983 140.41 509.684 140.314 509.476 140.124C509.277 139.933 509.177 139.651 509.177 139.279V139.227C509.177 138.871 509.277 138.603 509.476 138.421C509.684 138.239 509.983 138.148 510.373 138.148H515.729C516.535 138.148 516.938 138.507 516.938 139.227V139.279C516.938 140.033 516.535 140.41 515.729 140.41H514.377V145.415C514.377 145.805 514.277 146.104 514.078 146.312C513.879 146.52 513.593 146.624 513.22 146.624H512.843C512.124 146.624 511.764 146.221 511.764 145.415V140.41ZM521.404 139.981C521.82 139.981 522.149 140.102 522.392 140.345C522.643 140.587 522.769 140.912 522.769 141.32C522.769 141.623 522.708 141.874 522.587 142.074C522.465 142.273 522.331 142.42 522.184 142.516C522.036 142.611 521.954 142.65 521.937 142.633C521.677 142.407 521.382 142.295 521.053 142.295C520.325 142.295 519.961 142.823 519.961 143.881V145.415C519.961 146.221 519.592 146.624 518.856 146.624H518.596C518.232 146.624 517.95 146.533 517.751 146.351C517.56 146.169 517.465 145.857 517.465 145.415V140.332C517.465 140.28 517.564 140.219 517.764 140.15C517.963 140.08 518.18 140.046 518.414 140.046C519.029 140.046 519.458 140.301 519.701 140.813C519.744 140.891 519.792 141.025 519.844 141.216C519.948 140.843 520.134 140.544 520.403 140.319C520.68 140.093 521.014 139.981 521.404 139.981ZM522.803 143.413C522.803 142.763 522.95 142.178 523.245 141.658C523.54 141.129 523.947 140.717 524.467 140.423C524.987 140.128 525.572 139.981 526.222 139.981C526.863 139.981 527.435 140.119 527.938 140.397C528.449 140.674 528.844 141.055 529.121 141.541C529.407 142.026 529.55 142.576 529.55 143.192V143.309C529.541 143.508 529.498 143.66 529.42 143.764C529.351 143.859 529.225 143.907 529.043 143.907H524.935C524.952 143.993 524.97 144.054 524.987 144.089C525.074 144.392 525.247 144.63 525.507 144.804C525.776 144.968 526.096 145.051 526.469 145.051C526.842 145.051 527.158 144.981 527.418 144.843C527.687 144.695 527.882 144.505 528.003 144.271C528.012 144.245 528.124 144.258 528.341 144.31C528.558 144.353 528.753 144.448 528.926 144.596C529.099 144.734 529.186 144.947 529.186 145.233C529.186 145.449 529.121 145.649 528.991 145.831C528.87 146.013 528.692 146.173 528.458 146.312C527.955 146.598 527.262 146.741 526.378 146.741C525.277 146.741 524.406 146.446 523.765 145.857C523.124 145.267 522.803 144.453 522.803 143.413ZM527.327 142.75C527.31 142.377 527.201 142.091 527.002 141.892C526.803 141.684 526.53 141.58 526.183 141.58C525.854 141.58 525.576 141.692 525.351 141.918C525.126 142.134 524.996 142.412 524.961 142.75H527.327ZM530.077 144.843C530.077 144.158 530.41 143.638 531.078 143.283C531.754 142.927 532.724 142.745 533.99 142.737H534.263C534.263 142.676 534.254 142.602 534.237 142.516C534.176 142.004 533.851 141.749 533.262 141.749C532.612 141.749 532.183 142.004 531.975 142.516C531.957 142.524 531.914 142.533 531.845 142.542C531.784 142.55 531.706 142.555 531.611 142.555C531.281 142.555 530.982 142.49 530.714 142.36C530.454 142.221 530.324 141.978 530.324 141.632C530.324 141.276 530.436 140.982 530.662 140.748C531.104 140.236 532.018 139.981 533.405 139.981C534.549 139.981 535.389 140.215 535.927 140.683C536.464 141.142 536.733 141.84 536.733 142.776V146.39C536.733 146.459 536.629 146.524 536.421 146.585C536.221 146.645 536 146.676 535.758 146.676C535.186 146.676 534.778 146.459 534.536 146.026C534.449 145.852 534.397 145.709 534.38 145.597C534.172 145.943 533.877 146.212 533.496 146.403C533.114 146.593 532.685 146.689 532.209 146.689C531.559 146.689 531.039 146.524 530.649 146.195C530.267 145.857 530.077 145.406 530.077 144.843ZM534.263 143.79L533.912 143.803C532.88 143.82 532.365 144.08 532.365 144.583C532.365 144.773 532.43 144.925 532.56 145.038C532.698 145.15 532.88 145.207 533.106 145.207C533.444 145.207 533.717 145.12 533.925 144.947C534.133 144.765 534.245 144.522 534.263 144.219V143.79ZM538.05 146.273C537.625 146.039 537.413 145.692 537.413 145.233C537.413 145.068 537.456 144.912 537.543 144.765C537.63 144.617 537.725 144.505 537.829 144.427C537.933 144.34 537.994 144.305 538.011 144.323C538.245 144.539 538.548 144.721 538.921 144.869C539.294 145.007 539.684 145.077 540.091 145.077C540.342 145.077 540.533 145.042 540.663 144.973C540.802 144.903 540.871 144.804 540.871 144.674C540.871 144.535 540.797 144.435 540.65 144.375C540.503 144.305 540.234 144.227 539.844 144.141C539.419 144.054 539.055 143.954 538.752 143.842C538.449 143.729 538.176 143.534 537.933 143.257C537.69 142.979 537.569 142.602 537.569 142.126C537.569 141.467 537.82 140.947 538.323 140.566C538.826 140.184 539.523 139.994 540.416 139.994C541.101 139.994 541.655 140.067 542.08 140.215C542.513 140.362 542.812 140.579 542.977 140.865C543.09 141.038 543.146 141.237 543.146 141.463C543.146 141.636 543.098 141.801 543.003 141.957C542.908 142.104 542.799 142.225 542.678 142.321C542.565 142.416 542.5 142.455 542.483 142.438C542.24 142.204 541.946 142.009 541.599 141.853C541.252 141.697 540.919 141.619 540.598 141.619C540.355 141.619 540.169 141.658 540.039 141.736C539.909 141.805 539.844 141.909 539.844 142.048C539.844 142.169 539.909 142.26 540.039 142.321C540.169 142.373 540.386 142.429 540.689 142.49L540.949 142.555C541.391 142.65 541.764 142.754 542.067 142.867C542.379 142.979 542.661 143.174 542.912 143.452C543.172 143.72 543.302 144.089 543.302 144.557C543.302 145.241 543.042 145.77 542.522 146.143C542.011 146.515 541.265 146.702 540.286 146.702C539.289 146.702 538.544 146.559 538.05 146.273ZM549.727 140.046C550.091 140.046 550.368 140.137 550.559 140.319C550.758 140.501 550.858 140.808 550.858 141.242V146.338C550.858 146.381 550.754 146.442 550.546 146.52C550.347 146.589 550.13 146.624 549.896 146.624C549.246 146.624 548.8 146.346 548.557 145.792C548.514 145.653 548.488 145.562 548.479 145.519C548.228 145.9 547.933 146.199 547.595 146.416C547.257 146.624 546.845 146.728 546.36 146.728C545.58 146.728 545.004 146.489 544.631 146.013C544.267 145.536 544.085 144.929 544.085 144.193V141.242C544.085 140.444 544.449 140.046 545.177 140.046H545.437C545.801 140.046 546.083 140.137 546.282 140.319C546.481 140.501 546.581 140.808 546.581 141.242V143.764C546.581 144.058 546.65 144.288 546.789 144.453C546.936 144.617 547.144 144.7 547.413 144.7C547.612 144.7 547.794 144.656 547.959 144.57C548.124 144.474 548.258 144.349 548.362 144.193V141.242C548.362 140.444 548.73 140.046 549.467 140.046H549.727ZM555.935 139.981C556.351 139.981 556.68 140.102 556.923 140.345C557.174 140.587 557.3 140.912 557.3 141.32C557.3 141.623 557.239 141.874 557.118 142.074C556.996 142.273 556.862 142.42 556.715 142.516C556.567 142.611 556.485 142.65 556.468 142.633C556.208 142.407 555.913 142.295 555.584 142.295C554.856 142.295 554.492 142.823 554.492 143.881V145.415C554.492 146.221 554.123 146.624 553.387 146.624H553.127C552.763 146.624 552.481 146.533 552.282 146.351C552.091 146.169 551.996 145.857 551.996 145.415V140.332C551.996 140.28 552.095 140.219 552.295 140.15C552.494 140.08 552.711 140.046 552.945 140.046C553.56 140.046 553.989 140.301 554.232 140.813C554.275 140.891 554.323 141.025 554.375 141.216C554.479 140.843 554.665 140.544 554.934 140.319C555.211 140.093 555.545 139.981 555.935 139.981ZM560.51 149.003C560.284 149.003 560.063 148.955 559.847 148.86C559.639 148.773 559.465 148.669 559.327 148.548C559.197 148.435 559.145 148.357 559.171 148.314L560.224 146.091C559.894 146.021 559.682 145.865 559.587 145.623L557.455 140.748C557.437 140.704 557.498 140.622 557.637 140.501C557.784 140.379 557.966 140.271 558.183 140.176C558.408 140.072 558.633 140.02 558.859 140.02C559.491 140.02 559.92 140.401 560.146 141.164L561.108 143.985L562.005 141.164C562.126 140.756 562.299 140.466 562.525 140.293C562.75 140.111 563.006 140.02 563.292 140.02C563.508 140.02 563.725 140.067 563.942 140.163C564.158 140.258 564.336 140.366 564.475 140.488C564.613 140.609 564.67 140.696 564.644 140.748L561.836 147.885C561.68 148.283 561.489 148.569 561.264 148.743C561.047 148.916 560.796 149.003 560.51 149.003Z" fill="#667CC1"/>
<path d="M511.094 175.359C510.695 175.359 510.404 175.283 510.22 175.129C510.051 174.976 509.967 174.723 509.967 174.37V173.795C509.967 172.814 510.174 171.978 510.588 171.288C511.002 170.583 511.523 170.008 512.152 169.563C512.781 169.103 513.57 168.628 514.521 168.137C515.502 167.631 516.208 167.24 516.637 166.964C517.082 166.688 517.465 166.351 517.787 165.952C518.109 165.538 518.27 165.048 518.27 164.48C518.27 163.652 517.979 162.985 517.396 162.479C516.813 161.973 516.008 161.72 514.981 161.72C513.908 161.72 513.057 162.012 512.428 162.594C511.815 163.162 511.393 163.89 511.163 164.779C511.163 164.825 511.056 164.833 510.841 164.802C510.642 164.772 510.45 164.687 510.266 164.549C510.097 164.396 510.013 164.181 510.013 163.905C510.013 163.599 510.113 163.238 510.312 162.824C510.527 162.395 510.818 162.004 511.186 161.651C511.646 161.222 512.206 160.877 512.865 160.616C513.524 160.34 514.268 160.202 515.096 160.202C516.614 160.202 517.802 160.593 518.661 161.375C519.535 162.142 519.972 163.177 519.972 164.48C519.972 165.278 519.788 165.96 519.42 166.527C519.052 167.095 518.577 167.57 517.994 167.953C517.427 168.321 516.66 168.743 515.694 169.218C514.851 169.632 514.153 170.016 513.601 170.368C513.064 170.721 512.62 171.143 512.267 171.633C511.914 172.124 511.715 172.699 511.669 173.358L511.623 173.818H519.42C519.972 173.818 520.248 174.048 520.248 174.508V174.646C520.248 175.122 519.972 175.359 519.42 175.359H511.094ZM526.611 175.612C525.768 175.612 524.994 175.49 524.288 175.244C523.583 174.999 522.993 174.669 522.517 174.255C522.226 174.01 521.988 173.749 521.804 173.473C521.636 173.197 521.551 172.944 521.551 172.714C521.551 172.515 521.613 172.346 521.735 172.208C521.873 172.055 522.019 171.948 522.172 171.886C522.326 171.825 522.418 171.81 522.448 171.84C522.816 172.546 523.361 173.105 524.081 173.519C524.802 173.933 525.645 174.14 526.611 174.14C527.777 174.14 528.704 173.841 529.394 173.243C530.084 172.645 530.429 171.833 530.429 170.805C530.429 169.793 530.1 169.004 529.44 168.436C528.796 167.854 527.922 167.562 526.818 167.562C525.377 167.562 524.181 167.923 523.23 168.643C522.51 168.582 522.149 168.206 522.149 167.516V161.49C522.149 161.184 522.234 160.938 522.402 160.754C522.571 160.57 522.801 160.478 523.092 160.478H530.567C531.104 160.478 531.372 160.716 531.372 161.191V161.306C531.372 161.766 531.104 161.996 530.567 161.996H523.736V166.941C524.718 166.405 525.814 166.136 527.025 166.136C528.543 166.136 529.77 166.558 530.705 167.401C531.641 168.229 532.108 169.349 532.108 170.759C532.108 172.262 531.61 173.45 530.613 174.324C529.632 175.183 528.298 175.612 526.611 175.612ZM535.431 175.52C535.401 175.551 535.316 175.543 535.178 175.497C535.056 175.451 534.941 175.375 534.833 175.267C534.726 175.16 534.672 175.03 534.672 174.876C534.672 174.708 534.711 174.554 534.787 174.416C534.864 174.263 535.002 174.071 535.201 173.841L546.517 160.225C546.548 160.195 546.632 160.202 546.77 160.248C546.908 160.294 547.031 160.371 547.138 160.478C547.246 160.586 547.299 160.716 547.299 160.869C547.299 161.145 547.115 161.498 546.747 161.927L535.431 175.52ZM537.041 167.263C536.413 167.263 535.838 167.118 535.316 166.826C534.795 166.52 534.389 166.106 534.097 165.584C533.806 165.063 533.66 164.488 533.66 163.859V163.698C533.66 163.07 533.806 162.495 534.097 161.973C534.404 161.437 534.818 161.023 535.339 160.731C535.861 160.425 536.436 160.271 537.064 160.271C537.693 160.271 538.26 160.425 538.766 160.731C539.288 161.023 539.694 161.429 539.985 161.95C540.277 162.456 540.422 163.024 540.422 163.652V163.836C540.422 164.465 540.269 165.04 539.962 165.561C539.671 166.083 539.265 166.497 538.743 166.803C538.237 167.11 537.67 167.263 537.041 167.263ZM537.064 166.113C537.647 166.113 538.13 165.906 538.513 165.492C538.897 165.063 539.088 164.534 539.088 163.905V163.629C539.088 162.985 538.889 162.456 538.49 162.042C538.107 161.613 537.624 161.398 537.041 161.398C536.459 161.398 535.968 161.613 535.569 162.042C535.186 162.456 534.994 162.985 534.994 163.629V163.905C534.994 164.534 535.186 165.063 535.569 165.492C535.968 165.906 536.466 166.113 537.064 166.113ZM544.999 175.497C544.371 175.497 543.796 175.352 543.274 175.06C542.753 174.754 542.347 174.34 542.055 173.818C541.764 173.297 541.618 172.722 541.618 172.093V171.909C541.618 171.281 541.764 170.706 542.055 170.184C542.362 169.663 542.776 169.249 543.297 168.942C543.819 168.636 544.394 168.482 545.022 168.482C545.651 168.482 546.218 168.636 546.724 168.942C547.246 169.234 547.652 169.64 547.943 170.161C548.235 170.667 548.38 171.235 548.38 171.863V172.07C548.38 172.699 548.227 173.274 547.92 173.795C547.629 174.317 547.223 174.731 546.701 175.037C546.195 175.344 545.628 175.497 544.999 175.497ZM545.022 174.324C545.605 174.324 546.088 174.117 546.471 173.703C546.855 173.289 547.046 172.76 547.046 172.116V171.84C547.046 171.212 546.847 170.69 546.448 170.276C546.065 169.847 545.582 169.632 544.999 169.632C544.401 169.632 543.911 169.839 543.527 170.253C543.159 170.667 542.975 171.196 542.975 171.84V172.116C542.975 172.745 543.167 173.274 543.55 173.703C543.934 174.117 544.424 174.324 545.022 174.324Z" fill="#171717"/>
<path d="M509.918 209.908C509.502 209.63 509.294 209.262 509.294 208.803C509.294 208.612 509.355 208.421 509.476 208.231C509.597 208.031 509.732 207.867 509.879 207.737C510.026 207.598 510.117 207.542 510.152 207.568C510.429 207.828 510.802 208.053 511.27 208.244C511.747 208.434 512.197 208.53 512.622 208.53C513.393 208.53 513.779 208.313 513.779 207.88C513.779 207.715 513.718 207.589 513.597 207.503C513.476 207.407 513.328 207.338 513.155 207.295C512.99 207.251 512.704 207.186 512.297 207.1C511.439 206.918 510.754 206.64 510.243 206.268C509.74 205.886 509.489 205.301 509.489 204.513C509.489 203.646 509.797 202.97 510.412 202.485C511.036 201.999 511.92 201.757 513.064 201.757C514.139 201.757 514.966 201.939 515.547 202.303C515.998 202.58 516.223 202.931 516.223 203.356C516.223 203.572 516.154 203.785 516.015 203.993C515.885 204.192 515.738 204.361 515.573 204.5C515.417 204.63 515.326 204.686 515.3 204.669C515.014 204.4 514.672 204.183 514.273 204.019C513.874 203.845 513.48 203.759 513.09 203.759C512.345 203.759 511.972 203.975 511.972 204.409C511.972 204.591 512.059 204.725 512.232 204.812C512.414 204.89 512.713 204.972 513.129 205.059L513.506 205.137C514.425 205.327 515.14 205.626 515.651 206.034C516.162 206.432 516.418 206.991 516.418 207.711C516.418 208.629 516.097 209.331 515.456 209.817C514.823 210.293 513.883 210.532 512.635 210.532C511.422 210.532 510.516 210.324 509.918 209.908ZM519.932 210.532C518.424 210.532 517.67 209.765 517.67 208.231V205.787H517.501C517.181 205.787 516.938 205.717 516.773 205.579C516.609 205.431 516.526 205.219 516.526 204.942V204.799C516.526 204.513 516.609 204.292 516.773 204.136C516.938 203.98 517.181 203.902 517.501 203.902H517.67V203.278C517.67 202.888 517.766 202.593 517.956 202.394C518.147 202.186 518.424 202.082 518.788 202.082H519.009C519.373 202.082 519.646 202.173 519.828 202.355C520.019 202.528 520.114 202.836 520.114 203.278V203.902H520.855C521.505 203.902 521.83 204.183 521.83 204.747V204.89C521.83 205.488 521.497 205.787 520.829 205.787H520.075V207.945C520.075 208.378 520.257 208.595 520.621 208.595C520.899 208.595 521.133 208.46 521.323 208.192C521.367 208.192 521.432 208.231 521.518 208.309C521.605 208.387 521.683 208.495 521.752 208.634C521.83 208.772 521.869 208.933 521.869 209.115C521.869 209.444 521.752 209.734 521.518 209.986C521.354 210.159 521.133 210.293 520.855 210.389C520.587 210.484 520.279 210.532 519.932 210.532ZM522.345 208.634C522.345 207.949 522.679 207.429 523.346 207.074C524.022 206.718 524.993 206.536 526.258 206.528H526.531C526.531 206.467 526.523 206.393 526.505 206.307C526.445 205.795 526.12 205.54 525.53 205.54C524.88 205.54 524.451 205.795 524.243 206.307C524.226 206.315 524.183 206.324 524.113 206.333C524.053 206.341 523.975 206.346 523.879 206.346C523.55 206.346 523.251 206.281 522.982 206.151C522.722 206.012 522.592 205.769 522.592 205.423C522.592 205.067 522.705 204.773 522.93 204.539C523.372 204.027 524.287 203.772 525.673 203.772C526.817 203.772 527.658 204.006 528.195 204.474C528.733 204.933 529.001 205.631 529.001 206.567V210.181C529.001 210.25 528.897 210.315 528.689 210.376C528.49 210.436 528.269 210.467 528.026 210.467C527.454 210.467 527.047 210.25 526.804 209.817C526.718 209.643 526.666 209.5 526.648 209.388C526.44 209.734 526.146 210.003 525.764 210.194C525.383 210.384 524.954 210.48 524.477 210.48C523.827 210.48 523.307 210.315 522.917 209.986C522.536 209.648 522.345 209.197 522.345 208.634ZM526.531 207.581L526.18 207.594C525.149 207.611 524.633 207.871 524.633 208.374C524.633 208.564 524.698 208.716 524.828 208.829C524.967 208.941 525.149 208.998 525.374 208.998C525.712 208.998 525.985 208.911 526.193 208.738C526.401 208.556 526.514 208.313 526.531 208.01V207.581ZM530.046 201.484C530.046 201.432 530.145 201.371 530.345 201.302C530.553 201.232 530.774 201.198 531.008 201.198C531.441 201.198 531.805 201.341 532.1 201.627C532.394 201.913 532.542 202.402 532.542 203.096V206.437L533.829 204.565C533.985 204.305 534.18 204.114 534.414 203.993C534.648 203.871 534.886 203.811 535.129 203.811C535.363 203.811 535.584 203.863 535.792 203.967C536.008 204.062 536.182 204.175 536.312 204.305C536.45 204.435 536.507 204.526 536.481 204.578L534.726 207.035L536.65 209.7C536.676 209.743 536.619 209.83 536.481 209.96C536.342 210.09 536.16 210.207 535.935 210.311C535.718 210.406 535.497 210.454 535.272 210.454C535.012 210.454 534.76 210.393 534.518 210.272C534.284 210.15 534.084 209.955 533.92 209.687L532.542 207.763V209.206C532.542 210.012 532.178 210.415 531.45 210.415H531.19C530.826 210.415 530.544 210.324 530.345 210.142C530.145 209.951 530.046 209.639 530.046 209.206V201.484ZM537.179 202.017C537.179 201.653 537.296 201.362 537.53 201.146C537.772 200.929 538.097 200.821 538.505 200.821C538.912 200.821 539.237 200.929 539.48 201.146C539.722 201.354 539.844 201.644 539.844 202.017C539.844 202.381 539.727 202.671 539.493 202.888C539.259 203.096 538.934 203.2 538.518 203.2C538.11 203.2 537.785 203.096 537.543 202.888C537.3 202.671 537.179 202.381 537.179 202.017ZM537.257 205.033C537.257 204.617 537.356 204.313 537.556 204.123C537.755 203.932 538.028 203.837 538.375 203.837H538.635C538.999 203.837 539.276 203.928 539.467 204.11C539.657 204.292 539.753 204.599 539.753 205.033V209.206C539.753 210.012 539.389 210.415 538.661 210.415H538.401C538.037 210.415 537.755 210.324 537.556 210.142C537.356 209.951 537.257 209.639 537.257 209.206V205.033ZM545.411 203.772C546.191 203.772 546.763 204.01 547.127 204.487C547.499 204.963 547.686 205.57 547.686 206.307V209.206C547.686 210.012 547.317 210.415 546.581 210.415H546.321C545.965 210.415 545.688 210.324 545.489 210.142C545.289 209.951 545.19 209.639 545.19 209.206V206.736C545.19 206.45 545.116 206.224 544.969 206.06C544.83 205.886 544.631 205.8 544.371 205.8C544.163 205.8 543.972 205.847 543.799 205.943C543.634 206.029 543.504 206.151 543.409 206.307V209.206C543.409 210.012 543.04 210.415 542.304 210.415H542.044C541.68 210.415 541.398 210.324 541.199 210.142C541.008 209.96 540.913 209.648 540.913 209.206V204.123C540.913 204.071 541.012 204.01 541.212 203.941C541.411 203.871 541.632 203.837 541.875 203.837C542.221 203.837 542.52 203.932 542.772 204.123C543.023 204.305 543.196 204.586 543.292 204.968C543.82 204.17 544.527 203.772 545.411 203.772ZM551.645 213.093C550.431 213.093 549.543 212.95 548.98 212.664C548.416 212.378 548.135 211.94 548.135 211.351C548.135 210.909 548.312 210.54 548.668 210.246C549.032 209.951 549.508 209.769 550.098 209.7C549.959 209.561 549.89 209.366 549.89 209.115C549.89 208.95 549.937 208.798 550.033 208.66C550.128 208.521 550.258 208.413 550.423 208.335C549.833 208.187 549.374 207.932 549.045 207.568C548.724 207.195 548.564 206.744 548.564 206.216C548.564 205.748 548.698 205.327 548.967 204.955C549.235 204.582 549.604 204.292 550.072 204.084C550.548 203.876 551.09 203.772 551.697 203.772C552.095 203.772 552.49 203.841 552.88 203.98L553.101 203.512C553.239 203.226 553.4 203.022 553.582 202.901C553.764 202.771 553.976 202.706 554.219 202.706C554.479 202.706 554.7 202.784 554.882 202.94C555.064 203.087 555.202 203.256 555.298 203.447C555.393 203.629 555.423 203.728 555.389 203.746L554.271 204.786C554.669 205.21 554.869 205.683 554.869 206.203C554.869 206.861 554.617 207.394 554.115 207.802C553.621 208.2 552.94 208.421 552.074 208.465L551.801 208.478C551.827 208.547 551.922 208.616 552.087 208.686C552.147 208.746 552.234 208.798 552.347 208.842C552.468 208.876 552.637 208.915 552.854 208.959L553.4 209.102C553.928 209.249 554.366 209.474 554.713 209.778C555.059 210.072 555.233 210.475 555.233 210.987C555.233 211.628 554.916 212.139 554.284 212.521C553.651 212.902 552.771 213.093 551.645 213.093ZM551.71 207.165C551.987 207.165 552.212 207.078 552.386 206.905C552.568 206.723 552.659 206.484 552.659 206.19C552.659 205.904 552.568 205.674 552.386 205.501C552.212 205.319 551.983 205.228 551.697 205.228C551.419 205.228 551.19 205.319 551.008 205.501C550.834 205.674 550.748 205.904 550.748 206.19C550.748 206.484 550.834 206.723 551.008 206.905C551.19 207.078 551.424 207.165 551.71 207.165ZM551.697 211.975C552.121 211.975 552.438 211.914 552.646 211.793C552.862 211.68 552.971 211.524 552.971 211.325C552.971 211.177 552.901 211.06 552.763 210.974C552.633 210.887 552.433 210.809 552.165 210.74C552.069 210.714 551.978 210.688 551.892 210.662C551.814 210.644 551.736 210.627 551.658 210.61C551.259 210.644 550.947 210.727 550.722 210.857C550.496 210.987 550.384 211.156 550.384 211.364C550.384 211.554 550.492 211.702 550.709 211.806C550.934 211.918 551.263 211.975 551.697 211.975Z" fill="#667CC1"/>
<path d="M513.578 239.233C513.103 239.233 512.865 238.964 512.865 238.428V226.79C512.681 227.05 512.443 227.257 512.152 227.411C511.861 227.549 511.539 227.618 511.186 227.618C510.649 227.618 510.212 227.464 509.875 227.158C509.63 226.912 509.507 226.621 509.507 226.284C509.507 226.115 509.538 225.962 509.599 225.824C509.676 225.686 509.752 225.578 509.829 225.502C509.921 225.425 509.982 225.394 510.013 225.41C510.335 225.778 510.772 225.962 511.324 225.962C511.815 225.962 512.236 225.793 512.589 225.456C512.957 225.103 513.156 224.674 513.187 224.168H513.808C514.314 224.168 514.567 224.436 514.567 224.973V238.428C514.567 238.964 514.314 239.233 513.808 239.233H513.578ZM522.726 239.394C521.882 239.394 521.108 239.271 520.403 239.026C519.697 238.78 519.107 238.451 518.632 238.037C518.34 237.791 518.103 237.531 517.919 237.255C517.75 236.979 517.666 236.726 517.666 236.496C517.666 236.296 517.727 236.128 517.85 235.99C517.988 235.836 518.133 235.729 518.287 235.668C518.44 235.606 518.532 235.591 518.563 235.622C518.931 236.327 519.475 236.887 520.196 237.301C520.916 237.715 521.76 237.922 522.726 237.922C523.891 237.922 524.819 237.623 525.509 237.025C526.199 236.427 526.544 235.614 526.544 234.587C526.544 233.575 526.214 232.785 525.555 232.218C524.911 231.635 524.037 231.344 522.933 231.344C521.491 231.344 520.295 231.704 519.345 232.425C518.624 232.363 518.264 231.988 518.264 231.298V225.272C518.264 224.965 518.348 224.72 518.517 224.536C518.685 224.352 518.915 224.26 519.207 224.26H526.682C527.218 224.26 527.487 224.497 527.487 224.973V225.088C527.487 225.548 527.218 225.778 526.682 225.778H519.851V230.723C520.832 230.186 521.928 229.918 523.14 229.918C524.658 229.918 525.884 230.339 526.82 231.183C527.755 232.011 528.223 233.13 528.223 234.541C528.223 236.043 527.724 237.232 526.728 238.106C525.746 238.964 524.412 239.394 522.726 239.394ZM531.546 239.302C531.515 239.332 531.431 239.325 531.293 239.279C531.17 239.233 531.055 239.156 530.948 239.049C530.84 238.941 530.787 238.811 530.787 238.658C530.787 238.489 530.825 238.336 530.902 238.198C530.978 238.044 531.116 237.853 531.316 237.623L542.632 224.007C542.662 223.976 542.747 223.984 542.885 224.03C543.023 224.076 543.145 224.152 543.253 224.26C543.36 224.367 543.414 224.497 543.414 224.651C543.414 224.927 543.23 225.279 542.862 225.709L531.546 239.302ZM533.156 231.045C532.527 231.045 531.952 230.899 531.431 230.608C530.909 230.301 530.503 229.887 530.212 229.366C529.92 228.844 529.775 228.269 529.775 227.641V227.48C529.775 226.851 529.92 226.276 530.212 225.755C530.518 225.218 530.932 224.804 531.454 224.513C531.975 224.206 532.55 224.053 533.179 224.053C533.807 224.053 534.375 224.206 534.881 224.513C535.402 224.804 535.808 225.21 536.1 225.732C536.391 226.238 536.537 226.805 536.537 227.434V227.618C536.537 228.246 536.383 228.821 536.077 229.343C535.785 229.864 535.379 230.278 534.858 230.585C534.352 230.891 533.784 231.045 533.156 231.045ZM533.179 229.895C533.761 229.895 534.244 229.688 534.628 229.274C535.011 228.844 535.203 228.315 535.203 227.687V227.411C535.203 226.767 535.003 226.238 534.605 225.824C534.221 225.394 533.738 225.18 533.156 225.18C532.573 225.18 532.082 225.394 531.684 225.824C531.3 226.238 531.109 226.767 531.109 227.411V227.687C531.109 228.315 531.3 228.844 531.684 229.274C532.082 229.688 532.581 229.895 533.179 229.895ZM541.114 239.279C540.485 239.279 539.91 239.133 539.389 238.842C538.867 238.535 538.461 238.121 538.17 237.6C537.878 237.078 537.733 236.503 537.733 235.875V235.691C537.733 235.062 537.878 234.487 538.17 233.966C538.476 233.444 538.89 233.03 539.412 232.724C539.933 232.417 540.508 232.264 541.137 232.264C541.765 232.264 542.333 232.417 542.839 232.724C543.36 233.015 543.766 233.421 544.058 233.943C544.349 234.449 544.495 235.016 544.495 235.645V235.852C544.495 236.48 544.341 237.055 544.035 237.577C543.743 238.098 543.337 238.512 542.816 238.819C542.31 239.125 541.742 239.279 541.114 239.279ZM541.137 238.106C541.719 238.106 542.202 237.899 542.586 237.485C542.969 237.071 543.161 236.542 543.161 235.898V235.622C543.161 234.993 542.961 234.472 542.563 234.058C542.179 233.628 541.696 233.414 541.114 233.414C540.516 233.414 540.025 233.621 539.642 234.035C539.274 234.449 539.09 234.978 539.09 235.622V235.898C539.09 236.526 539.281 237.055 539.665 237.485C540.048 237.899 540.539 238.106 541.137 238.106Z" fill="#171717"/>
<path d="M510.971 274.127C510.538 274.127 510.204 274.006 509.97 273.763C509.745 273.52 509.632 273.165 509.632 272.697V266.86C509.632 266.054 510 265.651 510.737 265.651H511.101C511.864 265.651 512.245 266.054 512.245 266.86V271.852H514.767C515.573 271.852 515.976 272.216 515.976 272.944V272.983C515.976 273.746 515.573 274.127 514.767 274.127H510.971ZM516.638 265.794C516.638 265.43 516.755 265.14 516.989 264.923C517.231 264.706 517.556 264.598 517.964 264.598C518.371 264.598 518.696 264.706 518.939 264.923C519.181 265.131 519.303 265.421 519.303 265.794C519.303 266.158 519.186 266.448 518.952 266.665C518.718 266.873 518.393 266.977 517.977 266.977C517.569 266.977 517.244 266.873 517.002 266.665C516.759 266.448 516.638 266.158 516.638 265.794ZM516.716 268.81C516.716 268.394 516.815 268.091 517.015 267.9C517.214 267.709 517.487 267.614 517.834 267.614H518.094C518.458 267.614 518.735 267.705 518.926 267.887C519.116 268.069 519.212 268.377 519.212 268.81V272.983C519.212 273.789 518.848 274.192 518.12 274.192H517.86C517.496 274.192 517.214 274.101 517.015 273.919C516.815 273.728 516.716 273.416 516.716 272.983V268.81ZM526.417 267.614C526.651 267.614 526.867 267.649 527.067 267.718C527.275 267.787 527.379 267.848 527.379 267.9V275.44C527.379 275.873 527.279 276.181 527.08 276.363C526.889 276.545 526.612 276.636 526.248 276.636H525.988C525.251 276.636 524.883 276.237 524.883 275.44V273.191C524.709 273.529 524.458 273.802 524.129 274.01C523.799 274.209 523.427 274.309 523.011 274.309C522.43 274.309 521.919 274.166 521.477 273.88C521.035 273.594 520.692 273.195 520.45 272.684C520.207 272.164 520.086 271.575 520.086 270.916C520.086 270.231 520.207 269.638 520.45 269.135C520.692 268.624 521.035 268.234 521.477 267.965C521.919 267.688 522.434 267.549 523.024 267.549C523.474 267.549 523.882 267.653 524.246 267.861C524.61 268.06 524.865 268.333 525.013 268.68V268.667C525.117 268.277 525.294 268.004 525.546 267.848C525.806 267.692 526.096 267.614 526.417 267.614ZM524.883 270.201C524.779 269.976 524.627 269.802 524.428 269.681C524.237 269.551 524.007 269.486 523.739 269.486C523.349 269.486 523.037 269.616 522.803 269.876C522.569 270.136 522.452 270.487 522.452 270.929C522.452 271.354 522.564 271.7 522.79 271.969C523.024 272.238 523.327 272.372 523.7 272.372C524.046 272.372 524.328 272.272 524.545 272.073C524.77 271.865 524.883 271.583 524.883 271.228V270.201ZM534.099 267.614C534.463 267.614 534.741 267.705 534.931 267.887C535.131 268.069 535.23 268.377 535.23 268.81V273.906C535.23 273.949 535.126 274.01 534.918 274.088C534.719 274.157 534.502 274.192 534.268 274.192C533.618 274.192 533.172 273.915 532.929 273.36C532.886 273.221 532.86 273.13 532.851 273.087C532.6 273.468 532.305 273.767 531.967 273.984C531.629 274.192 531.218 274.296 530.732 274.296C529.952 274.296 529.376 274.058 529.003 273.581C528.639 273.104 528.457 272.498 528.457 271.761V268.81C528.457 268.013 528.821 267.614 529.549 267.614H529.809C530.173 267.614 530.455 267.705 530.654 267.887C530.854 268.069 530.953 268.377 530.953 268.81V271.332C530.953 271.627 531.023 271.856 531.161 272.021C531.309 272.186 531.517 272.268 531.785 272.268C531.985 272.268 532.167 272.225 532.331 272.138C532.496 272.043 532.63 271.917 532.734 271.761V268.81C532.734 268.013 533.103 267.614 533.839 267.614H534.099ZM536.29 265.794C536.29 265.43 536.407 265.14 536.641 264.923C536.884 264.706 537.209 264.598 537.616 264.598C538.023 264.598 538.348 264.706 538.591 264.923C538.834 265.131 538.955 265.421 538.955 265.794C538.955 266.158 538.838 266.448 538.604 266.665C538.37 266.873 538.045 266.977 537.629 266.977C537.222 266.977 536.897 266.873 536.654 266.665C536.411 266.448 536.29 266.158 536.29 265.794ZM536.368 268.81C536.368 268.394 536.468 268.091 536.667 267.9C536.866 267.709 537.139 267.614 537.486 267.614H537.746C538.11 267.614 538.387 267.705 538.578 267.887C538.769 268.069 538.864 268.377 538.864 268.81V272.983C538.864 273.789 538.5 274.192 537.772 274.192H537.512C537.148 274.192 536.866 274.101 536.667 273.919C536.468 273.728 536.368 273.416 536.368 272.983V268.81ZM542.663 274.309C542.082 274.309 541.571 274.166 541.129 273.88C540.687 273.594 540.345 273.195 540.102 272.684C539.859 272.164 539.738 271.575 539.738 270.916C539.738 270.231 539.859 269.638 540.102 269.135C540.345 268.624 540.687 268.234 541.129 267.965C541.571 267.688 542.087 267.549 542.676 267.549C543.075 267.549 543.434 267.631 543.755 267.796C544.084 267.952 544.344 268.164 544.535 268.433V265.261C544.535 265.209 544.635 265.148 544.834 265.079C545.042 265.01 545.263 264.975 545.497 264.975C545.93 264.975 546.294 265.118 546.589 265.404C546.884 265.69 547.031 266.18 547.031 266.873V272.983C547.031 273.789 546.663 274.192 545.926 274.192H545.679C545.402 274.192 545.172 274.14 544.99 274.036C544.817 273.932 544.695 273.754 544.626 273.503C544.591 273.356 544.57 273.23 544.561 273.126C544.388 273.49 544.132 273.78 543.794 273.997C543.465 274.205 543.088 274.309 542.663 274.309ZM544.535 270.201C544.431 269.976 544.279 269.802 544.08 269.681C543.889 269.551 543.66 269.486 543.391 269.486C543.001 269.486 542.689 269.616 542.455 269.876C542.221 270.136 542.104 270.487 542.104 270.929C542.104 271.354 542.217 271.7 542.442 271.969C542.676 272.238 542.979 272.372 543.352 272.372C543.699 272.372 543.98 272.272 544.197 272.073C544.422 271.865 544.535 271.588 544.535 271.241V270.201ZM548.185 265.794C548.185 265.43 548.302 265.14 548.536 264.923C548.779 264.706 549.104 264.598 549.511 264.598C549.919 264.598 550.244 264.706 550.486 264.923C550.729 265.131 550.85 265.421 550.85 265.794C550.85 266.158 550.733 266.448 550.499 266.665C550.265 266.873 549.94 266.977 549.524 266.977C549.117 266.977 548.792 266.873 548.549 266.665C548.307 266.448 548.185 266.158 548.185 265.794ZM548.263 268.81C548.263 268.394 548.363 268.091 548.562 267.9C548.762 267.709 549.035 267.614 549.381 267.614H549.641C550.005 267.614 550.283 267.705 550.473 267.887C550.664 268.069 550.759 268.377 550.759 268.81V272.983C550.759 273.789 550.395 274.192 549.667 274.192H549.407C549.043 274.192 548.762 274.101 548.562 273.919C548.363 273.728 548.263 273.416 548.263 272.983V268.81ZM554.832 274.309C553.324 274.309 552.57 273.542 552.57 272.008V269.564H552.401C552.08 269.564 551.837 269.495 551.673 269.356C551.508 269.209 551.426 268.996 551.426 268.719V268.576C551.426 268.29 551.508 268.069 551.673 267.913C551.837 267.757 552.08 267.679 552.401 267.679H552.57V267.055C552.57 266.665 552.665 266.37 552.856 266.171C553.046 265.963 553.324 265.859 553.688 265.859H553.909C554.273 265.859 554.546 265.95 554.728 266.132C554.918 266.305 555.014 266.613 555.014 267.055V267.679H555.755C556.405 267.679 556.73 267.961 556.73 268.524V268.667C556.73 269.265 556.396 269.564 555.729 269.564H554.975V271.722C554.975 272.155 555.157 272.372 555.521 272.372C555.798 272.372 556.032 272.238 556.223 271.969C556.266 271.969 556.331 272.008 556.418 272.086C556.504 272.164 556.582 272.272 556.652 272.411C556.73 272.55 556.769 272.71 556.769 272.892C556.769 273.221 556.652 273.512 556.418 273.763C556.253 273.936 556.032 274.071 555.755 274.166C555.486 274.261 555.178 274.309 554.832 274.309ZM560.053 276.571C559.827 276.571 559.606 276.523 559.39 276.428C559.182 276.341 559.008 276.237 558.87 276.116C558.74 276.003 558.688 275.925 558.714 275.882L559.767 273.659C559.437 273.59 559.225 273.434 559.13 273.191L556.998 268.316C556.98 268.273 557.041 268.19 557.18 268.069C557.327 267.948 557.509 267.839 557.726 267.744C557.951 267.64 558.176 267.588 558.402 267.588C559.034 267.588 559.463 267.969 559.689 268.732L560.651 271.553L561.548 268.732C561.669 268.325 561.842 268.034 562.068 267.861C562.293 267.679 562.549 267.588 562.835 267.588C563.051 267.588 563.268 267.636 563.485 267.731C563.701 267.826 563.879 267.935 564.018 268.056C564.156 268.177 564.213 268.264 564.187 268.316L561.379 275.453C561.223 275.852 561.032 276.138 560.807 276.311C560.59 276.484 560.339 276.571 560.053 276.571Z" fill="#667CC1"/>
<path d="M513.578 303.01C513.103 303.01 512.865 302.742 512.865 302.205V290.567C512.681 290.828 512.443 291.035 512.152 291.188C511.861 291.326 511.539 291.395 511.186 291.395C510.649 291.395 510.212 291.242 509.875 290.935C509.63 290.69 509.507 290.398 509.507 290.061C509.507 289.892 509.538 289.739 509.599 289.601C509.676 289.463 509.752 289.356 509.829 289.279C509.921 289.202 509.982 289.172 510.013 289.187C510.335 289.555 510.772 289.739 511.324 289.739C511.815 289.739 512.236 289.57 512.589 289.233C512.957 288.88 513.156 288.451 513.187 287.945H513.808C514.314 287.945 514.567 288.213 514.567 288.75V302.205C514.567 302.742 514.314 303.01 513.808 303.01H513.578ZM524.06 303.171C522.864 303.171 521.821 302.895 520.932 302.343C520.058 301.776 519.383 300.971 518.908 299.928C518.432 298.885 518.195 297.659 518.195 296.248V294.73C518.195 293.319 518.432 292.093 518.908 291.05C519.383 289.992 520.065 289.187 520.955 288.635C521.844 288.068 522.887 287.784 524.083 287.784C525.294 287.784 526.344 288.068 527.234 288.635C528.123 289.187 528.805 289.984 529.281 291.027C529.756 292.07 529.994 293.296 529.994 294.707V296.202C529.994 297.613 529.748 298.847 529.258 299.905C528.782 300.948 528.1 301.753 527.211 302.32C526.321 302.887 525.271 303.171 524.06 303.171ZM524.083 301.699C525.401 301.699 526.421 301.224 527.142 300.273C527.878 299.322 528.246 297.988 528.246 296.271V294.707C528.246 292.99 527.878 291.648 527.142 290.682C526.406 289.716 525.386 289.233 524.083 289.233C522.779 289.233 521.76 289.716 521.024 290.682C520.303 291.633 519.943 292.959 519.943 294.661V296.248C519.943 297.95 520.311 299.284 521.047 300.25C521.783 301.216 522.795 301.699 524.083 301.699ZM533.792 303.079C533.761 303.11 533.677 303.102 533.539 303.056C533.416 303.01 533.301 302.933 533.194 302.826C533.086 302.719 533.033 302.588 533.033 302.435C533.033 302.266 533.071 302.113 533.148 301.975C533.224 301.822 533.362 301.63 533.562 301.4L544.878 287.784C544.908 287.753 544.993 287.761 545.131 287.807C545.269 287.853 545.391 287.93 545.499 288.037C545.606 288.144 545.66 288.275 545.66 288.428C545.66 288.704 545.476 289.057 545.108 289.486L533.792 303.079ZM535.402 294.822C534.773 294.822 534.198 294.676 533.677 294.385C533.155 294.078 532.749 293.664 532.458 293.143C532.166 292.622 532.021 292.047 532.021 291.418V291.257C532.021 290.628 532.166 290.053 532.458 289.532C532.764 288.995 533.178 288.581 533.7 288.29C534.221 287.983 534.796 287.83 535.425 287.83C536.053 287.83 536.621 287.983 537.127 288.29C537.648 288.581 538.054 288.988 538.346 289.509C538.637 290.015 538.783 290.582 538.783 291.211V291.395C538.783 292.024 538.629 292.599 538.323 293.12C538.031 293.641 537.625 294.055 537.104 294.362C536.598 294.669 536.03 294.822 535.402 294.822ZM535.425 293.672C536.007 293.672 536.49 293.465 536.874 293.051C537.257 292.622 537.449 292.093 537.449 291.464V291.188C537.449 290.544 537.249 290.015 536.851 289.601C536.467 289.172 535.984 288.957 535.402 288.957C534.819 288.957 534.328 289.172 533.93 289.601C533.546 290.015 533.355 290.544 533.355 291.188V291.464C533.355 292.093 533.546 292.622 533.93 293.051C534.328 293.465 534.827 293.672 535.425 293.672ZM543.36 303.056C542.731 303.056 542.156 302.91 541.635 302.619C541.113 302.312 540.707 301.898 540.416 301.377C540.124 300.856 539.979 300.281 539.979 299.652V299.468C539.979 298.839 540.124 298.264 540.416 297.743C540.722 297.222 541.136 296.808 541.658 296.501C542.179 296.194 542.754 296.041 543.383 296.041C544.011 296.041 544.579 296.194 545.085 296.501C545.606 296.792 546.012 297.199 546.304 297.72C546.595 298.226 546.741 298.793 546.741 299.422V299.629C546.741 300.258 546.587 300.833 546.281 301.354C545.989 301.875 545.583 302.289 545.062 302.596C544.556 302.903 543.988 303.056 543.36 303.056ZM543.383 301.883C543.965 301.883 544.448 301.676 544.832 301.262C545.215 300.848 545.407 300.319 545.407 299.675V299.399C545.407 298.77 545.207 298.249 544.809 297.835C544.425 297.406 543.942 297.191 543.36 297.191C542.762 297.191 542.271 297.398 541.888 297.812C541.52 298.226 541.336 298.755 541.336 299.399V299.675C541.336 300.304 541.527 300.833 541.911 301.262C542.294 301.676 542.785 301.883 543.383 301.883Z" fill="#171717"/>
<rect x="485.047" y="284.619" width="8" height="8" rx="4" fill="#F7C9FF"/>
</svg>
