<svg width="33" height="32" viewBox="0 0 33 32" fill="none" xmlns="http://www.w3.org/2000/svg">
<path d="M32.0469 16C32.0469 7.43959 25.1073 0.5 16.5469 0.5C7.98646 0.5 1.04688 7.43959 1.04688 16C1.04688 24.5604 7.98646 31.5 16.5469 31.5C25.1073 31.5 32.0469 24.5604 32.0469 16Z" stroke="#171717"/>
<path d="M19.4201 10C17.9007 10 16.6689 11.2312 16.6689 12.75C16.6689 12.9795 16.697 13.2024 16.75 13.4156C15.0969 13.4156 12.4969 13.0556 10.5469 10.6111C10.5469 16.7222 13.1469 18.4537 14.4469 18.5556C13.4719 19.4722 11.9527 20.1508 10.5469 20.2784C11.1517 20.801 13.0461 20.9772 13.9177 21C18.425 21 22.0884 17.3887 22.1699 12.9028C23.0344 12.3677 23.4449 10.917 23.5469 10.6111C23.1258 11.0321 22.2469 11.2222 21.5466 11.005C21.042 10.3914 20.2768 10 19.4201 10Z" fill="#171717"/>
</svg>
